<svg id="Layer_1" data-name="Layer 1" xmlns="http://www.w3.org/2000/svg" viewBox="0 0 8.8238 8.79692">
  <defs>
    <style>
      .cls-1, .cls-2 {
        fill: none;
        stroke: #000;
        stroke-width: 0.25px;
      }

      .cls-2 {
        stroke-miterlimit: 10;
      }
    </style>
  </defs>
  <path d="M149.80466,140.48686a4.39863,4.39863,0,1,1-4.43921,4.40564A4.36993,4.36993,0,0,1,149.80466,140.48686Zm-4.13681,4.40545a4.11936,4.11936,0,1,0,4.0895-4.11754A4.10561,4.10561,0,0,0,145.66785,144.89231Z" transform="translate(-145.36544 -140.48684)"/>
  <g>
    <path id="Shape" d="M148.799,144.12787c-.751,0-.92.47692-.92.644a.307.307,0,0,0,.30667.30666h1.22664a.307.307,0,0,0,.30666-.30666c0-.16707-.169-.644-.92-.644Zm.58041.20632c-.12879.24751-.20546.294-.22828.28259s-.03305-.10086.08538-.35469A.79369.79369,0,0,1,149.37937,144.33419Zm-.45824-.1403a.6593.6593,0,0,1-.07467.403.06307.06307,0,0,1-.09507,0,.65937.65937,0,0,1-.07467-.403c.03886-.003.07949-.00469.12224-.00469s.08338.00166.12217.00469Zm-.55969.0682c.11844.25383.10841.34346.08541.35469s-.09963-.03518-.22831-.28259A.793.793,0,0,1,148.36144,144.26209Zm1.05084.75509h-1.22664a.2456.2456,0,0,1-.24533-.24532.556.556,0,0,1,.22772-.40173c.10865.20758.19792.30973.27112.30973a.07777.07777,0,0,0,.03484-.00828c.02965-.01466.11815-.05857-.05425-.43006a1.111,1.111,0,0,1,.19553-.04162.72075.72075,0,0,0,.092.43945.12435.12435,0,0,0,.18332,0,.7203.7203,0,0,0,.092-.43945,1.11136,1.11136,0,0,1,.19553.04162c-.17235.37167-.08384.41558-.0541.43027a.07722.07722,0,0,0,.03481.00825c.07317,0,.16253-.10227.27112-.30973a.55558.55558,0,0,1,.22766.40155.2456.2456,0,0,1-.24533.24532Z" transform="translate(-145.36544 -140.48684)"/>
    <path id="Shape-2" data-name="Shape" d="M148.18563,144.90985a.12266.12266,0,0,1-.12266-.12266.03067.03067,0,1,0-.06133,0,.18418.18418,0,0,0,.184.184.03067.03067,0,0,0,0-.06134Z" transform="translate(-145.36544 -140.48684)"/>
    <circle id="Oval" cx="2.75886" cy="4.08569" r="0.03067"/>
    <circle id="Oval-2" data-name="Oval" cx="2.69753" cy="4.17769" r="0.03067"/>
    <circle id="Oval-3" data-name="Oval" cx="2.82019" cy="4.17769" r="0.03067"/>
  </g>
  <g>
    <path d="M150.08724,146.33459a.40605.40605,0,0,0-.20717-.09057,1.30547,1.30547,0,0,0-2.06133-.00081.44048.44048,0,0,0-.189.07615.16525.16525,0,0,0-.06858.11038.16068.16068,0,0,0,.03341.12426.18041.18041,0,0,0,.20683.05494l.14442.34852c.017.041.05237.12641.14762.12641h1.51144c.09524,0,.13062-.08538.14762-.12641l.14421-.348a.18214.18214,0,0,0,.19057-.03716.1625.1625,0,0,0,0-.23768Zm-1.23809-.49917a1.132,1.132,0,0,1,.90783.40385.41669.41669,0,0,0-.19253.06449.12053.12053,0,0,1-.15832,0,.46344.46344,0,0,0-.47806,0,.12051.12051,0,0,1-.15831,0,.46345.46345,0,0,0-.47807,0,.12051.12051,0,0,1-.15831,0,.41663.41663,0,0,0-.19207-.06444A1.13219,1.13219,0,0,1,148.84915,145.83542Zm.80962,1.08676c-.02275.05491-.037.06565-.05389.06565h-1.51145c-.01691,0-.03115-.01074-.0539-.06565l-.14448-.34868a.15129.15129,0,0,1,.07845.02962.46345.46345,0,0,0,.47807,0,.12054.12054,0,0,1,.15831,0,.46344.46344,0,0,0,.47806,0,.12056.12056,0,0,1,.15832,0,.46344.46344,0,0,0,.47806,0,.15042.15042,0,0,1,.07893-.02963Zm.35726-.41782a.07809.07809,0,0,1-.09718.00784l-.00318-.002a.21052.21052,0,0,0-.11219-.03275.24511.24511,0,0,0-.13172.04374.35857.35857,0,0,1-.37294,0,.2202.2202,0,0,0-.26344,0,.35859.35859,0,0,1-.373,0,.2202.2202,0,0,0-.26344,0,.35859.35859,0,0,1-.373,0,.245.245,0,0,0-.13172-.04374.21839.21839,0,0,0-.12.03727.07822.07822,0,0,1-.09922-.01834.06862.06862,0,0,1-.01426-.053.07055.07055,0,0,1,.02928-.04712.34835.34835,0,0,1,.20416-.06281.31945.31945,0,0,1,.18648.0523.22023.22023,0,0,0,.26343,0,.35859.35859,0,0,1,.373,0,.22024.22024,0,0,0,.26344,0,.35859.35859,0,0,1,.373,0,.22024.22024,0,0,0,.26344,0,.31941.31941,0,0,1,.18647-.0523.35327.35327,0,0,1,.21255.06913.06964.06964,0,0,1,0,.10183Z" transform="translate(-145.36544 -140.48684)"/>
    <path d="M148.84934,146.1338a.04924.04924,0,0,0,.05038-.048v-.096a.05044.05044,0,0,0-.10076,0v.096A.04923.04923,0,0,0,148.84934,146.1338Z" transform="translate(-145.36544 -140.48684)"/>
    <path d="M148.51949,146.11974a.05153.05153,0,0,0,.03563-.01407l.07125-.0679a.04645.04645,0,0,0,0-.06791.05216.05216,0,0,0-.07125,0l-.07126.06791a.04644.04644,0,0,0,0,.0679A.05153.05153,0,0,0,148.51949,146.11974Z" transform="translate(-145.36544 -140.48684)"/>
    <path d="M149.14356,146.10568a.05216.05216,0,0,0,.07125,0,.04645.04645,0,0,0,0-.06791l-.07126-.0679a.05216.05216,0,0,0-.07125,0,.04644.04644,0,0,0,0,.0679Z" transform="translate(-145.36544 -140.48684)"/>
  </g>
  <g>
    <path d="M148.036,142.24017a.06453.06453,0,1,0-.06452.066A.06528.06528,0,0,0,148.036,142.24017Zm-.08287,0a.01841.01841,0,1,1,.01836.01981A.01912.01912,0,0,1,147.95317,142.24017Z" transform="translate(-145.36544 -140.48684)"/>
    <path d="M148.20294,142.37243a.066.066,0,1,0-.06451-.066A.06532.06532,0,0,0,148.20294,142.37243Zm0-.08572a.01984.01984,0,1,1-.01836.01976A.01912.01912,0,0,1,148.20294,142.28671Z" transform="translate(-145.36544 -140.48684)"/>
    <path d="M148.4082,142.27337a.39668.39668,0,0,0-.13455-.18642.39368.39368,0,0,0-.374-.05562.02307.02307,0,1,0,.016.04328.34737.34737,0,0,1,.45335.22764.02308.02308,0,0,0,.022.01657.19044.19044,0,1,1-.10734.34854.02308.02308,0,0,0-.02757.0013.34683.34683,0,0,1-.44,0,.0231.0231,0,0,0-.02756-.00131.19042.19042,0,1,1-.10734-.34853.02309.02309,0,0,0,.022-.01658.34481.34481,0,0,1,.06852-.12679.02308.02308,0,0,0-.0352-.02985.3908.3908,0,0,0-.07258.12777.23662.23662,0,0,0-.02725.468l.04624.30738a.07836.07836,0,0,0,.07491.07184h.572a.07835.07835,0,0,0,.0749-.07182l.04683-.31118a.23661.23661,0,0,0-.04339-.46426Zm-.65038.80111c-.01685,0-.02684-.01633-.02926-.03253l-.04455-.29611,0,0a.23527.23527,0,0,0,.11584-.0312.38684.38684,0,0,0,.03689.02458l.0232.33528Zm.26291,0h-.11452l-.02155-.31134a.3937.3937,0,0,0,.13607.03006Zm.16068,0h-.11453v-.2822a.39393.39393,0,0,0,.13662-.03626Zm.17771-.03251c-.00242.01618-.01241.03251-.02926.03251h-.10219l.024-.34537.02063-.01449a.23506.23506,0,0,0,.11753.03123l.00663-.0001.00179-.00007.00485-.00021.00069,0Z" transform="translate(-145.36544 -140.48684)"/>
    <path d="M147.753,142.45241a.06453.06453,0,1,0,.06451-.066A.0653.0653,0,0,0,147.753,142.45241Zm.08286,0a.01841.01841,0,1,1-.01835-.01982A.0191.0191,0,0,1,147.83584,142.45241Z" transform="translate(-145.36544 -140.48684)"/>
    <path d="M148.0753,142.53008a.06452.06452,0,1,0,.06451-.0659A.06532.06532,0,0,0,148.0753,142.53008Zm.06451-.01975a.01984.01984,0,1,1-.01836.01975A.01912.01912,0,0,1,148.13981,142.51033Z" transform="translate(-145.36544 -140.48684)"/>
    <path d="M147.81962,142.124a.023.023,0,0,0,.0144-.00506l.00033-.00027a.02307.02307,0,1,0-.02883-.036l-.00033.00026a.02308.02308,0,0,0,.01443.0411Z" transform="translate(-145.36544 -140.48684)"/>
  </g>
  <line class="cls-1" x1="5.3025" y1="6.75758" x2="1.60037" y2="6.75758"/>
  <line class="cls-1" x1="5.20676" y1="4.74654" x2="1.50463" y2="4.74654"/>
  <line class="cls-2" x1="5.20676" y1="2.84002" x2="1.50463" y2="2.84002"/>
  <g>
    <path d="M149.65474,142.24017a.06453.06453,0,1,0-.06452.066A.06528.06528,0,0,0,149.65474,142.24017Zm-.08287,0a.01841.01841,0,1,1,.01836.01981A.01912.01912,0,0,1,149.57187,142.24017Z" transform="translate(-145.36544 -140.48684)"/>
    <path d="M149.82164,142.37243a.066.066,0,1,0-.06451-.066A.06532.06532,0,0,0,149.82164,142.37243Zm0-.08572a.01984.01984,0,1,1-.01836.01976A.01911.01911,0,0,1,149.82164,142.28671Z" transform="translate(-145.36544 -140.48684)"/>
    <path d="M150.0269,142.27337a.39668.39668,0,0,0-.13455-.18642.39368.39368,0,0,0-.374-.05562.02307.02307,0,1,0,.016.04328.34737.34737,0,0,1,.45335.22764.02308.02308,0,0,0,.022.01657.19044.19044,0,1,1-.10734.34854.02308.02308,0,0,0-.02757.0013.34683.34683,0,0,1-.44,0,.0231.0231,0,0,0-.02756-.00131.19042.19042,0,1,1-.10734-.34853.02308.02308,0,0,0,.022-.01658.34481.34481,0,0,1,.06852-.12679.02308.02308,0,0,0-.0352-.02985.3908.3908,0,0,0-.07258.12777.23662.23662,0,0,0-.02724.468l.04623.30738a.07837.07837,0,0,0,.07491.07184h.572a.07834.07834,0,0,0,.0749-.07182l.04683-.31118a.23661.23661,0,0,0-.04339-.46426Zm-.65038.80111c-.01685,0-.02684-.01633-.02926-.03253l-.04455-.29611,0,0a.23527.23527,0,0,0,.11584-.0312.38939.38939,0,0,0,.03689.02458l.0232.33528Zm.26291,0h-.11452l-.02154-.31134a.39359.39359,0,0,0,.13606.03006Zm.16068,0h-.11453v-.2822a.39393.39393,0,0,0,.13662-.03626Zm.17771-.03251c-.00242.01618-.01241.03251-.02926.03251h-.10219l.02395-.34537.02064-.01449a.235.235,0,0,0,.11752.03123l.00663-.0001.00179-.00007.00486-.00021.00068,0Z" transform="translate(-145.36544 -140.48684)"/>
    <path d="M149.37168,142.45241a.06453.06453,0,1,0,.06451-.066A.0653.0653,0,0,0,149.37168,142.45241Zm.08286,0a.01841.01841,0,1,1-.01835-.01982A.0191.0191,0,0,1,149.45454,142.45241Z" transform="translate(-145.36544 -140.48684)"/>
    <path d="M149.694,142.53008a.06452.06452,0,1,0,.06451-.0659A.06532.06532,0,0,0,149.694,142.53008Zm.06451-.01975a.01984.01984,0,1,1-.01836.01975A.01912.01912,0,0,1,149.75851,142.51033Z" transform="translate(-145.36544 -140.48684)"/>
    <path d="M149.43832,142.124a.023.023,0,0,0,.0144-.00506l.00033-.00027a.02307.02307,0,1,0-.02883-.036l-.00033.00026a.02308.02308,0,0,0,.01443.0411Z" transform="translate(-145.36544 -140.48684)"/>
  </g>
  <path d="M151.97949,142.67443h-.00195l-.11328.061-.01758-.06738.14355-.07666h.0752v.65478h-.08594Z" transform="translate(-145.36544 -140.48684)"/>
  <path d="M151.74707,145.08929v-.0542l.07031-.06787c.167-.1587.24219-.24366.24317-.34229a.11682.11682,0,0,0-.12989-.12793.2207.2207,0,0,0-.13867.05567l-.02832-.0625a.28409.28409,0,0,1,.18555-.06641.18423.18423,0,0,1,.20019.19043c0,.1206-.08789.21826-.22558.35107l-.05274.04834v.002h.29395v.07373Z" transform="translate(-145.36544 -140.48684)"/>
  <path d="M151.77588,147.00625a.29912.29912,0,0,0,.14551.041c.11328,0,.14843-.07226.14746-.12695-.001-.09131-.083-.13086-.16895-.13086h-.0498V146.723h.0498c.06446,0,.14551-.0332.14551-.11084,0-.05224-.0332-.09863-.11426-.09863a.24052.24052,0,0,0-.13086.04346l-.02343-.06446a.30864.30864,0,0,1,.17089-.05029c.12891,0,.1875.07617.1875.15576a.16219.16219,0,0,1-.12109.1543v.00195a.17066.17066,0,0,1,.14648.16846c0,.10449-.082.19629-.23828.19629a.33493.33493,0,0,1-.1709-.04444Z" transform="translate(-145.36544 -140.48684)"/>
</svg>
