<svg id="Layer_1" data-name="Layer 1" xmlns="http://www.w3.org/2000/svg" viewBox="0 0 8.84031 8.83943">
  <g>
    <path d="M145.57984,150.01564a4.42017,4.42017,0,1,1,4.41767,4.40408A4.35882,4.35882,0,0,1,145.57984,150.01564Zm4.42319-4.11256a4.10734,4.10734,0,1,0,4.097,4.15452A4.09514,4.09514,0,0,0,150.003,145.90308Z" transform="translate(-145.57984 -145.58028)"/>
    <path d="M152.2123,147.36243l-.80331,0a.08633.08633,0,0,0-.08609.08609l0,.07294a.08547.08547,0,0,0,.02527.06081.0872.0872,0,0,0,.06132.02578l.46914.00051-.74443.74443a.084.084,0,0,0-.00023.11994l.05156.05157a.08725.08725,0,0,0,.12259.00241l.74709-.74709-.00083.47311a.08525.08525,0,0,0,.08548.08547l.07282-.00011a.08633.08633,0,0,0,.086-.08617v-.8033a.08681.08681,0,0,0-.0864-.08638Z" transform="translate(-145.57984 -145.58028)"/>
    <path d="M152.298,152.55183l0-.80331a.08633.08633,0,0,0-.08609-.08609l-.07294,0a.08546.08546,0,0,0-.06081.02527.08716.08716,0,0,0-.02578.06132l-.00051.46915-.74444-.74444a.084.084,0,0,0-.11993-.00023l-.05157.05156a.08724.08724,0,0,0-.00241.12259l.74709.74709-.47311-.00082a.08524.08524,0,0,0-.08547.08547l.00011.07283a.08633.08633,0,0,0,.08617.086h.80329a.08679.08679,0,0,0,.08639-.0864Z" transform="translate(-145.57984 -145.58028)"/>
    <path d="M147.7877,152.63757l.80331,0a.08633.08633,0,0,0,.08609-.08609l0-.07294a.08547.08547,0,0,0-.02527-.06081.0872.0872,0,0,0-.06132-.02578l-.46914-.00051.74443-.74443a.084.084,0,0,0,.00023-.11994l-.05156-.05157a.08725.08725,0,0,0-.12259-.00241l-.74709.74709.00083-.47311a.08525.08525,0,0,0-.08548-.08547l-.07282.00011a.08633.08633,0,0,0-.086.08617v.8033a.08681.08681,0,0,0,.0864.08638Z" transform="translate(-145.57984 -145.58028)"/>
    <path d="M147.702,147.44817l0,.80331a.08633.08633,0,0,0,.08609.08609l.07294,0a.08546.08546,0,0,0,.06081-.02527.08716.08716,0,0,0,.02578-.06132l.00051-.46915.74444.74444a.084.084,0,0,0,.11993.00023l.05157-.05156a.08724.08724,0,0,0,.00241-.12259l-.74709-.74709.47311.00082a.08524.08524,0,0,0,.08547-.08547l-.00011-.07283a.08633.08633,0,0,0-.08617-.086h-.80329a.08679.08679,0,0,0-.08639.0864Z" transform="translate(-145.57984 -145.58028)"/>
    <g>
      <path d="M148.74658,150.52148a1.85789,1.85789,0,0,1,.50391-1.18359h-.70166v-.2456h1.00537v.23193a1.83431,1.83431,0,0,0-.46582,1.19726Z" transform="translate(-145.57984 -145.58028)"/>
      <path d="M150.79,149.80566a.98208.98208,0,0,1-.13574.52637.463.463,0,0,1-.40039.21094c-.3335,0-.53858-.2832-.53858-.74512a.96924.96924,0,0,1,.13574-.51562.46243.46243,0,0,1,.40088-.21192C150.582,149.07031,150.79,149.356,150.79,149.80566Zm-.75391-.00586c0,.32129.07813.49805.21778.49805.13574,0,.21386-.17871.21386-.49219,0-.31152-.07812-.48974-.21582-.48974C150.11621,149.31592,150.03613,149.49414,150.03613,149.7998Z" transform="translate(-145.57984 -145.58028)"/>
      <path d="M151.002,149.01611h.30664v1.50537H151.002Z" transform="translate(-145.57984 -145.58028)"/>
    </g>
    <g>
      <path d="M148.92542,150.90857h.08642l.08448.2627.08349-.2627h.0791l-.124.36035h-.08545Z" transform="translate(-145.57984 -145.58028)"/>
      <path d="M149.298,150.90857h.0913l.13379.24414v-.24414h.07325v.36035h-.08789l-.13721-.25v.25H149.298Z" transform="translate(-145.57984 -145.58028)"/>
      <path d="M149.67884,150.90857h.08056v.36035h-.08056Z" transform="translate(-145.57984 -145.58028)"/>
      <path d="M149.91175,150.974h-.10157v-.06543h.28369v.06543h-.10156v.29492h-.08056Z" transform="translate(-145.57984 -145.58028)"/>
      <path d="M150.14124,150.90857h.15771c.07715,0,.12354.03906.12354.10352a.09484.09484,0,0,1-.01953.0625.08828.08828,0,0,1-.04834.02832c.03418.01074.04882.02929.05761.07226a.30509.30509,0,0,0,.0293.0918v.002H150.359a.32327.32327,0,0,1-.02734-.08691c-.00781-.03613-.02344-.05078-.05615-.05078h-.05518v.13769h-.0791Zm.04541-.11523h.05371l.03174.03515.03125-.03515h.05176l-.05567.085h-.05713Zm.10058.27832c.03663,0,.05664-.01758.05664-.05078a.04459.04459,0,0,0-.05126-.04883h-.07227v.09961Z" transform="translate(-145.57984 -145.58028)"/>
      <path d="M150.49817,150.90857h.09131l.13379.24414v-.24414h.07324v.36035h-.08789l-.13721-.25v.25h-.07324Z" transform="translate(-145.57984 -145.58028)"/>
      <path d="M150.87952,150.90857h.08057v.36035h-.08057Zm.0332-.11523h.08789l-.05468.08691h-.05469Z" transform="translate(-145.57984 -145.58028)"/>
      <path d="M149.4093,151.68689a.17378.17378,0,0,1-.17578.1875.17163.17163,0,0,1-.17334-.18555.17424.17424,0,0,1,.17676-.18554A.17194.17194,0,0,1,149.4093,151.68689Zm-.26513.00195c0,.0752.03418.12012.09082.12012.05713,0,.09033-.04394.09033-.12012,0-.07421-.03418-.12109-.08984-.12109C149.17786,151.56775,149.14417,151.61267,149.14417,151.68884Z" transform="translate(-145.57984 -145.58028)"/>
      <path d="M149.47327,151.50818h.1626c.07617,0,.11767.0332.11767.0957a.075.075,0,0,1-.05078.07715.081.081,0,0,1,.06445.08594c0,.06641-.04394.10156-.126.10156h-.168Zm.15771.14551c.03028,0,.04444-.01367.04444-.042s-.01514-.042-.04785-.042h-.07569v.084Zm.0044.15332c.03369,0,.05224-.0166.05224-.04785s-.019-.04785-.05566-.04785h-.08008v.0957Z" transform="translate(-145.57984 -145.58028)"/>
      <path d="M150.06018,151.7406c0,.08789-.042.13379-.12451.13379a.11323.11323,0,0,1-.12646-.12109v-.01953h.07763v.01464c0,.041.01514.06055.0459.06055.0332,0,.04688-.01953.04688-.06933v-.23145h.08056Z" transform="translate(-145.57984 -145.58028)"/>
      <path d="M150.13782,151.50818h.25244v.06543h-.17285v.08105h.13184v.05958h-.13184v.08886h.18115v.06543h-.26074Z" transform="translate(-145.57984 -145.58028)"/>
      <path d="M150.5763,151.50818l.08154.24707.08154-.24707h.11524v.36035h-.0791V151.598l-.0918.27051h-.05908l-.09229-.27148v.27148h-.07178v-.36035Z" transform="translate(-145.57984 -145.58028)"/>
    </g>
  </g>
</svg>
