<svg id="Layer_1" data-name="Layer 1" xmlns="http://www.w3.org/2000/svg" viewBox="0 0 8.87504 8.8662">
  <g>
    <path d="M148.74385,142.01464a4.43263,4.43263,0,1,1-4.44911,4.39736A4.392,4.392,0,0,1,148.74385,142.01464Zm-3.02059,1.69871a4.04715,4.04715,0,0,0,5.72306,5.71661l-.654-.69113.25051-.2222.68433.65731a4.0395,4.0395,0,0,0-.24874-5.76307,3.98872,3.98872,0,0,0-5.46928.0426l.64737.68726-.2445.2284Z" transform="translate(-144.2947 -142.01373)"/>
    <g>
      <path d="M148.99531,146.57466a1.14962,1.14962,0,0,0-.02771-.19611.24386.24386,0,0,0-.25461-.16981.26086.26086,0,0,0-.22345.23837,5.77549,5.77549,0,0,1-.121.71895,2.39781,2.39781,0,0,1-.93986,1.33458c-.02912.02092-.07888.0131-.119.01865.01753-.03833.02458-.09058.05418-.11288a2.4287,2.4287,0,0,0,.83372-1.07984,2.59255,2.59255,0,0,0,.17347-.83929.38253.38253,0,0,1,.3715-.39294.36949.36949,0,0,1,.36207.40076,3.10775,3.10775,0,0,1-.75238,1.98967c-.09483.11018-.19518.21614-.29972.31706-.02606.02516-.07832.02317-.11853.03365.01258-.03968.013-.09254.03955-.1171a3.01973,3.01973,0,0,0,.9488-1.66319C148.95435,146.89352,148.97224,146.72905,148.99531,146.57466Z" transform="translate(-144.2947 -142.01373)"/>
      <path d="M148.8324,145.48757a.83131.83131,0,0,1,.41136.14547c.03236.02144.04791.06824.07121.10336-.04231-.00125-.09316.0124-.12557-.00615a.86488.86488,0,0,0-1.31455.70889,1.91088,1.91088,0,0,1-.88978,1.628.4118.4118,0,0,1-.14969.02887c.02818-.04059.04758-.09451.08589-.11973a1.79528,1.79528,0,0,0,.80139-1.16466c.03321-.15672.03146-.32052.05257-.48018A.9957.9957,0,0,1,148.8324,145.48757Z" transform="translate(-144.2947 -142.01373)"/>
      <path d="M150.33274,146.45594a4.36751,4.36751,0,0,1-.64365,2.27487c-.02021.03282-.06724.04912-.10177.07311.00044-.04453-.016-.09925.00385-.132a4.14064,4.14064,0,0,0,.56477-1.52723,2.14282,2.14282,0,0,0-.00978-1.12005,4.25065,4.25065,0,0,0-.30019-.54249c-.00954-.01677-.03172-.02774-.03753-.045a1.04461,1.04461,0,0,1-.02591-.113c.03653.0102.08727.00865.10712.03265a2.56345,2.56345,0,0,1,.23824.32193A1.512,1.512,0,0,1,150.33274,146.45594Z" transform="translate(-144.2947 -142.01373)"/>
      <path d="M151.15462,146.625c-.0198-.199-.02579-.39633-.06089-.58828a2.32433,2.32433,0,0,0-1.3257-1.742,5.07673,5.07673,0,0,0-.57734-.1973.3587.3587,0,0,1-.08893-.069c.03745-.01482.07871-.04839.11179-.04167a2.48114,2.48114,0,0,1,1.47733.88545,2.52465,2.52465,0,0,1,.56794,1.63884C151.25879,146.58236,151.25606,146.65059,151.15462,146.625Z" transform="translate(-144.2947 -142.01373)"/>
      <path d="M150.9499,146.50214a5.56031,5.56031,0,0,1-.24516,1.48014.18234.18234,0,0,1-.03088.0742.102.102,0,0,1-.06829.01984.145.145,0,0,1-.02649-.09049c.0375-.15632.08613-.31.1227-.46651a4.1988,4.1988,0,0,0,.10479-1.31308,1.99035,1.99035,0,0,0-.44895-1.07322c-.017-.02166-.04275-.04015-.05048-.06453a.25144.25144,0,0,1,.00255-.08419c.02836.004.06508-.00174.08335.014a.87242.87242,0,0,1,.09907.11655A2.13975,2.13975,0,0,1,150.9499,146.50214Z" transform="translate(-144.2947 -142.01373)"/>
      <path d="M148.648,144.24434a2.241,2.241,0,0,1,1.18837.29759c.03274.01969.04869.06729.07244.10194-.04117.00094-.09125.01774-.12214.00038a2.12866,2.12866,0,0,0-.999-.2804,1.74219,1.74219,0,0,0-.92273.19635,7.53081,7.53081,0,0,0-.63271.4457c-.01583.01136-.02664.03532-.04306.03906a.60839.60839,0,0,1-.10315.007c.00838-.03033.007-.07166.02671-.08921a4.605,4.605,0,0,1,.4228-.3572A2.08975,2.08975,0,0,1,148.648,144.24434Z" transform="translate(-144.2947 -142.01373)"/>
      <path d="M149.91127,146.53475a1.16909,1.16909,0,0,0-.90794-1.21484c-.06092-.01419-.12513-.016-.18451-.03432-.02977-.00918-.05208-.04254-.07777-.065.0317-.01542.06457-.04624.09491-.04392a1.2587,1.2587,0,0,1,.932.5089,1.37174,1.37174,0,0,1,.25364,1.038c-.03.26434-.08492.526-.135.7877-.00643.0336-.05057.06-.07724.08973a.37164.37164,0,0,1-.02407-.12248c.04941-.31332.104-.62584.157-.93859Z" transform="translate(-144.2947 -142.01373)"/>
      <path d="M149.73591,146.52381a3.91631,3.91631,0,0,1-.67437,2.04941,3.75652,3.75652,0,0,1-.26327.33419c-.02562.02937-.07907.03447-.11975.0507.009-.04076.00523-.09228.029-.12061a3.97863,3.97863,0,0,0,.58974-.93712,3.71506,3.71506,0,0,0,.30169-1.34917c.0004-.00788-.00208-.01708.00115-.02345.02009-.03964.04143-.07864.06236-.11786Z" transform="translate(-144.2947 -142.01373)"/>
      <path d="M148.77056,144.5472a1.92754,1.92754,0,0,1,1.82654,1.51475.31331.31331,0,0,1,.01909.09159.413.413,0,0,1-.036.09872c-.02594-.0223-.06323-.03974-.07532-.068a.99445.99445,0,0,1-.03959-.15957,1.77582,1.77582,0,0,0-1.52385-1.33673.8163.8163,0,0,1-.15173-.022.49582.49582,0,0,1-.104-.061Z" transform="translate(-144.2947 -142.01373)"/>
      <path d="M147.70257,145.37477c-.02227.03045-.04053.05992-.06311.08559a1.49883,1.49883,0,0,0-.38159.97852,1.274,1.274,0,0,1-.64028,1.12675c-.034.02025-.08817.00654-.133.0086.02216-.03561.03582-.085.06779-.10475a1.18531,1.18531,0,0,0,.58683-1.05388,1.54645,1.54645,0,0,1,.427-1.04642.21135.21135,0,0,1,.09874-.04264C147.6715,145.32473,147.68645,145.35344,147.70257,145.37477Z" transform="translate(-144.2947 -142.01373)"/>
      <path d="M146.83438,146.36708a1.90625,1.90625,0,0,1,1.51594-1.77007.16663.16663,0,0,1,.06979-.00794.32611.32611,0,0,1,.07361.03812c-.01707.02259-.02958.05518-.05225.06553a.67826.67826,0,0,1-.12515.03042,1.79281,1.79281,0,0,0-1.364,1.65489c-.00089.01968.00524.04315-.00343.05825a.53744.53744,0,0,1-.06091.07439.56717.56717,0,0,1-.05221-.07909A.18056.18056,0,0,1,146.83438,146.36708Z" transform="translate(-144.2947 -142.01373)"/>
      <path d="M150.62035,146.73544a4.56366,4.56366,0,0,1-.46983,1.76372c-.0143.02883-.06.04209-.09111.06259-.00338-.03846-.022-.084-.00785-.11432a4.648,4.648,0,0,0,.38874-1.20621c.0261-.15876.03835-.31979.06384-.47867a.344.344,0,0,1,.06127-.10465Z" transform="translate(-144.2947 -142.01373)"/>
      <path d="M146.52462,146.43837a2.17332,2.17332,0,0,1,.34874-1.16227c.01754-.02735.06419-.036.09731-.05339a.3272.3272,0,0,1-.00118.11462,4.52118,4.52118,0,0,0-.26853.67337,4.18233,4.18233,0,0,0-.0399.73811c-.0021.05886.01124.11884.00427.17672-.00367.03055-.03582.05767-.05511.08635-.02019-.02747-.05556-.05365-.058-.08263C146.53884,146.77256,146.53364,146.61518,146.52462,146.43837Z" transform="translate(-144.2947 -142.01373)"/>
      <path d="M147.42627,146.39606a1.35311,1.35311,0,0,1,.96643-1.18c.03521-.00739.077.01673.11578.0262-.0294.02952-.05368.0745-.089.08618a1.1644,1.1644,0,0,0-.79294.75949c-.03183.09548-.0364.19974-.06047.29825a.67669.67669,0,0,1-.05892.12556Z" transform="translate(-144.2947 -142.01373)"/>
      <path d="M146.37985,145.71247c-.003-.03768-.02074-.08232-.00671-.11192a5.26645,5.26645,0,0,1,.27684-.54515,2.12274,2.12274,0,0,1,.61177-.63347.34859.34859,0,0,1,.1245-.02618c-.01646.03777-.02235.08966-.051.11113a2.4236,2.4236,0,0,0-.71594.82132c-.05248.10075-.09238.208-.14045.31113a.60468.60468,0,0,1-.0534.07984Z" transform="translate(-144.2947 -142.01373)"/>
      <path d="M148.71348,144.94409c-.2074.06171-.41541.12568-.625.184a.40041.40041,0,0,1-.12178-.00485c.02385-.03365.04019-.08325.07267-.09854a1.54782,1.54782,0,0,1,1.33038-.02816c.02889.01256.04294.05926.06389.09008a.29959.29959,0,0,1-.10238.01321C149.13047,145.05223,148.93087,144.99955,148.71348,144.94409Z" transform="translate(-144.2947 -142.01373)"/>
      <path d="M147.1,148.35621c-.01637-.01041-.04091-.01733-.04577-.03117a.079.079,0,0,1,.00405-.06519.39636.39636,0,0,1,.08961-.07564,2.03389,2.03389,0,0,0,.66982-.7495c.02423-.044.099-.10972.11378-.10127.08639.0492.0132.10769-.01157.15742a2.13147,2.13147,0,0,1-.74515.82148C147.15208,148.32756,147.12761,148.34011,147.1,148.35621Z" transform="translate(-144.2947 -142.01373)"/>
      <path d="M147.99635,147.05263a7.74772,7.74772,0,0,1,.1009-.77711,1.0335,1.0335,0,0,1,.20911-.33186c.01507-.02065.06726-.01422.10233-.02028-.00886.03631-.00565.08582-.02856.10678a.65956.65956,0,0,0-.2005.49794,3.70106,3.70106,0,0,1-.07605.511c-.00454.02494-.04463.0434-.06828.06486Z" transform="translate(-144.2947 -142.01373)"/>
      <path d="M148.82684,144.00017a.47074.47074,0,0,1-.11893.05064,2.57271,2.57271,0,0,0-1.02553.24514c-.023.011-.06036-.008-.091-.013.01569-.03115.02329-.07843.04831-.091a2.44233,2.44233,0,0,1,1.06871-.2564C148.738,143.93505,148.76809,143.967,148.82684,144.00017Z" transform="translate(-144.2947 -142.01373)"/>
      <path d="M148.79964,146.58641a3.29364,3.29364,0,0,1-.28417,1.07457c-.01216.0242-.05063.03516-.07687.05227-.00824-.0334-.03337-.0745-.02218-.099a3.79685,3.79685,0,0,0,.26609-1.00912c.00432-.02789.04586-.05.0701-.07482Z" transform="translate(-144.2947 -142.01373)"/>
      <path d="M148.70725,145.78224a.70064.70064,0,0,1,.70367.62952.11766.11766,0,0,1,.001.05816.72218.72218,0,0,1-.05826.08927.42189.42189,0,0,1-.05821-.08515,1.89576,1.89576,0,0,0-.12957-.35584.52892.52892,0,0,0-.43517-.22035.40708.40708,0,0,1-.1208-.05293Z" transform="translate(-144.2947 -142.01373)"/>
      <path d="M146.20562,146.44734c.02007-.15877.03634-.31143.06108-.4627.00491-.03.04234-.05476.06477-.08193.01624.035.05193.07392.04571.10429a2.48268,2.48268,0,0,0,.00068.90462c.00468.02888-.02622.06353-.04061.0955-.02388-.02411-.06459-.04556-.06889-.07276C146.24264,146.77151,146.22531,146.60733,146.20562,146.44734Z" transform="translate(-144.2947 -142.01373)"/>
      <path d="M148.35808,147.94074a.54514.54514,0,0,1-.05152.08418c-.1948.21433-.38931.429-.58907.63864-.02311.02425-.07761.01859-.11756.02679a.38941.38941,0,0,1,.04806-.11677q.28458-.32034.57721-.63347a.22935.22935,0,0,1,.09418-.04962C148.32552,147.88839,148.34367,147.92148,148.35808,147.94074Z" transform="translate(-144.2947 -142.01373)"/>
      <path d="M147.38691,147.07928c0,.03594.01444.08187-.00237.10618a3.65151,3.65151,0,0,1-.315.42139,1.72642,1.72642,0,0,1-.31908.23758c-.025.01658-.06968.00346-.1053.004.01639-.03451.02339-.08508.05065-.101a1.53516,1.53516,0,0,0,.58754-.61169.35319.35319,0,0,1,.05869-.06433Z" transform="translate(-144.2947 -142.01373)"/>
      <path d="M149.68732,148.083a.67331.67331,0,0,1-.03607.08634c-.13666.23316-.27245.46691-.41466.69668-.01925.03111-.07256.04115-.1101.06094a.32022.32022,0,0,1,.01224-.12242c.13894-.24528.28242-.488.42766-.72962a.12961.12961,0,0,1,.077-.05118c.02337-.00519.052.01339.07832.02143Z" transform="translate(-144.2947 -142.01373)"/>
      <path d="M149.339,147.25081c-.09462.24579-.18719.49091-.28556.73368-.00864.02131-.05536.02719-.08439.04024-.00739-.03048-.02857-.06567-.02-.09073q.12282-.36081.25632-.71791c.00952-.02546.04792-.04013.07292-.0598Z" transform="translate(-144.2947 -142.01373)"/>
      <path d="M148.85945,148.30825a.53967.53967,0,0,1-.04747.08718c-.13947.169-.27905.33809-.42343.50289-.01888.02155-.06534.01894-.099.02751.00429-.03456-.00366-.07882.01482-.10215.14307-.18064.29031-.358.43914-.534a.11785.11785,0,0,1,.07749-.03211C148.83271,148.25692,148.84638,148.29007,148.85945,148.30825Z" transform="translate(-144.2947 -142.01373)"/>
    </g>
  </g>
</svg>
