<svg id="Layer_1" data-name="Layer 1" xmlns="http://www.w3.org/2000/svg" viewBox="0 0 8.88948 8.86626">
  <defs>
    <style>
      .cls-1 {
        fill: none;
        stroke: #000;
        stroke-miterlimit: 10;
        stroke-width: 0.25px;
      }
    </style>
  </defs>
  <g>
    <path d="M149.81577,151.74275a4.443,4.443,0,0,1-4.42106-4.45252,4.50258,4.50258,0,0,1,4.44527-4.40865,4.44457,4.44457,0,0,1,4.444,4.45328A4.39819,4.39819,0,0,1,149.81577,151.74275Zm4.11061-4.42882a4.09563,4.09563,0,0,0-8.19125.00791,4.09564,4.09564,0,1,0,8.19125-.00791Z" transform="translate(-145.39454 -142.88156)"/>
    <path d="M148.41753,148.19739a.60177.60177,0,0,1,.004-.22762,1.30983,1.30983,0,0,1,1.05926-.75533,1.64518,1.64518,0,0,1,1.68386.5751,2.68025,2.68025,0,0,0,.31232.28987l-.24982.27684-.34313-.15932c.0643-.07638.10959-.13018.15476-.184A1.5372,1.5372,0,0,0,148.41753,148.19739Z" transform="translate(-145.39454 -142.88156)"/>
    <path d="M148.25636,148.71329l.1575-.26474.38656.10687-.131.20885a1.26309,1.26309,0,0,0,.82154.54376,1.70774,1.70774,0,0,0,.963-.07779c.33019-.106.5164-.39265.77378-.60411a.73358.73358,0,0,1-.309.54219,1.79639,1.79639,0,0,1-2.28089-.12157C148.5332,148.93726,148.40945,148.84605,148.25636,148.71329Z" transform="translate(-145.39454 -142.88156)"/>
    <polygon class="cls-1" points="6.082 7.225 2.862 7.225 1.574 3.852 6.082 3.852 6.935 3.852 6.082 7.225"/>
    <polyline class="cls-1" points="6.191 3.757 6.191 2.374 5.51 2.374"/>
    <polyline class="cls-1" points="2.761 3.835 2.761 2.452 3.442 2.452"/>
    <path class="cls-1" d="M149.15683,144.31211a.806.806,0,0,0-.12784.5194c0,.37766.12784.4734.12784.4734a.83735.83735,0,0,1,0,.89362" transform="translate(-145.39454 -142.88156)"/>
    <path class="cls-1" d="M149.87976,144.31211a.806.806,0,0,0-.12784.5194c0,.37766.12784.4734.12784.4734a.83733.83733,0,0,1,0,.89362" transform="translate(-145.39454 -142.88156)"/>
    <path class="cls-1" d="M150.6027,144.31211a.806.806,0,0,0-.12784.5194c0,.37766.12784.4734.12784.4734a.83733.83733,0,0,1,0,.89362" transform="translate(-145.39454 -142.88156)"/>
  </g>
</svg>
