<svg id="Layer_1" data-name="Layer 1" xmlns="http://www.w3.org/2000/svg" viewBox="0 0 8.92866 8.93539">
  <defs>
    <style>
      .cls-1 {
        fill: none;
        stroke: #000;
        stroke-miterlimit: 10;
        stroke-width: 0.5px;
      }
    </style>
  </defs>
  <path d="M149.16708,154.6163a4.45215,4.45215,0,0,1-2.10061-8.38542,4.47446,4.47446,0,0,1,6.55815,4.29337,4.17026,4.17026,0,0,1-.94872,2.4048,4.32048,4.32048,0,0,1-2.35181,1.53924A9.36009,9.36009,0,0,1,149.16708,154.6163Zm4.08255-4.44191a4.07845,4.07845,0,0,0-8.15688-.01561,4.07845,4.07845,0,0,0,8.15688.01561Z" transform="translate(-144.70555 -145.68735)"/>
  <path d="M151.29029,147.71786v1.06734l.53615.0579.03139.392-.53649.05769c-.01051.11551-.02986.23543-.03084.35549-.00384.47007.00615.94036-.00476,1.4102-.00787.339-.14878.48715-.49126.49016q-1.64605.01444-3.29229.001c-.33746-.00283-.4723-.152-.48173-.50074-.01144-.42278-.00331-.84608-.00358-1.26916-.0001-.15374,0-.30749,0-.48284l-.52006-.05368-.02252-.3846.53282-.0749v-1.03333A35.27339,35.27339,0,0,1,151.29029,147.71786Zm-.421,1.59462a22.64489,22.64489,0,0,0-3.45668.033c.01188.59135-.02381,1.19172.01931,1.78965h3.43737Zm.00913-1.22567h-3.44928c-.00731.12809-.02033.23389-.0175.33926.00322.11991.02059.23944.03114.352a22.27657,22.27657,0,0,0,3.43564-.032Z" transform="translate(-144.70555 -145.68735)"/>
  <line class="cls-1" x1="4.20403" y1="1.29137" x2="4.76254" y2="1.29137"/>
  <g>
    <path d="M148.35352,152.915l-.04639-.13672h-.292l-.04737.13672h-.15136l.26416-.71973h.18505l.25879.71973Zm-.19141-.56836-.10889.31641h.21582Z" transform="translate(-144.70555 -145.68735)"/>
    <path d="M149.17627,152.627a.29493.29493,0,1,1-.58984.00391v-.43555h.16113v.42774c0,.12109.04.17187.13574.17187.09766,0,.14014-.05371.14014-.17773v-.42188h.15283Z" transform="translate(-144.70555 -145.68735)"/>
    <path d="M149.46729,152.3252h-.20362v-.12989h.56836v.12989h-.2041v.58984h-.16064Z" transform="translate(-144.70555 -145.68735)"/>
    <path d="M150.57617,152.55273a.34593.34593,0,0,1-.35156.37305.34162.34162,0,0,1-.34668-.36914.34958.34958,0,0,1,.35352-.373A.34445.34445,0,0,1,150.57617,152.55273Zm-.53027.00293c0,.14942.06836.24024.18164.24024.11426,0,.18066-.08789.18066-.24024,0-.14941-.06836-.24218-.17968-.24218C150.11328,152.31348,150.0459,152.40234,150.0459,152.55566Z" transform="translate(-144.70555 -145.68735)"/>
  </g>
</svg>
