<svg id="Layer_1" data-name="Layer 1" xmlns="http://www.w3.org/2000/svg" viewBox="0 0 8.89474 8.88691">
  <path d="M144.63041,149.85717A4.44737,4.44737,0,1,1,149.098,154.287,4.39827,4.39827,0,0,1,144.63041,149.85717Zm4.44677-4.1048a4.09083,4.09083,0,1,0,4.08726,4.108A4.10791,4.10791,0,0,0,149.07718,145.75237Z" transform="translate(-144.63038 -145.40015)"/>
  <path d="M147.61263,150.69915l.54326-1.53708-1.15646-.3866-.01213-.08159,1.25466-.46665.36024-1.68548.77039,1.385,1.17269-.77647-.3855,1.50847,1.12173.58958-1.24551.36865-.1544,1.03046-.90468-.64545-1.29567.77329Zm1.6745-2.38656-.56551-.919-.23368,1.03018-.63841.29094.65154.28049-.3705,1.1642.86488-.48136.653.43424.14705-.71229.64851-.24142-.59865-.37463.21731-.957Z" transform="translate(-144.63038 -145.40015)"/>
  <g>
    <path d="M146.5835,151.72754l-.04639-.13672h-.292l-.04737.13672h-.15136l.26416-.71973h.18506l.25878.71973Zm-.19141-.56836-.10889.31641h.21582Z" transform="translate(-144.63038 -145.40015)"/>
    <path d="M147.40625,151.43945a.29493.29493,0,1,1-.58984.00391v-.43555h.16113v.42774c0,.12109.04.17187.13574.17187.09766,0,.14014-.05371.14014-.17773v-.42188h.15283Z" transform="translate(-144.63038 -145.40015)"/>
    <path d="M147.69727,151.1377h-.20362v-.12989h.56787v.12989h-.20312v.58984h-.16113Z" transform="translate(-144.63038 -145.40015)"/>
    <path d="M148.80713,151.36523a.3462.3462,0,0,1-.35156.37305.3421.3421,0,0,1-.34766-.36914.34986.34986,0,0,1,.35352-.373A.34492.34492,0,0,1,148.80713,151.36523Zm-.53076.00293c0,.14942.06836.24024.18213.24024s.18017-.08789.18017-.24024c0-.14941-.06836-.24218-.1792-.24218C148.34375,151.126,148.27637,151.21484,148.27637,151.36816Z" transform="translate(-144.63038 -145.40015)"/>
    <path d="M149.16553,151.00781l.16357.49317.16309-.49317h.23047v.71973h-.15821v-.542l-.1831.542h-.11914l-.18409-.543v.543h-.144v-.71973Z" transform="translate(-144.63038 -145.40015)"/>
    <path d="M150.34375,151.72754l-.04687-.13672h-.292l-.04736.13672h-.15137l.26416-.71973h.18555l.25879.71973Zm-.19141-.56836-.10937.31641h.21582Z" transform="translate(-144.63038 -145.40015)"/>
    <path d="M150.65723,151.1377h-.20313v-.12989h.56738v.12989h-.20312v.58984h-.16113Z" transform="translate(-144.63038 -145.40015)"/>
    <path d="M151.12109,151.00781h.16114v.71973h-.16114Z" transform="translate(-144.63038 -145.40015)"/>
    <path d="M152.06836,151.53027a.30337.30337,0,0,1-.10742.14746.31235.31235,0,0,1-.19727.06055.33447.33447,0,0,1-.3457-.36816.34338.34338,0,0,1,.34277-.374.3106.3106,0,0,1,.21778.07715.32984.32984,0,0,1,.08105.125l-.14258.05762c-.03418-.0918-.0791-.12988-.15722-.12988-.11036,0-.17286.08691-.17286.24121,0,.15527.06348.24121.17676.24121.08008,0,.127-.041.16016-.13672Z" transform="translate(-144.63038 -145.40015)"/>
    <path d="M146.81006,152.208h.16113v.71972h-.16113Z" transform="translate(-144.63038 -145.40015)"/>
    <path d="M147.66309,152.82227a.24747.24747,0,0,1-.22266.11621.3331.3331,0,0,1-.3335-.36719.34691.34691,0,0,1,.34961-.375.31924.31924,0,0,1,.21826.07617.29819.29819,0,0,1,.07764.11524l-.147.05859c-.03223-.08594-.07568-.12012-.15186-.12012-.11279,0-.17822.08985-.17822.24414,0,.15235.06641.23828.18408.23828a.15025.15025,0,0,0,.16407-.14843v-.00586h-.15186v-.12012h.30908v.39355h-.08984Z" transform="translate(-144.63038 -145.40015)"/>
    <path d="M147.92529,152.208h.1836l.2666.48828V152.208h.147v.71972h-.17627l-.27392-.5v.5h-.147Z" transform="translate(-144.63038 -145.40015)"/>
    <path d="M148.687,152.208h.16113v.71972H148.687Z" transform="translate(-144.63038 -145.40015)"/>
    <path d="M149.15332,152.33789h-.20361V152.208h.56787v.12988h-.20313v.58984h-.16113Z" transform="translate(-144.63038 -145.40015)"/>
    <path d="M149.61719,152.208h.16113v.71972h-.16113Z" transform="translate(-144.63038 -145.40015)"/>
    <path d="M150.61328,152.56543a.34594.34594,0,0,1-.35156.37305.34237.34237,0,0,1-.34766-.36914.35013.35013,0,0,1,.35352-.37305A.34464.34464,0,0,1,150.61328,152.56543Zm-.53027.00293c0,.15039.06836.24023.18164.24023.11426,0,.18066-.08789.18066-.24023,0-.14941-.06836-.24219-.17969-.24219C150.15039,152.32617,150.083,152.415,150.083,152.56836Z" transform="translate(-144.63038 -145.40015)"/>
    <path d="M150.74023,152.208h.1836l.2666.48828V152.208h.14746v.71972h-.17676l-.27343-.5v.5h-.14747Z" transform="translate(-144.63038 -145.40015)"/>
  </g>
</svg>
