<svg id="Layer_1" data-name="Layer 1" xmlns="http://www.w3.org/2000/svg" viewBox="0 0 272 272"><defs><style>.cls-1{fill:#3d7398;}.cls-2{fill:#f1f2f2;}</style></defs><circle class="cls-1" cx="136" cy="136" r="136"/><path class="cls-2" d="M247.29,145.66c-.7-.15-1.36-.29-1.95-.44-6.66-1.73-9.71-2.68-12-7l-8.52-17.25c-2.74-5.29-9.81-9.59-15.76-9.59H193.92V91.43a6.49,6.49,0,0,0-6.48-6.49L81.76,85a6.15,6.15,0,0,0-6.11,6.44v5.89H48.58a10.14,10.14,0,0,0,0,20.28H75.65v9.72H57.93a10.14,10.14,0,1,0,0,20.27H75.65v9.72H67.28a10.14,10.14,0,0,0,0,20.28h8.37V187.8a6.5,6.5,0,0,0,6.49,6.49h11a24.3,24.3,0,0,0,48.09,0H185.7l.71,0a24.29,24.29,0,0,0,48.08,0h15.79A11.28,11.28,0,0,0,261.55,183V163.89C261.55,148.65,253,146.85,247.29,145.66Zm-36.84,36.27a8.84,8.84,0,1,1-8.83,8.84A8.85,8.85,0,0,1,210.45,181.93Zm-16.53-37.64V120.76h11.6c4.46,0,9.95,3.34,12,7.28l7.59,15.35a9.38,9.38,0,0,0,.5.89H193.92ZM126,190.76a8.84,8.84,0,1,1-8.84-8.83A8.85,8.85,0,0,1,126,190.76Z" transform="translate(-14 -14)"/></svg>