<svg id="Layer_1" data-name="Layer 1" xmlns="http://www.w3.org/2000/svg" viewBox="0 0 8.84483 8.84408">
  <defs>
    <style>
      .cls-1, .cls-2, .cls-3 {
        fill: none;
        stroke: #000;
        stroke-miterlimit: 10;
        stroke-width: 0.1px;
      }

      .cls-2 {
        stroke-dasharray: 0.19804 0.19804;
      }

      .cls-3 {
        stroke-dasharray: 0.20283 0.20283;
      }
    </style>
  </defs>
  <g>
    <path d="M152.35789,141.26127a4.42209,4.42209,0,0,1-.05381,8.844,4.42209,4.42209,0,1,1,.05381-8.844Zm-.029,8.51048a4.10339,4.10339,0,1,0-4.10084-4.09A4.10656,4.10656,0,0,0,152.3289,149.77175Z" transform="translate(-147.90629 -141.26126)"/>
    <ellipse cx="3.97669" cy="6.81321" rx="1.88298" ry="0.84043"/>
    <circle cx="6.13626" cy="2.56853" r="0.28723"/>
    <g>
      <line class="cls-1" x1="5.84903" y1="2.56853" x2="5.78183" y2="2.6426"/>
      <line class="cls-2" x1="5.64878" y1="2.78928" x2="2.25582" y2="6.52962"/>
      <line class="cls-1" x1="2.18929" y1="6.60295" x2="2.12209" y2="6.67702"/>
    </g>
    <g>
      <line class="cls-1" x1="6.4235" y1="2.71747" x2="6.40619" y2="2.81595"/>
      <line class="cls-3" x1="6.37111" y1="3.01573" x2="5.68688" y2="6.91135"/>
      <line class="cls-1" x1="5.66933" y1="7.01123" x2="5.65203" y2="7.10973"/>
    </g>
  </g>
</svg>
