<svg id="Layer_1" data-name="Layer 1" xmlns="http://www.w3.org/2000/svg" viewBox="0 0 8.85101 8.85101">
  <defs>
    <style>
      .cls-1 {
        fill: none;
        stroke: #000;
        stroke-miterlimit: 10;
        stroke-width: 0.25px;
      }
    </style>
  </defs>
  <path d="M149.118,152.34112a5.21364,5.21364,0,0,1-1.81487-.27416,2.01536,2.01536,0,0,1-.95411-.65056.68014.68014,0,0,1,.04577-.71989c.2366-.20878.14959-.45181.17067-.68778a.14554.14554,0,0,0-.01856-.08553c-.19288-.30253-.01741-.53093.18827-.70263a2.08323,2.08323,0,0,1,.89009-.45684,6.25047,6.25047,0,0,1,1.99178-.18048,5.92667,5.92667,0,0,1,1.38689.28246,1.7781,1.7781,0,0,1,.6742.42591.48038.48038,0,0,1,.12937.57855,1.38507,1.38507,0,0,0-.05112.58821c-.0031.05759.069.13761.12731.17663.16747.11214.34709.56249-.1688,1.04828a3.25724,3.25724,0,0,1-1.50384.57849A6.16221,6.16221,0,0,1,149.118,152.34112Zm2.59394-1.68287a4.34485,4.34485,0,0,1-.62309.5459,5.371,5.371,0,0,1-2.29437.4319c-.136.00154.0156.37888-.07569.3795-.443.003.09-.00227-.31279.00711-.02354.00055-.04887-.00784-.04472-.1363.00507-.15736-.00162-.207,0-.26033.002-.06608-.12845-.11073-.304-.11977-.30365-.01561-1.38574-.53471-1.43318-.87712-.176.21257-.36827.40315-.14931.67179a1.96912,1.96912,0,0,0,.37713.37818,3.49392,3.49392,0,0,0,1.35441.46777,3.99307,3.99307,0,0,0,.56416.04974,9.96391,9.96391,0,0,0,1.66941-.1278,2.282,2.282,0,0,0,1.3706-.67352.56558.56558,0,0,0,.13445-.32427C151.97,150.85587,151.81305,150.77293,151.712,150.65825Zm-.108-.20294c-.13771.05689-.24644.07047-.30346.13195-.11586.12491-.1827.03184-.26639-.02523-.0024-.00164-.02522.01858-.03155.03192-.15148.31922-.49451.33182-.75974.41361a4.72775,4.72775,0,0,1-1.03769.10881c-.15222.01114-.30594.00188-.46208.00188v.3596c.2867,0,.56542.02322.84371.015a3.84733,3.84733,0,0,0,.56927-.1092,2.42913,2.42913,0,0,0,.92932-.35865A1.339,1.339,0,0,0,151.60394,150.45531Zm-4.95286-.01394a2.12492,2.12492,0,0,0,1.71021.97843l-.01886-.39965a4.59521,4.59521,0,0,1-.89148-.16275C147.12476,150.82115,146.9778,150.51971,146.65108,150.44137Z" transform="translate(-144.73674 -146.01586)"/>
  <circle class="cls-1" cx="4.42551" cy="4.42551" r="4.30051"/>
</svg>
