<?xml version="1.0"?>
<svg xmlns="http://www.w3.org/2000/svg" xmlns:xlink="http://www.w3.org/1999/xlink" xmlns:svgjs="http://svgjs.com/svgjs" version="1.1" width="512" height="512" x="0" y="0" viewBox="0 0 74 74" style="enable-background:new 0 0 512 512" xml:space="preserve"><g><path xmlns="http://www.w3.org/2000/svg" d="m69 72h-64a3 3 0 0 1 -3-3v-43.5a1 1 0 0 1 1-1h68a1 1 0 0 1 1 1v43.5a3 3 0 0 1 -3 3zm-65-45.5v42.5a1 1 0 0 0 1 1h64a1 1 0 0 0 1-1v-42.5z" fill="#cfcfcf" data-original="#000000" style=""/><path xmlns="http://www.w3.org/2000/svg" d="m71 26.5h-68a1 1 0 0 1 -1-1v-13a3 3 0 0 1 3-3h10a1 1 0 0 1 0 2h-10a1 1 0 0 0 -1 1v12h66v-12a1 1 0 0 0 -1-1h-10a1 1 0 0 1 0-2h10a3 3 0 0 1 3 3v13a1 1 0 0 1 -1 1z" fill="#cfcfcf" data-original="#000000" style=""/><path xmlns="http://www.w3.org/2000/svg" d="m52 11.5h-30a1 1 0 0 1 0-2h30a1 1 0 0 1 0 2z" fill="#cfcfcf" data-original="#000000" style=""/><path xmlns="http://www.w3.org/2000/svg" d="m55.5 19a4.51 4.51 0 0 1 -4.5-4.5v-8a4.5 4.5 0 0 1 9 0v8a4.51 4.51 0 0 1 -4.5 4.5zm0-15a2.5 2.5 0 0 0 -2.5 2.5v8a2.5 2.5 0 0 0 5 0v-8a2.5 2.5 0 0 0 -2.5-2.5z" fill="#cfcfcf" data-original="#000000" style=""/><path xmlns="http://www.w3.org/2000/svg" d="m18.5 19a4.51 4.51 0 0 1 -4.5-4.5v-8a4.5 4.5 0 0 1 9 0v8a4.51 4.51 0 0 1 -4.5 4.5zm0-15a2.5 2.5 0 0 0 -2.5 2.5v8a2.5 2.5 0 0 0 5 0v-8a2.5 2.5 0 0 0 -2.5-2.5z" fill="#cfcfcf" data-original="#000000" style=""/><path xmlns="http://www.w3.org/2000/svg" d="m60.88 40.75h-5.76a2 2 0 0 1 -2-2v-5.25a2 2 0 0 1 2-2h5.76a2 2 0 0 1 2 2v5.25a2 2 0 0 1 -2 2zm-5.76-7.25v5.25h5.76v-5.25z" fill="#cfcfcf" data-original="#000000" style=""/><path xmlns="http://www.w3.org/2000/svg" d="m46.88 40.75h-5.76a2 2 0 0 1 -2-2v-5.25a2 2 0 0 1 2-2h5.76a2 2 0 0 1 2 2v5.25a2 2 0 0 1 -2 2zm-5.76-7.25v5.25h5.76v-5.25z" fill="#cfcfcf" data-original="#000000" style=""/><path xmlns="http://www.w3.org/2000/svg" d="m32.88 40.75h-5.76a2 2 0 0 1 -2-2v-5.25a2 2 0 0 1 2-2h5.76a2 2 0 0 1 2 2v5.25a2 2 0 0 1 -2 2zm-5.76-7.25v5.25h5.76v-5.25z" fill="#cfcfcf" data-original="#000000" style=""/><path xmlns="http://www.w3.org/2000/svg" d="m60.88 52.88h-5.76a2 2 0 0 1 -2-2v-5.26a2 2 0 0 1 2-2h5.76a2 2 0 0 1 2 2v5.26a2 2 0 0 1 -2 2zm-5.76-7.26v5.26h5.76v-5.26z" fill="#cfcfcf" data-original="#000000" style=""/><path xmlns="http://www.w3.org/2000/svg" d="m46.88 52.88h-5.76a2 2 0 0 1 -2-2v-5.26a2 2 0 0 1 2-2h5.76a2 2 0 0 1 2 2v5.26a2 2 0 0 1 -2 2zm-5.76-7.26v5.26h5.76v-5.26z" fill="#cfcfcf" data-original="#000000" style=""/><path xmlns="http://www.w3.org/2000/svg" d="m32.88 52.88h-5.76a2 2 0 0 1 -2-2v-5.26a2 2 0 0 1 2-2h5.76a2 2 0 0 1 2 2v5.26a2 2 0 0 1 -2 2zm-5.76-7.26v5.26h5.76v-5.26z" fill="#cfcfcf" data-original="#000000" style=""/><path xmlns="http://www.w3.org/2000/svg" d="m18.88 52.88h-5.76a2 2 0 0 1 -2-2v-5.26a2 2 0 0 1 2-2h5.76a2 2 0 0 1 2 2v5.26a2 2 0 0 1 -2 2zm-5.76-7.26v5.26h5.76v-5.26z" fill="#cfcfcf" data-original="#000000" style=""/><path xmlns="http://www.w3.org/2000/svg" d="m46.88 65h-5.76a2 2 0 0 1 -2-2v-5.25a2 2 0 0 1 2-2h5.76a2 2 0 0 1 2 2v5.25a2 2 0 0 1 -2 2zm-5.76-7.25v5.25h5.76v-5.25z" fill="#cfcfcf" data-original="#000000" style=""/><path xmlns="http://www.w3.org/2000/svg" d="m32.88 65h-5.76a2 2 0 0 1 -2-2v-5.25a2 2 0 0 1 2-2h5.76a2 2 0 0 1 2 2v5.25a2 2 0 0 1 -2 2zm-5.76-7.25v5.25h5.76v-5.25z" fill="#cfcfcf" data-original="#000000" style=""/><path xmlns="http://www.w3.org/2000/svg" d="m18.88 65h-5.76a2 2 0 0 1 -2-2v-5.25a2 2 0 0 1 2-2h5.76a2 2 0 0 1 2 2v5.25a2 2 0 0 1 -2 2zm-5.76-7.25v5.25h5.76v-5.25z" fill="#cfcfcf" data-original="#000000" style=""/></g></svg>
