<svg id="Layer_1" data-name="Layer 1" xmlns="http://www.w3.org/2000/svg" viewBox="0 0 186.35936 213.47378">
  <defs>
    <style>
      .cls-1 {
        fill: #fff;
      }
    </style>
  </defs>
  <g>
    <path class="cls-1" d="M57.867,218.77451c2.21909-2.01243,2.56637-5.62844,3.98634-8.64026,4.254-9.023,9.31415-17.44266,18.4558-22.21956a39.5702,39.5702,0,0,1,11.84808-3.64448c6.82734-1.11189,13.75775-1.59239,20.64717-2.31613.29507-.031.79383.06841.89514.2639,3.17425,6.12427,8.96461,8.62644,15.01834,10.459,13.25412,4.01235,26.66068,3.95112,40.082.75331,5.58391-1.33046,10.47918-4.18723,15.26118-7.21436a4.40507,4.40507,0,0,0,1.50745-2.48651c.36679-1.38247.83084-1.96294,2.44564-1.78628,5.06566.55414,10.20429.58862,15.22091,1.40223a135.81557,135.81557,0,0,1,14.45043,3.55325c.84929.23572,1.34388,1.568,2.20118,1.98343,13.59651,6.58786,17.698,19.67534,22.09362,32.45676,2.244,6.52487,1.509,13.10536-3.65224,17.91256a42.01936,42.01936,0,0,1-12.16245,7.36333c-9.18072,3.91008-18.99363,5.61283-28.83768,7.02837a320.1373,320.1373,0,0,1-53.84308,2.97559c-11.55276-.296-23.10094-1.23346-34.62033-2.2373a134.86823,134.86823,0,0,1-32.446-6.64779c-6.21842-2.14769-12.29654-4.72808-16.41059-10.18569-3.28221-4.35409-3.75578-9.41827-2.6532-14.66192.17042-.8105.535-1.58231.68012-2.39517A6.95319,6.95319,0,0,0,57.867,218.77451Z" transform="translate(-56.82032 -43.26311)"/>
    <path class="cls-1" d="M149.94232,59.3494a43.72191,43.72191,0,0,1,21.67084,5.34148c13.68393,7.47461,21.71266,19.01964,24.31472,34.35841a1.81068,1.81068,0,0,1-.49466,1.31874,16.9487,16.9487,0,0,0-4.8396,12.33q.08448,9.78587-.03221,19.57255a2.14485,2.14485,0,0,1-1.03649,1.66c-4.27923,1.42119-8.59661,2.73045-12.92464,3.99788a3.57143,3.57143,0,0,1-1.69425-.27747c-2.53472-.66861-5.03288-1.74942-7.60132-1.94985a42.99112,42.99112,0,0,0-10.55776.31638c-5.717.98659-10.12006,7.14936-9.606,12.69263.61187,6.59831,5.54186,11.81213,11.71751,11.97235a84.74692,84.74692,0,0,0,12.5068-.55852c1.699-.209,3.17118-1.85913,4.88261-2.47641a54.26522,54.26522,0,0,1,6.21175-1.506c.12273-.02841.25749-.00276.38171-.0273,1.10466-.21819,2.20823-.442,3.31211-.66418-.62542,1.03642-1.19877,2.10874-1.88444,3.10363-5.80415,8.42165-12.73893,15.60285-22.304,19.75042a28.89037,28.89037,0,0,1-20.35731,1.21076c-8.35664-2.50834-14.78626-7.83676-20.43046-14.19909a77.28846,77.28846,0,0,1-13.83-22.98427,3.897,3.897,0,0,1,.08731-2.08852c.56172-2.57946,1.62046-5.12925,1.71116-7.71755.2433-6.9423.13133-13.89921.06459-20.84939a14.494,14.494,0,0,0-4.36865-10.644c-1.66028-1.601-.77829-3.21419-.41454-4.70223,2.67275-10.93376,7.86428-20.35716,17.00322-27.26473A45.56335,45.56335,0,0,1,149.94232,59.3494Z" transform="translate(-56.82032 -43.26311)"/>
    <path class="cls-1" d="M218.00943,122.49521c0,3.99917.40031,8.048-.08773,11.98664-.87343,7.04883-8.71155,10.78535-15.20058,7.63173a2.32414,2.32414,0,0,0-1.93646.17878,54.55648,54.55648,0,0,1-22.57829,8.21265c-1.42649.2058-2.86367.33674-4.292.5309a.933.933,0,0,0-.62974.33527c-1.57391,2.80544-4.3113,3.04751-7.0523,3.13421-2.03034.06421-4.06731-.122-6.10192-.14414-3.64606-.03967-6.48573-2.51327-6.63119-5.82182a6.30047,6.30047,0,0,1,6.21237-6.68617c2.765-.13773,5.54468-.09094,8.313.00856a4.39052,4.39052,0,0,1,2.75119.78787c2.30569,2.32836,5.079,1.83173,7.70692,1.36282,6.43219-1.14775,12.62562-3.07662,18.09761-6.80855a2.32536,2.32536,0,0,0,.664-1.65349c.03648-.9184-.25663-1.84613-.26011-2.77048-.02582-6.86592.004-13.73206-.02324-20.598-.01244-3.12821.97045-5.99916,3.54008-7.65134,2.3269-1.49612,2.16792-3.26927,1.84981-5.37884-2.55-16.90954-10.98516-30.00107-25.649-38.84037a50.25261,50.25261,0,0,0-31.575-7.05845c-20.51924,2.02192-34.59155,13.02306-43.55046,31.21467C98.867,89.969,97.99139,95.88413,97.25543,101.847a1.963,1.963,0,0,0,.77051,1.49106,10.358,10.358,0,0,1,4.85481,8.99384c-.0484,7.07887.023,14.15878-.05531,21.23717-.05478,4.954-4.69809,9.45221-9.6538,9.5228-7.45485.10619-11.57978-4.10726-11.57982-11.82824,0-6.22641-.30708-12.47373.11525-18.67135.25212-3.69979,1.37764-7.46153,5.20343-9.49154a1.693,1.693,0,0,0,.61-1.22345A61.45639,61.45639,0,0,1,99.67,68.73224c9.88733-13.17391,22.91188-21.52849,39.19159-24.40518,18.758-3.31462,35.6958,1.13633,50.47075,13.06126a60.50353,60.50353,0,0,1,21.99185,37.0529,36.25589,36.25589,0,0,1,.7553,6.30015c.0136,1.75548,1.10215,2.48941,2.216,3.35988A10.20893,10.20893,0,0,1,218.238,112.515c.02969,3.32617.00646,6.65282.00646,9.97926Z" transform="translate(-56.82032 -43.26311)"/>
  </g>
</svg>
