<svg id="Layer_1" data-name="Layer 1" xmlns="http://www.w3.org/2000/svg" viewBox="0 0 278 278"><defs><style>.cls-1{fill:#fff;}.cls-2{fill:#f16723;}</style></defs><circle class="cls-1" cx="139" cy="139" r="139"/><path class="cls-2" d="M57.87,218.77c2.22-2,2.56-5.62,4-8.64,4.26-9,9.32-17.44,18.46-22.22a39.7,39.7,0,0,1,11.85-3.64c6.82-1.11,13.75-1.59,20.64-2.32.3,0,.8.07.9.27,3.17,6.12,9,8.62,15,10.46,13.25,4,26.66,3.95,40.08.75,5.58-1.33,10.48-4.19,15.26-7.21a4.43,4.43,0,0,0,1.51-2.49c.37-1.38.83-2,2.44-1.79,5.07.56,10.21.59,15.23,1.41a135.3,135.3,0,0,1,14.45,3.55c.84.23,1.34,1.57,2.2,2,13.59,6.59,17.69,19.68,22.09,32.46,2.24,6.52,1.51,13.1-3.65,17.91a42,42,0,0,1-12.16,7.36c-9.19,3.91-19,5.62-28.84,7a320.17,320.17,0,0,1-53.85,3c-11.55-.3-23.1-1.23-34.62-2.24a134.31,134.31,0,0,1-32.44-6.65C70.2,245.59,64.12,243,60,237.55c-3.28-4.36-3.76-9.42-2.66-14.66.18-.81.54-1.59.68-2.4A6.75,6.75,0,0,0,57.87,218.77Z" transform="translate(-11 -11)"/><path class="cls-2" d="M149.94,59.35a43.75,43.75,0,0,1,21.67,5.34c13.69,7.48,21.72,19,24.32,34.36a1.79,1.79,0,0,1-.5,1.32,16.94,16.94,0,0,0-4.84,12.33q.09,9.78,0,19.57a2.12,2.12,0,0,1-1,1.66c-4.27,1.42-8.59,2.73-12.92,4a3.57,3.57,0,0,1-1.69-.28c-2.54-.67-5-1.75-7.61-2a42.79,42.79,0,0,0-10.55.32c-5.72,1-10.12,7.15-9.61,12.69.61,6.6,5.54,11.81,11.72,12a84.33,84.33,0,0,0,12.51-.56c1.69-.2,3.17-1.86,4.88-2.47a53.55,53.55,0,0,1,6.21-1.51c.12,0,.26,0,.38,0,1.11-.21,2.21-.44,3.31-.66-.62,1-1.2,2.11-1.88,3.1C178.46,167,171.53,174.16,162,178.3a28.8,28.8,0,0,1-20.35,1.21c-8.36-2.5-14.79-7.83-20.43-14.19a77.29,77.29,0,0,1-13.83-23,3.94,3.94,0,0,1,.08-2.09c.57-2.58,1.62-5.13,1.72-7.71.24-7,.13-13.9.06-20.85A14.52,14.52,0,0,0,104.84,101c-1.66-1.6-.78-3.21-.41-4.7,2.67-10.93,7.86-20.36,17-27.26A45.58,45.58,0,0,1,149.94,59.35Z" transform="translate(-11 -11)"/><path class="cls-2" d="M218,122.5c0,4,.4,8-.09,12-.87,7.05-8.71,10.79-15.2,7.63a2.37,2.37,0,0,0-1.94.18,54.52,54.52,0,0,1-22.57,8.22c-1.43.2-2.87.33-4.3.53a.93.93,0,0,0-.63.33c-1.57,2.81-4.31,3-7.05,3.14-2,.06-4.07-.13-6.1-.15-3.65,0-6.49-2.51-6.63-5.82a6.3,6.3,0,0,1,6.21-6.69c2.77-.13,5.55-.09,8.31,0a4.44,4.44,0,0,1,2.76.79c2.3,2.33,5.07,1.83,7.7,1.36,6.43-1.15,12.63-3.07,18.1-6.81a2.28,2.28,0,0,0,.66-1.65c0-.92-.25-1.85-.26-2.77,0-6.87,0-13.73,0-20.6,0-3.13,1-6,3.54-7.65,2.33-1.5,2.17-3.27,1.85-5.38-2.55-16.91-11-30-25.65-38.84a50.3,50.3,0,0,0-31.57-7.06c-20.52,2-34.59,13-43.55,31.22C98.87,90,98,95.88,97.26,101.85a1.94,1.94,0,0,0,.77,1.49,10.35,10.35,0,0,1,4.85,9c0,7.08,0,14.16,0,21.24-.06,5-4.7,9.45-9.66,9.52-7.45.11-11.58-4.11-11.58-11.83,0-6.22-.31-12.47.12-18.67.25-3.7,1.37-7.46,5.2-9.49a1.7,1.7,0,0,0,.61-1.22A61.48,61.48,0,0,1,99.67,68.73c9.89-13.17,22.91-21.53,39.19-24.4,18.76-3.32,35.7,1.13,50.47,13.06a60.45,60.45,0,0,1,22,37.05,36.37,36.37,0,0,1,.76,6.3c0,1.76,1.1,2.49,2.22,3.36a10.23,10.23,0,0,1,3.94,8.42c0,3.32,0,6.65,0,10Z" transform="translate(-11 -11)"/></svg>