<svg id="Layer_1" data-name="Layer 1" xmlns="http://www.w3.org/2000/svg" viewBox="0 0 231.14637 231.14894">
  <path d="M35.59705,163.15328a114.95018,114.95018,0,1,1,.0032,1.57822Q35.59307,163.9424,35.59705,163.15328Zm7.92985-.659A107.51406,107.51406,0,1,0,151.06072,55h-.13022A107.95287,107.95287,0,0,0,43.5269,162.49428Z" transform="translate(-35.59574 -47.51064)"/>
  <path d="M107,129c2.06324,2.914,16.71524,8.66565,20,10,7.593,3.08444,13.42627,5.37338,14.87862,17.246,0,0-10.59515-7.87032-20.87862-12.246-8.38374-3.5673-25-13-25-13l34-51,32,5c4.71507,1.43092,10.69956,6.59467,15,9l34,34-16,14-3-5,10-10L169,97c-2.47517-1.38957-8.23494-4.35827-11-5l-24-5Z" transform="translate(-35.59574 -47.51064)"/>
  <path d="M129.33532,173.946a35.11965,35.11965,0,0,1,26.491,12.27544c13.04757,11.88478,13.08273,11.84683,28.0109,2.12027,19.78666-12.893,19.83939-12.92175,8.93765-33.1462-3.48518-6.46587-7.34385-12.73041-11.012-19.09842-2.58763-4.49259-3.36376-8.42156,5.09056-10.59975,7.35025,14.0414,15.53015,28.05124,22.04754,42.79487a15.98135,15.98135,0,0,1-7.67539,19.12518c-5.9358,4.36277-12.22751,8.257-18.47488,12.178a18.89226,18.89226,0,0,1-26.7055-.81407q-.44639-.47516-.86-.97985c-6.90806-5.5759-14.66774-10.09405-21.66167-15.57608C131.58581,180.70784,131.02419,177.43915,129.33532,173.946Z" transform="translate(-35.59574 -47.51064)"/>
  <path d="M159.56276,154.999l-20.228-35.59283,7.3059-4.85968c6.21462,10.97084,12.14,21.10684,17.71313,31.43257C166.58745,150.1161,166.23394,150.30624,159.56276,154.999Z" transform="translate(-35.59574 -47.51064)"/>
  <path d="M137.57194,130.26154l16.365,29.05785-7.44052,4.26451c-5.16326-9.02433-10.31095-17.33365-14.60063-26.06479-.92632-1.885,1.23869-5.2879,1.97967-7.99136Z" transform="translate(-35.59574 -47.51064)"/>
  <path d="M164.30381,116.55727c4.4878,7.11617,9.25521,14.19039,13.48816,21.571,2.50015,4.35917,2.8984,8.67361-5.04782,9.69261-4.24813-7.33547-8.6884-15.076-13.20256-22.77254C156.53734,119.92542,158.61008,117.54031,164.30381,116.55727Z" transform="translate(-35.59574 -47.51064)"/>
  <g>
    <path d="M98.01855,225.50781a7.29582,7.29582,0,0,1-2.54443,3.52832,7.61764,7.61764,0,0,1-4.70459,1.43946c-5.01611,0-8.23242-3.43164-8.23242-8.78418,0-5.25684,3.33643-8.90528,8.16064-8.90528a7.423,7.423,0,0,1,5.18457,1.82422,8.09359,8.09359,0,0,1,1.94385,2.97656l-3.4082,1.39161c-.81592-2.208-1.896-3.09571-3.74414-3.09571-2.64014,0-4.12842,2.06446-4.12842,5.73633,0,3.69629,1.51221,5.76074,4.22412,5.76074,1.89649,0,3.02442-.98437,3.81641-3.26465Z" transform="translate(-35.59574 -47.51064)"/>
    <path d="M111.72266,230.21191l-1.1045-3.26464h-6.96045l-1.12792,3.26464H98.9292l6.28857-17.16113h4.41651l6.16845,17.16113Zm-4.56055-13.53711-2.59229,7.53614h5.13623Z" transform="translate(-35.59574 -47.51064)"/>
    <path d="M119.30566,216.14648H114.457v-3.0957h13.53711v3.0957h-4.84766v14.06543h-3.84082Z" transform="translate(-35.59574 -47.51064)"/>
    <path d="M139.44238,230.21191l-1.10449-3.26464h-6.96l-1.12891,3.26464h-3.59961l6.28809-17.16113h4.416l6.16894,17.16113Zm-4.56054-13.53711-2.59278,7.53614h5.13672Z" transform="translate(-35.59574 -47.51064)"/>
    <path d="M145.68066,213.05078h3.84082v14.06445H157.082v3.09668H145.68066Z" transform="translate(-35.59574 -47.51064)"/>
    <path d="M172.73047,223.34766c0,4.63183-2.44824,7.12793-7.00879,7.12793-4.585,0-7.05664-2.47168-7.05664-7.03223V213.05078h3.83984V223.251c0,2.88086.96094,4.10449,3.24024,4.10449,2.3291,0,3.33691-1.2959,3.33691-4.24805V213.05078h3.64844Z" transform="translate(-35.59574 -47.51064)"/>
    <path d="M180.91309,221.37891l-5.35254-8.32813h4.56054l3.19239,5.47168,3.168-5.47168h4.10449l-5.18457,8.208,5.80859,8.95312h-4.584l-3.67286-6.16894-3.69628,6.16894h-4.12793Z" transform="translate(-35.59574 -47.51064)"/>
    <path d="M193.75293,213.05078h12.0498v3.0957H197.5459v3.86426H203.834v2.85645H197.5459v4.248h8.64062v3.09668H193.75293Z" transform="translate(-35.59574 -47.51064)"/>
    <path d="M217.92383,216.25684a4.68552,4.68552,0,1,1-4.66895-4.53516A4.58555,4.58555,0,0,1,217.92383,216.25684Zm-8.07031.02636a3.38979,3.38979,0,1,0,3.40136-3.50879A3.41157,3.41157,0,0,0,209.85352,216.2832Zm2.75293,2.24121H211.419v-4.34668a12.08361,12.08361,0,0,1,1.80859-.13476,2.82034,2.82034,0,0,1,1.61914.32422,1.06978,1.06978,0,0,1,.48633.94433c0,.459-.40528.83692-.97168.999v.05371a1.32984,1.32984,0,0,1,.83691,1.10742,3.98444,3.98444,0,0,0,.32324,1.05273h-1.32226a3.0531,3.0531,0,0,1-.32422-.999.70019.70019,0,0,0-.80957-.64746h-.459Zm.02734-2.48339h.459c.5127,0,.89063-.18946.89063-.56739s-.29688-.59375-.83692-.59375c-.21582,0-.37793.02735-.51269.02735Z" transform="translate(-35.59574 -47.51064)"/>
  </g>
</svg>
