<svg id="Layer_1" data-name="Layer 1" xmlns="http://www.w3.org/2000/svg" viewBox="0 0 8.82956 8.85833">
  <g>
    <path d="M145.22491,146.0935a4.41483,4.41483,0,1,1,4.4303,4.41213A4.39118,4.39118,0,0,1,145.22491,146.0935Zm.30292-.02276a4.107,4.107,0,1,0,4.10279-4.10624A4.12376,4.12376,0,0,0,145.52783,146.07074Z" transform="translate(-145.22491 -141.64742)"/>
    <path d="M147.52149,144.80539v-1.31773H151.385v1.31773Zm.31049-.34442h3.22414v-.62453H147.832Z" transform="translate(-145.22491 -141.64742)"/>
    <path d="M147.851,147.53822c.38321.23649.92988-.17662,1.25631.38892h-1.5905v-2.89465h3.87489v1.434c-.3693-.30539-.29282-.7002-.33284-1.09329H147.851Z" transform="translate(-145.22491 -141.64742)"/>
    <path d="M148.76748,148.18657a1.34158,1.34158,0,0,1,1.01195.46892c.49842.454.49976.45254,1.07.081.75584-.49251.75786-.49361.34142-1.26618-.13314-.247-.28054-.4863-.42066-.72956-.09885-.17161-.12849-.3217.19446-.4049.28078.53638.59324,1.07155.84221,1.63475a.61049.61049,0,0,1-.2932.73058c-.22674.16666-.46708.31541-.70573.4652a.72168.72168,0,0,1-1.053-.06853c-.26389-.213-.5603-.38559-.82747-.595C148.85346,148.44487,148.832,148.32,148.76748,148.18657Z" transform="translate(-145.22491 -141.64742)"/>
    <path d="M149.92216,147.4628l-.7727-1.35963.27909-.18564c.23739.41909.46374.80627.67664,1.20071C150.1905,147.27627,150.177,147.28354,149.92216,147.4628Z" transform="translate(-145.22491 -141.64742)"/>
    <path d="M149.08213,146.51784l.62514,1.11-.28423.16291c-.19723-.34473-.39388-.66214-.55774-.99566-.03539-.072.04731-.202.07562-.30527Z" transform="translate(-145.22491 -141.64742)"/>
    <path d="M150.10327,145.99434c.17144.27184.35355.54207.51524.824.09551.16652.11072.33133-.19283.37025-.16227-.28022-.33189-.57589-.50433-.86991C149.80659,146.123,149.88577,146.03189,150.10327,145.99434Z" transform="translate(-145.22491 -141.64742)"/>
  </g>
</svg>
