<svg id="Layer_1" data-name="Layer 1" xmlns="http://www.w3.org/2000/svg" viewBox="0 0 278 278"><defs><style>.cls-1{fill:#a2c753;}.cls-2,.cls-3{fill:#fff;}.cls-3{font-size:69.74px;font-family:HelveticaNeueCE-Medium, "Helvetica Neue CE 65";font-weight:500;}</style></defs><circle class="cls-1" cx="139" cy="139" r="139"/><path class="cls-2" d="M35.22,93.55H77a4,4,0,1,0,0-7.93H35.22a4,4,0,1,0,0,7.93Z" transform="translate(-11 -11)"/><path class="cls-2" d="M75.6,112.63H59.08a4,4,0,0,0,0,7.93H75.6a4,4,0,0,0,0-7.93Z" transform="translate(-11 -11)"/><path class="cls-2" d="M18.63,140.13H59.08a4,4,0,1,0,0-7.93H18.63a4,4,0,0,0,0,7.93Z" transform="translate(-11 -11)"/><path class="cls-2" d="M81,210.42a4,4,0,0,0-4-4H35.22a4,4,0,1,0,0,7.93H77A4,4,0,0,0,81,210.42Z" transform="translate(-11 -11)"/><path class="cls-2" d="M75.6,179.44H59.08a4,4,0,0,0,0,7.93H75.6a4,4,0,0,0,0-7.93Z" transform="translate(-11 -11)"/><path class="cls-2" d="M63.05,163.84a4,4,0,0,0-4-4H18.63a4,4,0,0,0,0,7.93H59.08A4,4,0,0,0,63.05,163.84Z" transform="translate(-11 -11)"/><path class="cls-2" d="M258.76,149.35a4,4,0,0,0,3.72-4.2,79,79,0,1,0-.73,16.68,4,4,0,1,0-7.84-1.18,71.2,71.2,0,1,1,.65-15,4,4,0,0,0,4.2,3.72Z" transform="translate(-11 -11)"/><path class="cls-2" d="M183.58,48.25a101.69,101.69,0,0,0-40.18,8.31h-70a4,4,0,0,0,0,7.93h55a101.63,101.63,0,0,0-20.33,17.23A4,4,0,0,0,114,87.05a93.48,93.48,0,1,1-9.3,12.1,4,4,0,0,0-6.66-4.3,101.72,101.72,0,0,0,30.44,140.66H73.44a4,4,0,0,0,0,7.93h69.9A101.74,101.74,0,1,0,183.58,48.25Z" transform="translate(-11 -11)"/><text class="cls-3" transform="translate(118.38 159.8)">24h</text></svg>