<svg id="Layer_1" data-name="Layer 1" xmlns="http://www.w3.org/2000/svg" viewBox="0 0 296 296">
  <defs>
    <style>
      .cls-1 {
        fill: #9bca6b;
      }

      .cls-2 {
        fill: #fff;
      }
    </style>
  </defs>
  <circle class="cls-1" cx="148" cy="148" r="148"/>
  <path class="cls-2" d="M147.3793,30.234A120.3793,120.3793,0,1,1,27,150.6133,120.5176,120.5176,0,0,1,147.3793,30.234Zm0,230.2909A109.9116,109.9116,0,1,0,37.4676,150.6133,110.0323,110.0323,0,0,0,147.3793,260.5249Z" transform="translate(-1.5 -1.5)"/>
  <path class="cls-2" d="M96.5687,194.0235l45.5765-45.577V66.8714a5.2341,5.2341,0,0,1,10.4681,0v83.7424a5.2716,5.2716,0,0,1-1.5284,3.7056l-47.105,47.105a5.2369,5.2369,0,0,1-7.4112-7.4009Z" transform="translate(-1.5 -1.5)"/>
</svg>
