<svg id="Layer_1" data-name="Layer 1" xmlns="http://www.w3.org/2000/svg" viewBox="0 0 8.84489 8.82099">
  <g>
    <path d="M149.838,142.94621a4.41049,4.41049,0,1,1-4.40637,4.41927A4.38491,4.38491,0,0,1,149.838,142.94621Zm4.11268,4.42767a4.106,4.106,0,1,0-4.12169,4.07882A4.09468,4.09468,0,0,0,153.95071,147.37388Z" transform="translate(-145.43165 -142.9462)"/>
    <path d="M147.93785,150.21259c-.06438-.37505.17-.334.34581-.36206a3.02478,3.02478,0,0,0,2.68693-2.56717,3.1448,3.1448,0,0,0,.01818-.31859l-.66735.5325-.20753-.24949,1.11765-.95754c.25675.33036.51186.638.7365.96656.04062.05939-.04384.20423-.08737.37591l-.515-.56918a3.49379,3.49379,0,0,1-1.59217,2.60865A3.59407,3.59407,0,0,1,147.93785,150.21259Z" transform="translate(-145.43165 -142.9462)"/>
    <path d="M152.11934,145.62353l.03109-.58394c.38347-.04569.39257-.01853.30528.91006h-5.20265v-.971c.52188-.00234.17344.46214.40909.64493Z" transform="translate(-145.43165 -142.9462)"/>
  </g>
</svg>
