<svg id="Layer_1" data-name="Layer 1" xmlns="http://www.w3.org/2000/svg" viewBox="0 0 8.90555 8.89695">
  <g>
    <path d="M151.08485,150.0661a4.44857,4.44857,0,1,1,4.47349-4.40584A4.36366,4.36366,0,0,1,151.08485,150.0661Zm.03272-8.50576a4.07737,4.07737,0,0,0-.02318,8.15463,4.07739,4.07739,0,1,0,.02318-8.15463Z" transform="translate(-146.6528 -141.16916)"/>
    <path d="M148.84781,146.209l.72413-1.37321.15621.07129-.49367,1.22524h.71367l.60584-1.29949.18909.07249-.49581,1.22978h.71l.617-1.301.17223.06645-.47333,1.2377h.6937l.619-1.30021.1697.06326-.46693,1.22844h.703l.60382-1.29521.1736.07225-.46518,1.22969.56865.067.02884.33253h-5.61484v-2.1591l.35106.03127v1.71017Z" transform="translate(-146.6528 -141.16916)"/>
    <path d="M152.71277,147.60908c.03666-.22152-.0095-.38249.0381-.6701.29822.35222.50507.52932.765.83634-.19643.15837-.4565.43524-.778.69441-.03358-.1459.0189-.33672-.02516-.52817-.30891,0-.82746.03716-1.20848.03716-.02435-.12188.02969-.22737,0-.37591C151.90646,147.60281,152.345,147.60908,152.71277,147.60908Z" transform="translate(-146.6528 -141.16916)"/>
    <path d="M148.73442,143.38963c.26235-.24638.47994-.43107.80023-.73186,0,.60107-.00123,0-.00123.60107h1.0393c.00479.12159.00409.28909.00409.28909-1.06733.06342-.44757.00916-1.05741.06809,0,.6018-.01.016-.00853.58111-.17993-.15931-.2999-.28916-.398-.38587C148.98131,143.68153,148.88752,143.55051,148.73442,143.38963Z" transform="translate(-146.6528 -141.16916)"/>
    <path d="M150.23005,147.94156l-.02034-.33248h1.03211v.33248Z" transform="translate(-146.6528 -141.16916)"/>
    <path d="M150.92142,143.52041l-.01727-.26157h1.02156l.0123.25669C151.60468,143.51553,151.299,143.52041,150.92142,143.52041Z" transform="translate(-146.6528 -141.16916)"/>
  </g>
</svg>
