<?xml version="1.0"?>
<svg xmlns="http://www.w3.org/2000/svg" xmlns:xlink="http://www.w3.org/1999/xlink" xmlns:svgjs="http://svgjs.com/svgjs" version="1.1" width="512" height="512" x="0" y="0" viewBox="0 0 512 512" style="enable-background:new 0 0 512 512" xml:space="preserve"><g><path xmlns="http://www.w3.org/2000/svg" d="m484.261719 215.410156c-6-4.933594-15.070313-12.390625-16.105469-16.261718-1.160156-4.347657 2.917969-15.28125 5.894531-23.261719 5.765625-15.472657 12.304688-33.007813 3.671875-47.925781-8.738281-15.101563-27.355468-18.203126-43.777344-20.9375-7.824218-1.304688-19.652343-3.273438-22.671874-6.296876-3.023438-3.023437-4.992188-14.847656-6.296876-22.671874-2.734374-16.421876-5.835937-35.039063-20.9375-43.777344-14.917968-8.632813-32.453124-2.09375-47.921874 3.671875-7.984376 2.976562-18.921876 7.050781-23.265626 5.894531-3.871093-1.035156-11.328124-10.105469-16.261718-16.105469-10.691406-13.003906-22.808594-27.738281-40.589844-27.738281s-29.898438 14.734375-40.589844 27.738281c-4.933594 6-12.390625 15.070313-16.261718 16.105469-4.347657 1.160156-15.28125-2.917969-23.261719-5.894531-15.472657-5.765625-33.007813-12.304688-47.925781-3.671875-15.101563 8.738281-18.203126 27.355468-20.9375 43.777344-1.304688 7.824218-3.273438 19.652343-6.296876 22.671874-3.023437 3.023438-14.847656 4.992188-22.671874 6.296876-16.421876 2.734374-35.039063 5.835937-43.777344 20.9375-8.632813 14.917968-2.09375 32.453124 3.671875 47.921874 2.976562 7.984376 7.054687 18.917969 5.894531 23.265626-1.035156 3.871093-10.105469 11.328124-16.105469 16.261718-13.003906 10.691406-27.738281 22.808594-27.738281 40.589844s14.734375 29.898438 27.738281 40.589844c6 4.933594 15.070313 12.390625 16.105469 16.261718 1.160156 4.347657-2.917969 15.28125-5.894531 23.261719-5.765625 15.472657-12.304688 33.007813-3.671875 47.925781 8.738281 15.101563 27.355468 18.203126 43.777344 20.9375 7.824218 1.304688 19.652343 3.273438 22.671874 6.296876 3.023438 3.023437 4.992188 14.847656 6.296876 22.671874 2.734374 16.421876 5.835937 35.039063 20.9375 43.777344 14.917968 8.628906 32.453124 2.09375 47.921874-3.671875 7.984376-2.976562 18.917969-7.054687 23.265626-5.894531 3.871093 1.035156 11.328124 10.105469 16.261718 16.105469 10.691406 13.003906 22.808594 27.738281 40.589844 27.738281s29.898438-14.734375 40.589844-27.738281c4.933594-6 12.390625-15.070313 16.261718-16.105469 4.347657-1.15625 15.28125 2.917969 23.261719 5.894531 15.472657 5.765625 33.007813 12.304688 47.925781 3.671875 15.101563-8.738281 18.203126-27.355468 20.9375-43.777344 1.304688-7.824218 3.273438-19.652343 6.296876-22.671874 3.023437-3.023438 14.847656-4.992188 22.671874-6.296876 16.421876-2.734374 35.039063-5.835937 43.777344-20.9375 8.632813-14.917968 2.09375-32.453124-3.671875-47.921874-2.976562-7.984376-7.054687-18.917969-5.894531-23.265626 1.035156-3.871093 10.105469-11.328124 16.105469-16.261718 13.003906-10.691406 27.738281-22.808594 27.738281-40.589844s-14.734375-29.898438-27.738281-40.589844zm-18.761719 58.363282c-11.011719 9.054687-22.394531 18.417968-25.878906 31.453124-3.597656 13.453126 1.664062 27.5625 6.75 41.207032 2.378906 6.386718 7.332031 19.671875 5.78125 22.816406-1.761719 3.042969-16.683594 5.527344-23.058594 6.589844-14.253906 2.375-28.992188 4.828125-38.707031 14.546875-9.71875 9.71875-12.175781 24.453125-14.546875 38.707031-1.0625 6.375-3.546875 21.300781-6.585938 23.058594-.011718.003906-1.464844.628906-6.183594-.363282-4.832031-1.015624-10.566406-3.152343-16.636718-5.417968-13.644532-5.085938-27.753906-10.347656-41.210938-6.75-13.03125 3.484375-22.394531 14.871094-31.449218 25.882812-4.527344 5.503906-13.945313 16.957032-17.773438 16.957032s-13.246094-11.453126-17.773438-16.960938c-9.054687-11.011719-18.417968-22.394531-31.453124-25.878906-3.09375-.828125-6.222657-1.1875-9.371094-1.1875-10.546875 0-21.332032 4.019531-31.835938 7.9375-6.382812 2.378906-19.667968 7.335937-22.816406 5.78125-3.042969-1.761719-5.527344-16.683594-6.589844-23.058594-2.371094-14.253906-4.828125-28.992188-14.546875-38.707031-9.714843-9.71875-24.453125-12.175781-38.707031-14.546875-6.375-1.0625-21.300781-3.546875-23.054688-6.585938-.007812-.011718-.632812-1.464844.359376-6.183594 1.015624-4.832031 3.15625-10.566406 5.417968-16.636718 5.085938-13.644532 10.347656-27.753906 6.75-41.210938-3.484375-13.03125-14.871094-22.394531-25.878906-31.449218-5.507812-4.527344-16.960938-13.945313-16.960938-17.773438s11.453126-13.246094 16.960938-17.773438c11.011719-9.054687 22.394531-18.417968 25.878906-31.453124 3.597656-13.453126-1.664062-27.5625-6.75-41.207032-2.378906-6.386718-7.332031-19.671875-5.78125-22.816406 1.761719-3.042969 16.683594-5.527344 23.058594-6.589844 14.253906-2.375 28.992188-4.828125 38.707031-14.546875 9.71875-9.71875 12.175781-24.453125 14.546875-38.707031 1.0625-6.375 3.546875-21.300781 6.585938-23.058594.011718-.003906 1.464844-.628906 6.183594.363282 4.832031 1.015624 10.566406 3.152343 16.636718 5.417968 13.644532 5.085938 27.753906 10.34375 41.210938 6.75 13.03125-3.484375 22.394531-14.871094 31.449218-25.882812 4.527344-5.503906 13.945313-16.957032 17.773438-16.957032s13.246094 11.453126 17.773438 16.960938c9.054687 11.011719 18.417968 22.394531 31.453124 25.878906 13.457032 3.597656 27.5625-1.664062 41.207032-6.75 6.386718-2.378906 19.671875-7.332031 22.816406-5.78125 3.042969 1.761719 5.527344 16.683594 6.589844 23.058594 2.375 14.253906 4.828125 28.992188 14.546875 38.707031 9.71875 9.71875 24.453125 12.175781 38.707031 14.546875 6.375 1.0625 21.300781 3.546875 23.058594 6.585938.003906.011718.628906 1.464844-.363282 6.183594-1.015624 4.832031-3.152343 10.566406-5.417968 16.636718-5.085938 13.644532-10.347656 27.753906-6.75 41.210938 3.484375 13.03125 14.871094 22.394531 25.882812 31.449218 5.503906 4.527344 16.957032 13.945313 16.957032 17.773438s-11.453126 13.246094-16.960938 17.773438zm0 0" fill="#ffffff" data-original="#000000" style=""/><path xmlns="http://www.w3.org/2000/svg" d="m344.769531 167.230469c-5.765625-5.765625-15.121093-5.765625-20.886719 0l-156.652343 156.652343c-5.765625 5.765626-5.765625 15.117188 0 20.886719 2.882812 2.882813 6.664062 4.324219 10.445312 4.324219 3.777344 0 7.558594-1.441406 10.441407-4.324219l156.652343-156.652343c5.765625-5.765626 5.765625-15.117188 0-20.886719zm0 0" fill="#ffffff" data-original="#000000" style=""/><path xmlns="http://www.w3.org/2000/svg" d="m195.078125 237.539062c23.410156 0 42.460937-19.050781 42.460937-42.460937 0-23.414063-19.050781-42.460937-42.460937-42.460937-23.414063 0-42.460937 19.046874-42.460937 42.460937 0 23.410156 19.046874 42.460937 42.460937 42.460937zm0-55.386718c7.125 0 12.921875 5.800781 12.921875 12.925781s-5.796875 12.921875-12.921875 12.921875-12.925781-5.796875-12.925781-12.921875 5.800781-12.925781 12.925781-12.925781zm0 0" fill="#ffffff" data-original="#000000" style=""/><path xmlns="http://www.w3.org/2000/svg" d="m316.921875 274.460938c-23.410156 0-42.460937 19.050781-42.460937 42.460937 0 23.414063 19.050781 42.460937 42.460937 42.460937 23.414063 0 42.460937-19.046874 42.460937-42.460937 0-23.410156-19.046874-42.460937-42.460937-42.460937zm0 55.386718c-7.125 0-12.921875-5.800781-12.921875-12.925781s5.796875-12.921875 12.921875-12.921875 12.925781 5.796875 12.925781 12.921875-5.800781 12.925781-12.925781 12.925781zm0 0" fill="#ffffff" data-original="#000000" style=""/></g></svg>
