<svg id="Layer_1" data-name="Layer 1" xmlns="http://www.w3.org/2000/svg" viewBox="0 0 8.86803 8.85088">
  <g>
    <path d="M150.27564,139.94446a4.42564,4.42564,0,1,1-4.46621,4.42727A4.40162,4.40162,0,0,1,150.27564,139.94446Zm-.02134,8.51527a4.09895,4.09895,0,1,0-4.11711-4.08145A4.09784,4.09784,0,0,0,150.2543,148.45973Z" transform="translate(-145.80942 -139.94445)"/>
    <path d="M150.9187,146.84957l-2.62108-.77446c.2565-1.59949.64872-2.06765,1.84612-2.16916l.36481-1.21848-.44083-.21474.00913-.09331h.50125l.13161-.38015c-.3007-.134-.58093-.25437-.85323-.39053-.01808-.009.024-.13835.04652-.25507.69836.20286,1.37336.39346,2.043.60127.07325.02273.11573.14451.17248.22034-.08659.038-.18137.12024-.25828.106-.25714-.04759-.50789-.12967-.78691-.20556l-.1219.41968a2.9816,2.9816,0,0,0,.49345.172c.34257.05532.451.22812.44461.57721-.02175,1.19239-.00682,2.38542-.01036,3.5782a.74943.74943,0,0,1-.11658.41714,3.76592,3.76592,0,0,1-.121-1.35255c-.01162-.48626-.00263-.973-.00263-1.45953v-1.42648l-.77308-.24318c-.11461.37424-.23566.71038-.31225,1.05635a.41011.41011,0,0,0,.13362.33907,1.4411,1.4411,0,0,1,.51291,1.75613C151.106,146.20576,151.02157,146.50482,150.9187,146.84957Zm-.22429-.42712c.10009-.36474.20775-.65969.25853-.96412a1.01482,1.01482,0,0,0-.714-1.128,1.00228,1.00228,0,0,0-1.20875.47,8.31122,8.31122,0,0,0-.3538,1.02978Z" transform="translate(-145.80942 -139.94445)"/>
  </g>
</svg>
