<svg id="Layer_1" data-name="Layer 1" xmlns="http://www.w3.org/2000/svg" viewBox="0 0 15.85917 15.81696">
  <defs>
    <style>
      .cls-1 {
        fill: none;
        stroke: #020202;
        stroke-width: 0.5px;
      }
    </style>
  </defs>
  <path d="M151.04527,158.52839a7.80463,7.80463,0,0,1-5.9317-2.46232A7.503,7.503,0,0,1,142.911,150.632a7.67541,7.67541,0,0,1,2.50539-5.73959,7.48969,7.48969,0,0,1,3.57942-1.96019,7.87,7.87,0,0,1,7.44034,13.22837C155.20818,157.41989,152.83756,158.6854,151.04527,158.52839Zm-.3375-.86607a6.76934,6.76934,0,0,0,5.256-2.109,6.84511,6.84511,0,0,0,1.92862-5.707,7.01546,7.01546,0,0,0-6.96067-6.33386,6.73157,6.73157,0,0,0-5.43088,2.39171,6.89751,6.89751,0,0,0-1.639,6.12956,6.80428,6.80428,0,0,0,2.2318,3.91588A6.41629,6.41629,0,0,0,150.70777,157.66232Z" transform="translate(-142.91104 -142.72468)"/>
  <path d="M146.0302,154.16705c.196-.48451.38079-.93753.56262-1.39174.40153-1.003.80568-2.005,1.201-3.01051.34613-.88048.71087-1.75542,1.00874-2.65227.13793-.41528.33746-.32182.65239-.3253.29712-.00328.59435-.05.70661.31483.19654.63875.46208,1.25645.70265,1.88145.19751.51313.392,1.02768.6036,1.53505.26821.6432.51863,1.31849.77692,1.96548.19167.4801.38513.93407.55875,1.42162a.79993.79993,0,0,0,.07617.21149c-1.23384.26931-1.00926.36645-1.2339-.22062-.17177-.44889-.31524-.90821-.46893-1.36365a.547.547,0,0,0-.61127-.43851c-.736.03008-1.47432.02049-2.21117.00389a.51446.51446,0,0,0-.57322.42419c-.14719.48325-.307.96377-.48774,1.43541C147.10292,154.45491,147.1965,154.47159,146.0302,154.16705Zm3.371-5.763c-.31267.766,0,0-.9632,2.44505a.225.225,0,0,0-.02071.10825,16.30676,16.30676,0,0,0,2.16138.01376Z" transform="translate(-142.91104 -142.72468)"/>
  <g>
    <line class="cls-1" x1="11.90811" y1="4.43489" x2="11.90811" y2="6.31734"/>
    <line class="cls-1" x1="12.84934" y1="5.37612" x2="10.96689" y2="5.37612"/>
  </g>
  <g>
    <line class="cls-1" x1="11.90811" y1="6.92268" x2="11.90811" y2="8.80513"/>
    <line class="cls-1" x1="12.84934" y1="7.8639" x2="10.96689" y2="7.8639"/>
  </g>
  <g>
    <line class="cls-1" x1="11.90811" y1="9.41046" x2="11.90811" y2="11.29291"/>
    <line class="cls-1" x1="12.84934" y1="10.35168" x2="10.96689" y2="10.35168"/>
  </g>
</svg>
