<?xml version="1.0" encoding="UTF-8"?>
<svg width="21px" height="16px" viewBox="0 0 21 16" version="1.1" xmlns="http://www.w3.org/2000/svg" xmlns:xlink="http://www.w3.org/1999/xlink">
    <!-- Generator: sketchtool 53.2 (72643) - https://sketchapp.com -->
    <title>3775E5F4-E057-4702-AD1C-2487347AAC70</title>
    <desc>Created with sketchtool.</desc>
    <g id="Styleguide" stroke="none" stroke-width="1" fill="none" fill-rule="evenodd">
        <g id="Icons---basics" transform="translate(-303.000000, -1303.000000)" fill-rule="nonzero">
            <g id="sk" transform="translate(303.000000, 1303.000000)">
                <polygon id="Shape" fill="#EE1C25" points="0 0 21 0 21 16 0 16"></polygon>
                <polygon id="Shape" fill="#0B4EA2" points="0 0 21 0 21 10.6666667 0 10.6666667"></polygon>
                <polygon id="Shape" fill="#FFFFFF" points="0 0 21 0 21 5.33333333 0 5.33333333"></polygon>
                <path d="M7.64544375,12.36 C6.23368594,11.6692 4.21430625,10.2980667 4.21430625,7.5858 C4.21430625,4.87346667 4.34194687,3.64 4.34194687,3.64 L10.9490062,3.64 C10.9490062,3.64 11.0766797,4.8735 11.0766797,7.5858 C11.0766797,10.2980667 9.0573,11.6692 7.64544375,12.36 Z" id="Shape" fill="#FFFFFF"></path>
                <path d="M7.64544375,12 C6.35026875,11.3662333 4.49760937,10.1083333 4.49760937,7.62 C4.49760937,5.13163333 4.61475,4 4.61475,4 L10.6762031,4 C10.6762031,4 10.7933438,5.13166667 10.7933438,7.62 C10.7933438,10.1083333 8.94068438,11.3662333 7.64544375,12 Z" id="Shape" fill="#EE1C25"></path>
                <path d="M7.92244688,6.96756667 C8.27314687,6.97333333 8.95735312,6.98726667 9.56664844,6.78016667 C9.56664844,6.78016667 9.55057031,7.00166667 9.55057031,7.25966667 C9.55057031,7.51773333 9.56664844,7.7392 9.56664844,7.7392 C9.00778594,7.5492 8.31767344,7.54523333 7.92247969,7.55033333 L7.92247969,8.9247 L7.36850625,8.9247 L7.36850625,7.55033333 C6.9733125,7.54523333 6.2832,7.5492 5.7243375,7.73916667 C5.7243375,7.73916667 5.74041562,7.5177 5.74041562,7.25963333 C5.74041562,7.00163333 5.7243375,6.78016667 5.7243375,6.78016667 C6.3336,6.98726667 7.01780625,6.97333333 7.36850625,6.96756667 L7.36850625,6.10443333 C7.04887969,6.10153333 6.58825781,6.11703333 6.06749062,6.2941 C6.06749062,6.2941 6.08356875,6.0726 6.08356875,5.81456667 C6.08356875,5.55656667 6.06749062,5.33506667 6.06749062,5.33506667 C6.58750312,5.51183333 7.04753437,5.5276 7.36709531,5.52476667 C7.35065625,4.97816667 7.19391094,4.28926667 7.19391094,4.28926667 C7.19391094,4.28926667 7.51649062,4.31483333 7.64544375,4.31483333 C7.77452812,4.31483333 8.09704219,4.28926667 8.09704219,4.28926667 C8.09704219,4.28926667 7.94032969,4.97816667 7.92389063,5.52473333 C8.24345156,5.52753333 8.70348281,5.5118 9.2234625,5.33503333 C9.2234625,5.33503333 9.20738438,5.5565 9.20738438,5.81453333 C9.20738438,6.07253333 9.2234625,6.29403333 9.2234625,6.29403333 C8.70272813,6.117 8.24207344,6.1015 7.92244688,6.10436667 L7.92244688,6.9675 L7.92244688,6.96756667 Z" id="Shape" fill="#FFFFFF"></path>
                <path d="M7.6453125,8.77583333 C6.99306562,8.77583333 6.64371094,9.695 6.64371094,9.695 C6.64371094,9.695 6.4498875,9.25916667 5.91773437,9.25916667 C5.55768281,9.25916667 5.29232812,9.58453333 5.12367187,9.88583333 C5.77870781,10.9446667 6.82381875,11.5980333 7.6453125,12 C8.46690469,11.598 9.51267187,10.9447667 10.1677734,9.88583333 C9.99911719,9.58453333 9.7337625,9.25916667 9.37371094,9.25916667 C8.841525,9.25916667 8.64691406,9.695 8.64691406,9.695 C8.64691406,9.695 8.29759219,8.77583333 7.6453125,8.77583333 Z" id="Shape" fill="#0B4EA2"></path>
            </g>
        </g>
    </g>
</svg>