<svg id="Layer_1" data-name="Layer 1" xmlns="http://www.w3.org/2000/svg" viewBox="0 0 8.85223 8.84519">
  <defs>
    <style>
      .cls-1 {
        fill: none;
        stroke: #020202;
        stroke-miterlimit: 10;
        stroke-width: 0.25px;
      }

      .cls-2 {
        font-size: 1px;
        font-family: BoschSans-Bold, Bosch Sans;
        font-weight: 700;
        letter-spacing: 0.00732em;
      }

      .cls-3 {
        letter-spacing: 0.00049em;
      }
    </style>
  </defs>
  <path d="M146.38617,148.31123a4.42616,4.42616,0,1,1,8.85194.07927,4.42618,4.42618,0,0,1-8.85194-.07927Zm8.55539.03536a4.12608,4.12608,0,1,0-4.14564,4.11595A4.12775,4.12775,0,0,0,154.94156,148.34659Z" transform="translate(-146.38602 -143.91409)"/>
  <g>
    <path d="M153.11193,148.43655a.23962.23962,0,0,1-.01641-.09161c.03836-.15425-.34343-.25961-.06992-.406.08033-.043.2892.09691.407.1926a10.12285,10.12285,0,0,1,.76653.69263.59524.59524,0,0,1,.08483.8462c-.16516.24679-.34654.48379-.53415.71421a.63234.63234,0,0,1-.75653.20442c-.33749-.11125-.68921-.17892-1.02869-.2849-.07578-.02366-.12643-.12781-.209-.21678a1.19319,1.19319,0,0,1,1.04971.08031c.54731.21828.54753.21773.88956-.23022.53089-.6953.53576-.70093-.1191-1.266a2.28579,2.28579,0,0,0-.476-.24748Z" transform="translate(-146.38602 -143.91409)"/>
    <line class="cls-1" x1="6.23277" y1="4.4783" x2="6.74942" y2="4.88404"/>
    <line class="cls-1" x1="5.96543" y1="4.81872" x2="6.48207" y2="5.22446"/>
    <line class="cls-1" x1="4.59382" y1="4.31895" x2="6.2016" y2="5.5816"/>
  </g>
  <g>
    <path d="M148.22946,149.2799a.97077.97077,0,0,1-.96437-1.0469.9973.9973,0,0,1,.82185-.91652.23122.23122,0,0,0,.204-.17465.98613.98613,0,0,1,.96707-.70955.96662.96662,0,0,1,.94259.7119c.044.14125.13849.15251.24805.17826a1.00152,1.00152,0,0,1,.01766,1.95411.40855.40855,0,0,1-.20014-.02946.20862.20862,0,0,1,.01994-.133.25541.25541,0,0,1,.1316-.05836.77577.77577,0,0,0-.17836-1.53045c-.06124-.00061-.1225-.00009-.20565-.00009a.78431.78431,0,0,0-.32537-.71263,1.06354,1.06354,0,0,0-.44978-.1529.622.622,0,0,0-.58859.2639,3.7635,3.7635,0,0,0-.27057.59138,2.05264,2.05264,0,0,0-.38853.0554.76108.76108,0,0,0-.52268.76.76887.76887,0,0,0,.59728.72208C148.22169,149.08439,148.28464,149.13926,148.22946,149.2799Z" transform="translate(-146.38602 -143.91409)"/>
    <path d="M149.63011,149.07785c0-.16773-.00952-.33633.00582-.50264.00464-.05029.07825-.09423.12027-.14107.03261.04856.09229.09646.09348.14578q.01237.51219-.00068,1.02473c-.00115.04363-.07023.08545-.10784.12811-.037-.04437-.10252-.08664-.106-.13349C149.62237,149.42628,149.63008,149.25178,149.63011,149.07785Z" transform="translate(-146.38602 -143.91409)"/>
    <path d="M149.364,149.09636c-.00013.16177.009.32435-.00533.48483-.0047.05264-.07028.09985-.108.14955-.03551-.04621-.10055-.09163-.10181-.13875-.009-.33573-.00982-.672.00016-1.00764.00152-.05115.07233-.10025.11109-.1503.03468.05278.09489.10355.09926.15873C149.37252,148.75972,149.36408,148.92837,149.364,149.09636Z" transform="translate(-146.38602 -143.91409)"/>
    <path d="M148.87613,149.10009c-.00008.16768.008.336-.00539.5026-.00365.04539-.0719.08559-.1105.12818-.03531-.04013-.1003-.07956-.10126-.12049-.00816-.34758-.00886-.69554.00053-1.043.0012-.04453.07308-.08714.11222-.13064.03483.04725.09616.0926.0997.14208C148.8838,148.75178,148.87622,148.9262,148.87613,149.10009Z" transform="translate(-146.38602 -143.91409)"/>
  </g>
  <text class="cls-2" transform="translate(1.86803 2.17828)">S<tspan class="cls-3" x="0.6582" y="0">TEAMIFY</tspan></text>
</svg>
