<svg id="Layer_1" data-name="Layer 1" xmlns="http://www.w3.org/2000/svg" viewBox="0 0 8.95042 8.91706">
  <g>
    <path d="M149.1683,145.47647a4.39357,4.39357,0,0,1,4.45612,4.43167,4.4756,4.4756,0,1,1-4.45612-4.43167Zm-.06791,8.50231a4.06859,4.06859,0,1,0-4.02276-4.10494A4.04443,4.04443,0,0,0,149.10039,153.97878Z" transform="translate(-144.67403 -145.46935)"/>
    <path d="M146.75843,152.27056c-.00543-.10944-.01685-.234-.017-.35865q-.002-1.99857.0001-3.99713c.00128-.57839.14336-.71729.72217-.72189.37638-.003.753-.00706,1.12918.00146.45084.01021.61983.17573.62191.63432q.00939,2.06906-.00036,4.13818c-.00227.45224-.17429.61355-.63333.62239-.40763.00786-.81555-.0012-1.22329.00254A.61466.61466,0,0,1,146.75843,152.27056Zm.41116-4.65v4.54114h1.61874v-4.54114Z" transform="translate(-144.67403 -145.46935)"/>
    <path d="M151.297,148.61053v.7109l-.38846.03008-.0483-.76011-.5119-.35246.19225-.34714.55135.26322.54259-.25914.23455.33561Z" transform="translate(-144.67403 -145.46935)"/>
    <path d="M150.328,151.58219l.52657-.33385.05133-.72039h.37584l.05414.71648.51022.32526-.18115.371-.55277-.27566-.54655.26039Z" transform="translate(-144.67403 -145.46935)"/>
    <path d="M147.74352,148.58424l-.51461-.3244.18167-.36881.55627.26762.55285-.26335.21353.33052-.51994.366-.03926.72313-.38127.03624Z" transform="translate(-144.67403 -145.46935)"/>
    <path d="M147.21016,151.59341l.53278-.35793.04091-.69376.37927-.04827.05312.74192.50269.33939-.18623.35017-.56279-.26468-.535.27621Z" transform="translate(-144.67403 -145.46935)"/>
  </g>
</svg>
