<svg id="Layer_1" data-name="Layer 1" xmlns="http://www.w3.org/2000/svg" viewBox="0 0 183.79337 184">
  <defs>
    <style>
      .cls-1 {
        fill: #fff;
      }
    </style>
  </defs>
  <path d="M232.79056,149.67369c.3744,50.179-41.38278,92.10573-91.95218,92.32552-48.31806.21-90.37511-41.46663-91.79922-88.69011-1.41745-47.00124,35.461-94.42226,92.05485-95.29892C190.3903,57.24657,232.41656,99.54343,232.79056,149.67369Zm-6.51828.41812a85.348,85.348,0,0,0-85.06374-85.55806c-46.80091-.28831-85.53931,38.07014-85.79763,84.95612a85.43181,85.43181,0,1,0,170.86137.60194Z" transform="translate(-48.99969 -58)"/>
  <path d="M170.92262,152.37945c1.79666,1.80741,4.55276,3.3105,5.23856,5.47027,5.59257,17.61229-4.30549,41.28378-21.67279,52.68985a50.55485,50.55485,0,0,1-73.56052-63.71418c9.10614-19.27188,29.50121-30.93853,50.19236-25.521-2.77914,1.15059-5.47621,3.00836-8.35022,3.3416-26.67164,3.09241-44.38779,27.30205-38.65347,53.1416a43.7335,43.7335,0,0,0,85.99757-15.53006c-.38829-2.78825-.8201-5.57046-1.23177-8.35547Z" transform="translate(-48.99969 -58)"/>
  <g>
    <path class="cls-1" d="M217.99982,131.24422a42.838,42.838,0,1,1,.00017-.1694Q218.00013,131.15953,217.99982,131.24422ZM160.87368,136.657c.77237-1.96779-.10869-2.73566-2.0151-3.18306a10.75834,10.75834,0,0,1-8.35739-10.10356,10.64925,10.64925,0,0,1,7.31364-10.63362,28.72115,28.72115,0,0,1,5.4364-.77525,52.65534,52.65534,0,0,1,3.786-8.27481,8.70248,8.70248,0,0,1,8.23582-3.69269,14.88485,14.88485,0,0,1,6.29346,2.13914,10.97468,10.97468,0,0,1,4.55271,9.97156c1.16355,0,2.02061-.00738,2.8775.00118a10.85485,10.85485,0,0,1,2.49573,21.41468,3.57273,3.57273,0,0,0-1.84147.81679,2.91892,2.91892,0,0,0-.279,1.86055,5.71729,5.71729,0,0,0,2.80035.41229,14.01365,14.01365,0,0,0-.24714-27.34272c-1.53312-.36024-2.85555-.51794-3.47081-2.49421a13.52544,13.52544,0,0,0-13.189-9.96121,13.79822,13.79822,0,0,0-13.53164,9.92832,3.2354,3.2354,0,0,1-2.85436,2.44367,13.9544,13.9544,0,0,0-11.49958,12.82431,13.58326,13.58326,0,0,0,12.47593,14.60693q.50806.04005,1.0179.0418Zm19.59805-2.82714c0,2.43367-.10792,4.87548.07122,7.296.0485.65562.965,1.247,1.48309,1.86784.52633-.59695,1.49285-1.1822,1.509-1.79255q.18948-7.16595.00949-14.33851c-.0167-.69-.85172-1.36033-1.308-2.03986-.588.65562-1.61789,1.27029-1.68292,1.974-.21475,2.3271-.08105,4.68625-.0819,7.0331Zm-3.722.259c0-2.35033.1181-4.71041-.06664-7.04633-.06113-.77236-.90361-1.48241-1.38907-2.221-.54235.70013-1.53312,1.38729-1.5544,2.10311-.13955,4.69692-.12776,9.40157-.0022,14.09926.01763.65935.92794,1.29462,1.42459,1.94142.52786-.69538,1.44562-1.35575,1.51133-2.09251.20042-2.24562.07266-4.52041.0763-6.78392Zm-6.82632.05214c0-2.43308.10607-4.87378-.067-7.29448-.04952-.69233-.90768-1.32693-1.39509-1.98806-.54761.60865-1.55346,1.20484-1.57025,1.828-.13133,4.86259-.12158,9.73146-.00738,14.59481.01348.5727.92286,1.12446,1.41688,1.68589.54015-.59585,1.49513-1.15838,1.54617-1.79348.1872-2.33108.07419-4.68641.07656-7.03259Z" transform="translate(-48.99969 -58)"/>
    <path d="M160.8736,136.65705A13.58334,13.58334,0,0,1,147.338,123.02612q.00178-.50944.0418-1.01772a13.95442,13.95442,0,0,1,11.49958-12.82431,3.23539,3.23539,0,0,0,2.85436-2.44367,13.79822,13.79822,0,0,1,13.53164-9.92832,13.52544,13.52544,0,0,1,13.189,9.96122c.61526,1.97627,1.93778,2.134,3.47081,2.4942a14.01366,14.01366,0,0,1,.24714,27.34273,5.7173,5.7173,0,0,1-2.80035-.4123,2.91888,2.91888,0,0,1,.279-1.86054,3.57265,3.57265,0,0,1,1.84147-.81679,10.85486,10.85486,0,0,0-2.49573-21.41468c-.857-.00856-1.714-.00119-2.8775-.00119a10.9747,10.9747,0,0,0-4.55271-9.97156,14.8847,14.8847,0,0,0-6.29346-2.13913,8.70247,8.70247,0,0,0-8.23582,3.69268,52.65545,52.65545,0,0,0-3.786,8.27482,28.71388,28.71388,0,0,0-5.4364.77524,10.64926,10.64926,0,0,0-7.31364,10.63362,10.75836,10.75836,0,0,0,8.35739,10.10357C160.76491,133.92138,161.64579,134.68917,160.8736,136.65705Z" transform="translate(-48.99969 -58)"/>
    <path d="M180.47207,133.82982c.00043-2.34685-.13336-4.70617.08131-7.0331.06494-.70369,1.095-1.31853,1.68292-1.974.4563.67944,1.29132,1.34982,1.308,2.03986q.17308,7.16684-.00949,14.33851c-.01611.61035-.98271,1.19568-1.509,1.79255-.5181-.62086-1.43459-1.2123-1.48309-1.86784C180.36372,138.7053,180.47165,136.26357,180.47207,133.82982Z" transform="translate(-48.99969 -58)"/>
    <path d="M176.74777,134.08891c-.00178,2.26351.126,4.53839-.07453,6.78418-.0657.7365-.98347,1.39712-1.51132,2.0925-.497-.64654-1.407-1.28207-1.42459-1.94142-.12565-4.69769-.13735-9.40242.0022-14.09926.02128-.71581,1.012-1.4028,1.55439-2.1031.4853.73853,1.32795,1.44884,1.38907,2.221C176.86773,129.37834,176.74963,131.73833,176.74777,134.08891Z" transform="translate(-48.99969 -58)"/>
    <path d="M169.92213,134.14105c-.00118,2.34618.11183,4.70151-.07545,7.03268-.051.6351-1.006,1.19763-1.54617,1.79347-.494-.56142-1.40349-1.1131-1.41688-1.68589-.1142-4.86343-.124-9.7323.00737-14.59481.01671-.623,1.02265-1.21925,1.57025-1.828.48741.66121,1.34558,1.29564,1.39509,1.98805C170.02938,129.26719,169.92332,131.708,169.92213,134.14105Z" transform="translate(-48.99969 -58)"/>
  </g>
  <path d="M119.79214,168.3868a31.97012,31.97012,0,0,1-22.77563-21.67245,31.23578,31.23578,0,0,1,30.40645,8.39506,31.396,31.396,0,0,1,30.32552-8.6189,31.90679,31.90679,0,0,1-22.80235,21.83509A31.5942,31.5942,0,0,1,127.59041,199,31.60774,31.60774,0,0,1,119.79214,168.3868ZM127.4284,193.661a28.55156,28.55156,0,0,0,3.19647-27.96971,28.04988,28.04988,0,0,0,22.5038-16.51674,28.45271,28.45271,0,0,0-25.86959,11.06915,28.25429,28.25429,0,0,0-25.63333-11.10239,28.3197,28.3197,0,0,0,22.51437,16.71929A28.96226,28.96226,0,0,0,127.4284,193.661Z" transform="translate(-48.99969 -58)"/>
</svg>
