<svg id="Layer_1" data-name="Layer 1" xmlns="http://www.w3.org/2000/svg" viewBox="0 0 8.92859 8.90607">
  <g>
    <path d="M149.03705,145.75805a4.4627,4.4627,0,0,1,4.46607,4.43738,4.52082,4.52082,0,0,1-4.46437,4.46428,4.47146,4.47146,0,0,1-4.46408-4.46234A4.42569,4.42569,0,0,1,149.03705,145.75805Zm-.0318,8.50447a4.07637,4.07637,0,0,0,4.12064-4.06878,4.11924,4.11924,0,0,0-4.07659-4.08324,4.07612,4.07612,0,0,0-.044,8.152Z" transform="translate(-144.57454 -145.75371)"/>
    <path d="M150.78927,150.35933v2.5913h-3.36361V150.505c-.97834-.6318-1.24239-1.375-.79149-2.1001.44838-.72106,1.26529-.83675,2.173-.28358a1.65842,1.65842,0,0,1,1.47559-.72515,1.51073,1.51073,0,0,1,1.01057.544C151.91224,148.68651,151.75162,149.5552,150.78927,150.35933Zm-.36915-.27589a4.51812,4.51812,0,0,0,.39687-.26453,1.09056,1.09056,0,0,0,.414-1.12548,1.10483,1.10483,0,0,0-.87506-.883,1.034,1.034,0,0,0-1.081.40549c-.14306.17105-.278.34888-.4171.52426-.80936-.69044-1.40482-.74875-1.8264-.21981a1.00743,1.00743,0,0,0-.17769.79981c.06587.52379.51443.65964.89768.85266l.077.672h2.59168Zm-2.60312,2.46932h2.5595v-1.21813H147.817Z" transform="translate(-144.57454 -145.75371)"/>
  </g>
</svg>
