<svg id="Layer_1" data-name="Layer 1" xmlns="http://www.w3.org/2000/svg" viewBox="0 0 8.96476 8.94791">
  <defs>
    <style>
      .cls-1 {
        fill: none;
        stroke: #000;
        stroke-miterlimit: 10;
        stroke-width: 0.25px;
      }
    </style>
  </defs>
  <g>
    <path d="M148.96314,154.381a4.47333,4.47333,0,1,1,4.50144-4.46327A4.43446,4.43446,0,0,1,148.96314,154.381Zm-.01686-.39544a4.08185,4.08185,0,1,0-4.05727-4.12A4.102,4.102,0,0,0,148.94628,153.98556Z" transform="translate(-144.49986 -145.43445)"/>
    <path d="M149.03041,149.89049c0,.67388.00483,1.34782-.00158,2.02164-.00482.50781-.16746.66537-.68207.67331-.37624.0058-.75277.00717-1.129-.00053-.45015-.00922-.64676-.18585-.64933-.619q-.01228-2.06861-.00047-4.13731c.00234-.44.19338-.61954.63859-.62922q.58775-.01277,1.176-.00011c.4642.00973.64183.19251.64626.66957C149.03508,148.54267,149.03041,149.2166,149.03041,149.89049Zm-1.19477-2.29061v-.00139c-.20359,0-.40743-.00579-.61063.00309-.07259.00316-.20116.03314-.20606.06564-.03208.21289-.03918.42973-.05054.64549-.00744.14114.0812.18211.20456.20265.0482.008.08788.06716.13144.103-.04107.0386-.07988.10735-.12359.1106-.19418.01448-.22249.13433-.217.29138.00437.12506.00552.25064-.00069.37556-.0093.18715.01492.31932.24851.36917.16536.03529.16525.19974-.00423.24162-.23011.05687-.25338.19126-.244.37657.00476.09367.00026.18778.00086.28169.00122.18761-.03165.38006.2589.40479.11609.00989.11362.12341.00133.1918-.08471.0516-.22949.0961-.23992.161a2.48936,2.48936,0,0,0-.00447.607.21135.21135,0,0,0,.14844.14195c.438.01214.87658.0106,1.31485.00467.05323-.00072.14862-.048.15171-.08057a3.29566,3.29566,0,0,0,.01745-.65254c-.00724-.06843-.15506-.114-.21759-.18775-.03477-.041-.02634-.11865-.03738-.17977.35722-.044.26771-.31786.26976-.53676.0021-.22444.06266-.47259-.2589-.56867a.10685.10685,0,0,1,.02265-.2065c.23724-.04355.24678-.196.239-.37835-.00464-.10937-.00393-.2192-.00023-.32864.00567-.16812-.01514-.28666-.22539-.34129-.16764-.04356-.113-.17227.0312-.20024.16417-.03184.1956-.12758.19317-.26569q-.00372-.21123-.00165-.42254a.197.197,0,0,0-.22792-.22756C148.21148,147.60163,148.02355,147.59988,147.83564,147.59988Z" transform="translate(-144.49986 -145.43445)"/>
    <path d="M150.42829,151.88717a.22781.22781,0,0,1-.14221-.33669.35855.35855,0,0,1,.14715-.112c.25463-.095.28524-.29142.2803-.52926-.00315-.15173-.08239-.3866.18691-.39911.27074-.01259.22434.21809.21358.37523a.47671.47671,0,0,0,.32529.54965c.10978.04174.24765.10254.16737.27413-.07326.15659-.19185.213-.33868.10667a.53443.53443,0,0,0-.725.02673A.35925.35925,0,0,1,150.42829,151.88717Z" transform="translate(-144.49986 -145.43445)"/>
    <path d="M150.81828,149.378a1.515,1.515,0,0,1-.08664-.21385.72006.72006,0,0,1-.02149-.23191.47511.47511,0,0,0-.30755-.56186c-.12944-.04937-.205-.14858-.11713-.29618a.179.179,0,0,1,.27981-.062.58243.58243,0,0,0,.699.00321.19629.19629,0,0,1,.31573.06718c.08854.15681-.008.25028-.12571.295a.529.529,0,0,0-.33933.635C151.1282,149.15621,151.1102,149.3057,150.81828,149.378Z" transform="translate(-144.49986 -145.43445)"/>
  </g>
  <line class="cls-1" x1="3.05333" y1="3.15066" x2="3.51078" y2="3.15066"/>
  <line class="cls-1" x1="3.05333" y1="4.47142" x2="3.51078" y2="4.47142"/>
  <line class="cls-1" x1="3.05333" y1="5.71981" x2="3.51078" y2="5.71981"/>
</svg>
