<svg id="Capa_1" data-name="Capa 1" xmlns="http://www.w3.org/2000/svg" viewBox="0 0 511.99902 492.69003">
  <defs>
    <style>
      .cls-1 {
        fill: #fff;
      }
    </style>
  </defs>
  <g>
    <path class="cls-1" d="M444.709,239.616V467.237H67.877V239.616H32.768V484.791a17.55247,17.55247,0,0,0,17.554,17.554H462.263a17.55248,17.55248,0,0,0,17.554-17.554V239.616Z" transform="translate(0 -9.655)"/>
    <path class="cls-1" d="M494.446,107.953H17.554A17.55247,17.55247,0,0,0,0,125.507V240.195a17.55248,17.55248,0,0,0,17.554,17.554H494.445a17.54927,17.54927,0,0,0,17.554-17.554V125.507A17.551,17.551,0,0,0,494.446,107.953ZM476.891,222.647H35.109V143.068H476.892v79.579Z" transform="translate(0 -9.655)"/>
    <path class="cls-1" d="M273.273,121.066c-1.194-4.552-30.152-111.411-114.7-111.411A66.78131,66.78131,0,0,0,91.867,76.361c0,36.782,29.661,66.706,66.121,66.706h98.304a17.55312,17.55312,0,0,0,16.981-22.001ZM157.989,107.959c-17.39,0-31.013-13.88-31.013-31.598a32.02242,32.02242,0,0,1,31.598-31.598c38.52,0,61.586,37.947,72.675,63.195h-73.26Z" transform="translate(0 -9.655)"/>
    <path class="cls-1" d="M354.011,9.655c-84.547,0-113.506,106.859-114.7,111.411a17.55343,17.55343,0,0,0,16.981,22.002h98.304c36.46,0,66.121-29.924,66.121-66.706A66.78025,66.78025,0,0,0,354.011,9.655Zm.586,98.304h-73.33c11.007-25.249,34.003-63.195,72.751-63.195a32.02241,32.02241,0,0,1,31.598,31.598C385.615,94.079,371.993,107.959,354.597,107.959Z" transform="translate(0 -9.655)"/>
    <rect class="cls-1" x="238.73801" y="115.858" width="35.10901" height="359.27802"/>
  </g>
</svg>
