<svg id="Layer_4_copy" data-name="Layer 4 copy" xmlns="http://www.w3.org/2000/svg" viewBox="0 0 90.40821 90.40821">
  <defs>
    <style>
      .cls-1, .cls-2, .cls-4 {
        fill: none;
      }

      .cls-1, .cls-4 {
        stroke: #010f10;
        stroke-miterlimit: 10;
      }

      .cls-1 {
        stroke-width: 3.5px;
      }

      .cls-3 {
        fill: #010f10;
      }

      .cls-4 {
        stroke-width: 3px;
      }
    </style>
  </defs>
  <path class="cls-1" d="M88.8086,45.3555A43.45411,43.45411,0,1,0,45.3555,88.80861,43.45415,43.45415,0,0,0,88.8086,45.3555Z" transform="translate(-0.15039 -0.1504)"/>
  <circle class="cls-2" cx="45.35459" cy="45.3546" r="34.0158" transform="translate(-18.85399 48.46398) rotate(-47.91314)"/>
  <g>
    <path class="cls-3" d="M66.82324,41.91064V54.4082c0,.918.02149,1.96485.085,2.66993H65.2207l-.085-1.794h-.043a3.82636,3.82636,0,0,1-3.52539,2.0293c-2.499,0-4.42187-2.11524-4.42187-5.25586-.02149-3.43946,2.11523-5.55371,4.63574-5.55371A3.45524,3.45524,0,0,1,64.90039,48.085h.043V41.91064Zm-1.87988,9.03663a3.29156,3.29156,0,0,0-.08594-.79,2.76372,2.76372,0,0,0-2.71289-2.17969c-1.94433,0-3.09765,1.709-3.09765,3.99512,0,2.09375,1.02539,3.82324,3.05468,3.82324a2.82579,2.82579,0,0,0,2.75586-2.24219,3.2519,3.2519,0,0,0,.08594-.8125Z" transform="translate(-0.15039 -0.1504)"/>
    <path class="cls-3" d="M70.00879,42.87158a18.00307,18.00307,0,0,1,3.39648-.29883,5.94559,5.94559,0,0,1,3.95118,1.04688,3.01818,3.01818,0,0,1,1.19726,2.54248,3.418,3.418,0,0,1-2.43555,3.16113v.043a3.71109,3.71109,0,0,1,2.96875,3.61035,3.88277,3.88277,0,0,1-1.21679,2.88379c-1.00489.919-2.62793,1.3457-4.97754,1.3457a21.6314,21.6314,0,0,1-2.88379-.17089Zm1.8584,5.897h1.6875c1.96484,0,3.11816-1.02539,3.11816-2.41406,0-1.68847-1.28125-2.35058-3.16113-2.35058a7.93356,7.93356,0,0,0-1.64453.12841Zm0,6.89942a9.86347,9.86347,0,0,0,1.55957.08594c1.92187,0,3.69531-.70508,3.69531-2.79883,0-1.96485-1.6875-2.77735-3.7168-2.77735H71.86719Z" transform="translate(-0.15039 -0.1504)"/>
  </g>
  <g>
    <path class="cls-3" d="M16.18408,64.63574a11.97706,11.97706,0,0,0,5.8667,1.6709c4.60352,0,6.02979-2.93359,5.98877-5.13379-.04053-3.707-3.38135-5.2959-6.84424-5.2959H19.19873V53.1875h1.99658c2.60742,0,5.90723-1.34375,5.90723-4.48145,0-2.11816-1.34424-3.99267-4.64453-3.99267a9.724,9.724,0,0,0-5.29639,1.75244l-.937-2.60791a12.589,12.589,0,0,1,6.92627-2.03711c5.21484,0,7.57764,3.09619,7.57764,6.31494,0,2.72949-1.6294,5.05176-4.88868,6.2334v.082a6.89712,6.89712,0,0,1,5.90723,6.80371c0,4.23633-3.2998,7.94434-9.65576,7.94434a13.46172,13.46172,0,0,1-6.88526-1.793Z" transform="translate(-0.15039 -0.1504)"/>
    <path class="cls-3" d="M51.34082,44.79492a12.95436,12.95436,0,0,0-2.68945.1626,10.76415,10.76415,0,0,0-9.20752,9.41162h.12256a7.892,7.892,0,0,1,6.396-3.05566c4.686,0,7.98584,3.38183,7.98584,8.55566,0,4.84863-3.2998,9.33008-8.80078,9.33008-5.6626,0-9.37012-4.40039-9.37012-11.28516a16.65345,16.65345,0,0,1,4.48145-11.938,14.41889,14.41889,0,0,1,8.47461-3.91113,17.24877,17.24877,0,0,1,2.60742-.20361ZM50.32227,60.07324c0-3.78906-2.15918-6.07031-5.46-6.07031a5.90121,5.90121,0,0,0-5.1333,3.25879,3.05525,3.05525,0,0,0-.40722,1.58887c.08154,4.35937,2.07763,7.57812,5.82568,7.57812C48.24414,66.42871,50.32227,63.8623,50.32227,60.07324Z" transform="translate(-0.15039 -0.1504)"/>
  </g>
  <g>
    <path class="cls-4" d="M44.27708,36.708V16.01633H42.08249l-6.04423,5.83125H32.45387a.36608.36608,0,0,0-.36619.3662v8.29678a.36617.36617,0,0,0,.36619.3662h3.58439L42.08249,36.708Z" transform="translate(-0.15039 -0.1504)"/>
    <path class="cls-4" d="M49.56943,32.26087a8.484,8.484,0,0,0-.00129-11.79869" transform="translate(-0.15039 -0.1504)"/>
    <path class="cls-4" d="M52.07911,37.57516A12.87966,12.87966,0,0,0,51.95558,15.081" transform="translate(-0.15039 -0.1504)"/>
  </g>
</svg>
