<svg id="Layer_1" data-name="Layer 1" xmlns="http://www.w3.org/2000/svg" viewBox="0 0 8.93577 8.9591">
  <g>
    <path d="M153.66276,150.55782a4.42831,4.42831,0,0,1-4.42951,4.464,4.47956,4.47956,0,1,1-.01925-8.95908A4.45034,4.45034,0,0,1,153.66276,150.55782Zm-.4021-.00163a4.02317,4.02317,0,0,0-4.03692-4.0806,4.06671,4.06671,0,0,0-.02571,8.13338A4.00412,4.00412,0,0,0,153.26066,150.55619Z" transform="translate(-144.73376 -146.06269)"/>
    <path d="M151.34955,148.98591h-4.29443l-.036-.73551,1.00627-.04762.11254-.433h2.13225l.13036.43951h.949Z" transform="translate(-144.73376 -146.06269)"/>
    <path d="M149.20483,153.22739q-.65949,0-1.319-.00017c-.0942-.00008-.18909.00475-.28246-.00464-.40359-.0406-.52773-.19633-.46157-.59089.04659-.27778.10616-.55342.162-.8296.07385-.36528.16084-.44953.53349-.45434.65938-.00851,1.31894-.00272,1.97842-.0028.25124,0,.50267-.006.75365.00187.3723.01173.466.0935.536.45432.05663.29178.11126.584.1601.87721.05663.33991-.058.49718-.41266.53728a5.65447,5.65447,0,0,1-.61166.01142C149.89572,153.22834,149.55027,153.2274,149.20483,153.22739Zm-1.61488-.5024h3.22092l-.15535-.94224h-2.9096Z" transform="translate(-144.73376 -146.06269)"/>
    <path d="M147.7405,149.778a2.45394,2.45394,0,0,1,2.92272-.00862c-.03042.155-.12578.19462-.26865.14206-.20434-.07517-.40218-.17379-.61171-.228a2.37276,2.37276,0,0,0-1.63611.17425C148.00226,149.92509,147.85925,150.0076,147.7405,149.778Z" transform="translate(-144.73376 -146.06269)"/>
    <path d="M148.22155,150.40059a1.66051,1.66051,0,0,1,1.97214-.02833c-.10673.05588-.19978.14775-.26157.13013a2.71638,2.71638,0,0,0-1.47057.00387C148.40911,150.52011,148.33528,150.45309,148.22155,150.40059Z" transform="translate(-144.73376 -146.06269)"/>
    <path d="M148.74694,150.90373a.85387.85387,0,0,1,.98939.04476c-.125.0686-.22608.16759-.28069.14648C149.23123,151.00819,148.91239,151.274,148.74694,150.90373Z" transform="translate(-144.73376 -146.06269)"/>
  </g>
</svg>
