<svg id="Layer_1" data-name="Layer 1" xmlns="http://www.w3.org/2000/svg" viewBox="0 0 8.83131 8.84297">
  <defs>
    <style>
      .cls-1, .cls-2, .cls-3 {
        fill: none;
        stroke: #000;
        stroke-linecap: round;
        stroke-miterlimit: 10;
        stroke-width: 0.1px;
      }

      .cls-2 {
        stroke-dasharray: 0.19223 0.19223;
      }

      .cls-3 {
        stroke-dasharray: 0.20462 0.20462;
      }
    </style>
  </defs>
  <g>
    <path d="M145.50091,143.54785a4.41579,4.41579,0,0,1,8.83093.1071,4.41582,4.41582,0,1,1-8.83093-.1071Zm4.42331,4.158a4.10677,4.10677,0,1,0-4.121-4.08287A4.09857,4.09857,0,0,0,149.92422,147.70586Z" transform="translate(-145.50072 -139.19038)"/>
    <g>
      <path d="M151.60683,142.03645v-.30269a.03942.03942,0,0,1,.03114-.04275l.03009.04275v.31259l-.02884.034" transform="translate(-145.50072 -139.19038)"/>
      <polyline points="6.106 3.242 6.11 2.934 6.137 2.897 6.179 2.923 6.179 3.242 6.145 3.279"/>
      <path d="M151.68921,141.66968h.30269c.03512,0,.03686.01887.03686.01887l-.03251.04248-.31369-.00884" transform="translate(-145.50072 -139.19038)"/>
      <path d="M151.99242,141.66968h-.30268a.05155.05155,0,0,0-.046.01829l.02841.03885.31428.004" transform="translate(-145.50072 -139.19038)"/>
      <path d="M152.06526,142.03645v-.30269a.03942.03942,0,0,0-.03114-.04275l-.0301.04275-.0031.30679.02983.03716" transform="translate(-145.50072 -139.19038)"/>
      <polyline points="6.172 2.859 6.497 2.857 6.526 2.891 6.488 2.921 6.185 2.921 6.143 2.893"/>
      <polyline points="6.565 3.242 6.56 2.934 6.534 2.897 6.491 2.923 6.491 3.242 6.525 3.279"/>
      <path d="M151.9903,142.44191l-.30894-.00535-.0294.03812a.05156.05156,0,0,0,.04555.01946l.30258-.00148" transform="translate(-145.50072 -139.19038)"/>
      <path d="M151.67732,142.44541l.31369-.00885.03482.04131s-.00405.02-.03917.02l-.30342-.00642" transform="translate(-145.50072 -139.19038)"/>
    </g>
    <g>
      <path d="M151.05013,142.04008v-.30268a.0394.0394,0,0,1,.03114-.04275l.03009.04275V142.05l-.02884.034" transform="translate(-145.50072 -139.19038)"/>
      <polyline points="5.549 3.246 5.554 2.938 5.581 2.901 5.623 2.927 5.623 3.246 5.589 3.282"/>
      <path d="M151.13251,141.67332h.30268c.03513,0,.03687.01887.03687.01887l-.03252.04248-.31369-.00884" transform="translate(-145.50072 -139.19038)"/>
      <path d="M151.43571,141.67332H151.133a.05155.05155,0,0,0-.046.01829l.02842.03885.31428.004" transform="translate(-145.50072 -139.19038)"/>
      <path d="M151.50855,142.04008v-.30268a.0394.0394,0,0,0-.03114-.04275l-.03009.04275-.0031.30679.02983.03715" transform="translate(-145.50072 -139.19038)"/>
      <polyline points="5.615 2.863 5.941 2.86 5.969 2.894 5.931 2.924 5.628 2.924 5.587 2.897"/>
      <polyline points="6.008 3.246 6.004 2.938 5.977 2.901 5.935 2.927 5.935 3.246 5.969 3.282"/>
      <path d="M151.4336,142.44555l-.309-.00535-.02939.03812a.05156.05156,0,0,0,.04555.01946l.30258-.00149" transform="translate(-145.50072 -139.19038)"/>
      <path d="M151.12061,142.44905l.31369-.00885.03483.04131s-.00405.02-.03918.02l-.30341-.00642" transform="translate(-145.50072 -139.19038)"/>
    </g>
    <g>
      <path d="M149.53245,144.44933v-1.23442a.16069.16069,0,0,1,.127-.17434l.12271.17434v1.27482l-.11762.13863" transform="translate(-145.50072 -139.19038)"/>
      <polyline points="4.032 6.875 4.049 5.618 4.159 5.466 4.331 5.574 4.331 6.874 4.192 7.024"/>
      <path d="M149.86841,142.95356h1.23442c.14325,0,.15036.07695.15036.07695l-.13261.17327-1.27931-.03608" transform="translate(-145.50072 -139.19038)"/>
      <path d="M151.105,142.95356h-1.23441a.21026.21026,0,0,0-.18773.0746l.11588.15845,1.28172.01635" transform="translate(-145.50072 -139.19038)"/>
      <path d="M151.402,144.44933v-1.23442a.16069.16069,0,0,0-.127-.17434l-.12272.17434-.01264,1.25118.12164.15151" transform="translate(-145.50072 -139.19038)"/>
      <polyline points="4.3 5.313 5.627 5.302 5.743 5.441 5.588 5.563 4.353 5.563 4.184 5.451"/>
      <polyline points="5.902 6.875 5.885 5.618 5.775 5.466 5.603 5.574 5.603 6.874 5.742 7.024"/>
      <path d="M151.09633,146.10293l-1.26-.02182-.11989.15545a.21026.21026,0,0,0,.18577.07936l1.234-.00605" transform="translate(-145.50072 -139.19038)"/>
      <path d="M149.81991,146.11719l1.27931-.03608.142.16845s-.01651.08177-.15976.08177l-1.23741-.02619" transform="translate(-145.50072 -139.19038)"/>
    </g>
    <g>
      <path d="M147.46414,144.46417v-1.23443a.16069.16069,0,0,1,.127-.17433l.12272.17433v1.27483l-.11763.13863" transform="translate(-145.50072 -139.19038)"/>
      <polyline points="1.963 6.89 1.981 5.633 2.09 5.481 2.263 5.588 2.263 6.889 2.124 7.039"/>
      <path d="M147.8001,142.9684h1.23442c.14325,0,.15036.077.15036.077l-.13261.17327-1.27931-.03608" transform="translate(-145.50072 -139.19038)"/>
      <path d="M149.03665,142.9684h-1.2344a.21025.21025,0,0,0-.18773.0746l.11588.15845,1.28172.01635" transform="translate(-145.50072 -139.19038)"/>
      <path d="M149.3337,144.46417v-1.23443a.16069.16069,0,0,0-.127-.17433l-.12273.17433-.01264,1.25119.12165.15151" transform="translate(-145.50072 -139.19038)"/>
      <polyline points="2.232 5.328 3.559 5.317 3.675 5.456 3.519 5.578 2.285 5.578 2.116 5.466"/>
      <polyline points="3.834 6.89 3.816 5.633 3.707 5.481 3.535 5.588 3.535 6.889 3.673 7.039"/>
      <path d="M149.028,146.11777l-1.26-.02182-.11989.15544a.21027.21027,0,0,0,.18577.07937l1.234-.006" transform="translate(-145.50072 -139.19038)"/>
      <path d="M147.75159,146.132l1.27931-.03608.142.16845s-.01652.08177-.15977.08177l-1.2374-.02619" transform="translate(-145.50072 -139.19038)"/>
    </g>
    <g>
      <line class="cls-1" x1="6.52511" y1="3.2875" x2="6.50474" y2="3.3854"/>
      <line class="cls-2" x1="6.46559" y1="3.5736" x2="5.78045" y2="6.86718"/>
      <line class="cls-1" x1="5.76088" y1="6.96128" x2="5.74051" y2="7.05918"/>
    </g>
    <g>
      <line class="cls-1" x1="5.58877" y1="3.28248" x2="5.52098" y2="3.35599"/>
      <line class="cls-3" x1="5.38226" y1="3.50641" x2="2.39985" y2="6.74059"/>
      <line class="cls-1" x1="2.33049" y1="6.8158" x2="2.26269" y2="6.88932"/>
    </g>
  </g>
</svg>
