<svg id="Layer_4_copy" data-name="Layer 4 copy" xmlns="http://www.w3.org/2000/svg" viewBox="0 0 85.70728 85.70728">
  <defs>
    <style>
      .cls-1, .cls-2, .cls-4 {
        fill: none;
      }

      .cls-1, .cls-4 {
        stroke: #010f10;
        stroke-miterlimit: 10;
        stroke-width: 3.5px;
      }

      .cls-3 {
        fill: #010f10;
      }

      .cls-4 {
        stroke-linecap: square;
      }
    </style>
  </defs>
  <path class="cls-1" d="M86.45814,45.35544a41.10364,41.10364,0,1,0-41.10269,41.1027A41.10368,41.10368,0,0,0,86.45814,45.35544Z" transform="translate(-2.50086 -2.50086)"/>
  <circle class="cls-2" cx="45.35459" cy="45.35459" r="32.06501" transform="translate(-21.20445 46.11351) rotate(-47.91314)"/>
  <g>
    <path class="cls-3" d="M25.48877,22.62354h2.33887v16.1582H35.5708v1.96289h-10.082Z" transform="translate(-2.50086 -2.50086)"/>
    <path class="cls-3" d="M47.56055,32.24854H40.51611v6.5332h7.85108v1.96289H38.17725V22.62354h9.78662v1.9624H40.51611v5.727h7.04444Z" transform="translate(-2.50086 -2.50086)"/>
    <path class="cls-3" d="M51.40332,22.86523a33.55743,33.55743,0,0,1,4.97461-.376c3.36035,0,5.75293.77929,7.33984,2.2583a8.34523,8.34523,0,0,1,2.55371,6.50635,9.585,9.585,0,0,1-2.60742,7.04394c-1.69433,1.69385-4.49023,2.60791-8.01269,2.60791a37.80476,37.80476,0,0,1-4.248-.21484Zm2.33984,16.02442a14.77289,14.77289,0,0,0,2.36524.13428c5.001,0,7.7168-2.7959,7.7168-7.68946.02636-4.2749-2.39258-6.99023-7.33985-6.99023a13.30072,13.30072,0,0,0-2.74219.2417Z" transform="translate(-2.50086 -2.50086)"/>
  </g>
  <path class="cls-4" d="M29.34,46.51716a16.01474,16.01474,0,0,0,32.02947,0" transform="translate(-2.50086 -2.50086)"/>
  <line class="cls-1" x1="72.96049" y1="44.01536" x2="63.5551" y2="44.01536"/>
  <line class="cls-1" x1="64.14246" y1="65.30418" x2="57.4914" y2="58.65312"/>
  <line class="cls-1" x1="42.85317" y1="74.1222" x2="42.85317" y2="64.71596"/>
  <line class="cls-1" x1="21.56436" y1="65.30418" x2="28.21542" y2="58.65227"/>
  <line class="cls-1" x1="12.74586" y1="44.01536" x2="22.15257" y2="44.01451"/>
</svg>
