<svg id="Layer_1" data-name="Layer 1" xmlns="http://www.w3.org/2000/svg" viewBox="0 0 8.91925 8.9468">
  <path d="M146.0781,145.60684a4.407,4.407,0,0,1,4.46112-4.4188,4.47336,4.47336,0,1,1-.10269,8.94591A4.44242,4.44242,0,0,1,146.0781,145.60684Zm.39334.034a4.04664,4.04664,0,0,0,4.0093,4.09585,4.07506,4.07506,0,1,0,.03777-8.15A4.01056,4.01056,0,0,0,146.47144,145.64083Z" transform="translate(-146.07312 -141.18802)"/>
  <path d="M153.27493,144.33273a1.48478,1.48478,0,0,1-.38858.95744,2.54262,2.54262,0,0,1-1.03007.71241c-.29036.10168-.28674.112-.05357.33631l.10167.09762.26356.2531a3.85381,3.85381,0,0,1-.44445.05337.34855.34855,0,0,1-.20747-.08779c-.24981-.21288-.49067-.43621-.73756-.65258-.10968-.09612-.16144-.18108-.0216-.30056.26142-.22338.51136-.46015.772-.68445.1754-.15093.38847-.0719.587-.069.00382.00006.02786.10749.00567.13369-.09076.10713-.19721.20084-.29424.303-.01611.017-.01411.05111-.02048.07731.02892.00578.06551.02593.08565.01521a1.46037,1.46037,0,0,0,.87937-.97184,1.16445,1.16445,0,0,0-.53795-1.20842,3.366,3.366,0,0,0-1.29824-.50276c-.19328-.046-.27058-.16831-.19037-.32545a.26437.26437,0,0,1,.20887-.12513,2.961,2.961,0,0,1,1.93486.93766A1.5995,1.5995,0,0,1,153.27493,144.33273Z" transform="translate(-146.07312 -141.18802)"/>
  <path d="M149.223,146.75625c-.13347-.00721-.19664-.00641-.25849-.015-.07829-.01091-.11848-.05791-.05216-.12076.1361-.129.27845-.252.425-.36909.13161-.10517.09309-.17025-.0417-.21076a2.60387,2.60387,0,0,1-1.094-.70123,1.53154,1.53154,0,0,1,.00573-2.118,3.1791,3.1791,0,0,1,1.91981-.8823c.055-.00873.16043.09017.18637.15988.03589.09646.04539.23138-.09443.27538-.1484.04669-.30331.07345-.45613.10529a2.69822,2.69822,0,0,0-1.01589.46357,1.14631,1.14631,0,0,0-.04054,1.85694,1.45554,1.45554,0,0,0,.27071.186,1.59163,1.59163,0,0,0,.25442.08627c-.043-.07-.08179-.14307-.13-.20928-.07169-.09848-.15-.19211-.22557-.28781a2.78225,2.78225,0,0,1,.41418-.03618.45529.45529,0,0,1,.25016.101c.2407.20017.471.41287.70425.62189a.21176.21176,0,0,1,.00279.3588c-.24493.21953-.48265.44844-.74119.65071A.68748.68748,0,0,1,149.223,146.75625Z" transform="translate(-146.07312 -141.18802)"/>
  <g>
    <path d="M148.01758,147.15186h.16113v.72021h-.16113Z" transform="translate(-146.07312 -141.18802)"/>
    <path d="M148.34668,147.15186h.18311l.26709.48876v-.48876h.147v.72021h-.17627l-.27393-.49951v.49951h-.147Z" transform="translate(-146.07312 -141.18802)"/>
    <path d="M149.021,147.15186h.17334l.168.5249.16749-.5249h.15771l-.24756.72021h-.17139Z" transform="translate(-146.07312 -141.18802)"/>
    <path d="M149.76562,147.15186h.50489v.12988h-.34571v.16211h.26368v.12011h-.26368v.17823h.36231v.12988h-.52149Z" transform="translate(-146.07312 -141.18802)"/>
    <path d="M150.41113,147.15186h.31641c.1543,0,.24707.07763.24707.20654a.19415.19415,0,0,1-.03906.125.17688.17688,0,0,1-.09668.05713c.06836.02051.09765.05761.11523.144a.58611.58611,0,0,0,.0586.18359v.00391h-.165a.62936.62936,0,0,1-.05469-.17334c-.01563-.07324-.04688-.10156-.11231-.10156h-.11035v.2749h-.15918Zm.292.32519c.07422,0,.11426-.03516.11426-.10059a.08987.08987,0,0,0-.10254-.09863h-.14453v.19922Z" transform="translate(-146.07312 -141.18802)"/>
    <path d="M151.2627,147.28174h-.20411v-.12988h.56836v.12988h-.20312v.59033h-.16113Z" transform="translate(-146.07312 -141.18802)"/>
    <path d="M152.37207,147.50928a.34729.34729,0,0,1-.35156.374.3425.3425,0,0,1-.34766-.36963.34972.34972,0,0,1,.35352-.37256A.34465.34465,0,0,1,152.37207,147.50928Zm-.53125.00342c0,.1499.06836.24072.18262.24072.11328,0,.18066-.08887.18066-.24072,0-.14942-.06933-.2417-.17969-.2417C151.9082,147.271,151.84082,147.35938,151.84082,147.5127Z" transform="translate(-146.07312 -141.18802)"/>
    <path d="M152.5,147.15186h.31543c.1543,0,.24707.07763.24707.20654a.18876.18876,0,0,1-.03906.125.17688.17688,0,0,1-.09668.05713c.06836.02051.09765.05761.11523.144a.61543.61543,0,0,0,.0586.18359v.00391h-.165a.62936.62936,0,0,1-.05469-.17334c-.01563-.07324-.04688-.10156-.11231-.10156h-.10937v.2749H152.5Zm.292.32519c.07324,0,.11328-.03516.11328-.10059a.08987.08987,0,0,0-.10254-.09863h-.14355v.19922Z" transform="translate(-146.07312 -141.18802)"/>
    <path d="M148.938,148.35205l.16308.49365.16309-.49365h.23047v.72022h-.1582v-.542l-.18311.542h-.11865l-.18457-.543v.543h-.144v-.72022Z" transform="translate(-146.07312 -141.18802)"/>
    <path d="M150.31934,148.70947a.34666.34666,0,0,1-.35108.374.34277.34277,0,0,1-.34765-.36963.34944.34944,0,0,1,.35351-.37256A.344.344,0,0,1,150.31934,148.70947Zm-.53028.00342c0,.1499.06836.24072.18213.24072s.18018-.08886.18018-.24072c0-.14941-.06836-.2417-.1792-.2417C149.85645,148.47119,149.78906,148.55957,149.78906,148.71289Z" transform="translate(-146.07312 -141.18802)"/>
    <path d="M150.56934,148.48193h-.20411v-.12988h.56836v.12988h-.20312v.59034h-.16113Z" transform="translate(-146.07312 -141.18802)"/>
    <path d="M151.67871,148.70947a.34675.34675,0,0,1-.35156.374.343.343,0,0,1-.34766-.36963.34972.34972,0,0,1,.35352-.37256A.34409.34409,0,0,1,151.67871,148.70947Zm-.53027.00342c0,.1499.06836.24072.18164.24072.11426,0,.18066-.08886.18066-.24072,0-.14941-.06836-.2417-.17969-.2417C151.21582,148.47119,151.14844,148.55957,151.14844,148.71289Z" transform="translate(-146.07312 -141.18802)"/>
    <path d="M151.80566,148.35205h.31543c.1543,0,.24707.07764.24707.20654a.18871.18871,0,0,1-.03906.125.17684.17684,0,0,1-.09668.05713c.06836.02051.09766.05762.11524.144a.61567.61567,0,0,0,.05859.18359v.00391h-.165a.62961.62961,0,0,1-.05469-.17334c-.01562-.07325-.04687-.10157-.1123-.10157h-.11035v.27491h-.15821Zm.292.3252c.07324,0,.11328-.03516.11328-.10059a.08988.08988,0,0,0-.10254-.09863h-.14453v.19922Z" transform="translate(-146.07312 -141.18802)"/>
  </g>
</svg>
