<svg id="Layer_1" data-name="Layer 1" xmlns="http://www.w3.org/2000/svg" viewBox="0 0 8.87292 8.86691">
  <defs>
    <style>
      .cls-1, .cls-2 {
        fill: none;
        stroke: #000;
        stroke-miterlimit: 10;
        stroke-width: 0.12px;
      }

      .cls-2 {
        stroke-dasharray: 0.25573 0.25573;
      }
    </style>
  </defs>
  <g>
    <path d="M149.702,140.7956a4.43337,4.43337,0,1,1-4.45862,4.40142A4.41889,4.41889,0,0,1,149.702,140.7956Zm-.08555,8.53305a4.10225,4.10225,0,1,0-4.0363-4.16735A4.115,4.115,0,0,0,149.61646,149.32865Z" transform="translate(-145.24314 -140.79554)"/>
    <path d="M149.69849,147.68658v-4.637c-.54376,0-1.059.01-1.57321-.00834-.10482-.00374-.20583-.11424-.3086-.17554.106-.05689.21057-.15934.31839-.16293.517-.01722,1.03514.002,1.55235-.01151.28348-.00739.39471.10292.38964.38526-.01069.59546-.017,1.19183.00736,1.78651.00281.06893-.00736-1.78651-.03825,1.87106-.00258.306.6822-.82911.80977-1.0633.40413-.74189.80225-1.487,1.2029-2.23084l.14573-.01825c.02237.11578.10128.26085.05868.343q-1.06,2.04378-2.155,4.06926a.46259.46259,0,0,1-.3351.19662c-.56388.02049-1.12912.01752-1.69329.00172-.08926-.0025-.1755-.11307-.26313-.17368.08981-.05732.17821-.1615.26965-.16424C148.6153,147.67848,149.145,147.68658,149.69849,147.68658Z" transform="translate(-145.24314 -140.79554)"/>
  </g>
  <g>
    <line class="cls-1" x1="4.80303" y1="5.96755" x2="4.81887" y2="5.84356"/>
    <line class="cls-2" x1="4.85129" y1="5.5899" x2="5.22406" y2="2.67274"/>
    <line class="cls-1" x1="5.24028" y1="2.54591" x2="5.25612" y2="2.42192"/>
  </g>
  <g>
    <line class="cls-1" x1="4.87541" y1="5.95953" x2="4.92159" y2="5.84338"/>
    <line class="cls-2" x1="5.01604" y1="5.60574" x2="6.10231" y2="2.87283"/>
    <line class="cls-1" x1="6.14954" y1="2.75401" x2="6.19571" y2="2.63784"/>
  </g>
</svg>
