<svg id="Layer_1" data-name="Layer 1" xmlns="http://www.w3.org/2000/svg" viewBox="0 0 8.84361 8.81695">
  <g>
    <path d="M149.38724,150.14731a4.40847,4.40847,0,1,1,4.41513-4.42933A4.36133,4.36133,0,0,1,149.38724,150.14731Zm.02632-.28855a4.1164,4.1164,0,1,0-4.15393-4.05674A4.12491,4.12491,0,0,0,149.41356,149.85876Z" transform="translate(-144.95878 -141.33037)"/>
    <path d="M149.40051,147.6567c-.83205,0-1.66422-.008-2.4961.00371-.35467.005-.51734-.125-.51206-.49508.01276-.89417.0088-1.78868.00178-2.683-.0025-.317.13731-.4849.45112-.45244a1.50794,1.50794,0,0,0,1.49485-.55517.706.706,0,0,1,.47245-.14926,7.10545,7.10545,0,0,1,1.1288.00436.94664.94664,0,0,1,.57144.24857,1.31964,1.31964,0,0,0,1.16173.45738c.66033-.03891.681.00966.682.68234.00117.8002-.01346,1.60074.00559,2.40049.00983.413-.15773.55389-.55979.544C151.00216,147.64283,150.20116,147.65673,149.40051,147.6567Zm2.59182-.353v-2.9445a3.44857,3.44857,0,0,1-.64393-.00792c-.24924-.05054-.58039-.08517-.71309-.25442-.5475-.69829-1.28225-.41-1.95449-.44135-.08637-.004-.20105.09521-.264.17648a1.33378,1.33378,0,0,1-1.32035.5317,1.35886,1.35886,0,0,0-.33728.03621v2.9038Z" transform="translate(-144.95878 -141.33037)"/>
    <path d="M150.67624,145.68742a1.2983,1.2983,0,1,1-1.28273-1.29206A1.31723,1.31723,0,0,1,150.67624,145.68742Zm-1.3063-.95264a.96045.96045,0,1,0,.96671.94089A.94872.94872,0,0,0,149.36994,144.73478Z" transform="translate(-144.95878 -141.33037)"/>
    <path d="M149.38243,145.006l-.67179.68553C148.62311,145.25237,148.8602,144.99767,149.38243,145.006Z" transform="translate(-144.95878 -141.33037)"/>
  </g>
</svg>
