<svg id="Layer_1" data-name="Layer 1" xmlns="http://www.w3.org/2000/svg" viewBox="0 0 14.34282 14.5444">
  <defs>
    <style>
      .cls-1 {
        fill: none;
        stroke: #000;
        stroke-miterlimit: 10;
        stroke-width: 0.5px;
      }
    </style>
  </defs>
  <path d="M156.95127,145.34865a7.59236,7.59236,0,0,1-1.32386,6.85209,8.03806,8.03806,0,0,1-3.94017,2.48311,6.72772,6.72772,0,0,1-2.12386.15136,5.204,5.204,0,0,1-1.96171-.47084,7.01041,7.01041,0,0,1-1.85727-1.03077,9.55237,9.55237,0,0,1-1.4715-1.55217,5.94353,5.94353,0,0,1-1.04406-1.85536,7.25264,7.25264,0,0,1,5.46415-9.48071,7.01345,7.01345,0,0,1,4.48522.637,7.65387,7.65387,0,0,1,2.68111,2.16172A9.54269,9.54269,0,0,1,156.95127,145.34865Zm-6.87522,8.623a5.92183,5.92183,0,0,0,4.51734-1.71885,6.38631,6.38631,0,0,0,1.90186-5.434,6.07163,6.07163,0,0,0-1.89438-3.88177,6.44364,6.44364,0,0,0-5.54691-1.71367,6.40827,6.40827,0,0,0,1.02209,12.7483Z" transform="translate(-142.87985 -140.30351)"/>
  <path d="M153.47518,147.60023q0,1.78884.00034,3.57767a1.57584,1.57584,0,0,1-1.39369,1.40269q-2.02527.02082-4.05087-.00043a1.495,1.495,0,0,1-1.37344-1.41333q-.01891-3.57783.0024-7.1558a1.48816,1.48816,0,0,1,1.45115-1.42437c1.303-.016,2.60671-.02152,3.90949.00231a1.574,1.574,0,0,1,1.4513,1.5747c-.01246,1.14539-.00319,2.291-.00319,3.43655Zm-3.42379,4.10614c.596,0,1.19213-.00822,1.78793.0024.55271.00986.73872-.14475.73943-.67527q.00455-3.39978.00138-6.79957c-.00061-.58635-.20871-.84024-.79343-.85314-1.1447-.02525-2.29054-.02063-3.43549-.00214a.82757.82757,0,0,0-.83057.907q.00891,3.26894-.00043,6.53789c-.00257.66809.20227.88786.8844.88289C148.95351,151.70244,149.50246,151.70562,150.05139,151.70637Z" transform="translate(-142.87985 -140.30351)"/>
  <circle class="cls-1" cx="7.18165" cy="10.48315" r="0.55494"/>
  <g>
    <path d="M150.06439,148.00386a.36568.36568,0,1,0,.36568.36568A.36608.36608,0,0,0,150.06439,148.00386Z" transform="translate(-142.87985 -140.30351)"/>
    <path d="M152.04552,145.70766a3.42566,3.42566,0,0,0-3.96588,0l-.09844.07178.2917.40118a2.89074,2.89074,0,0,1,1.85625-.61259,2.92569,2.92569,0,0,1,1.72325.61239l.2894-.401Z" transform="translate(-142.87985 -140.30351)"/>
    <path d="M151.47189,146.49639a2.45433,2.45433,0,0,0-2.81861,0l-.09844.07178.29219.40185a1.9437,1.9437,0,0,1,1.20856-.428h.00905a1.93308,1.93308,0,0,1,1.214.42743l.29174-.40124Z" transform="translate(-142.87985 -140.30351)"/>
    <path d="M150.89825,147.28513a1.484,1.484,0,0,0-1.67134,0l-.09844.07177.29163.40108a.97024.97024,0,0,1,1.28337.0022l.29322-.40328Z" transform="translate(-142.87985 -140.30351)"/>
  </g>
</svg>
