<svg id="Layer_1" data-name="Layer 1" xmlns="http://www.w3.org/2000/svg" viewBox="0 0 63.672 54.5076">
  <defs>
    <style>
      .cls-1 {
        fill: #fff;
      }
    </style>
  </defs>
  <g>
    <path class="cls-1" d="M164.2009,148.075c5.599,0,11.198-.0077,16.7969.0126a3.7921,3.7921,0,0,1,1.6177.2962c1.01.4975,1.2017,1.58.5944,2.924q-4.1231,9.12-8.2618,18.2338c-.8249,1.82-1.6877,3.6229-2.4671,5.4617a2.42,2.42,0,0,1-2.5175,1.6058c-9.3582-.0217-18.7165-.01-28.0747-.0135-1.6907-.0007-2.1826-.3675-2.6526-1.99q-4.7829-16.5145-9.5548-33.0322c-.4714-1.6306-.4672-1.632-2.1973-1.6328-1.8-.0008-3.5995.0155-5.3989-.0075-1.3459-.0172-2.173-.7426-2.2014-1.8647a1.9894,1.9894,0,0,1,2.219-1.9858c2.5994-.02,5.199-.0092,7.7985-.0063,1.8954.0021,2.331.3322,2.8685,2.1927q3.6247,12.5465,7.2438,25.0948c.7975,2.7627,1.6228,5.5177,2.38,8.2913a1.2565,1.2565,0,0,0,1.43,1.0815q12.1776-.0336,24.3553.0019a1.4165,1.4165,0,0,0,1.5343-1.02c.2979-.7829.6912-1.5288,1.0152-2.3024.2693-.6429.0482-1.0072-.6705-1.0132-.8-.0066-1.6-.0071-2.3995-.0072q-8.0984-.0009-16.1969-.0015c-1.8309-.001-2.763-.6529-2.7754-1.9228-.0126-1.2794.9231-1.9622,2.7309-1.9634,6.7185-.0043,13.4371-.0232,20.1553.02a1.7376,1.7376,0,0,0,1.9812-1.2677c.2376-.7169.6195-1.3849.9147-2.0841.2488-.5894.0239-.93-.6061-.98-.358-.0285-.7194-.0176-1.0792-.0176q-11.5179-.0012-23.0357-.0031a9.3,9.3,0,0,1-1.4355-.0635,1.9,1.9,0,0,1-.1238-3.7267,6.5929,6.5929,0,0,1,1.4285-.101c8.5184-.0054,17.0369-.0219,25.5551.0181,1.0991.0052,1.8305-.2123,2.1467-1.3627a16.4823,16.4823,0,0,1,.7766-1.75c.3622-.8893.1824-1.1734-.7481-1.23-.3188-.0195-.64-.0051-.96-.0051q-14.3373,0-28.6746-.0009c-.4,0-.8021.0163-1.1989-.0206a1.8637,1.8637,0,0,1-1.81-1.87,1.9162,1.9162,0,0,1,1.7415-1.9568,9.3935,9.3935,0,0,1,1.1981-.03Q155.9225,148.0736,164.2009,148.075Z" transform="translate(-119.8831 -136.0701)"/>
    <path class="cls-1" d="M172.4625,190.577a5.0831,5.0831,0,1,1,5.1473-5.045A5.0777,5.0777,0,0,1,172.4625,190.577Z" transform="translate(-119.8831 -136.0701)"/>
    <path class="cls-1" d="M144.1568,185.5886a5.0821,5.0821,0,1,1-4.9882-5.1774A5.0129,5.0129,0,0,1,144.1568,185.5886Z" transform="translate(-119.8831 -136.0701)"/>
  </g>
</svg>
