<svg id="Layer_1" data-name="Layer 1" xmlns="http://www.w3.org/2000/svg" viewBox="0 0 8.89227 8.90573">
  <g>
    <path d="M149.36432,153.65222a4.42431,4.42431,0,0,1-4.39492,4.43724,4.45294,4.45294,0,1,1-.01619-8.90566A4.42517,4.42517,0,0,1,149.36432,153.65222Zm-4.43545-4.08205a4.07406,4.07406,0,0,0-4.082,4.08791,4.0937,4.0937,0,0,0,8.18725-.01908A4.04733,4.04733,0,0,0,144.92887,149.57017Z" transform="translate(-140.4777 -149.18379)"/>
    <path d="M142.78259,151.12357c.06378.05273.14537.08827.17392.14879a6.40288,6.40288,0,0,0,1.17335,1.32486.39354.39354,0,0,0,.48744.13742,1.50038,1.50038,0,0,1,.68667.02017c.1381.02479.24073.034.3367-.07426a10.70673,10.70673,0,0,0,1.27583-1.37076c.03908-.06331.18617-.13483.22305-.11071a1.02353,1.02353,0,0,1,.27837.297c.01648.02506-.05747.1443-.11462.17761a9.80829,9.80829,0,0,0-1.41033,1.29795.21487.21487,0,0,0-.06078.28426.90514.90514,0,0,1-.01956.77219.2496.2496,0,0,0,.078.32946c.36781.36462.72873.73633,1.103,1.09417.08127.0777.21346.09922.31088.1637.16021.106.16626.19694.0378.34212-.04146.04686-.08866.08875-.13425.13184-.10731.10143-.2199.07509-.2693-.04107-.19221-.452-.609-.70365-.91439-1.05377-.09241-.106-.21064-.19007-.2989-.29888a.39882.39882,0,0,0-.5263-.1397.78671.78671,0,0,1-.551-.0055c-.23735-.10592-.34664.00972-.482.14683-.30871.31272-.62532.61775-.92954.93472-.09444.09839-.14864.235-.24143.33548-.06515.07054-.2038.1736-.24119.15067a.93007.93007,0,0,1-.27893-.30147c-.01859-.02954.05023-.151.10629-.18474a9.83683,9.83683,0,0,0,1.37732-1.27087c.10728-.096.20109-.18347.099-.35865a.7299.7299,0,0,1-.00694-.722.24211.24211,0,0,0-.06194-.32695c-.36094-.3491-.70925-.71126-1.07052-1.06a1.41926,1.41926,0,0,0-.27744-.16032c-.22485-.13225-.23782-.24352-.04894-.4393C142.6457,151.2382,142.70746,151.19022,142.78259,151.12357Z" transform="translate(-140.4777 -149.18379)"/>
    <path d="M143.17481,153.65989c.06622-.24763.11888-.4748.19142-.69543.01917-.0583.09965-.09646.152-.14387.05963.08028.12013.15994.17768.24167.0065.00924-.0009.03123-.00646.04552a1.51892,1.51892,0,0,0,.02969,1.14563c.05309.135-.07074.16571-.14712.18732a.19436.19436,0,0,1-.17459-.07348C143.31161,154.13528,143.2466,153.89563,143.17481,153.65989Z" transform="translate(-140.4777 -149.18379)"/>
    <path d="M144.90725,151.88848c.23708.0527.42.0871.59916.13543.11577.03124.2763.05807.23752.225-.0393.16919-.16692.178-.33255.13356a2.36718,2.36718,0,0,0-.59795-.06726c-.13633-.00061-.272.06315-.40971.07269a.35058.35058,0,0,1-.23555-.06866c-.06527-.05754-.11389-.16853.02671-.21481C144.44253,152.02288,144.69386,151.95256,144.90725,151.88848Z" transform="translate(-140.4777 -149.18379)"/>
    <path d="M144.91829,155.39021c-.23211-.06494-.4558-.11939-.67248-.19412a.19857.19857,0,0,1-.10922-.15647c.02075-.10631.0825-.20594.22593-.17178.0299.00712.05779.02226.08738.03114a1.615,1.615,0,0,0,.96041.00046c.0442-.01364.10132-.05021.13056-.03476a.45129.45129,0,0,1,.19255.1595c.01788.03406-.04613.15644-.09487.17239C145.40589,155.27275,145.16575,155.32613,144.91829,155.39021Z" transform="translate(-140.4777 -149.18379)"/>
    <path d="M146.69493,153.6748c-.07633.25473-.13556.48033-.21694.69764-.01427.0381-.13232.07129-.183.053-.05886-.02126-.101-.09873-.13995-.15858-.01051-.01613.01522-.05742.02684-.08614a1.44778,1.44778,0,0,0,.00122-1.09521A.21773.21773,0,0,1,146.2,152.918a.16841.16841,0,0,1,.2964.01313C146.578,153.18021,146.63328,153.43789,146.69493,153.6748Z" transform="translate(-140.4777 -149.18379)"/>
  </g>
</svg>
