<svg id="Layer_1" data-name="Layer 1" xmlns="http://www.w3.org/2000/svg" viewBox="0 0 945.78234 165">
  <defs>
    <style>
      .cls-1 {
        fill: #010101;
      }

      .cls-2 {
        fill: none;
        stroke: #231f20;
        stroke-miterlimit: 10;
      }
    </style>
  </defs>
  <g>
    <path class="cls-1" d="M108.24357,126.97925a100.1865,100.1865,0,0,1-19.56576-2.33856c-1.12038-.26239-1.54557-.556-1.23924-1.82143.636-2.62721,1.047-5.30791,1.5962-7.95718.35242-1.70008.41841-1.75678,2.11351-1.37073a74.58123,74.58123,0,0,0,20.19912,1.61314,18.32832,18.32832,0,0,0,3.7952-.55919,2.947,2.947,0,0,0,2.3643-3.13971c-.05859-1.47125-.72737-2.2693-2.64442-2.52621-3.3199-.44492-6.66574-.69354-9.99816-1.04862-2.55218-.27194-5.11436-.49241-7.64759-.891-6.34018-.99773-9.04795-5.08437-7.676-11.35147a12.55613,12.55613,0,0,1,3.22-5.93556c.667-.71645.85771-1.13276-.08407-1.79672a12.74384,12.74384,0,0,1-5.37049-10.24619,77.34052,77.34052,0,0,1,.25463-11.9401c.62446-5.94183,4.06368-9.90727,9.70419-11.8572,5.87881-2.03233,11.90056-1.97682,17.96542-1.00015a24.4934,24.4934,0,0,0,3.602.37338c4.13829.04565,8.27746.00764,12.41629.02241,1.92547.00688,1.93732.02853,1.967,1.8573.02088,1.28287-.07879,2.57321.02709,3.84765.10332,1.24387-.47211,1.78691-1.5612,2.14664-1.138.37587-2.644.62451-3.20159,1.45588-.43971.6557.374,2.10295.52956,3.21282a43.04547,43.04547,0,0,1,.014,13.20659,13.62719,13.62719,0,0,1-7.33478,9.9785,23.491,23.491,0,0,1-9.39757,2.65345c-1.49153.12738-3.01364.00895-4.48286.24456a5.69992,5.69992,0,0,0-2.60349,1.17865A2.20454,2.20454,0,0,0,106.52541,96.8c3.98108.29241,7.95314.73636,11.91788,1.21029a41.57906,41.57906,0,0,1,6.08887,1.07561,8.68463,8.68463,0,0,1,6.55688,7.158,22.60181,22.60181,0,0,1-.14708,9.54625,11.4488,11.4488,0,0,1-7.44552,8.71394,46.72661,46.72661,0,0,1-8.47793,2.04535A61.648,61.648,0,0,1,108.24357,126.97925ZM115.07033,72.257h.0429c0-.9959.05258-1.99514-.0102-2.98709-.17321-2.73976-1.36509-4.26252-4.08476-4.6437a20.41117,20.41117,0,0,0-5.7012.03633,4.18147,4.18147,0,0,0-3.86032,4.18351,43.91759,43.91759,0,0,0-.03087,6.39494c.14676,2.294,1.20169,3.45353,3.465,4.0247a13.42725,13.42725,0,0,0,7.17157-.10115A3.83645,3.83645,0,0,0,115.06,75.45561c.057-1.06338.01029-2.13224.01029-3.19861Z" transform="translate(0.00001)"/>
    <path class="cls-1" d="M161.20745,30V56.81386c2.15634-.82793,4.05266-1.62655,5.9958-2.28774a36.9176,36.9176,0,0,1,12.98253-2.32267c4.90639.13755,8.38585,2.38712,9.86139,7.05848A30.296,30.296,0,0,1,191.473,67.848c.161,11.76124.08237,23.52573.07765,35.28916-.00068,1.72055-.03627,1.74719-1.80894,1.7552q-5.88735.02613-11.77483,0c-1.70788-.00749-1.73367-.03439-1.73515-1.79115-.00876-10.33757-.11175-20.67675.04395-31.012.07023-4.66362-1.98149-5.68825-6.028-4.66125-2.46688.62609-4.78983,1.80028-7.21111,2.63027-1.39813.47925-1.732,1.35211-1.72192,2.75273.05992,8.34091.02968,16.68248.02929,25.02383,0,1.85363-.03674,3.70813.01061,5.56053.02681,1.05022-.27713,1.53593-1.44087,1.52083-4.13834-.05373-8.278-.04349-12.41669-.00594-1.02832.00933-1.43262-.38586-1.34319-1.38074.03176-.35348.00144-.71243.00141-1.0689q-.00027-34.007.00076-68.014c.00015-2.386.00655-2.382,2.39461-2.70827C152.64419,31.17891,156.737,30.61422,161.20745,30Z" transform="translate(0.00001)"/>
    <path class="cls-1" d="M357.81893,125.68633c1.98135-6.902,3.93835-13.71947,5.96771-20.78814-1.11612,0-1.96075.00365-2.8053-.00071-2.087-.01081-2.08691-.01232-2.72494-2.084q-4.43119-14.38779-8.86108-28.776Q346.478,64.54569,343.58675,55.046c-.54007-1.77675-.51138-1.82416,1.27481-1.83458,3.92456-.02292,7.85236.08043,11.77271-.05064,1.568-.05243,2.06564.59452,2.44635,1.94625,2.97192,10.55114,6.00674,21.08459,9.02691,31.62219a5.88924,5.88924,0,0,0,1.11026,2.31136q1.99673-6.93416,3.99247-13.86888c1.92288-6.70551,3.87384-13.40332,5.72992-20.12725a2.133,2.133,0,0,1,2.34005-1.90355q.08578.00882.17063.02455c3.84991.11509,7.70559.02833,11.55893.04259,1.96664.00729,1.98581.03312,1.40435,1.891q-3.95452,12.63535-7.92889,25.2647-6.819,21.69636-13.64188,43.39148c-.78833,2.50816-.51754,2.05607-2.70633,2.077-3.71029.03568-7.4212.01163-11.1318.00124A10.70567,10.70567,0,0,1,357.81893,125.68633Z" transform="translate(0.00001)"/>
    <path class="cls-1" d="M466.18514,84.41413c-3.99579.00115-7.99161-.01177-11.98727.00714-1.74173.00826-1.79224.03955-1.73362,1.79995a16.78153,16.78153,0,0,0,.41446,3.1617,4.42045,4.42045,0,0,0,3.04914,3.311,12.50892,12.50892,0,0,0,3.12982.61842,53.67787,53.67787,0,0,0,16.54181-1.58976c1.76724-.43635,1.97827-.43427,2.23431,1.3425.39542,2.74425,1.04782,5.4513,1.57874,8.17651.15133.777.33468,1.53079-.78208,1.85436-9.36477,2.713-18.83078,4.26234-28.44485,1.572-7.62085-2.13258-12.026-7.4632-12.627-15.24263a143.69985,143.69985,0,0,1-.072-20.27132c.57562-8.90869,5.63227-14.28,14.3916-16.22745a33.98521,33.98521,0,0,1,14.02628-.14668c8.127,1.59557,13.07788,6.86092,13.87527,15.19382.48053,5.02143.31235,10.10347.484,15.15667.0448,1.31846-.7605,1.28778-1.66287,1.286Q472.39286,84.40467,466.18514,84.41413Zm-7.21258-11.42631h3.41549c3.74475-.00038,3.75827-.002,3.314-3.80666-.20636-1.76641-.81153-3.38067-2.53058-4.18672a8.48066,8.48066,0,0,0-8.004.20379c-2.43008,1.34423-2.73184,3.75793-2.75549,6.28673-.01218,1.29979.53619,1.55514,1.65127,1.516,1.63449-.05711,3.27262-.01457,4.90927-.01314Z" transform="translate(0.00001)"/>
    <path class="cls-1" d="M.031,69.50636Q.03066,53.467.03085,37.42761a13.856,13.856,0,0,0-.00718-1.496c-.139-1.27222.32332-1.75629,1.67167-1.72335,3.49431.08539,6.99212.02757,10.48855.02834.85622.00019,1.71275.02079,2.5686.00442.71372-.01363,1.04216.31627,1.038,1.02018-.00382.6414.0162,1.28288.01625,1.92432Q15.80827,62.52773,15.808,87.87c0,.57025.03217,1.1419.00275,1.71046-.04919.9506.4325,1.25707,1.31051,1.19985.56834-.03709,1.14125-.004,1.712-.004q11.45256.00039,22.9051.00255c2.09114.00158,2.101.01427,2.10565,2.09253.0078,3.493-.04282,6.9869.0251,10.47859.024,1.23317-.42144,1.57008-1.60489,1.56731-13.48622-.03144-26.97243-.0148-40.45849-.02593C.061,104.88988.03684,104.851.03537,102.86844Q.02273,86.1873.031,69.50636Z" transform="translate(0.00001)"/>
    <path class="cls-1" d="M271.28768,51.88015c4.59384.54037,9.1929,1.04087,13.77884,1.64171,1.71411.22461,1.71515.35308,1.50217,2.08793-.35569,2.89733-.75791,5.79011-1.04166,8.69446-.10648,1.09006-.39331,1.42028-1.56415,1.24779-3.24036-.47749-6.4978-.88593-9.76279-1.13435a29.67732,29.67732,0,0,0-5.74469.16118c-1.90771.22834-2.5917,1.0604-2.75631,2.70111-.25327,2.52409.20825,3.60482,2.19461,4.27732,1.94961.66008,3.99817,1.02234,5.9703,1.62339,2.71875.82865,5.47193,1.60106,8.09107,2.685a8.93508,8.93508,0,0,1,5.71484,7.64666,34.58506,34.58506,0,0,1-.322,12.10614,11.76033,11.76033,0,0,1-8.09555,8.89988,31.75086,31.75086,0,0,1-12.02588,1.453,68.76606,68.76606,0,0,1-15.16684-2.43251c-2.01959-.55838-2.04507-.60809-1.61731-2.62318.54663-2.57547,1.13407-5.14259,1.64041-7.72576.23148-1.18093.584-1.62711,1.95746-1.23419a48.9456,48.9456,0,0,0,13.50763,1.88977c.4278,0,.85593-.00411,1.28333-.02117,3.86419-.15448,5.361-2.1565,4.4657-5.9244a3.11755,3.11755,0,0,0-2.28153-2.32455c-1.96631-.62275-3.97382-1.11579-5.93924-1.74137-2.57355-.819-5.18545-1.56536-7.668-2.61062-3.69028-1.55381-5.49447-4.52519-5.86761-8.4889a36.02654,36.02654,0,0,1,.35177-10.84484,10.513,10.513,0,0,1,7.52539-8.25518C263.25585,52.37156,267.241,52.1431,271.28768,51.88015Z" transform="translate(0.00001)"/>
    <path class="cls-1" d="M305.63625,80.38521q0-6.19792-.0014-12.39591c-.00348-2.73037.14432-2.45663-2.37744-2.473-1.141-.00741-2.2825-.02914-3.42264.00219-.80515.02208-1.14762-.28585-1.14151-1.11679q.03712-5.02211,0-10.04461c-.00556-.81331.30881-1.16673,1.12948-1.15213,1.35441.02392,2.70987.01822,4.06437-.00681,1.7088-.03158,1.731-.04519,1.74316-1.821.0195-2.84948.00333-5.69922.007-8.54882.002-1.60062-.3447-2.02523,1.87408-2.27307,3.7507-.4188,7.47116-1.10468,11.21985-1.54707,2.34238-.27642,2.22635-.71838,2.23267,1.86924.00857,3.49077-.00766,6.98162.00653,10.47235.00741,1.82155.02643,1.838,1.908,1.84945,2.63833.01616,5.277-.01042,7.91534.01041,1.849.01458,1.87924.03788,1.779,1.94529-.15313,2.91581-.41223,5.8272-.50692,8.74436-.04334,1.33741-.59592,1.67729-1.84238,1.63913-2.5647-.07841-5.135.028-7.70007-.04435-1.20844-.03415-1.58625.37659-1.57941,1.58093.04446,7.765.00348,15.53039.03744,23.29547.00937,2.148.85352,3.03476,2.98945,3.00924a38.24856,38.24856,0,0,0,5.29888-.54312c.87351-.13369,1.34015-.02166,1.47779.9353.42544,2.95846.88965,5.9114,1.34988,8.86472.14643.93926.05637,1.5699-1.0993,1.8907-5.37219,1.49129-10.77063,2.09223-16.25434.73894-5.31066-1.31059-8.37674-4.47743-8.77581-9.94082-.362-4.95531-.07657-9.95782-.07657-14.93952Z" transform="translate(0.00001)"/>
    <path class="cls-1" d="M211.18921,80.95615q0-6.52455.00144-13.04914c.00355-2.83467-.126-2.36016-2.49353-2.38968-1.14185-.01422-2.28439-.02665-3.42578-.00132-.81914.01815-1.14057-.34246-1.136-1.15145.01847-3.28.03245-6.56044-.00942-9.84-.01366-1.06858.49165-1.35015,1.4379-1.32562,1.2839.03332,2.56964.0241,3.854-.00084,1.72463-.03347,1.75076-.04718,1.76467-1.83735.0227-2.92338.05061-5.848-.01238-8.77021-.02754-1.27648.26769-1.87748,1.71845-2.03336,3.75543-.40339,7.484-1.05014,11.22935-1.55565,2.26962-.30633,2.28546-.26947,2.29175,1.94582.0097,3.42269-.00733,6.84546.00714,10.26812.00827,1.95859.02618,1.97309,2.04462,1.98424,2.71218.015,5.425.03312,8.13653-.00841,1.12274-.01719,1.70749.20143,1.57239,1.54885q-.46922,4.67928-.67456,9.38317c-.05127,1.17456-.54453,1.42112-1.57306,1.40479-2.64023-.04182-5.28278.03511-7.922-.03311-1.20642-.03124-1.61285.3868-1.60669,1.59118.03928,7.701-.00708,15.40229.03955,23.1031.01459,2.408.87378,3.24521,3.27387,3.1982a39.48682,39.48682,0,0,0,5.09146-.54606c.89636-.1353,1.28259.05683,1.4136,1.012q.62434,4.55139,1.40958,9.08009c.15622.90126-.09836,1.28017-.95883,1.53015-5.5047,1.59909-11.05934,2.18395-16.68176.75008-5.34145-1.3622-8.42507-5.02962-8.64746-10.57051-.18283-4.55543-.03728-9.124-.03728-13.68673Z" transform="translate(0.00001)"/>
    <path class="cls-1" d="M422.43551,67.36671q0,17.62877-.00128,35.25754c-.00049,2.265-.00791,2.27-2.34916,2.27281q-5.4541.00648-10.90835-.00187c-2.04816-.00582-2.0603-.01885-2.0607-2.14113q-.005-26.71023-.002-53.42048,0-7.69257.00385-15.38511c.00357-1.79056.01593-1.83562,1.8378-2.10018,4.01788-.58336,8.05173-1.06228,12.06012-1.702,1.26773-.20231,1.44137.27116,1.43188,1.322-.03354,3.70351-.01236,7.40751-.0123,11.11133Q422.43568,54.97319,422.43551,67.36671Z" transform="translate(0.00001)"/>
    <path class="cls-1" d="M57.50346,78.92552q0-11.74949.00221-23.499c.00155-2.20721.01343-2.21608,2.221-2.22074q5.34588-.01126,10.69165-.00015c2.2545.00446,2.26655.01274,2.27124,2.18121.00891,4.13013.00275,8.26026.00275,12.3904q0,17.197-.00072,34.39406c0,.56956-.0233,1.1394-.01251,1.70864.01369.72185-.33626,1.01267-1.04394,1.01114-4.34787-.00935-8.69586-.01783-13.04358.00714-1.05745.00609-1.09019-.64056-1.0881-1.40551.00764-2.77713.00026-5.55429,0-8.33144Q57.50274,87.04342,57.50346,78.92552Z" transform="translate(0.00001)"/>
    <path class="cls-1" d="M72.68789,38.52037c-.00056,2.28114-.02948,4.56281.01273,6.84319.0185.99739-.34441,1.38969-1.36362,1.38127q-6.20748-.05142-12.41562-.00106c-.95211.0067-1.43727-.239-1.42859-1.30873.03707-4.562.026-9.12452.008-13.68673-.00349-.88231.30661-1.28916,1.2413-1.28358,4.20982.02527,8.42007.03289,12.62969-.00555,1.071-.00978,1.3394.4858,1.32638,1.43167C72.66776,34.10028,72.68845,36.31042,72.68789,38.52037Z" transform="translate(0.00001)"/>
  </g>
  <g>
    <path class="cls-1" d="M748.64745,97.595c-.6275,3.6582-.6275,3.66448-4.87549,3.66448H725.914c-3.13739,0-3.40722-.26354-3.40722-3.38211V43.66947c0-3.1374.24469-3.38211,3.40722-3.40094q9.55023-.05649,19.113,0c3.22522,0,3.47619.30747,3.48877,3.6833v15.938c.33258,0,.59613.08158.72162,0,9.41217-7.23482,19.49578-6.36889,29.60443-2.0644,4.64331,1.97029,7.32892,6.12419,8.64038,10.9746a35.76685,35.76685,0,0,1,.15057,18.58591c-2.00793,7.76191-7.17834,12.2923-14.94024,13.84845a33.97788,33.97788,0,0,1-14.934,0C754.60222,100.43744,751.64055,98.81227,748.64745,97.595Zm-.85339-17.88313a23.51115,23.51115,0,0,0,.81573,3.859,6.83668,6.83668,0,0,0,6.41913,4.68726c3.28174.20707,6.11163-.62748,7.6427-3.76487a11.97228,11.97228,0,0,0,.16315-10.61065,7.279,7.279,0,0,0-3.23779-3.19387c-5.1955-2.50991-10.61066.38276-11.55817,6.06144-.113.84082-.11926,1.68159-.24475,2.96165Z" transform="translate(0.00001)"/>
    <path class="cls-1" d="M919.22118,60.57373a3.85648,3.85648,0,0,0,.28235-1.07926c-.35138-3.26916.65888-3.76487,3.76489-3.76487,6.27478.03765,12.54956,0,18.82434,0,3.06836,0,3.48249.433,3.48249,3.41348v38.546c0,3.20013-.33881,3.50132-3.66449,3.51388H923.419c-3.54529,0-3.54529,0-3.92176-3.5578,0-.15687-.2008-.30119-.40161-.58983a10.65441,10.65441,0,0,0-.97888.62748,16.16387,16.16387,0,0,1-9.75726,3.80879,82.79754,82.79754,0,0,1-13.09546-.27609c-8.62152-1.17966-14.17475-7.25365-15.60541-16.43367a39.60753,39.60753,0,0,1,.32-14.02414c1.713-8.48351,6.95245-13.64766,15.42969-15.15361a39.494,39.494,0,0,1,13.71667.03138A21.73618,21.73618,0,0,1,919.22118,60.57373ZM904.20562,78.231c0,1.211-.04395,1.73183,0,2.24637.433,4.9006,3.18756,7.718,7.63012,7.856,4.66218.14432,7.64271-2.54756,8.20112-7.56112a14.472,14.472,0,0,0-.17572-4.02841c-.76551-4.30449-3.19391-6.27478-7.58-6.27478-4.64331,0-7.09052,1.91381-7.90625,6.27478a12.6372,12.6372,0,0,0-.16944,1.4934Z" transform="translate(0.00001)"/>
    <path class="cls-1" d="M615.15771,61.41455c6.2246-6.03006,13.472-6.53832,20.88873-6.27478a32.3761,32.3761,0,0,1,6.187.91612c6.3689,1.4934,10.03967,5.685,11.45148,11.92209a33.83641,33.83641,0,0,1,.69647,6.84579c.08783,7.73681.06274,15.47989.04394,23.2167,0,2.94915-.25726,3.1813-3.25036,3.19386H631.40935c-2.71069,0-3.037-.33257-3.05584-3.09974-.03766-5.33357,0-10.66714,0-16.0007V79.624c-.10041-5.83555-5.139-8.64665-10.27808-5.7477-2.08325,1.17339-2.68561,3.04955-2.67932,5.28964V96.10786c0,.72788.03137,1.462,0,2.1899-.14435,2.11461-.49573,2.50992-2.6919,2.50992-3.45111.0502-6.90228,0-10.35339,0s-6.90228.03764-10.35339,0c-2.41577,0-2.82367-.3765-2.8299-2.67933q-.069-19.76559-.04394-39.53114c0-2.284.45178-2.77346,2.786-2.79856q10.19017-.11295,20.393,0c2.34674,0,2.69812.46434,2.86756,2.76091C615.20159,59.27485,615.15771,59.99645,615.15771,61.41455Z" transform="translate(0.00001)"/>
    <path class="cls-1" d="M688.34679,102.87833c-3.64563-.2761-7.30383-.38277-10.92438-.84711-14.90887-1.88243-22.88415-12.22328-21.10839-27.14471C657.525,64.69,662.7708,58.616,672.74767,55.9492c7.68036-2.05185,15.51129-1.93891,23.34845-1.36789a37.68659,37.68659,0,0,1,12.16681,2.74835A18.64246,18.64246,0,0,1,719.25634,69.44a29.30376,29.30376,0,0,1,.78436,15.46735A20.28246,20.28246,0,0,1,708.012,99.59661a36.832,36.832,0,0,1-13.38409,2.968c-2.08325.10667-4.17273,0-6.27478,0Zm8.26392-23.84418c-.1004-3.33819-.47687-6.532-3.76489-8.15722a9.82632,9.82632,0,0,0-8.78473-.06275c-3.5578,1.713-4.00959,5.15159-3.89667,8.56508s.753,6.7454,4.45508,8.26389c6.03631,2.50992,11.29461-.7216,11.92212-7.17208.02508-.49571.04394-1.01651.069-1.42437Z" transform="translate(0.00001)"/>
    <path class="cls-1" d="M847.03606,70.98987V97.62006c0,3.37582-.23218,3.61427-3.50763,3.62681q-9.71337.03765-19.45184,0c-2.7923,0-3.13739-.32-3.13739-3.00562q-.03753-27.25765,0-54.509c0-2.59776.48315-3.07463,3.13739-3.09974q9.87653-.08786,19.74048,0c2.72955,0,3.175.55845,3.18133,3.41975C847.05486,53.044,847.03606,62.01066,847.03606,70.98987Z" transform="translate(0.00001)"/>
    <path class="cls-1" d="M816.94219,78.77061v19.113c0,3.13739-.25726,3.36955-3.40723,3.38211q-9.70705.03765-19.42047,0c-2.95544,0-3.2503-.3012-3.2503-3.2127V58.89837c0-2.71071.33258-3.06837,3.07464-3.09347q9.87661-.0753,19.7342,0c2.93658,0,3.2503.35766,3.26287,3.24406C816.96105,65.59356,816.94219,72.17581,816.94219,78.77061Z" transform="translate(0.00001)"/>
    <path class="cls-1" d="M851.12725,78.39412V58.94229c0-2.76718.32629-3.13739,2.993-3.18131q10.03968-.09414,20.07929,0c2.69812,0,3.0307.39531,3.037,3.13739q.03763,19.57733,0,39.15465c0,2.86759-.32,3.13739-3.31311,3.13739q-9.70705.03766-19.45184,0c-3.106,0-3.3382-.25726-3.34442-3.43229C851.11468,91.32018,851.12725,84.86342,851.12725,78.39412Z" transform="translate(0.00001)"/>
    <path class="cls-1" d="M803.715,52.51064c-3.2378,0-6.47559.04393-9.7071,0-2.55383-.04393-2.88012-.389-2.93035-2.91778-.05018-2.08322-.06275-4.17272,0-6.27478s.571-2.604,2.61657-2.67305c2.924-.08786,5.84809,0,8.78473,0,3.65192,0,7.31012,0,10.962.04392,2.84247.0502,3.26288.50826,3.31311,3.28172.03766,1.88243.05017,3.76487,0,5.6473-.069,2.42834-.48944,2.8613-3.00562,2.90523C810.39135,52.55456,807.05315,52.51064,803.715,52.51064Z" transform="translate(0.00001)"/>
    <path class="cls-1" d="M864.18505,40.61365c3.23151,0,6.4693-.0502,9.70709,0,2.604.05647,3.06207.56473,3.13739,3.175.04395,1.98283.05646,3.97193,0,5.94849-.06274,2.15853-.48315,2.70443-2.51,2.72326q-10.33465.10038-20.66913,0c-1.93261,0-2.37817-.52708-2.44714-2.44717-.07532-2.1899-.069-4.39235,0-6.576s.56476-2.75464,2.81738-2.81739c3.3382-.08157,6.6764,0,10.03968,0Z" transform="translate(0.00001)"/>
    <path class="cls-1" d="M945.78234,46.14173a6.3501,6.3501,0,0,1-6.212,6.16184,6.18668,6.18668,0,0,1-6.0108-6.35766q.00357-.12495.01209-.24969a5.99866,5.99866,0,0,1,6.09912-5.81045A6.35633,6.35633,0,0,1,945.78234,46.14173Zm-11.12518-.1004c0,3.16877,1.9389,5.15788,5.01983,5.114a4.91945,4.91945,0,0,0,5.02613-4.81037q.00411-.18943-.00629-.37887a4.85975,4.85975,0,0,0-5.27081-4.932c-2.95545.08784-4.7688,2.00165-4.7688,5.03237Z" transform="translate(0.00001)"/>
    <path class="cls-1" d="M941.98607,49.8062c-.458-1.04788-1.52478-2.9115-2.77972-3.05582-.0816,0-.138,0-.182.04393-.458.85337-.5271,2.8111-.97888,2.86757-.58984.069-.21338.10668-.20709,0,.04394-2.74208.45178-7.22227,0-7.02775-1.211.502,2.80481-.069,3.859.62748s.67138,2.59777.18194,2.67933c-1.43689.7969,1.34913,3.80252.3263,3.80252S942.02373,49.9066,941.98607,49.8062Zm-.53332-5.06375a1.74432,1.74432,0,0,0-1.43066-.95376c-.87848,0-1.255.40786-1.34906.77807.21337.53962.39532.92239.8847.93493A1.88241,1.88241,0,0,0,941.45275,44.74245Z" transform="translate(0.00001)"/>
  </g>
  <line class="cls-2" x1="534.78235" x2="534.78235" y2="165"/>
</svg>
