<svg id="Layer_1" data-name="Layer 1" xmlns="http://www.w3.org/2000/svg" viewBox="0 0 8.8853 8.89864">
  <defs>
    <style>
      .cls-1 {
        fill: none;
        stroke: #000;
        stroke-miterlimit: 10;
        stroke-width: 0.25px;
      }
    </style>
  </defs>
  <path d="M154.22627,146.75684a4.44086,4.44086,0,1,1-8.8817-.0169,4.44087,4.44087,0,1,1,8.8817.0169Zm-4.44361-4.087a4.0873,4.0873,0,1,0,4.11061,4.07591A4.04967,4.04967,0,0,0,149.78266,142.66984Z" transform="translate(-145.34456 -142.29737)"/>
  <path d="M151.4434,146.66144c.17379-.13671.3089-.15662.36663.03472.18038.59777.36706,1.19511.50873,1.80253a.72643.72643,0,0,1-.47244.82988c-.38471.17213-.78352.31327-1.17833.46221a.72123.72123,0,0,1-.84455-.23318,4.26449,4.26449,0,0,1-.30825-.41352,1.76167,1.76167,0,0,0-.65983-.65024c-.13466-.06389-.12592-.079-.08822-.38889a1.28762,1.28762,0,0,1,.80228.501c.15394.19717.29255.40631.44628.60366.21929.28149.31531.31409.64237.198.30918-.10975.61595-.2282.91693-.35862.36458-.158.44548-.32009.34288-.70507-.12066-.45271-.26154-.9-.3918-1.35022C151.49619,146.89037,151.47388,146.78487,151.4434,146.66144Z" transform="translate(-145.34456 -142.29737)"/>
  <path d="M148.04167,144.54207l.51282.60112.94006-1.43505.24768.15468a7.44682,7.44682,0,0,1-1.18421,1.79728c-.32843-.19586-.47734-.55393-.789-.89722Z" transform="translate(-145.34456 -142.29737)"/>
  <path d="M149.95787,147.70307l-.342.09578-.71209-2.20185.34881-.09935Z" transform="translate(-145.34456 -142.29737)"/>
  <path d="M151.01551,146.40768l.26517.83558-.32072.11189c-.08562-.24825-.1764-.473-.23919-.70531C150.668,146.45457,150.80945,146.41979,151.01551,146.40768Z" transform="translate(-145.34456 -142.29737)"/>
  <path d="M150.64215,147.48567c-.16646,0-.31751.025-.32866-.00391a6.14271,6.14271,0,0,1-.24041-.77993c-.00577-.0241.13787-.08393.256-.1527Z" transform="translate(-145.34456 -142.29737)"/>
  <circle class="cls-1" cx="3.41117" cy="2.38675" r="1.51023"/>
</svg>
