<svg id="Layer_1" data-name="Layer 1" xmlns="http://www.w3.org/2000/svg" viewBox="0 0 272 272"><defs><style>.cls-1{fill:#3d7398;}.cls-2{fill:#fff;}</style></defs><circle class="cls-1" cx="136" cy="136" r="136"/><polygon class="cls-2" points="90.25 152.05 57.83 212.91 89.82 197.49 88.59 229.3 121.01 168.43 90.25 152.05"/><polygon class="cls-2" points="181.58 152.05 214 212.91 182.01 197.49 183.25 229.3 150.82 168.43 181.58 152.05"/><circle class="cls-2" cx="136.11" cy="108.83" r="67"/><polyline class="cls-1" points="137.11 77.08 134.19 83.05 137.11 80.56"/><rect class="cls-1" x="95.61" y="90.57" width="22.25" height="51.47" rx="10.82"/><rect class="cls-1" x="154.48" y="123.07" width="15.3" height="50.62" rx="7.65" transform="translate(296.51 -27.75) rotate(90)"/><rect class="cls-1" x="153.76" y="111.32" width="15.99" height="49.79" rx="8" transform="translate(283.97 -39.55) rotate(90)"/><rect class="cls-1" x="154.18" y="98.38" width="15.99" height="50.62" rx="8" transform="translate(271.87 -52.48) rotate(90)"/><rect class="cls-1" x="155.57" y="85.87" width="14.6" height="52.01" rx="7.3" transform="translate(260.74 -65) rotate(90)"/><rect class="cls-1" x="122.83" y="93.24" width="15.35" height="41.33"/><path class="cls-1" d="M137,106.56l15.07-12.87h10.56s-1.73,10.9-5.67,12.49S137,106.56,137,106.56Z" transform="translate(-14 -14)"/><path class="cls-1" d="M150.07,94.78l3.44-15.55s12-.39,10.93,5.73-2.73,12.39-2.73,12.39" transform="translate(-14 -14)"/><polygon class="cls-1" points="123 92.56 122.83 93.23 124 94 125.37 92.56 124 92 123 92.56"/></svg>