<svg id="Layer_1" data-name="Layer 1" xmlns="http://www.w3.org/2000/svg" viewBox="0 0 278 278"><defs><style>.cls-1{fill:#f0be5d;}.cls-2{fill:#fff;}</style></defs><circle class="cls-1" cx="139" cy="139" r="139"/><path class="cls-2" d="M254.24,153.11a7,7,0,0,1,0-6.22l9-18.35a20.88,20.88,0,0,0-9-27.72l-18-9.57a7.06,7.06,0,0,1-3.66-5L229,66.1A20.88,20.88,0,0,0,205.39,49l-20.22,2.86a7,7,0,0,1-5.92-1.92L164.57,35.7a20.86,20.86,0,0,0-29.14,0L120.75,49.9a7,7,0,0,1-5.92,1.92L94.61,49A20.88,20.88,0,0,0,71,66.1L67.5,86.21a7.06,7.06,0,0,1-3.66,5l-18,9.57a20.88,20.88,0,0,0-9,27.72l9,18.35a7,7,0,0,1,0,6.23l-9,18.34a20.88,20.88,0,0,0,9,27.72l18,9.57a7.06,7.06,0,0,1,3.66,5L71,233.91A20.86,20.86,0,0,0,91.6,251.25a22,22,0,0,0,3-.21l20.22-2.86a7,7,0,0,1,5.92,1.92l14.68,14.2a20.86,20.86,0,0,0,29.14,0l14.68-14.2a7,7,0,0,1,5.92-1.92L205.39,251A20.88,20.88,0,0,0,229,233.91l3.53-20.12a7.07,7.07,0,0,1,3.66-5l18-9.57a20.88,20.88,0,0,0,9-27.72Zm-6.54,33.82-18,9.57a20.84,20.84,0,0,0-10.82,14.89l-3.53,20.12a7,7,0,0,1-8,5.79l-20.22-2.86a20.86,20.86,0,0,0-17.51,5.69l-14.68,14.2a7.05,7.05,0,0,1-9.86,0l-14.68-14.2a20.81,20.81,0,0,0-14.52-5.9,21.58,21.58,0,0,0-3,.21L92.66,237.3a7.05,7.05,0,0,1-8-5.79l-3.53-20.12A20.84,20.84,0,0,0,70.34,196.5l-18-9.57a7.06,7.06,0,0,1-3-9.38l9-18.35a20.8,20.8,0,0,0,0-18.4l-9-18.35a7.06,7.06,0,0,1,3-9.38l18-9.57A20.84,20.84,0,0,0,81.16,88.61l3.53-20.12a7,7,0,0,1,8-5.79l20.22,2.86a20.86,20.86,0,0,0,17.51-5.69l14.68-14.2a7.05,7.05,0,0,1,9.86,0l14.68,14.2a20.86,20.86,0,0,0,17.51,5.69l20.21-2.86a7.06,7.06,0,0,1,8,5.79l3.53,20.12a20.84,20.84,0,0,0,10.82,14.89l18,9.57a7.06,7.06,0,0,1,3.05,9.38l-9,18.34a20.82,20.82,0,0,0,0,18.41l9,18.35A7.06,7.06,0,0,1,247.7,186.93Z" transform="translate(-11 -11)"/><path class="cls-2" d="M200.67,99.33a6.93,6.93,0,0,0-9.81,0L99.33,190.86a6.94,6.94,0,0,0,9.81,9.81l91.53-91.53A6.93,6.93,0,0,0,200.67,99.33Z" transform="translate(-11 -11)"/><path class="cls-2" d="M122.26,87.59A25.43,25.43,0,1,0,147.69,113,25.45,25.45,0,0,0,122.26,87.59Zm0,37A11.56,11.56,0,1,1,133.82,113,11.56,11.56,0,0,1,122.26,124.57Z" transform="translate(-11 -11)"/><path class="cls-2" d="M177.74,161.56A25.43,25.43,0,1,0,203.16,187,25.45,25.45,0,0,0,177.74,161.56Zm0,37A11.56,11.56,0,1,1,189.29,187,11.57,11.57,0,0,1,177.74,198.54Z" transform="translate(-11 -11)"/></svg>