<svg id="Layer_1" data-name="Layer 1" xmlns="http://www.w3.org/2000/svg" viewBox="0 0 511.7463 512.0003">
  <defs>
    <style>
      .cls-1 {
        fill: #fff;
      }
    </style>
  </defs>
  <g>
    <path class="cls-1" d="M511.794,502.7489,442.3626,213.5432a22.7327,22.7327,0,0,0,2.371-4.777l23.5921-66.8354c3.228-9.144-10.916-14.1381-14.145-4.993l-23.5922,66.8354c-3.278,9.2831-17.6381,4.215-14.36-5.069L457.1707,82.7155a7.5,7.5,0,0,0-4.576-9.5691l-34.1482-12.054c-9.2831-3.2791-4.215-17.6371,5.069-14.36q24.2,8.5425,48.4,17.0841a7.6243,7.6243,0,0,1,4.646,9.715l-9.5481,27.05c-3.228,9.1451,10.9171,14.1371,14.1451,4.993l9.5481-27.05c4.389-12.4331-3.1961-25.4162-15.3131-29.3872l6.026-17.0721A24.475,24.475,0,0,0,466.7427,1.373,24.0837,24.0837,0,0,0,436.0506,16.05l-6.0261,17.0731C405.7254,22.06,386.62,57.38,407.9764,72.4084l-7.63,21.6162H104.2436a7.5,7.5,0,0,0-7.293,5.749L29.5062,380.7c-2.201,9.17,12.2931,13.0511,14.5861,3.5021l66.0634-275.1787H395.0523L306.9718,358.5531a7.998,7.998,0,0,0-.382,1.667l-5.5131,49.53a7.5006,7.5006,0,0,0,4.9581,7.9021l5.169,1.825-5.206,14.7491c-3.141,8.898,10.899,14.1871,14.1451,4.993l5.206-14.7491,5.169,1.824q4.94,1.6485,8.82-3.039L366.14,381.24a7.92,7.92,0,0,0,.749-1.537L421.9205,223.8a21.1076,21.1076,0,0,0,7.307-.71L494.9869,497H17.0121l15.4251-64.2493c2.263-9.4291-12.3231-12.9321-14.5861-3.5021L.205,502.749q-.84,8.163,7.2931,9.251H504.501q8.133-1.089,7.293-9.251ZM450.1956,21.0431a9.0667,9.0667,0,0,1,11.5551-5.525q7.548,3.489,5.525,11.5541L461.25,44.1443l-17.08-6.0291Zm-48.1113,172.668a23.4792,23.4792,0,0,0,6.0171,24.1752l-52.86,149.7519-31.6282-11.1641L421.8405,78.1975l18.6891,6.597ZM329.8949,410.1674l-13.25-4.677,3.809-34.2252,27.9611,9.87Z" transform="translate(-0.1264 0.0003)"/>
    <path class="cls-1" d="M337.04,185.49c9.931-.344,9.923-14.6591,0-15H157.3929c-9.931.344-9.923,14.6591,0,15Z" transform="translate(-0.1264 0.0003)"/>
    <path class="cls-1" d="M139.8928,240.1424a7.5,7.5,0,0,0,7.5,7.5H313.2488c9.9311-.344,9.9231-14.6591,0-15H147.3929a7.5,7.5,0,0,0-7.5,7.5Z" transform="translate(-0.1264 0.0003)"/>
    <path class="cls-1" d="M127.8927,302.2958a7.5,7.5,0,0,0,7.5,7.5H292.3367c9.9311-.344,9.9231-14.6591,0-15H135.3928A7.5,7.5,0,0,0,127.8927,302.2958Z" transform="translate(-0.1264 0.0003)"/>
    <path class="cls-1" d="M118.0627,442.1946q9.84-16.6936,20.1391-33.1132c6.508-10.39,14.05-28.2492,24.7061-35.2072,6.7641-4.4151,1.59,28.0571,1.433,30.52-.633,9.9181-2.919,24.0772,8.1671,29.4742,11.3251,5.513,26.7962-8.434,36.5572-12.4461,1.891,5.487,3.805,12.3031,6.6821,17.3051,9.757,16.9621,37.2682,10.9951,52.3723,6.026,9.128-3.003,5.219-17.4931-3.9881-14.464-8.917,2.934-32.43,10.401-36.85-2.447-2.772-8.0591-4.769-21.3492-15.66-21.8612-12.034-.566-21.5631,9.23-31.8972,13.5621-.931.39,1.0371-29.2611,1.2591-31.6562,1.016-10.948,1.173-25.8441-12.14-29.3091-10.3181-2.685-17.9211,5.239-23.48,12.6681-14.944,19.9711-27.6051,41.9172-40.2552,63.3793C100.1986,442.9586,113.16,450.5146,118.0627,442.1946Z" transform="translate(-0.1264 0.0003)"/>
  </g>
</svg>
