<svg id="Layer_1" data-name="Layer 1" xmlns="http://www.w3.org/2000/svg" viewBox="0 0 8.86571 8.86101">
  <path d="M154.10192,151.38315a4.43289,4.43289,0,0,1-8.86567-.01116,4.43287,4.43287,0,1,1,8.86567.01116Zm-4.44051-4.11076a4.09409,4.09409,0,1,0,4.114,4.08189A4.0909,4.0909,0,0,0,149.66141,147.27239Z" transform="translate(-145.23624 -146.92733)"/>
  <path d="M148.09742,151.2375v-2.09042a.27213.27213,0,0,1,.21506-.29522l.20781.29522v2.15885l-.19919.23476" transform="translate(-145.23624 -146.92733)"/>
  <polyline points="2.861 7.047 2.891 4.919 3.076 4.661 3.368 4.843 3.368 7.046 3.133 7.299"/>
  <path d="M148.66635,148.70451h2.09043c.24258,0,.25463.13031.25463.13031l-.22457.29341-2.16645-.0611" transform="translate(-145.23624 -146.92733)"/>
  <path d="M150.76039,148.70451H148.67a.35607.35607,0,0,0-.31792.12633l.19625.26833,2.17051.02768" transform="translate(-145.23624 -146.92733)"/>
  <path d="M151.26343,151.2375v-2.09042a.27213.27213,0,0,0-.21506-.29522l-.20782.29522-.02141,2.1188.206.25658" transform="translate(-145.23624 -146.92733)"/>
  <polyline points="3.316 4.402 5.563 4.383 5.759 4.619 5.496 4.825 3.406 4.825 3.119 4.636"/>
  <polyline points="6.029 7.047 5.999 4.919 5.814 4.661 5.522 4.843 5.522 7.046 5.757 7.299"/>
</svg>
