<svg id="Layer_1" data-name="Layer 1" xmlns="http://www.w3.org/2000/svg" viewBox="0 0 8.86571 8.86101">
  <path d="M153.584,149.42919a4.43289,4.43289,0,0,1-8.86567-.01115,4.43287,4.43287,0,1,1,8.86567.01115Zm-4.44051-4.11076a4.0941,4.0941,0,1,0,4.114,4.08189A4.09091,4.09091,0,0,0,149.14347,145.31843Z" transform="translate(-144.7183 -144.97338)"/>
  <path d="M147.70441,149.43883V147.3484a.27213.27213,0,0,1,.21506-.29521l.20781.29521v2.15886l-.19919.23476" transform="translate(-144.7183 -144.97338)"/>
  <polyline points="2.986 7.202 3.016 5.075 3.201 4.817 3.493 4.998 3.493 7.201 3.258 7.454"/>
  <path d="M148.27334,146.90584h2.09043c.24258,0,.25463.13031.25463.13031l-.22457.29341-2.16645-.0611" transform="translate(-144.7183 -144.97338)"/>
  <path d="M150.36738,146.90584H148.277a.35607.35607,0,0,0-.31792.12633l.19625.26833,2.17051.02768" transform="translate(-144.7183 -144.97338)"/>
  <path d="M150.87042,149.43883V147.3484a.27213.27213,0,0,0-.21506-.29521l-.20782.29521-.02141,2.11881.206.25657" transform="translate(-144.7183 -144.97338)"/>
  <polyline points="3.441 4.557 5.688 4.538 5.884 4.774 5.621 4.98 3.531 4.98 3.244 4.791"/>
</svg>
