<svg id="Layer_1" data-name="Layer 1" xmlns="http://www.w3.org/2000/svg" viewBox="0 0 8.84747 8.84018">
  <path d="M154.304,144.41122a4.42376,4.42376,0,1,1-4.40369-4.43731A4.38226,4.38226,0,0,1,154.304,144.41122Zm-4.41249-4.1233a4.11094,4.11094,0,1,0,4.10975,4.10249A4.09918,4.09918,0,0,0,149.89155,140.28792Z" transform="translate(-145.45656 -139.9739)"/>
  <path d="M147.62908,146.84927l4.64889-4.76559-.08576-.085L147.5153,146.734Z" transform="translate(-145.45656 -139.9739)"/>
  <path d="M147.81543,144.041a1.85675,1.85675,0,0,1,.50391-1.1836h-.70166v-.2456h1.00537v.23193a1.83325,1.83325,0,0,0-.46582,1.19727Z" transform="translate(-145.45656 -139.9739)"/>
  <path d="M151.65039,145.50977h-.68945v-.25l.64551-.91553h.33593v.92773h.17774v.2378h-.17774v.27978h-.292Zm-.40918-.2378h.42383v-.61767Z" transform="translate(-145.45656 -139.9739)"/>
  <g>
    <path d="M147.55664,142.04053h.15283c.08155,0,.1294.043.1294.1167,0,.06982-.04688.11132-.126.11132h-.07568v.13184h-.08057Zm.148.168a.04876.04876,0,0,0,.05566-.05274c0-.03418-.01855-.05127-.05517-.05127h-.06787v.104Z" transform="translate(-145.45656 -139.9739)"/>
    <path d="M147.898,142.04053h.15771c.07715,0,.12354.03857.12354.103a.09393.09393,0,0,1-.01953.0625.09161.09161,0,0,1-.04834.02881c.03418.00977.04883.02881.05762.07178a.305.305,0,0,0,.02929.0918v.00195h-.08252a.31832.31832,0,0,1-.02734-.08643c-.00781-.0371-.02344-.05126-.05615-.05126h-.05518v.13769h-.0791Zm.146.16259c.03662,0,.05664-.01757.05664-.05029a.04494.04494,0,0,0-.05127-.04931h-.07227v.0996Z" transform="translate(-145.45656 -139.9739)"/>
    <path d="M148.584,142.21924a.173.173,0,0,1-.17578.18652.17081.17081,0,0,1-.17334-.18457.17479.17479,0,0,1,.17676-.18652A.17222.17222,0,0,1,148.584,142.21924Zm-.26513.00146c0,.0752.03418.12012.09082.12012.05713,0,.09033-.04394.09033-.12012,0-.0747-.03418-.12109-.08984-.12109C148.35254,142.09961,148.31885,142.144,148.31885,142.2207Z" transform="translate(-145.45656 -139.9739)"/>
    <path d="M148.90967,142.34766a.12374.12374,0,0,1-.11133.0581.1665.1665,0,0,1-.1665-.18359.17321.17321,0,0,1,.17431-.1875.16027.16027,0,0,1,.10938.03808.15508.15508,0,0,1,.03906.05762l-.07373.0293c-.01611-.043-.0376-.06006-.07617-.06006-.05615,0-.08887.04492-.08887.12207,0,.07617.0332.11914.09229.11914a.07539.07539,0,0,0,.082-.07422v-.00293H148.814v-.06006h.1543v.19678h-.04443Z" transform="translate(-145.45656 -139.9739)"/>
    <path d="M149.041,142.04053h.15771c.07715,0,.124.03857.124.103a.0918.0918,0,0,1-.0205.0625.08814.08814,0,0,1-.04786.02881c.03418.00977.04883.02881.05762.07178a.3049.3049,0,0,0,.0293.0918v.00195h-.082a.28683.28683,0,0,1-.02735-.08643c-.00879-.0371-.02441-.05126-.05664-.05126h-.05468v.13769H149.041Zm.146.16259c.03613,0,.05664-.01757.05664-.05029a.0451.0451,0,0,0-.05176-.04931h-.07128v.0996Z" transform="translate(-145.45656 -139.9739)"/>
    <path d="M149.62939,142.40039l-.02343-.06836h-.14551l-.02441.06836h-.0752l.13184-.35986h.09277l.12988.35986Zm-.0957-.28418-.05469.1582h.1084Z" transform="translate(-145.45656 -139.9739)"/>
    <path d="M149.87354,142.04053l.08105.24658.08154-.24658h.11524v.35986h-.0791v-.271l-.09131.271h-.05957l-.0918-.27148v.27148h-.07227v-.35986Z" transform="translate(-145.45656 -139.9739)"/>
    <path d="M150.52246,142.25635a.14747.14747,0,1,1-.29492.00195v-.21777h.08105v.21386c0,.06055.01953.08594.06739.08594.04882,0,.07031-.02685.07031-.08887v-.21093h.07617Zm-.08984-.29444a.0577.0577,0,1,1-.05664-.05468A.0556.0556,0,0,1,150.43262,141.96191Zm-.08008.00049a.02246.02246,0,0,0,.04492,0,.02263.02263,0,0,0-.02246-.02344A.02234.02234,0,0,0,150.35254,141.9624Z" transform="translate(-145.45656 -139.9739)"/>
  </g>
  <g>
    <path d="M149.98975,146.064h-.102V145.999h.28418v.06494h-.10157v.29493h-.08056Z" transform="translate(-145.45656 -139.9739)"/>
    <path d="M150.21973,145.999h.25195v.06494h-.17285v.08106h.13183v.05957h-.13183v.08936h.18164v.06494h-.26074Z" transform="translate(-145.45656 -139.9739)"/>
    <path d="M150.543,145.999h.15234c.082,0,.12989.043.12989.1167,0,.06983-.04688.11133-.126.11133h-.07617v.13184H150.543Zm.14746.168a.04875.04875,0,0,0,.05566-.05273c0-.03418-.01855-.05127-.05468-.05127h-.06836v.104Z" transform="translate(-145.45656 -139.9739)"/>
    <path d="M150.88379,145.999h.08105v.29493h.15821v.06494h-.23926Z" transform="translate(-145.45656 -139.9739)"/>
    <path d="M151.49805,146.17773a.17324.17324,0,0,1-.17578.18653.17119.17119,0,0,1-.17383-.18457.17479.17479,0,0,1,.17676-.18653A.1726.1726,0,0,1,151.49805,146.17773Zm-.26563.00147c0,.07519.03418.12012.09082.12012.05762,0,.09082-.04395.09082-.12012,0-.07471-.03418-.12109-.08984-.12109C151.2666,146.05811,151.23242,146.10254,151.23242,146.1792Z" transform="translate(-145.45656 -139.9739)"/>
    <path d="M151.62207,146.064h-.10156V145.999h.28418v.06494h-.10157v.29493h-.08105Z" transform="translate(-145.45656 -139.9739)"/>
    <path d="M151.94531,146.21045l-.125-.21143h.08985l.07714.14209.07618-.14209h.082l-.12012.21094v.14893h-.08008Z" transform="translate(-145.45656 -139.9739)"/>
  </g>
</svg>
