<svg id="Layer_1" data-name="Layer 1" xmlns="http://www.w3.org/2000/svg" viewBox="0 0 8.84986 8.8221">
  <path d="M149.78982,145.20616a4.41105,4.41105,0,1,1,.01645,8.82209,4.41112,4.41112,0,1,1-.01645-8.82209Zm-4.09766,4.41251a4.1091,4.1091,0,1,0,4.08951-4.11624A4.0938,4.0938,0,0,0,145.69216,149.61867Z" transform="translate(-145.36319 -145.20616)"/>
  <path d="M147.55907,149.62543a2.27125,2.27125,0,1,1,2.29207,2.25912A2.27383,2.27383,0,0,1,147.55907,149.62543Zm.33282-.03542a1.93873,1.93873,0,1,0,1.96067-1.90981A1.9031,1.9031,0,0,0,147.89189,149.59Z" transform="translate(-145.36319 -145.20616)"/>
  <path d="M147.51263,147.68676a.04533.04533,0,0,0-.04642.04642l-.00165.89677a.3767.3767,0,0,1-.0431.01989.23409.23409,0,0,1-.05139.0116v-.93158a.04641.04641,0,0,0-.09282,0l-.00166.94319a.701.701,0,0,1-.09614,0v-.94153a.04642.04642,0,0,0-.09283,0l.00166.92992a.30986.30986,0,0,1-.09449-.03149v-.89843a.04641.04641,0,0,0-.09282,0l-.00166.92329a.32448.32448,0,0,0,.09614.23207.31188.31188,0,0,0,.08785.06133l-.03481,2.42178a.18182.18182,0,0,0,.18234.18234.17152.17152,0,0,0,.126-.05305.19264.19264,0,0,0,.0547-.131l-.0663-2.40686a.3384.3384,0,0,0,.11769-.07459.3285.3285,0,0,0,.09614-.23207v-.92163A.04532.04532,0,0,0,147.51263,147.68676Z" transform="translate(-145.36319 -145.20616)"/>
  <path d="M152.25549,147.6678l.05355-.00032s.44917.25293.44917,2.12769c-.34421.0946-.19938.47057-.17314.5184-.00007.09548-.00734,1.07593-.00734,1.07593l-.001-.00035.0006.00317a.16232.16232,0,0,1-.32464.0001l.00021-.00286-.00062-.00062c0-.9597-.00057-.95966.00031-1.21416C152.2522,150.07442,152.25549,147.6678,152.25549,147.6678Z" transform="translate(-145.36319 -145.20616)"/>
  <g>
    <path d="M148.44434,150.18262h.38037v-.93848a1.0876,1.0876,0,0,1-.37061.04981v-.28272c.26026-.0249.38526-.12012.43311-.32519h.32519v1.49658h.34033v.3125h-1.10839Z" transform="translate(-145.36319 -145.20616)"/>
    <path d="M150.22852,149.44678a.44834.44834,0,0,1,.35058-.13526.53638.53638,0,0,1,.56055.58594.599.599,0,0,1-.66309.625.72559.72559,0,0,1-.52539-.1875.47826.47826,0,0,1-.13769-.22754l-.01026-.02539.3628-.09961a.28288.28288,0,0,0,.293.23242.277.277,0,0,0,.28809-.3125.27367.27367,0,0,0-.27832-.3081.26523.26523,0,0,0-.25488.1499h-.33057l.11279-1.03809h1.03809v.30762h-.75586Z" transform="translate(-145.36319 -145.20616)"/>
  </g>
</svg>
