<svg id="Layer_1" data-name="Layer 1" xmlns="http://www.w3.org/2000/svg" viewBox="0 0 205.80013 205.09023">
  <path d="M149.2795,47.636c55.64965-3.68387,104.421,49.46521,103.61061,101.96008-.85294,55.25293-46.14924,103.2843-103.51782,102.94729-54.419-.31959-101.694-46.00263-102.26759-102.31588C46.55289,96.05207,93.94977,44.86245,149.2795,47.636Zm.54729,6.04665c-52.92166.13811-95.9927,43.29807-95.86811,96.06606.124,52.52309,43.91382,96.07107,96.37216,95.83979a95.95338,95.95338,0,0,0-.50405-191.90585Z" transform="translate(-47.09993 -47.45489)"/>
  <path d="M133.30012,134.98355V101.39391h33.9823v33.58964Zm7.97069-8.26767h17.68888V109.61765H141.27081Z" transform="translate(-47.09993 -47.45489)"/>
  <path d="M89.058,135.16456V101.4201h33.437v33.74446Zm7.62151-8.41912h17.969V109.58571H96.6795Z" transform="translate(-47.09993 -47.45489)"/>
  <path d="M177.92363,100.93107H211.3244v34.156H177.92363Zm6.4866,7.94858c.43667,7.16127.78779,12.91961,1.111,18.22012h18.09046V108.87965Z" transform="translate(-47.09993 -47.45489)"/>
  <path d="M157.71361,208.517h-15.2404V193.573h15.2404Z" transform="translate(-47.09993 -47.45489)"/>
  <path d="M186.72229,193.22905H202.246v14.93668H186.72229Z" transform="translate(-47.09993 -47.45489)"/>
  <path d="M98.30127,193.20111h14.57792v15.09983H98.30127Z" transform="translate(-47.09993 -47.45489)"/>
  <path d="M93.55328,151.58179v23.94763H117.809V151.58179ZM110,169H100V159h10Z" transform="translate(-47.09993 -47.45489)"/>
  <path d="M137.81671,151.80847v23.92664h24.628V151.80847ZM155,169H145V159h10Z" transform="translate(-47.09993 -47.45489)"/>
  <path d="M182.16858,151.82251v23.874h24.77753v-23.874ZM199,169H189V159h10Z" transform="translate(-47.09993 -47.45489)"/>
</svg>
