<svg id="Layer_1" data-name="Layer 1" xmlns="http://www.w3.org/2000/svg" viewBox="0 0 8.75296 8.7207">
  <g>
    <path d="M149.18709,149.27565a4.30539,4.30539,0,0,1-4.35781-4.31608,4.37653,4.37653,0,0,1,8.75286-.05852A4.31214,4.31214,0,0,1,149.18709,149.27565Zm.00082-8.50024a4.1644,4.1644,0,1,0,4.18612,4.14046A4.17186,4.17186,0,0,0,149.18791,140.77541Z" transform="translate(-144.82921 -140.55804)"/>
    <path d="M148.43542,144.2v2.77377l-.06632-.00009V144.167l-.36849-.28126-.10336-.63691c.38878-.49741.58657-.50505,1.02213-.035l-.08773.65129Z" transform="translate(-144.82921 -140.55804)"/>
    <ellipse cx="2.67545" cy="4.38831" rx="0.03678" ry="3.34215"/>
    <path d="M149.387,142.65167v4.60308l-.03548.00016v-4.614Z" transform="translate(-144.82921 -140.55804)"/>
    <path d="M151.121,147.24749v-4.60014l.02771-.00025v4.59867Z" transform="translate(-144.82921 -140.55804)"/>
    <path d="M150.59458,143.0232a.04746.04746,0,0,0-.0486.04861l-.00174.93908a.39305.39305,0,0,1-.04513.02083.2454.2454,0,0,1-.05381.01215v-.97553a.0486.0486,0,1,0-.0972,0l-.00174.98768a.73327.73327,0,0,1-.10068,0v-.986a.0486.0486,0,0,0-.0972,0l.00173.9738a.32424.32424,0,0,1-.09894-.033v-.94082a.04861.04861,0,0,0-.09721,0l-.00173.96686a.33976.33976,0,0,0,.10068.243.32667.32667,0,0,0,.092.06423l-.03645,2.536a.19039.19039,0,0,0,.19094.19094.17967.17967,0,0,0,.13193-.05554.20183.20183,0,0,0,.05728-.13713l-.06944-2.52042a.35443.35443,0,0,0,.12325-.07811.344.344,0,0,0,.10068-.243v-.96511A.04746.04746,0,0,0,150.59458,143.0232Z" transform="translate(-144.82921 -140.55804)"/>
    <path d="M146.67,142.89027a.42444.42444,0,0,0-.29924.12824,1.023,1.023,0,0,0-.22442.73028.52947.52947,0,0,0,.40076.51119l-.073,2.74478a.194.194,0,0,0,.33308.13715.18826.18826,0,0,0,.057-.13893l-.03919-2.75369a.526.526,0,0,0,.2173-.1318.52006.52006,0,0,0,.15318-.37048C147.19541,143.22691,146.9888,142.88848,146.67,142.89027Z" transform="translate(-144.82921 -140.55804)"/>
    <path d="M151.63024,142.81524l.05877-.00034s.49294.27757.49294,2.335c-.37775.10382-.21881.51643-.19.56892-.00007.10479-.00806,1.18078-.00806,1.18078l-.00114-.00038.00066.00348a.17814.17814,0,1,1-.35628.0001l.00024-.00313-.00069-.00068c0-1.05322-.00062-1.05319.00035-1.33249C151.62663,145.4564,151.63024,142.81524,151.63024,142.81524Z" transform="translate(-144.82921 -140.55804)"/>
  </g>
</svg>
