<svg id="Layer_1" data-name="Layer 1" xmlns="http://www.w3.org/2000/svg" viewBox="0 0 278 278"><defs><style>.cls-1{fill:#c66188;}.cls-2,.cls-4{fill:#fff;}.cls-3{fill:none;}.cls-3,.cls-4{stroke:#fff;stroke-miterlimit:10;}</style></defs><path class="cls-1" d="M150,11A139,139,0,1,0,289,150,139,139,0,0,0,150,11Zm41,106.5A20.49,20.49,0,0,1,205,123L190.5,137.5l-18.09-8.16A20.52,20.52,0,0,1,191,117.5Z" transform="translate(-11 -11)"/><path class="cls-2" d="M274.42,126.23,244.29,96.1a3.76,3.76,0,0,0-5.32,0l-8.64,8.64,6.43,6.43a3.77,3.77,0,0,1-5.33,5.33L225,110.07l-9.74,9.74,14,14a3.77,3.77,0,0,1-5.34,5.33l-13.95-14-9.74,9.74,6.43,6.43a3.77,3.77,0,0,1-5.33,5.33l-6.43-6.43-9.74,9.74,14,14a3.77,3.77,0,0,1-5.34,5.33l-13.95-14L170.07,165l6.43,6.43a3.77,3.77,0,0,1-5.33,5.33l-6.43-6.43L155,180.07l14,14a3.77,3.77,0,0,1-5.33,5.33l-14-14-9.74,9.74,6.43,6.43a3.77,3.77,0,0,1-5.33,5.33l-6.43-6.43-9.74,9.73,14,14a3.77,3.77,0,0,1-5.33,5.33l-14-14-9.74,9.74,6.43,6.43a3.77,3.77,0,0,1-5.33,5.33l-6.43-6.44-8.63,8.64a3.76,3.76,0,0,0,0,5.32L126,274.67a3.73,3.73,0,0,0,2.66,1.11,3.8,3.8,0,0,0,2.67-1.1L274.42,131.56A3.77,3.77,0,0,0,274.42,126.23Z" transform="translate(-11 -11)"/><path class="cls-2" d="M159.14,131.19l-.73-5.47A60.87,60.87,0,1,0,37.75,141.87l.73,5.46a7.67,7.67,0,0,0,8.61,6.58l5.18-.69-1.12-8.38a1.85,1.85,0,1,1,3.66-.49l1.12,8.38,9.41-1.26-1.13-8.38a1.85,1.85,0,1,1,3.66-.49L69,151l9.4-1.26-1.12-8.38a1.85,1.85,0,1,1,3.66-.49l1.12,8.38,9.4-1.26-1.12-8.38A1.85,1.85,0,0,1,94,139.1l1.12,8.38,9.4-1.25-1.12-8.38a1.85,1.85,0,1,1,3.66-.49l1.13,8.38,9.4-1.26-1.13-8.38a1.85,1.85,0,1,1,3.66-.49l1.13,8.38,9.4-1.26-1.12-8.38a1.85,1.85,0,1,1,3.66-.49l1.12,8.38,9.4-1.26-1.12-8.38a1.85,1.85,0,1,1,3.67-.49l1.11,8.38,5.19-.69A7.66,7.66,0,0,0,159.14,131.19ZM64.71,125a34.52,34.52,0,0,1,63.23-8.46Z" transform="translate(-11 -11)"/><polyline class="cls-3" points="56 250 165.01 140.99 179.5 126.5"/><line class="cls-3" x1="250" y1="56" x2="193.99" y2="112.01"/><line class="cls-3" x1="179.5" y1="126.5" x2="0.5" y2="150.5"/><polyline class="cls-3" points="26.5 57.5 55.68 70.66 146.95 111.82 161.41 118.34"/><path class="cls-4" d="M205,123,190.5,137.5l-18.09-8.16A20.51,20.51,0,0,1,205,123Z" transform="translate(-11 -11)"/><path class="cls-2" d="M73.15,193.32l0,9.17,46.68.09v-9.17Z" transform="translate(-11 -11)"/><path class="cls-2" d="M121.19,202.16l8.11-4.09-8.12-4.23Z" transform="translate(-11 -11)"/><path class="cls-2" d="M64.3,193.3a2,2,0,0,0-1.39.56,1.86,1.86,0,0,0-.53,1.3v5.32a2,2,0,0,0,1.93,2h7.51l0-9.17Z" transform="translate(-11 -11)"/></svg>