<svg id="Layer_1" data-name="Layer 1" xmlns="http://www.w3.org/2000/svg" viewBox="0 0 8.90008 8.90053">
  <g>
    <path d="M153.574,150.17852a4.42605,4.42605,0,0,1-4.41169,4.43752,4.45031,4.45031,0,1,1-.02264-8.90049A4.40279,4.40279,0,0,1,153.574,150.17852Zm-8.51161-.01807a4.08549,4.08549,0,1,0,4.10867-4.07518A4.08586,4.08586,0,0,0,145.06237,150.16045Z" transform="translate(-144.67927 -145.71555)"/>
    <path d="M149.91605,150.04122h1.08208c0,.38576-.00109.74176.00033,1.09774a1.67363,1.67363,0,0,0,.16853.90157.73172.73172,0,0,1-.228.92538.78372.78372,0,0,1-.99732-.01227.74282.74282,0,0,1-.1998-.93254,1.674,1.674,0,0,0,.17484-.90333C149.91381,150.77468,149.91605,150.43154,149.91605,150.04122Z" transform="translate(-144.67927 -145.71555)"/>
    <path d="M149.55331,150.39033c.10564.27558.01428.3752-.21155.37713-.31368.00268-.62739.00311-.94109.00326-.58036.00027-1.16086.0073-1.74105-.00309-.44329-.00794-.56363-.13029-.57278-.557-.00767-.3575-.00158-.7153-.00158-1.06855.28071-.10862.39191-.03165.38946.22579-.00309.32433-.00074.64872-.00074,1.0225Z" transform="translate(-144.67927 -145.71555)"/>
    <path d="M148.30122,147.26734c.14242.07036.29148.14186.1737.33981-.20739.34857-.0633.60491.16258.88266a.89088.89088,0,0,1-.07756,1.26916c-.17186-.0514-.27223-.14871-.17729-.33677a.72.72,0,0,0-.16106-.85072A.87932.87932,0,0,1,148.30122,147.26734Z" transform="translate(-144.67927 -145.71555)"/>
    <path d="M147.40987,147.28263c.21671.08672.25091.20356.16395.38146a.66805.66805,0,0,0,.146.77252.86368.86368,0,0,1-.05094,1.32439c-.17193-.06078-.27083-.15708-.16143-.34776a.64724.64724,0,0,0-.13663-.80841A.90067.90067,0,0,1,147.40987,147.28263Z" transform="translate(-144.67927 -145.71555)"/>
    <path d="M149.17543,147.29009c.16879.06075.27651.15187.16091.34444-.1993.332-.04766.57911.16445.841.36265.44778.32709.85241-.13192,1.33877-.05214-.14218-.158-.28891-.1209-.353.21665-.37459.05091-.63627-.1802-.92591A.85023.85023,0,0,1,149.17543,147.29009Z" transform="translate(-144.67927 -145.71555)"/>
    <path d="M150.30649,149.09041h1.84087c.06615.21382.04748.35612-.20055.36346-.266.00788-.53264-.003-.79852.00708-.19224.0073-.38505-.0452-.54776.16484-.11491.14834-.29092.05768-.32816-.13641a.498.498,0,0,1-.00409-.14044C150.27564,149.27361,150.29,149.199,150.30649,149.09041Z" transform="translate(-144.67927 -145.71555)"/>
  </g>
</svg>
