<svg id="Layer_1" data-name="Layer 1" xmlns="http://www.w3.org/2000/svg" viewBox="0 0 17.66113 17.68353">
  <path d="M159.4442,147.04839a9.59744,9.59744,0,0,1,.16277,5.17609,9.05874,9.05874,0,0,1-2.42168,3.97981,8.53107,8.53107,0,0,1-3.95187,2.27168,8.38224,8.38224,0,0,1-6.664-1.04475,8.6706,8.6706,0,0,1-3.91135-4.9797,7.39667,7.39667,0,0,1-.34158-3.4539,9.37594,9.37594,0,0,1,1.01393-3.18958,9.202,9.202,0,0,1,2.1221-2.67827,9.34948,9.34948,0,0,1,2.9342-1.626,8.91241,8.91241,0,0,1,4.73894-.2119,8.61379,8.61379,0,0,1,4.04074,2.33156A9.34552,9.34552,0,0,1,159.4442,147.04839Zm-.391,2.82412a8.21423,8.21423,0,0,0-2.37643-5.62849,7.88858,7.88858,0,0,0-6.87025-2.17078,7.33332,7.33332,0,0,0-4.79017,2.6952,7.8689,7.8689,0,0,0-1.80041,6.02435,7.52364,7.52364,0,0,0,2.37024,4.8404,7.98793,7.98793,0,0,0,7.5944,1.88484,6.99314,6.99314,0,0,0,3.51313-1.99934A8.122,8.122,0,0,0,159.05318,149.87251Z" transform="translate(-142.22806 -141.06615)"/>
  <g>
    <path d="M149.9124,152.286a2.72248,2.72248,0,0,1-3.98849-.16365,2.79689,2.79689,0,0,1-.18774-3.4473.64847.64847,0,0,0,.0582-.75087,2.76553,2.76553,0,0,1,.51068-3.32485,2.71086,2.71086,0,0,1,3.281-.45747c.36729.19289.57706.0278.84539-.13841a2.80875,2.80875,0,0,1,3.91018,3.84011,1.14587,1.14587,0,0,1-.45535.33848.58516.58516,0,0,1-.22413-.30323.716.716,0,0,1,.14525-.37671,2.17563,2.17563,0,0,0-3.3887-2.68129c-.12266.12024-.24309.24275-.408.40765a2.19968,2.19968,0,0,0-2.05845-.768,2.98331,2.98331,0,0,0-1.19515.58875,1.7442,1.7442,0,0,0-.64387,1.69055,10.55535,10.55535,0,0,0,.63617,1.70931,5.75565,5.75565,0,0,0-.6606.88034,2.13445,2.13445,0,0,0,.47053,2.54358,2.1563,2.1563,0,0,0,2.61638.24748C149.50928,151.91365,149.743,151.89764,149.9124,152.286Z" transform="translate(-142.22806 -141.06615)"/>
    <path d="M152.28931,149.10769c-.33255-.33266-.68584-.64807-.98523-1.00829-.09053-.10894-.03168-.342-.04126-.51827.161.03162.37432.00828.47448.10372q1.04025.99115,2.03078,2.03346c.08422.08879.03018.30873.04019.46791-.16142-.01457-.37512.0315-.47491-.05453C152.96493,149.814,152.63417,149.45267,152.28931,149.10769Z" transform="translate(-142.22806 -141.06615)"/>
    <path d="M151.7982,149.67223c.32053.321.661.62535.95089.972.09507.11371.05865.33738.08236.51076-.16206-.0212-.38111.01771-.477-.07324-.68359-.648-1.352-1.31308-1.9979-1.99853-.09843-.10446-.05538-.34225-.07777-.51837.17345.0359.39352.01717.51161.11793C151.14761,148.98765,151.46533,149.33884,151.7982,149.67223Z" transform="translate(-142.22806 -141.06615)"/>
    <path d="M150.83823,150.647c.33234.33269.68215.65047.986,1.00739.08277.09724.02715.31231.03505.47331-.14959-.00955-.35667.04114-.43974-.03812q-1.05818-1.00964-2.0674-2.06951c-.08591-.09067-.02787-.31772-.03651-.48159.16276.02462.37432-.00707.47946.084C150.1627,149.94105,150.49358,150.302,150.83823,150.647Z" transform="translate(-142.22806 -141.06615)"/>
  </g>
  <g>
    <path d="M147.3252,155.10645a.30317.30317,0,0,0,.31591.208c.16016,0,.25586-.0664.25586-.17675,0-.09571-.05176-.13379-.25976-.18165a1.09146,1.09146,0,0,1-.36182-.11816.33221.33221,0,0,1-.16211-.30566c0-.27149.1919-.4375.50781-.4375a.57221.57221,0,0,1,.55127.29589l-.25732.12208a.2901.2901,0,0,0-.292-.166c-.12989,0-.20362.05566-.20362.1543,0,.08984.06153.13183.24756.167a1.15686,1.15686,0,0,1,.37549.12207.36082.36082,0,0,1,.166.32812c0,.28809-.20166.44825-.56348.44825a.5833.5833,0,0,1-.5957-.3418Z" transform="translate(-142.22806 -141.06615)"/>
    <path d="M148.46729,154.11426h1.00292v.25879h-.6875v.32129h.52442v.23828h-.52442v.35351h.71973v.25782h-1.03515Z" transform="translate(-142.22806 -141.06615)"/>
    <path d="M149.75928,154.11426h.36377l.53027.96972v-.96972h.292V155.544h-.35058l-.543-.99122v.99122h-.29248Z" transform="translate(-142.22806 -141.06615)"/>
    <path d="M151.43457,155.10645a.30224.30224,0,0,0,.31543.208c.16016,0,.25586-.0664.25586-.17675,0-.09571-.05176-.13379-.25977-.18165a1.10552,1.10552,0,0,1-.3623-.11816.33236.33236,0,0,1-.16113-.30566c0-.27149.1914-.4375.50781-.4375a.57145.57145,0,0,1,.55078.29589l-.25781.12208a.28877.28877,0,0,0-.291-.166c-.12988,0-.2041.05566-.2041.1543,0,.08984.06152.13183.248.167a1.153,1.153,0,0,1,.375.12207.36083.36083,0,0,1,.166.32812c0,.28809-.20117.44825-.56347.44825a.58332.58332,0,0,1-.59571-.3418Z" transform="translate(-142.22806 -141.06615)"/>
    <path d="M153.89941,154.82422a.68895.68895,0,0,1-.69726.74219.68094.68094,0,0,1-.69043-.73438.694.694,0,0,1,.70215-.73926A.68394.68394,0,0,1,153.89941,154.82422Zm-1.05371.00586c0,.29785.13575.47754.36231.47754.22558,0,.35742-.17578.35742-.47754,0-.2959-.13574-.47949-.35547-.47949C152.97949,154.35059,152.8457,154.52637,152.8457,154.83008Z" transform="translate(-142.22806 -141.06615)"/>
    <path d="M154.16406,154.11426h.62793c.30567,0,.48926.15429.48926.41015a.379.379,0,0,1-.07813.24805.35547.35547,0,0,1-.1914.11426c.13574.04.19336.11328.22949.28516a1.16272,1.16272,0,0,0,.11621.36425v.00782h-.32812a1.269,1.269,0,0,1-.10742-.34375c-.03223-.14551-.09473-.20215-.22461-.20215h-.21778v.5459h-.31543Zm.5791.64648c.14649,0,.22657-.07031.22657-.20019a.17917.17917,0,0,0-.20411-.19629h-.28613v.39648Z" transform="translate(-142.22806 -141.06615)"/>
  </g>
</svg>
