<svg id="Layer_1" data-name="Layer 1" xmlns="http://www.w3.org/2000/svg" viewBox="0 0 70.3377 70.34043">
  <g>
    <path d="M159.15292,105.23711a35.16877,35.16877,0,1,1-35.28011,35.057l.00012-.04148A34.818,34.818,0,0,1,158.49,105.23466Q158.82148,105.23265,159.15292,105.23711Zm.07769,68.24a33.01573,33.01573,0,1,0-.05335.00025l.0531-.00025Z" transform="translate(-123.87234 -105.23404)"/>
    <path d="M180.95384,130.91132a12.30257,12.30257,0,0,0-15.15205-5.78265c-4.50534,1.709-3.66995,1.36308-6.45263.05139a3.42308,3.42308,0,0,0-3.40225.62935c-2.86245,2.197-5.34819,4.86456-8.07691,7.23566.26623.298,3.47908,4.222,3.7458,4.52051-4.99179,4.934-9.93024,9.74207-14.75075,14.66461-.668.68221-.75562,1.93163-1.11141,2.91861a9.644,9.644,0,0,0,2.66278-1.32295c4.91643-4.83421,9.74819-9.75455,14.69019-14.73264l4.01986,3.17028c9.49273-9.33172,9.689-8.72047,7.10841-13.76316a10.03436,10.03436,0,0,1,11.5664,16.40037l-.06313.04417c-.89852.68368-2.56588,1.74517-2.94369,2.63537a30.5138,30.5138,0,0,0-1.59884,3.24662c-.42492,1.3566-.41647,3.00487-.80114,4.37125-.08821.31321.671.86426,1.03751,1.3052.38956-.51435,1.17161-1.08449,1.1075-1.53473-.56819-4.0042,1.65218-6.17318,4.65949-8.27414A12.13337,12.13337,0,0,0,180.95384,130.91132Zm-18.52836,3.536-3.99637,3.99637a1.81953,1.81953,0,0,1-2.56588,0l-3.99686-3.99637a1.82019,1.82019,0,0,1,0-2.56588l3.99686-3.99686a1.82019,1.82019,0,0,1,2.56588,0l3.99637,3.99686a1.8196,1.8196,0,0,1,0,2.56575Z" transform="translate(-123.87234 -105.23404)"/>
  </g>
</svg>
