<svg id="Layer_1" data-name="Layer 1" xmlns="http://www.w3.org/2000/svg" viewBox="0 0 512.00001 512.00002">
  <defs>
    <style>
      .cls-1 {
        fill: #fff;
      }
    </style>
  </defs>
  <path class="cls-1" d="M256,512A256.00095,256.00095,0,0,1,74.98,74.98,256.00094,256.00094,0,0,1,437.02,437.02,254.331,254.331,0,0,1,256,512Zm0-472C136.897,40,40,136.897,40,256s96.897,216,216,216,216-96.897,216-216S375.103,40,256,40Zm93.737,260.188a19.99717,19.99717,0,0,0-27.61,6.136c-.247.387-25.137,38.737-67.127,38.737s-66.88-38.35-67.127-38.737a19.99954,19.99954,0,0,0-33.746,21.474c1.488,2.338,37.172,57.263,100.873,57.263s99.385-54.924,100.873-57.263a19.99911,19.99911,0,0,0-6.136-27.61ZM168,165a25,25,0,1,1-25,25A25.00015,25.00015,0,0,1,168,165Zm150,25a25,25,0,1,0,25-25A25.00014,25.00014,0,0,0,318,190Z" transform="translate(0.00001 0.00002)"/>
</svg>
