<svg id="Layer_1" data-name="Layer 1" xmlns="http://www.w3.org/2000/svg" viewBox="0 0 16.50448 16.5329">
  <defs>
    <style>
      .cls-1 {
        fill: #fff;
      }
    </style>
  </defs>
  <path class="cls-1" d="M157.75622,150.12282A7.71393,7.71393,0,1,1,150.0416,142.39,7.7085,7.7085,0,0,1,157.75622,150.12282Zm-10.28414.97417c.139-.35416-.01956-.49235-.36267-.57288a1.93625,1.93625,0,0,1-1.50413-1.81841,1.91662,1.91662,0,0,1,1.31628-1.9138,5.16791,5.16791,0,0,1,.97842-.13953,9.478,9.478,0,0,1,.68139-1.48927,1.56623,1.56623,0,0,1,1.48225-.66459,2.67888,2.67888,0,0,1,1.13268.385,1.97519,1.97519,0,0,1,.81938,1.79464c.20941,0,.36366-.00132.51789.00022a1.95362,1.95362,0,0,1,.44917,3.85414.643.643,0,0,0-.33142.147.52533.52533,0,0,0-.05022.33485,1.02893,1.02893,0,0,0,.504.0742,2.52213,2.52213,0,0,0-.04448-4.92105c-.27592-.06484-.51393-.09321-.62467-.4489a2.43425,2.43425,0,0,0-2.37372-1.79279,2.48335,2.48335,0,0,0-2.43538,1.78687.58229.58229,0,0,1-.51372.43981,2.51149,2.51149,0,0,0-2.06966,2.30807A2.44468,2.44468,0,0,0,147.47208,151.097Zm3.52719-.50882c0,.438-.01942.87747.01281,1.31311.00873.118.17368.22443.26692.33617.09472-.10743.26868-.21277.27158-.32262q.0341-1.2897.00171-2.5806c-.003-.12419-.15329-.24483-.23542-.36712-.10582.118-.29119.22862-.30288.35527C150.97536,149.7412,150.99942,150.16579,150.99927,150.58817Zm-.66988.04662c0-.423.02125-.84776-.012-1.26818-.011-.139-.16263-.2668-.25-.39972-.09761.126-.27593.24968-.27976.37851-.02512.84533-.023,1.69206-.0004,2.53754.00317.11867.167.233.2564.34941.095-.12515.26018-.244.272-.3766C150.35173,151.45159,150.32874,151.04217,150.32939,150.63479Zm-1.22857.00939c0-.43789.01909-.87716-.01206-1.31283-.00891-.12461-.16336-.23882-.25108-.3578-.09856.10954-.27958.21685-.28261.329-.02364.87515-.02188,1.75143-.00133,2.62673.00242.10308.16609.20237.255.30342.09721-.10724.26909-.20848.27827-.32278C149.12072,151.49034,149.10038,151.06644,149.10082,150.64418Z" transform="translate(-141.78242 -141.85047)"/>
  <g>
    <g>
      <path d="M158.28347,150.10171a8.2505,8.2505,0,1,1-8.19892-8.2512A8.23605,8.23605,0,0,1,158.28347,150.10171Zm-.52725.02111a7.71389,7.71389,0,1,0-7.72512,7.72107A7.71315,7.71315,0,0,0,157.75622,150.12282Z" transform="translate(-141.78242 -141.85047)"/>
      <path d="M147.47208,151.097a2.44468,2.44468,0,0,1-2.42858-2.63641,2.51149,2.51149,0,0,1,2.06966-2.30807.58229.58229,0,0,0,.51372-.43981,2.48335,2.48335,0,0,1,2.43538-1.78687,2.43425,2.43425,0,0,1,2.37372,1.79279c.11074.35569.34875.38406.62467.4489a2.52213,2.52213,0,0,1,.04448,4.92105,1.02893,1.02893,0,0,1-.504-.0742.52533.52533,0,0,1,.05022-.33485.643.643,0,0,1,.33142-.147,1.95362,1.95362,0,0,0-.44917-3.85414c-.15423-.00154-.30848-.00022-.51789-.00022a1.97519,1.97519,0,0,0-.81938-1.79464,2.67888,2.67888,0,0,0-1.13268-.385,1.56623,1.56623,0,0,0-1.48225.66459,9.478,9.478,0,0,0-.68139,1.48927,5.16791,5.16791,0,0,0-.97842.13953,1.91662,1.91662,0,0,0-1.31628,1.9138,1.93625,1.93625,0,0,0,1.50413,1.81841C147.45252,150.60464,147.61105,150.74283,147.47208,151.097Z" transform="translate(-141.78242 -141.85047)"/>
      <path d="M150.99935,150.58817c.00007-.42238-.024-.847.01464-1.26579.01169-.12665.19706-.2373.30288-.35527.08213.12229.23241.24293.23542.36712q.03115,1.28985-.00171,2.5806c-.0029.10985-.17686.21519-.27158.32262-.09324-.11174-.25819-.21818-.26692-.33617C150.97985,151.46564,150.99927,151.02619,150.99935,150.58817Z" transform="translate(-141.78242 -141.85047)"/>
      <path d="M150.32906,150.63479c-.00032.40738.02267.8168-.01342,1.221-.01183.13256-.177.25145-.272.3766-.08944-.11637-.25323-.23074-.2564-.34941-.02261-.84548-.02472-1.69221.0004-2.53754.00383-.12883.18215-.25247.27976-.37851.08734.13292.239.26076.25.39972C150.35064,149.787,150.32939,150.21175,150.32906,150.63479Z" transform="translate(-141.78242 -141.85047)"/>
      <path d="M149.1006,150.64418c-.00022.42226.02012.84616-.01358,1.26571-.00918.1143-.18106.21554-.27827.32278-.08892-.10105-.25259-.20034-.255-.30342-.02055-.8753-.02231-1.75158.00133-2.62673.003-.11212.18405-.21943.28261-.329.08772.119.24217.23319.25108.3578C149.11991,149.767,149.10082,150.20629,149.1006,150.64418Z" transform="translate(-141.78242 -141.85047)"/>
    </g>
    <g>
      <path d="M145.249,154.43555a.30355.30355,0,0,0,.31592.208c.15967,0,.25586-.0664.25586-.17675,0-.09571-.05176-.13379-.25976-.18164a1.09163,1.09163,0,0,1-.36182-.11817.3322.3322,0,0,1-.16211-.30566c0-.27149.19189-.4375.50781-.4375a.57342.57342,0,0,1,.55176.2959l-.25781.12207a.29012.29012,0,0,0-.292-.166c-.12989,0-.20362.05567-.20362.1543,0,.08984.062.13183.24756.167a1.16521,1.16521,0,0,1,.376.12207.36079.36079,0,0,1,.166.32813c0,.28808-.20215.44824-.564.44824a.58228.58228,0,0,1-.59571-.34278Z" transform="translate(-141.78242 -141.85047)"/>
      <path d="M147.71387,154.15332a.68841.68841,0,0,1-.69727.74219.68046.68046,0,0,1-.68945-.73438.69361.69361,0,0,1,.70166-.73925A.68328.68328,0,0,1,147.71387,154.15332Zm-1.05323.00586c0,.29785.13624.47754.36182.47754s.3584-.17578.3584-.47754c0-.2959-.13672-.47949-.35645-.47949C146.79492,153.67969,146.66064,153.85547,146.66064,154.15918Z" transform="translate(-141.78242 -141.85047)"/>
      <path d="M149.13867,154.30176a.58548.58548,0,1,1-1.1709.00781v-.86621h.31934v.84961c0,.24023.08008.3418.26953.3418.19434,0,.27832-.10743.27832-.35352v-.83789h.30371Z" transform="translate(-141.78242 -141.85047)"/>
      <path d="M149.61523,154.43555a.30224.30224,0,0,0,.31543.208c.16016,0,.25586-.0664.25586-.17675,0-.09571-.05175-.13379-.25976-.18164a1.10568,1.10568,0,0,1-.36231-.11817.33237.33237,0,0,1-.16113-.30566c0-.27149.19141-.4375.50781-.4375a.57144.57144,0,0,1,.55078.2959l-.25781.12207a.28877.28877,0,0,0-.291-.166c-.12989,0-.20411.05567-.20411.1543,0,.08984.06153.13183.24805.167a1.153,1.153,0,0,1,.375.12207.35978.35978,0,0,1,.166.32813c0,.28808-.20117.44824-.56348.44824a.58267.58267,0,0,1-.5957-.34278Z" transform="translate(-141.78242 -141.85047)"/>
      <path d="M150.58105,153.44336h.34375l.334,1.042.332-1.042h.31348l-.49121,1.42969h-.33985Z" transform="translate(-141.78242 -141.85047)"/>
      <path d="M152.0791,153.44336h.32031v1.42969h-.32031Z" transform="translate(-141.78242 -141.85047)"/>
      <path d="M152.7373,153.44336h.5293a.64964.64964,0,0,1,.71387.71.65663.65663,0,0,1-.72363.71973h-.51954Zm.53516,1.17578c.24414,0,.374-.16211.374-.46191,0-.29785-.13183-.46-.376-.46h-.21387v.92187Z" transform="translate(-141.78242 -141.85047)"/>
      <path d="M154.24512,153.44336h1.00293v.25879h-.6875v.32129h.52441v.23828h-.52441v.35351h.71972v.25782h-1.03515Z" transform="translate(-141.78242 -141.85047)"/>
    </g>
  </g>
</svg>
