<svg id="Layer_1" data-name="Layer 1" xmlns="http://www.w3.org/2000/svg" viewBox="0 0 8.83625 8.84005">
  <g>
    <path d="M157.99276,145.705a4.41815,4.41815,0,1,1-4.39082-4.43752A4.37833,4.37833,0,0,1,157.99276,145.705Zm-4.42264,4.087a4.11,4.11,0,1,0-4.09731-4.15523A4.11429,4.11429,0,0,0,153.57012,149.792Z" transform="translate(-149.15652 -141.26751)"/>
    <path d="M151.10535,144.325c.24685.405.48238.7679.69364,1.14444a.78751.78751,0,0,1-.18128,1.05133.76369.76369,0,0,1-1.0302-.00833.78329.78329,0,0,1-.19263-1.01426,2.11388,2.11388,0,0,1,.12007-.20027Z" transform="translate(-149.15652 -141.26751)"/>
    <path d="M155.72692,143.35114c.33561.55249.66753,1.07826.97821,1.61628a1.14553,1.14553,0,0,1-1.6866,1.49441,1.118,1.118,0,0,1-.27968-1.4737C155.05288,144.43618,155.39423,143.89975,155.72692,143.35114Zm-.00256.64144a13.73906,13.73906,0,0,0-.7669,1.31691.7205.7205,0,0,0,.28394.9109.77558.77558,0,0,0,.99752-.02355.7259.7259,0,0,0,.243-.92171C156.28371,144.86148,156.01711,144.48056,155.72436,143.99258Z" transform="translate(-149.15652 -141.26751)"/>
    <path d="M153.25087,143.83636c.29588.49071.59015.94786.85235,1.4227a.94854.94854,0,0,1-.23871,1.229.97532.97532,0,0,1-1.47532-1.21783C152.64967,144.79308,152.948,144.33657,153.25087,143.83636Zm-.00159.65887c-.22368.36418-.416.64324-.57224.94121a.64237.64237,0,0,0,.98765.781.59975.59975,0,0,0,.15443-.7993C153.6647,145.13272,153.47911,144.86418,153.24928,144.49523Z" transform="translate(-149.15652 -141.26751)"/>
    <g>
      <path d="M152.67969,148.273h.15234v-.37744a.42691.42691,0,0,1-.14844.02v-.11377c.1045-.01026.15528-.04834.17383-.13086h.13086v.60205h.13672v.126h-.44531Z" transform="translate(-149.15652 -141.26751)"/>
      <path d="M153.28125,148.273h.15234v-.37744a.42685.42685,0,0,1-.14843.02v-.11377c.10449-.01026.15527-.04834.17382-.13086h.13086v.60205h.13672v.126h-.44531Z" transform="translate(-149.15652 -141.26751)"/>
      <path d="M153.88086,147.67871h.16113v.59033h.31641v.12989h-.47754Z" transform="translate(-149.15652 -141.26751)"/>
    </g>
  </g>
</svg>
