<svg id="Layer_1" data-name="Layer 1" xmlns="http://www.w3.org/2000/svg" viewBox="0 0 8.88125 8.85">
  <g>
    <path d="M151.85686,141.53365a4.42244,4.42244,0,1,1-4.43961,4.40223A4.41339,4.41339,0,0,1,151.85686,141.53365Zm-.01731,8.50656a4.0993,4.0993,0,0,0,.06843-8.19829,4.09933,4.09933,0,1,0-.06843,8.19829Z" transform="translate(-147.41722 -141.52832)"/>
    <path d="M152.32576,145.629l.11324-.27837.30576-.01468.13239.30485h1.27549v.72838l.30514.19068v.28877l-.26032.13264c-.07309.43285.07542.86739-.14817,1.31315a1.71722,1.71722,0,0,1-.46229.11106,13.79425,13.79425,0,0,1-2.38959-.067c-.31613-.45066-.10557-.91022-.2127-1.36288l-.22766-.13237-.03083-.26662.29724-.19864v-.7242c.24238-.009.45551-.01982.66876-.024C151.89488,145.62587,152.09767,145.629,152.32576,145.629Zm1.37616,1.29456c-.38741,0-.744-.00194-1.10066.00054-.36876.00255-.73865-.01222-1.13728.01333a5.14175,5.14175,0,0,0,.05138.99405h2.18656Zm-.00016-.8368c-.75824.00016-1.48288-.00369-2.2358.00261l.04636.34709h2.18944Z" transform="translate(-147.41722 -141.52832)"/>
    <path d="M149.58988,144.84718v-1.07046h.28l.0487.69765c1.26331.0256,2.51788.01435,3.80629.00616v-.65981l.349-.0756a3.368,3.368,0,0,1-.02116,1.08556,13.85509,13.85509,0,0,1-1.4904.02838c-.48507.00678-.97031.00361-1.45546.00089C150.61086,144.85717,150.11389,144.873,149.58988,144.84718Z" transform="translate(-147.41722 -141.52832)"/>
  </g>
</svg>
