<svg id="Layer_1" data-name="Layer 1" xmlns="http://www.w3.org/2000/svg" viewBox="0 0 296 296">
  <defs>
    <style>
      .cls-1 {
        fill: #9b7fba;
      }

      .cls-2 {
        fill: #fff;
      }
    </style>
  </defs>
  <circle class="cls-1" cx="148" cy="148" r="148"/>
  <path class="cls-2" d="M241.7926,244.1434,228.25,84.2143a8.1868,8.1868,0,0,0-7.9564-7.7129H192.3644V63.1447C192.3644,38.2519,173.2667,18,149.7925,18s-42.5688,20.2519-42.5688,45.1447V76.5014H79.2759a8.1869,8.1869,0,0,0-7.9565,7.7129L57.7231,244.7725a8.7943,8.7943,0,0,0,2.061,6.4728A7.79,7.79,0,0,0,65.68,254H233.9118a8.24,8.24,0,0,0,7.9884-8.4708A9.14,9.14,0,0,0,241.7926,244.1434ZM123.2005,63.1447c0-15.5512,11.9294-28.2032,26.593-28.2032s26.5951,12.652,26.5951,28.2032V76.5014H123.2005ZM74.4178,237.06,86.5794,93.4429h20.6443v15.148a8.0021,8.0021,0,1,0,15.9768,0V93.4429h53.1881v15.148a8.0022,8.0022,0,1,0,15.9769,0V93.4429h20.6251L225.1522,237.06Z" transform="translate(-1.5 -1.5)"/>
</svg>
