<svg id="Layer_1" data-name="Layer 1" xmlns="http://www.w3.org/2000/svg" viewBox="0 0 8.87229 8.84713">
  <g>
    <path d="M149.0837,154.19834a4.42193,4.42193,0,1,1,.00959-8.84371,4.42186,4.42186,0,1,1-.00959,8.84371Zm.01315-8.49344a4.08034,4.08034,0,1,0,4.062,4.12876A4.05859,4.05859,0,0,0,149.09685,145.7049Z" transform="translate(-144.64083 -145.35463)"/>
    <path d="M151.65985,149.44658c.21137,0,.35117-.00187.49089.00059.11259.002.18738.06328.1614.17417a.22455.22455,0,0,1-.14281.1434,4.07827,4.07827,0,0,1-.48656.028c-.00816.14153-.02021.26236-.02112.38327-.00271.36055.00327.7212-.00219,1.08169-.00677.44668-.17527.63447-.62234.63768q-1.97631.01419-3.95277-.00037c-.41953-.00315-.59741-.19288-.60643-.61111-.01044-.48379-.00243-.968-.00243-1.48285-.16569-.0099-.30207-.02045-.43865-.0255-.11884-.00439-.22438-.021-.21659-.17623.00794-.15816.12688-.15277.23716-.15468.12269-.00211.24545-.00048.422-.00048,0-.22057-.00346-.40412.00121-.58745.00317-.12419.09451-.16113.19344-.13779a.237.237,0,0,1,.15941.12173,1.32558,1.32558,0,0,1,.01369.327c.00063.67412-.00291,1.34826.00179,2.02234.00223.31963.01162.33224.30475.333q1.95287.00543,3.90575-.00047a1.41749,1.41749,0,0,0,.20259-.03254c.00861-.1509.0226-.28767.02315-.4245.00245-.6114.001-1.22281.0011-1.83422,0-.09406.00329-.18824-.0002-.28216-.00534-.14375.02652-.2431.20378-.23822.158.00436.17169.1002.17039.21955C151.65858,149.08436,151.65985,149.23832,151.65985,149.44658Z" transform="translate(-144.64083 -145.35463)"/>
    <path d="M148.13154,150.97817a.62377.62377,0,1,1,.08789-1.24387.62366.62366,0,1,1-.08789,1.24387Zm.06229-1.00038a.38858.38858,0,0,0-.382.34352.367.367,0,1,0,.73337.02975A.37594.37594,0,0,0,148.19383,149.97779Z" transform="translate(-144.64083 -145.35463)"/>
    <path d="M148.61087,148.46187a.50009.50009,0,0,1,.00363,1.00014.51007.51007,0,0,1-.49216-.47547A.50179.50179,0,0,1,148.61087,148.46187Z" transform="translate(-144.64083 -145.35463)"/>
    <path d="M150.0296,150.23655a.58983.58983,0,0,1-.61975-.5669.60082.60082,0,0,1,1.19944-.03949A.58713.58713,0,0,1,150.0296,150.23655Zm.30531-.59163a.29491.29491,0,0,0-.34338-.288.29994.29994,0,0,0-.30955.32564.34134.34134,0,0,0,.34571.30465A.33379.33379,0,0,0,150.33491,149.64492Z" transform="translate(-144.64083 -145.35463)"/>
    <path d="M149.6191,147.6717a.4317.4317,0,0,1,.438.44534.49289.49289,0,0,1-.47965.47506.52927.52927,0,0,1-.44971-.46581A.46786.46786,0,0,1,149.6191,147.6717Z" transform="translate(-144.64083 -145.35463)"/>
  </g>
</svg>
