<svg id="Capa_1" data-name="Capa 1" xmlns="http://www.w3.org/2000/svg" viewBox="0 0 491.8 491.8"><defs><style>.cls-1{fill:#00a800;}</style></defs><path class="cls-1" d="M245.9,0C110.31,0,0,110.32,0,245.9S110.31,491.8,245.9,491.8c65.68,0,128.24-26.48,174.68-72.94,7.72-7.72,6.85-20.67-1-28.35l-38.81-38.24c8.37-11.47,9.47-25.41,2.57-38.66a105.07,105.07,0,0,0-41.57-43c-7-4-13.61-6-20.2-6a33.1,33.1,0,0,0-7.67.91c-8.38,2-16.43,6-24.61,12a15.3,15.3,0,0,1-9.38,2.88,22.07,22.07,0,0,1-12.54-4,299.65,299.65,0,0,1-62-62c-3.49-4.7-6.28-14.93-1.11-21.94,6.05-8.18,9.95-16.22,12-24.61,2.19-9,.52-18.16-5.08-27.84a105,105,0,0,0-43-41.59,38.42,38.42,0,0,0-17.83-4.62c-10,0-19.31,4.35-27,12.54a285.72,285.72,0,0,0-20.52,25.12c-6.6,8.83-6,19-5.58,28v.18c.82,11.42,5.08,24.91,13,41.24,13.45,27.67,32.55,53.94,58.39,80.3,5.32,5.43,26.48,26.6,31.91,31.91,26.38,25.85,52.65,44.95,80.3,58.4,16.35,7.95,29.83,12.21,41.24,13h.19c2.35.11,4.86.23,7.3.23,5.83,0,13.3-.7,20-5.41l25.54,25.16A203.15,203.15,0,0,1,245.9,450.65C133,450.65,41.16,358.8,41.16,245.9S133,41.16,245.9,41.16,450.65,133,450.65,245.9a20.58,20.58,0,1,0,41.15,0C491.8,110.32,381.48,0,245.9,0Z"/></svg>