<svg id="Layer_1" data-name="Layer 1" xmlns="http://www.w3.org/2000/svg" viewBox="0 0 8.91037 8.90209">
  <g>
    <path d="M155.56511,148.92076a4.38759,4.38759,0,0,1-4.45168,4.432,4.45115,4.45115,0,1,1,.03951-8.902A4.38584,4.38584,0,0,1,155.56511,148.92076Zm-4.4594,4.03893a4.0594,4.0594,0,1,0-4.05415-4.07555A4.06953,4.06953,0,0,0,151.10571,152.95969Z" transform="translate(-146.65474 -144.4507)"/>
    <path d="M150.081,150.31608l-1.39924-.63124-.01978-.4381,1.83268-.79672,1.90887.86216Z" transform="translate(-146.65474 -144.4507)"/>
    <path d="M153.19264,149.37l-1.78354-.81275v-1.7528l-.61631-.38334.06662-.14912.79055.29429v1.817l2.1706.98857-1.16635.56757,1.18249.5891-2.56344,1.12536-.09918-.202,2.01165-.93084-1.13421-.57643Z" transform="translate(-146.65474 -144.4507)"/>
    <path d="M150.01157,151.51157l-1.339-.61881v-.73791l1.438.64056,1.55229-.66468.73649.32948Z" transform="translate(-146.65474 -144.4507)"/>
    <path d="M148.68294,147.827v-1.32561a2.5529,2.5529,0,0,1,2.13143.40541Z" transform="translate(-146.65474 -144.4507)"/>
  </g>
</svg>
