<svg id="Layer_1" data-name="Layer 1" xmlns="http://www.w3.org/2000/svg" viewBox="0 0 8.78403 8.77216">
  <g>
    <path d="M150.008,145.61392a4.38612,4.38612,0,1,1-4.4,4.367A4.34239,4.34239,0,0,1,150.008,145.61392Zm.00969,8.51065a4.12381,4.12381,0,1,0-4.14021-4.10775A4.12069,4.12069,0,0,0,150.01765,154.12457Z" transform="translate(-145.60798 -145.61392)"/>
    <path d="M152.72693,148.81592a1.53434,1.53434,0,0,0-1.88971-.72119c-.56189.21313-.4577.17-.80475.00641a.42691.42691,0,0,0-.42432.07849c-.357.274-.667.60669-1.00732.9024.0332.03717.4339.52655.46716.56378-.62256.61536-1.23846,1.215-1.83966,1.82892-.08331.08508-.09424.24091-.13861.364a1.20286,1.20286,0,0,0,.33209-.165c.61316-.60291,1.21576-1.21656,1.8321-1.83741l.50134.39539c1.1839-1.16382,1.20837-1.08759.88653-1.71649a1.25145,1.25145,0,1,1,1.43464,2.0509c-.11206.08527-.32.21765-.36713.32867a3.80644,3.80644,0,0,0-.1994.40491c-.053.16919-.05194.37476-.09992.54517-.011.03906.08368.10779.1294.16278.04858-.06415.14612-.13526.13812-.19141-.07086-.49939.20605-.7699.58112-1.03192A1.51323,1.51323,0,0,0,152.72693,148.81592Zm-2.31079.441-.49842.49841a.22692.22692,0,0,1-.32,0l-.49848-.49841a.227.227,0,0,1,0-.32l.49848-.49847a.227.227,0,0,1,.32,0l.49842.49847A.22693.22693,0,0,1,150.41614,149.2569Z" transform="translate(-145.60798 -145.61392)"/>
  </g>
</svg>
