<svg id="Layer_1" data-name="Layer 1" xmlns="http://www.w3.org/2000/svg" viewBox="0 0 8.95908 8.93709">
  <defs>
    <style>
      .cls-1, .cls-2 {
        fill: none;
        stroke-miterlimit: 10;
        stroke-width: 0.25px;
      }

      .cls-1 {
        stroke: #020202;
      }

      .cls-2 {
        stroke: #000;
      }
    </style>
  </defs>
  <path d="M149.06591,145.76562a4.43183,4.43183,0,0,1,4.474,4.43908,4.47953,4.47953,0,1,1-8.959-.01A4.44482,4.44482,0,0,1,149.06591,145.76562Zm-.01331,8.50409a4.04727,4.04727,0,1,0-4.06329-4.06644A4.02356,4.02356,0,0,0,149.0526,154.26971Z" transform="translate(-144.58086 -145.76257)"/>
  <g>
    <path d="M151.15757,151.58388a.17627.17627,0,0,1,.01507-.06687c.07015-.09373-.15885-.27444.06867-.29558.06682-.00621.16858.14849.22115.24712a7.45205,7.45205,0,0,1,.32219.68935.43839.43839,0,0,1-.17635.59436l-.00009,0-.008.00424c-.18269.12028-.37358.22927-.56682.332a.46574.46574,0,0,1-.572-.07761c-.19725-.172-.41662-.31856-.61673-.48759-.04467-.03773-.04927-.1229-.07987-.20691a.8788.8788,0,0,1,.68953.35473c.30906.30468.30936.30437.66963.09815.55919-.3201.56411-.32253.28124-.89336a1.6829,1.6829,0,0,0-.2523-.30412Z" transform="translate(-144.58086 -145.76257)"/>
    <line class="cls-1" x1="6.25462" y1="5.65029" x2="6.48926" y2="6.07345"/>
    <line class="cls-1" x1="5.9758" y1="5.80489" x2="6.21043" y2="6.22804"/>
    <line class="cls-1" x1="5.18777" y1="5.07339" x2="5.91792" y2="6.39024"/>
  </g>
  <rect x="3.38726" y="3.36845" width="2.18614" height="2.18614"/>
  <rect class="cls-2" x="2.66116" y="3.96192" width="1.06915" height="1.06915"/>
  <rect class="cls-2" x="1.23297" y="3.96192" width="1.06915" height="1.06915"/>
  <rect class="cls-2" x="5.30212" y="3.96192" width="1.06915" height="1.06915"/>
  <rect class="cls-2" x="6.72233" y="3.96192" width="1.06915" height="1.06915"/>
  <rect class="cls-2" x="0.19573" y="3.96192" width="0.65426" height="1.06915"/>
  <rect class="cls-2" x="8.14254" y="3.96192" width="0.53457" height="1.06915"/>
</svg>
