<svg id="Layer_1" data-name="Layer 1" xmlns="http://www.w3.org/2000/svg" viewBox="0 0 39 39">
  <defs>
    <style>
      .cls-1, .cls-2 {
        fill: none;
      }

      .cls-1, .cls-2, .cls-4 {
        stroke: #000;
      }

      .cls-1, .cls-2, .cls-3, .cls-4 {
        stroke-miterlimit: 10;
      }

      .cls-1, .cls-3, .cls-4 {
        stroke-width: 0.5px;
      }

      .cls-3 {
        stroke: #fff;
      }
    </style>
  </defs>
  <path class="cls-1" d="M156.83951,152.22229" transform="translate(-130.5 -130.5)"/>
  <path class="cls-1" d="M150,150" transform="translate(-130.5 -130.5)"/>
  <circle class="cls-2" cx="19.5" cy="19.5" r="19"/>
  <g>
    <g>
      <circle class="cls-3" cx="19.5" cy="19.5" r="13.25532"/>
      <circle class="cls-3" cx="19.5" cy="19.5" r="11.0461"/>
      <circle class="cls-3" cx="19.5" cy="19.5" r="8.83688"/>
      <circle class="cls-3" cx="19.5" cy="19.5" r="6.62766"/>
      <circle class="cls-3" cx="19.5" cy="19.5" r="4.41844"/>
      <circle class="cls-3" cx="19.5" cy="19.5" r="2.20922"/>
    </g>
    <g>
      <line class="cls-3" x1="19.5" y1="19.5" x2="19.5" y2="32.75532"/>
      <line class="cls-3" x1="19.5" y1="19.5" x2="30.97944" y2="12.87234"/>
      <line class="cls-3" x1="19.5" y1="19.5" x2="8.02056" y2="12.87234"/>
    </g>
  </g>
  <path class="cls-4" d="M150.51064,157.70213V162c5.53191-1.80851,6.32887-1.57447,6.32887-1.57447l1.90517-1.97872,2.42553-4.02837.9149-4.80142-.51064-2.93085-.52837-2.42331-3.81363,2.16943-.35369.38255.73824,2.4192-.89362,3.80851s-2.05673,3.234-2.305,3.383a21.6804,21.6804,0,0,1-2.03546.93617C152.04255,157.46809,150.51064,157.70213,150.51064,157.70213Z" transform="translate(-130.5 -130.5)"/>
  <polygon class="cls-4" points="20.011 20.053 20.011 25.16 22.713 23.918 24.33 22.117 24.989 20.053 24.819 17.67 24.691 17.074 20.394 19.628 20.011 20.053"/>
  <polygon class="cls-4" points="22.266 17.291 19.41 18.984 16.862 17.291 19.245 16.186 22.266 17.291"/>
  <path class="cls-4" d="M156.73314,145.52411l-2.57357,1.50249-2.2234-1.85639-2.87234-.383-2.25532.89362-.97872,1.234-2.6383-1.4468,2.95745-2.53192,2.82978-.85106s2.766.06383,2.87234.10638,3.6383,2.17021,3.6383,2.17021Z" transform="translate(-130.5 -130.5)"/>
  <polygon class="cls-4" points="30.235 12.748 27.415 14.33 24.521 10.663 22.5 10.245 19.883 9.904 17.291 10.074 14.883 10.777 13.138 12.117 11.466 14.271 9.138 12.872 11.5 10.436 15.245 8.096 19.287 7.33 24.521 8.245 27.947 11.032 30.235 12.748"/>
  <path d="M137.58691,159.92969a.75953.75953,0,0,1,.79346-.5625c.439,0,.7334.24121.7334.59863a.47254.47254,0,0,1-.34277.4541.50674.50674,0,0,1,.397.51367c0,.39649-.3125.64942-.81152.64942a.96225.96225,0,0,1-.63428-.20117.66349.66349,0,0,1-.22559-.39746l.418-.1045a.39465.39465,0,0,0,.4209.333c.21924,0,.34863-.11426.34863-.30371,0-.18262-.12646-.28809-.34863-.28809h-.19531v-.33984h.1831c.20166,0,.32178-.10254.32178-.27344a.2563.2563,0,0,0-.28272-.27051.39761.39761,0,0,0-.39062.30079Z" transform="translate(-130.5 -130.5)"/>
  <path d="M149.73291,135.60645a4.00163,4.00163,0,0,0,.6167-.44141.99317.99317,0,0,0,.39941-.70606.26073.26073,0,0,0-.2705-.29785c-.16211,0-.25879.09571-.32129.32422l-.42139-.10156A.71841.71841,0,0,1,150.5,133.791a.65432.65432,0,0,1,.7334.67382,1.03427,1.03427,0,0,1-.373.76661,2.76878,2.76878,0,0,1-.51367.37207h.91016v.37011h-1.52393Z" transform="translate(-130.5 -130.5)"/>
  <path d="M160.99121,161.17383h.457v-1.127a1.294,1.294,0,0,1-.44531.06054v-.33984c.3125-.03028.46289-.14453.52051-.39063h.39062v1.79688h.40918v.376h-1.332Z" transform="translate(-130.5 -130.5)"/>
</svg>
