<svg id="Layer_1" data-name="Layer 1" xmlns="http://www.w3.org/2000/svg" viewBox="0 0 290 290">
  <defs>
    <style>
      .cls-1 {
        fill: #fa7206;
      }

      .cls-2 {
        fill: #fff;
      }
    </style>
  </defs>
  <g>
    <path class="cls-1" d="M287.24841,103.1167a60.00509,60.00509,0,1,1-75.26849-84.23065,144.82838,144.82838,0,1,0,75.26849,84.23065Z" transform="translate(-5 -5)"/>
    <g>
      <path class="cls-2" d="M190.94533,99.97781c18.36745,0,36.73491-.02528,55.10207.04134a12.44,12.44,0,0,1,5.30687.9717c3.31327,1.632,3.94218,5.18318,1.94994,9.59213q-13.52578,29.91808-27.10273,59.81578c-2.7061,5.97051-5.53648,11.88486-8.09331,17.917a7.93875,7.93875,0,0,1-8.25863,5.26782c-30.69948-.07118-61.39931-.03278-92.09873-.0443-5.54634-.0023-7.16-1.20555-8.70184-6.52819Q93.35872,132.83554,77.70457,78.64937c-1.54644-5.34917-1.53263-5.35377-7.20821-5.35637-5.90489-.00261-11.80813.05085-17.711-.02463-4.41522-.05642-7.1285-2.43609-7.22168-6.11713a6.52615,6.52615,0,0,1,7.27942-6.51438c8.52731-.06562,17.05525-.03018,25.58292-.02067,6.21784.00691,7.6468,1.08977,9.41008,7.19314q11.89075,41.15859,23.76323,82.32324c2.61619,9.063,5.32358,18.10075,7.80758,27.19954a4.12194,4.12194,0,0,0,4.61744,3.55805l.07363-.01021q39.94847-.11031,79.89731.00625a4.64682,4.64682,0,0,0,5.03326-3.34611c.97725-2.56829,2.26745-5.01519,3.33035-7.553.88344-2.109.15813-3.30412-2.19958-3.32379-2.6244-.02168-5.2488-.02328-7.87155-.02363q-26.56668-.003-53.13376-.00491c-6.00625-.0033-9.064-2.1418-9.10469-6.30774-.04134-4.19707,3.02821-6.437,8.95868-6.44089,22.04-.01412,44.08028-.07609,66.11926.06562a5.7002,5.7002,0,0,0,6.49931-4.15868c.77943-2.35179,2.03229-4.54316,3.00068-6.83689.81616-1.93352.07838-3.05083-1.98829-3.21486-1.17442-.09351-2.36-.05772-3.54028-.05772q-37.78429-.004-75.56839-.01016a30.51171,30.51171,0,0,1-4.70915-.20833,6.23294,6.23294,0,0,1-.4061-12.2254,21.62877,21.62877,0,0,1,4.68617-.33132c27.94452-.01772,55.88935-.07184,83.83323.05936,3.60561.01707,6.00495-.69643,7.04222-4.47033a54.06592,54.06592,0,0,1,2.54762-5.74085c1.18818-2.91733.59837-3.84933-2.45411-4.035-1.04583-.064-2.09951-.01672-3.1493-.01672q-47.03334,0-94.06674-.00295c-1.31218,0-2.63126.05346-3.933-.06758a6.11386,6.11386,0,0,1-5.93768-6.1345,6.28608,6.28608,0,0,1,5.713-6.41927,30.81412,30.81412,0,0,1,3.93037-.09841Q163.78814,99.97323,190.94533,99.97781Z" transform="translate(-5 -5)"/>
      <path class="cls-2" d="M218.04741,239.40517a16.65515,16.65515,0,1,1,.12293.00125Z" transform="translate(-5 -5)"/>
      <path class="cls-2" d="M125.19087,223.04076a16.67178,16.67178,0,1,1-16.36375-16.9844,16.44478,16.44478,0,0,1,16.37246,16.51678Q125.19853,222.80695,125.19087,223.04076Z" transform="translate(-5 -5)"/>
    </g>
    <path d="M281.21585,50.68228l-50.42506,50.42507a1.13493,1.13493,0,0,1-1.60643,0L200.553,72.47493a1.13555,1.13555,0,0,1,0-1.6054l6.957-6.957a1.13679,1.13679,0,0,1,1.60643,0l20.87216,20.87113,42.66481-42.66481a1.1368,1.1368,0,0,1,1.60642,0l6.956,6.957A1.13492,1.13492,0,0,1,281.21585,50.68228Z" transform="translate(-5 -5)"/>
  </g>
</svg>
