<svg id="Layer_1" data-name="Layer 1" xmlns="http://www.w3.org/2000/svg" viewBox="0 0 8.8211 8.8168">
  <g>
    <path d="M154.41054,150.01161a4.4106,4.4106,0,1,1-4.4125-4.42A4.35468,4.35468,0,0,1,154.41054,150.01161Zm-4.38843-4.11614a4.109,4.109,0,1,0,4.08926,4.11723A4.10244,4.10244,0,0,0,150.02211,145.89547Z" transform="translate(-145.58945 -145.5916)"/>
    <path d="M149.2545,150.27942a3.14046,3.14046,0,0,1-2.23729-2.12892,3.06834,3.06834,0,0,1,2.98688.82466,3.08408,3.08408,0,0,1,2.97893-.84665,3.13425,3.13425,0,0,1-2.23992,2.14489,3.10354,3.10354,0,0,1-.72257,3.0132A3.10488,3.10488,0,0,1,149.2545,150.27942Zm.75012,2.48272a2.80464,2.80464,0,0,0,.314-2.74752,2.75538,2.75538,0,0,0,2.21058-1.62247,2.79494,2.79494,0,0,0-2.54122,1.08734,2.77545,2.77545,0,0,0-2.518-1.0906,2.78189,2.78189,0,0,0,2.21162,1.64237A2.845,2.845,0,0,0,150.00462,152.76214Z" transform="translate(-145.58945 -145.5916)"/>
  </g>
</svg>
