<svg id="Layer_1" data-name="Layer 1" xmlns="http://www.w3.org/2000/svg" viewBox="0 0 8.80277 8.79672">
  <path d="M150.12188,152.94465a4.39843,4.39843,0,1,1,4.44409-4.34191A4.37253,4.37253,0,0,1,150.12188,152.94465Zm.03269-.2667a4.13,4.13,0,1,0-4.13881-4.11966A4.11338,4.11338,0,0,0,150.15457,152.678Z" transform="translate(-145.76323 -144.14794)"/>
  <path d="M152.33793,145.91466l-.80331,0a.08633.08633,0,0,0-.08609.08609l0,.07294a.08544.08544,0,0,0,.02528.06081.08713.08713,0,0,0,.06131.02578l.46915.00051-.74444.74443a.084.084,0,0,0-.00023.11994l.05157.05157a.08724.08724,0,0,0,.12258.00241l.74709-.74709-.00082.47311a.08524.08524,0,0,0,.08547.08547l.07283-.00011a.08635.08635,0,0,0,.086-.08617v-.8033a.08681.08681,0,0,0-.08641-.08638Z" transform="translate(-145.76323 -144.14794)"/>
  <path d="M152.42368,151.10406l0-.80331a.08635.08635,0,0,0-.08609-.08609l-.073,0a.08543.08543,0,0,0-.0608.02527.08712.08712,0,0,0-.02578.06132l-.00052.46915-.74443-.74444a.084.084,0,0,0-.11994-.00023l-.05156.05156a.08724.08724,0,0,0-.00242.12259l.74709.74709-.4731-.00082a.08525.08525,0,0,0-.08548.08547l.00011.07283a.08635.08635,0,0,0,.08617.086h.8033a.08681.08681,0,0,0,.08639-.0864Z" transform="translate(-145.76323 -144.14794)"/>
  <path d="M147.91334,151.1898l.8033,0a.08633.08633,0,0,0,.08609-.08609l0-.07294a.08547.08547,0,0,0-.02527-.06081.08718.08718,0,0,0-.06131-.02578l-.46915-.00051.74443-.74443a.084.084,0,0,0,.00024-.11994l-.05157-.05157a.08724.08724,0,0,0-.12258-.00241l-.74709.74709.00082-.47311a.08525.08525,0,0,0-.08548-.08547l-.07282.00011a.08635.08635,0,0,0-.086.08617v.8033a.08681.08681,0,0,0,.08641.08638Z" transform="translate(-145.76323 -144.14794)"/>
  <path d="M147.82759,146.0004l0,.80331a.08633.08633,0,0,0,.08609.08609l.07294,0a.08544.08544,0,0,0,.06081-.02527.08712.08712,0,0,0,.02578-.06132l.00052-.46915.74443.74444a.084.084,0,0,0,.11993.00023l.05157-.05156a.08725.08725,0,0,0,.00242-.12259l-.7471-.74709.47311.00082a.08525.08525,0,0,0,.08548-.08547L148.80345,146a.08635.08635,0,0,0-.08617-.086h-.8033a.08681.08681,0,0,0-.08639.0864Z" transform="translate(-145.76323 -144.14794)"/>
  <g>
    <path d="M148.66931,148.531l-.4458-.69336h.37989l.26562.45557.26416-.45557h.3418l-.43213.68359.48389.74561h-.38184l-.30566-.51367-.30811.51367h-.34375Z" transform="translate(-145.76323 -144.14794)"/>
    <path d="M150.10535,148.531l-.4458-.69336h.37939l.2666.45557.26368-.45557h.34179l-.43164.68359.4834.74561h-.38183l-.30567-.51367-.30762.51367h-.34423Z" transform="translate(-145.76323 -144.14794)"/>
    <path d="M151.17566,147.83763h.31934V149.009h.62988v.25781h-.94922Z" transform="translate(-145.76323 -144.14794)"/>
  </g>
</svg>
