<svg id="Layer_1" data-name="Layer 1" xmlns="http://www.w3.org/2000/svg" viewBox="0 0 300 300">
  <defs>
    <style>
      .cls-1 {
        fill: #fa7206;
      }

      .cls-2 {
        fill: #fff;
      }
    </style>
  </defs>
  <circle class="cls-1" cx="150" cy="150" r="150"/>
  <g id="account-circle">
    <path class="cls-2" d="M150,31C82.9,31,28,84.55,28,150S82.9,269,150,269s122-53.55,122-119S217.1,31,150,31Zm0,35.7c20.74,0,36.6,15.47,36.6,35.7s-15.86,35.7-36.6,35.7-36.6-15.47-36.6-35.7S129.26,66.7,150,66.7Zm0,168.98A89.62054,89.62054,0,0,1,76.8,197.6c0-23.8,48.8-36.89,73.2-36.89s73.2,13.09,73.2,36.89A89.62177,89.62177,0,0,1,150,235.68Z" transform="translate(0)"/>
  </g>
</svg>
