<svg id="Layer_1" data-name="Layer 1" xmlns="http://www.w3.org/2000/svg" viewBox="0 0 8.95344 8.92915">
  <defs>
    <style>
      .cls-1 {
        fill: none;
        stroke: #000;
        stroke-miterlimit: 10;
        stroke-width: 0.25px;
      }
    </style>
  </defs>
  <path d="M149.30136,154.11405a4.47007,4.47007,0,0,1-4.47227-4.42757,4.47672,4.47672,0,1,1,8.9533.00959A4.47047,4.47047,0,0,1,149.30136,154.11405Zm.00621-.39745a4.05481,4.05481,0,0,0,4.06454-4.04925,4.06675,4.06675,0,1,0-8.1335.002A4.05553,4.05553,0,0,0,149.30757,153.7166Z" transform="translate(-144.82909 -145.18918)"/>
  <path d="M146.795,148.69141a2.68839,2.68839,0,0,1,2.927-1.65735,2.75715,2.75715,0,0,1,.03721,5.44064,2.69764,2.69764,0,0,1-2.96372-1.64394c.189-.23.32426-.16123.45615.06839a2.3389,2.3389,0,0,0,4.29788-.53381A2.33894,2.33894,0,0,0,147.304,148.525C147.18753,148.6982,147.10582,148.96435,146.795,148.69141Z" transform="translate(-144.82909 -145.18918)"/>
  <path d="M149.4981,148.98524c-.00016.28021.01329.56149-.00916.83988-.006.074-.12209.13913-.18764.20833-.067-.06679-.19026-.132-.19217-.20061q-.024-.86334-.00156-1.72749c.00187-.07169.12181-.14031.187-.21035.06789.06765.18884.13127.19435.20366C149.51133,148.39272,149.49826,148.68947,149.4981,148.98524Z" transform="translate(-144.82909 -145.18918)"/>
  <g>
    <path d="M145.95459,149.4502h.50586v.12988h-.34668v.16211h.26367v.12011h-.26367V150.04h.3623v.12988h-.52148Z" transform="translate(-144.82909 -145.18918)"/>
    <path d="M147.21777,149.97314a.30577.30577,0,0,1-.10644.148.32135.32135,0,0,1-.19727.06055.33486.33486,0,0,1-.3457-.36865.3426.3426,0,0,1,.34228-.37354.31228.31228,0,0,1,.21778.07617.34208.34208,0,0,1,.08154.125l-.14307.0586c-.03418-.09277-.07959-.12988-.15722-.12988-.11084,0-.17285.08642-.17285.24072,0,.15478.06347.2417.17724.2417.07959,0,.12647-.042.15967-.13721Z" transform="translate(-144.82909 -145.18918)"/>
    <path d="M147.99268,149.80762a.347.347,0,0,1-.35157.374.34277.34277,0,0,1-.34765-.36963.34944.34944,0,0,1,.35351-.37256A.34437.34437,0,0,1,147.99268,149.80762Zm-.53077.00342c0,.1499.06836.24072.18213.24072s.18018-.08887.18018-.24072c0-.14942-.06836-.2417-.1792-.2417C147.5293,149.56934,147.46191,149.65771,147.46191,149.811Z" transform="translate(-144.82909 -145.18918)"/>
  </g>
  <line class="cls-1" x1="5.85176" y1="4.62088" x2="6.46878" y2="4.62088"/>
  <line class="cls-1" x1="4.46513" y1="5.85408" x2="4.4735" y2="6.40632"/>
</svg>
