<svg id="Layer_1" data-name="Layer 1" xmlns="http://www.w3.org/2000/svg" viewBox="0 0 8.9016 8.8911">
  <defs>
    <style>
      .cls-1 {
        font-size: 2px;
        font-family: BoschSans-Bold, Bosch Sans;
        font-weight: 700;
      }

      .cls-2 {
        font-size: 1.5px;
      }
    </style>
  </defs>
  <g>
    <path d="M149.2738,154.38246a4.44563,4.44563,0,1,1,4.44587-4.46251A4.41713,4.41713,0,0,1,149.2738,154.38246Zm-.009-8.52083a4.08054,4.08054,0,1,0,4.086,4.05721A4.07716,4.07716,0,0,0,149.26481,145.86163Z" transform="translate(-144.81811 -145.49137)"/>
    <text class="cls-1" transform="translate(3.24682 4.2045)">60<tspan x="-0.0542" y="2">c</tspan><tspan class="cls-2" x="1.04199" y="2">M</tspan></text>
    <path d="M152.77741,150.13184l-.58187-.58189a.08846.08846,0,0,0-.12472,0l-.05283.05285a.0875.0875,0,0,0-.02574.06235.08927.08927,0,0,0,.02574.06309l.33945.3402H151.279a.08605.08605,0,0,0-.087.0867v.07471a.08936.08936,0,0,0,.087.09054h1.08231l-.34329.3421a.08733.08733,0,0,0,0,.12383l.05283.05267a.08846.08846,0,0,0,.12472-.00012l.58187-.58187a.08893.08893,0,0,0,0-.12516Z" transform="translate(-144.81811 -145.49137)"/>
    <path d="M145.76266,150.257l.58187.58189a.08846.08846,0,0,0,.12472,0l.05283-.05285a.0875.0875,0,0,0,.02574-.06235.08925.08925,0,0,0-.02574-.06309l-.33946-.3402h1.07847a.08605.08605,0,0,0,.087-.0867V150.159a.08936.08936,0,0,0-.087-.09054h-1.08232l.3433-.3421a.08733.08733,0,0,0,0-.12383l-.05283-.05267a.08846.08846,0,0,0-.12472.00012l-.58187.58187a.08893.08893,0,0,0,0,.12516Z" transform="translate(-144.81811 -145.49137)"/>
  </g>
</svg>
