<svg id="Layer_1" data-name="Layer 1" xmlns="http://www.w3.org/2000/svg" viewBox="0 0 388.17 146.81"><defs><style>.cls-1{fill:#fff;}</style></defs><path class="cls-1" d="M450,83.57c-2.27,5.73-4.43,11.15-6.56,16.59-.3.77-.83.78-1.47.78H422.09c-4.71,0-9.41-.08-14.12,0-13.4.36-23.42,6.43-30,18.08a60.93,60.93,0,0,0-6.63,19.38,100.76,100.76,0,0,0-1.58,20.51c.24,10.25,1.64,20.3,5.56,29.87,2.85,7,6.88,13.09,12.93,17.73a35.63,35.63,0,0,0,18.21,7.11,41.83,41.83,0,0,0,13.76-.56c.47-.11.93-.25,1.46-.39V163.6H397.58l6.63-16.73h51.52c0,.52.09,1,.09,1.46q0,36,0,72.1c0,.93-.13,1.52-1.17,1.87A143.32,143.32,0,0,1,428,228.9a139.69,139.69,0,0,1-28.54,1.16,77,77,0,0,1-30.82-8.35c-17.06-8.94-28-22.87-33.45-41.24a83.77,83.77,0,0,1-3-29.72,74.66,74.66,0,0,1,9.13-31.91C350.38,102.75,364,92.35,381.58,87a83.19,83.19,0,0,1,24.14-3.4c14.25,0,28.49,0,42.74,0Z" transform="translate(-67.68 -83.54)"/><path class="cls-1" d="M67.68,228.36c1.67-4.21,3.24-8.15,4.81-12.09q21.65-54.54,43.33-109.06a2.84,2.84,0,0,0,0-2.27c-2.61-6.57-5.18-13.17-7.76-19.77-.18-.44-.32-.9-.53-1.48a9.45,9.45,0,0,1,1.07-.12c12.24,0,24.49,0,36.74,0,1.15,0,1.39.59,1.71,1.41q17.42,44.51,34.85,89l20.73,52.9c.16.41.28.83.47,1.38a9.15,9.15,0,0,1-1.05.12c-12.25,0-24.5,0-36.75,0-1,0-1.35-.48-1.67-1.29q-6.24-16-12.53-32c-.66-1.68-.34-1.49-2.16-1.49q-23.43,0-46.86,0a1.82,1.82,0,0,0-2,1.35c-4.19,10.67-8.46,21.31-12.65,32a2,2,0,0,1-2.2,1.5c-5.28-.07-10.56,0-15.84,0ZM107.2,177h36.86c-6.09-15.56-12.12-31-18.16-46.35l-.31.05Z" transform="translate(-67.68 -83.54)"/><path class="cls-1" d="M309.24,146.76c-1.17,3-2.22,5.63-3.28,8.3-.94,2.39-2,4.75-2.82,7.17-.38,1.1-1,1.33-2,1.33q-21.23-.06-42.47,0h-1.8V211h65.72c-.2.59-.33,1-.49,1.4-2,4.94-3.94,9.86-5.85,14.82a1.58,1.58,0,0,1-1.73,1.2q-46.55,0-93.07,0c-.39,0-.78-.05-1.22-.08V83.67H321c-.13.44-.21.77-.33,1.09-2,5-4,10-6,15.06a1.57,1.57,0,0,1-1.76,1.13q-27.17,0-54.32,0h-1.79v45.83Z" transform="translate(-67.68 -83.54)"/></svg>