<svg id="Layer_1" data-name="Layer 1" xmlns="http://www.w3.org/2000/svg" viewBox="0 0 388.14 146.7697">
  <defs>
    <style>
      .cls-1 {
        fill: #cf132f;
      }
    </style>
  </defs>
  <path class="cls-1" d="M382.32,0c-2.27,5.73-4.43,11.15-6.56,16.59-.3.77-.83.78-1.47.78H354.41c-4.71,0-9.41-.08-14.12,0-13.4.36-23.42,6.43-30,18.08a60.9305,60.9305,0,0,0-6.63,19.38,100.76,100.76,0,0,0-1.58,20.51c.24,10.25,1.64,20.3,5.56,29.87,2.85,7,6.88,13.09,12.93,17.73a35.52,35.52,0,0,0,18.21,7.11,41.5605,41.5605,0,0,0,13.76-.56c.47-.11.93-.25,1.46-.39V80.03H329.9l6.63-16.73h51.52c0,.52.09,1,.09,1.46v72.1c0,.93-.13,1.52-1.17,1.87a143.0006,143.0006,0,0,1-26.65,6.6,139.0011,139.0011,0,0,1-28.54,1.16,76.9987,76.9987,0,0,1-30.82-8.35c-17.06-8.94-28-22.87-33.45-41.24a83.7719,83.7719,0,0,1-3-29.72,74.6822,74.6822,0,0,1,9.13-31.91C282.7,19.18,296.32,8.78,313.9,3.43A83.5772,83.5772,0,0,1,338.04.03h42.74Z" transform="translate(0 0.01)"/>
  <path class="cls-1" d="M0,144.79c1.67-4.21,3.24-8.15,4.81-12.09Q26.41,78.16,48.14,23.64a2.8,2.8,0,0,0,0-2.27q-3.915-9.855-7.73-19.78c-.18-.44-.32-.9-.53-1.48a9.4652,9.4652,0,0,1,1.07-.12H77.66c1.15,0,1.39.59,1.71,1.41q17.42,44.52,34.85,89l20.73,52.9c.16.41.28.83.47,1.38a9.3875,9.3875,0,0,1-1,.12H97.62c-1,0-1.35-.48-1.67-1.29q-6.24-16-12.53-32c-.66-1.68-.34-1.49-2.16-1.49H34.41a1.82,1.82,0,0,0-2,1.35c-4.19,10.67-8.46,21.31-12.65,32a2,2,0,0,1-2.2,1.5c-5.28-.07-10.56,0-15.84,0ZM39.52,93.43H76.41Q67.24,70.09,58.22,47.08l-.31.05Z" transform="translate(0 0.01)"/>
  <path class="cls-1" d="M241.56,63.19c-1.17,3-2.22,5.63-3.28,8.3-.94,2.39-2,4.75-2.82,7.17a1.76,1.76,0,0,1-2,1.33q-21.23-.06-42.47,0h-1.8v47.44h65.72c-.2.59-.33,1-.49,1.4-2,4.94-3.94,9.86-5.85,14.82a1.57,1.57,0,0,1-1.73,1.2H153.77a6.5154,6.5154,0,0,1-1.22-.08V.1H253.32c-.13.44-.21.77-.33,1.09-2,5-4,10-6,15.06a1.56,1.56,0,0,1-1.76,1.13H189.12V63.21Z" transform="translate(0 0.01)"/>
</svg>
