<svg id="Layer_1" data-name="Layer 1" xmlns="http://www.w3.org/2000/svg" viewBox="0 0 194.755 31">
  <defs>
    <style>
      .cls-1 {
        fill: #6d6e71;
        stroke: #a7a9ac;
        stroke-miterlimit: 10;
        stroke-width: 0.5px;
      }

      .cls-2 {
        fill: #a7a9ac;
      }

      .cls-3 {
        fill: #fff;
      }
    </style>
  </defs>
  <rect width="194.75" height="31"/>
  <line class="cls-1" x1="194.505" y1="2" x2="194.505" y2="29"/>
  <g>
    <path class="cls-2" d="M138.2559,20.8223V13.6641h.9736v3.55l3.6582-3.55h1.3213l-3.0908,2.9033,3.2256,4.2549h-1.2862l-2.6152-3.62L139.23,18.3418v2.48Z" transform="translate(-17.625 -2)"/>
    <path class="cls-2" d="M146.2129,20.8223V13.6641h.9746v7.1582Z" transform="translate(-17.625 -2)"/>
    <path class="cls-2" d="M151.6543,20.8223V14.5088h-2.4258v-.8447h5.8369v.8447h-2.4375v6.3135Z" transform="translate(-17.625 -2)"/>
    <path class="cls-2" d="M162.1543,18.3125l.9805.2393a3.1541,3.1541,0,0,1-1.1368,1.8,3.2607,3.2607,0,0,1-1.9746.5927,3.5833,3.5833,0,0,1-1.749-.3984,2.9892,2.9892,0,0,1-1.1885-1.2773,4.4147,4.4147,0,0,1-.4619-2.0767,4.0105,4.0105,0,0,1,.4629-2.001,3.07,3.07,0,0,1,1.2539-1.2358,3.714,3.714,0,0,1,1.7656-.418,3.1513,3.1513,0,0,1,1.8331.5283,2.7766,2.7766,0,0,1,1.0722,1.5518l-.9551.22a1.9308,1.9308,0,0,0-1.9687-1.4892,2.5817,2.5817,0,0,0-1.2764.3007,2.1382,2.1382,0,0,0-.8613.9356,3.5438,3.5438,0,0,0-.3223,1.6079,3.2526,3.2526,0,0,0,.6494,2.2065,2.1907,2.1907,0,0,0,1.7276.7354,2.1658,2.1658,0,0,0,1.375-.4522A2.2585,2.2585,0,0,0,162.1543,18.3125Z" transform="translate(-17.625 -2)"/>
    <path class="cls-2" d="M165.2256,20.8223V13.6641h.9736v2.9394h3.8281V13.6641h.9737v7.1582h-.9737V17.4482h-3.8281v3.3741Z" transform="translate(-17.625 -2)"/>
    <path class="cls-2" d="M173.5508,20.8223V13.6641h5.3222v.8447h-4.3486v2.1875h4.0733v.8447h-4.0733v2.4365h4.52v.8448Z" transform="translate(-17.625 -2)"/>
    <path class="cls-2" d="M181.2393,20.8223V13.6641h.998l3.8711,5.6308V13.6641h.9307v7.1582h-.9981L182.1768,15.19v5.6324Z" transform="translate(-17.625 -2)"/>
  </g>
  <g>
    <path class="cls-3" d="M79.65,7.9729l-.292,3.4355h3.1434l-.5909,1.515h-2.57v7.8122a3.989,3.989,0,0,0,.0378.5737c.12.8074.45,1.144,1.2677,1.1715a12.3129,12.3129,0,0,0,1.4978-.1237l.2577,1.1509a4.319,4.319,0,0,1-3.9748,0,1.893,1.893,0,0,1-.907-1.491,7.8515,7.8515,0,0,1-.0721-1.0615V12.91H75.8919V11.4015h1.5288l.23-2.982L79.41,7.9626Z" transform="translate(-17.625 -2)"/>
    <path class="cls-3" d="M108.6386,23.3259c-.0171,0-.0515.0344-.0549.055a4.3932,4.3932,0,0,1-3.2328,3.3358,5.9807,5.9807,0,0,1-3.2431.1752,2.1811,2.1811,0,0,1-.213-.0755c-.0515-.3436-.1065-.6871-.1649-1.0479h0a4.6415,4.6415,0,0,0,2.9442-.0858,3.3734,3.3734,0,0,0,2.2606-2.3121,2.3089,2.3089,0,0,0-2.24-3.0919,8.0954,8.0954,0,0,0-1.3535.0412c-.4466.0516-.8829.1752-1.3914.2817l.584-6.146h5.4693c-.0344.22-.0653.4157-.1.6115s-.0687.3745-.11.5909H103.87l-.3126,3.4733h1.412a4.2075,4.2075,0,0,1,2.154.6012A3.1432,3.1432,0,0,1,108.539,21.67a2.235,2.235,0,0,0,.1.2507Z" transform="translate(-17.625 -2)"/>
    <path class="cls-3" d="M62.0539,21.1238l.7318,1.2093c-.1306.11-.2439.2267-.3745.3195a6.1565,6.1565,0,0,1-5.7406.8692,4.6445,4.6445,0,0,1-2.8892-2.9477A9.6187,9.6187,0,0,1,53.3,16.3a6.0673,6.0673,0,0,1,1.69-3.8133,4.7245,4.7245,0,0,1,7.1355.4638,4.9759,4.9759,0,0,1,.5531,1.1234,12.0016,12.0016,0,0,1,.3745,3.779h-7.62c.0412.5565.0481,1.0856.1237,1.6009a3.3705,3.3705,0,0,0,4.016,2.7861A4.5945,4.5945,0,0,0,62.0539,21.1238Zm-1.0306-4.789a8.35,8.35,0,0,0-.2783-1.9994,2.3479,2.3479,0,0,0-2.1884-1.6937,2.3911,2.3911,0,0,0-2.5181,1.2471,5.3394,5.3394,0,0,0-.5738,2.446Z" transform="translate(-17.625 -2)"/>
    <path class="cls-3" d="M41.41,11.6488,43.29,11.137a4.0778,4.0778,0,0,1,.4741,1.8242c.1168-.0962.2027-.1615.2851-.2336a5.58,5.58,0,0,1,2.824-1.5082,3.4353,3.4353,0,0,1,3.1743.9482,2.9341,2.9341,0,0,1,.8177,2.1265v9.07a1.7386,1.7386,0,0,1-.0206.189H48.92V15.1736c0-.2748-.0378-.5462-.0446-.8176a1.5892,1.5892,0,0,0-1.92-1.4876,5.5587,5.5587,0,0,0-3.1984,1.7178v8.99h-1.862V14.28A5.1679,5.1679,0,0,0,41.41,11.6488Z" transform="translate(-17.625 -2)"/>
    <path class="cls-3" d="M68.76,16.85l-3.7171-5.3352H67.42l2.343,3.9336,2.3052-3.9474h2.2536l-3.5831,5.3456,4.6481,6.7025H73.0336l-3.2671-5.1085-3.2808,5.1257H64.208Z" transform="translate(-17.625 -2)"/>
    <path class="cls-3" d="M92.2447,16.4791l-.5669-.7111A5.6444,5.6444,0,0,1,95.69,14.05a4.2049,4.2049,0,0,1,1.7487.3917,2.4735,2.4735,0,0,1,1.3467,2.9819,3.7241,3.7241,0,0,1-1.01,1.7178A25.7128,25.7128,0,0,1,94.45,21.8178l-.8314.6046h5.6788c-.1.4157-.1889.78-.2817,1.1612H91.96V22.45c.6425-.5188,1.3089-1.0306,1.9582-1.5872.749-.6184,1.5013-1.2367,2.2228-1.886a2.59,2.59,0,0,0,.9825-2.2777,1.3535,1.3535,0,0,0-1-1.2231,3.044,3.044,0,0,0-2.2468.12A11.7622,11.7622,0,0,0,92.2447,16.4791Z" transform="translate(-17.625 -2)"/>
    <path class="cls-3" d="M85.0989,23.5561V22.4224h1.67V16.1012l-2.4667,1.1131-.3435-.8211c.1374-.1.2645-.1993.395-.2886.7146-.4809,1.46-.9275,2.1369-1.46a2.147,2.147,0,0,1,1.7795-.3814v8.1386h1.6594v1.1543Z" transform="translate(-17.625 -2)"/>
    <polygon class="cls-3" points="84.105 23.769 84.088 23.789 84.102 23.782 84.105 23.769"/>
  </g>
</svg>
