<svg id="Layer_1" data-name="Layer 1" xmlns="http://www.w3.org/2000/svg" viewBox="0 0 194.755 31">
  <defs>
    <style>
      .cls-1 {
        fill: #6d6e71;
        stroke: #a7a9ac;
        stroke-miterlimit: 10;
        stroke-width: 0.5px;
      }

      .cls-2 {
        fill: #a7a9ac;
      }

      .cls-3 {
        fill: #fff;
      }
    </style>
  </defs>
  <rect width="194.75" height="31"/>
  <line class="cls-1" x1="194.505" y1="2" x2="194.505" y2="29"/>
  <g>
    <path class="cls-2" d="M122.0146,20.8223V13.6641H124.78a3.4909,3.4909,0,0,1,1.33.2075,1.8584,1.8584,0,0,1,.8037.6465,1.6379,1.6379,0,0,1,.3125.9707,1.5409,1.5409,0,0,1-.27.8882,1.8994,1.8994,0,0,1-.76.6342,1.99,1.99,0,0,1,1.01.6328,1.6718,1.6718,0,0,1,.3692,1.1021,1.98,1.98,0,0,1-.334,1.1406,1.9029,1.9029,0,0,1-.8916.7129,4.2413,4.2413,0,0,1-1.5313.2227Zm.9737-4.15h1.5957a4.0091,4.0091,0,0,0,.89-.0684,1.127,1.127,0,0,0,.586-.3442.9824.9824,0,0,0,.205-.6568,1.0648,1.0648,0,0,0-.1865-.6421.9569.9569,0,0,0-.497-.354,4.2782,4.2782,0,0,0-1.1143-.0976h-1.4785Zm0,3.3056h1.834a3.3351,3.3351,0,0,0,.8965-.0879,1.2073,1.2073,0,0,0,.6347-.4169,1.1841,1.1841,0,0,0,.2178-.73,1.1131,1.1131,0,0,0-.209-.6856,1.189,1.189,0,0,0-.5615-.4106,3.4557,3.4557,0,0,0-1.1074-.1294h-1.7051Z" transform="translate(-17.625 -2)"/>
    <path class="cls-2" d="M129.7822,20.8223V13.6641h3.2647a4.2327,4.2327,0,0,1,1.51.2,1.7508,1.7508,0,0,1,.7989.666,1.8894,1.8894,0,0,1,.3125,1.081,1.7289,1.7289,0,0,1-.5293,1.3125,2.7115,2.7115,0,0,1-1.541.6392,2.4682,2.4682,0,0,1,.625.3979,5.1311,5.1311,0,0,1,.7656.9131l1.2861,1.9483H135.05l-.9824-1.4883a9.09,9.09,0,0,0-.8613-1.1768,1.6213,1.6213,0,0,0-.5625-.4087,2.1978,2.1978,0,0,0-.7618-.1049h-1.1259v3.1787Zm.9737-3.9991h2.0947a3.1455,3.1455,0,0,0,1.041-.1318,1.1935,1.1935,0,0,0,.5635-.415,1.0792,1.0792,0,0,0,.209-.6592,1.0205,1.0205,0,0,0-.3985-.8521,1.9016,1.9016,0,0,0-1.1816-.31h-2.3281Z" transform="translate(-17.625 -2)"/>
    <path class="cls-2" d="M137.28,20.8223l2.84-7.1582h1.042l3.0156,7.1582h-1.1152l-.8564-2.168h-3.0977l-.8008,2.168Zm2.1133-2.9395h2.5078L141.1357,15.9q-.3545-.9133-.5205-1.4844a8.7331,8.7331,0,0,1-.4033,1.3672Z" transform="translate(-17.625 -2)"/>
    <path class="cls-2" d="M145.7959,20.8223V13.6641h.998l3.8711,5.6308V13.6641h.9307v7.1582h-.998L146.7334,15.19v5.6324Z" transform="translate(-17.625 -2)"/>
    <path class="cls-2" d="M154.1035,20.8223V13.6641h2.542a5.8824,5.8824,0,0,1,1.4336.1318,2.5075,2.5075,0,0,1,1.1143.625,3.0929,3.0929,0,0,1,.7353,1.145,4.5929,4.5929,0,0,1,.2627,1.6382,4.38,4.38,0,0,1-.4463,2.0635,2.7024,2.7024,0,0,1-1.1484,1.2012,4.0938,4.0938,0,0,1-1.835.3535Zm.9736-.8448h1.5684a3.2944,3.2944,0,0,0,1.44-.247,1.6552,1.6552,0,0,0,.7529-.793,3.9856,3.9856,0,0,0,.35-1.7432,3.3457,3.3457,0,0,0-.3711-1.7114,1.8331,1.8331,0,0,0-.9521-.8325,3.9671,3.9671,0,0,0-1.2432-.1416h-1.544Z" transform="translate(-17.625 -2)"/>
    <path class="cls-2" d="M165.8369,18.5176l.918-.0781a1.829,1.829,0,0,0,.334.92,1.7958,1.7958,0,0,0,.7441.53,2.8269,2.8269,0,0,0,1.0908.2,2.3241,2.3241,0,0,0,1.3506-.3388,1.0318,1.0318,0,0,0,.48-.8789.9085.9085,0,0,0-.1748-.5537,1.2492,1.2492,0,0,0-.5264-.3872,11.6655,11.6655,0,0,0-1.5225-.4268,6.1815,6.1815,0,0,1-1.4824-.4956,1.906,1.906,0,0,1-.6855-.6323,1.5766,1.5766,0,0,1-.2451-.8667,1.7265,1.7265,0,0,1,.7041-1.4209,3,3,0,0,1,1.8994-.5518,3.683,3.683,0,0,1,1.4355.2588,2.15,2.15,0,0,1,.9561.7422,2.07,2.07,0,0,1,.3642,1.1377l-.9375.0683a1.402,1.402,0,0,0-.5234-1.0351,2.0742,2.0742,0,0,0-1.2646-.3369,2.2457,2.2457,0,0,0-1.2618.2954.89.89,0,0,0-.4345.7641.7927.7927,0,0,0,.3183.6739,4.3411,4.3411,0,0,0,1.4326.4843,11.0817,11.0817,0,0,1,1.53.417,2.3848,2.3848,0,0,1,1.0176.7207,1.7008,1.7008,0,0,1,.3437,1.0655,1.8861,1.8861,0,0,1-.3613,1.12,2.2729,2.2729,0,0,1-.9834.7676,3.8244,3.8244,0,0,1-1.4971.2636,3.3659,3.3659,0,0,1-2.1777-.6543A2.2419,2.2419,0,0,1,165.8369,18.5176Z" transform="translate(-17.625 -2)"/>
    <path class="cls-2" d="M175.791,20.8223V14.5088h-2.4258v-.8447h5.8369v.8447h-2.4375v6.3135Z" transform="translate(-17.625 -2)"/>
    <path class="cls-2" d="M180.6133,17.3359a3.7494,3.7494,0,0,1,1.0107-2.8149,3.4663,3.4663,0,0,1,2.5176-.9839,3.637,3.637,0,0,1,1.7764.4395,3.2065,3.2065,0,0,1,1.27,1.2768,4.0208,4.0208,0,0,1,.4687,1.9946,3.7183,3.7183,0,0,1-.9062,2.5928,3.3632,3.3632,0,0,1-2.6162,1.1035,3.3146,3.3146,0,0,1-2.6211-1.1328A3.6212,3.6212,0,0,1,180.6133,17.3359Zm1.0049.0122a2.7757,2.7757,0,0,0,.7314,2.0552,2.5452,2.5452,0,0,0,3.5772-.0078,2.9711,2.9711,0,0,0,.7255-2.1694,3.5674,3.5674,0,0,0-.373-1.6519,2.1777,2.1777,0,0,0-.8672-.8916,2.4825,2.4825,0,0,0-1.2646-.3349,2.425,2.425,0,0,0-1.8164.7329A3.1446,3.1446,0,0,0,181.6182,17.3481Z" transform="translate(-17.625 -2)"/>
    <path class="cls-2" d="M189.7656,20.8223V13.6641H193.03a4.2327,4.2327,0,0,1,1.51.2,1.7508,1.7508,0,0,1,.7989.666,1.8894,1.8894,0,0,1,.3125,1.081,1.7289,1.7289,0,0,1-.5293,1.3125,2.7115,2.7115,0,0,1-1.541.6392,2.4682,2.4682,0,0,1,.625.3979,5.1311,5.1311,0,0,1,.7656.9131l1.2861,1.9483h-1.2246l-.9824-1.4883a9.09,9.09,0,0,0-.8613-1.1768,1.6213,1.6213,0,0,0-.5625-.4087,2.1978,2.1978,0,0,0-.7618-.1049h-1.1259v3.1787Zm.9737-3.9991h2.0947a3.1455,3.1455,0,0,0,1.041-.1318,1.1935,1.1935,0,0,0,.5635-.415,1.0792,1.0792,0,0,0,.209-.6592,1.0205,1.0205,0,0,0-.3985-.8521,1.9016,1.9016,0,0,0-1.1816-.31h-2.3281Z" transform="translate(-17.625 -2)"/>
    <path class="cls-2" d="M198.0908,20.8223V13.6641h5.3223v.8447h-4.3486v2.1875h4.0732v.8447h-4.0732v2.4365h4.52v.8448Z" transform="translate(-17.625 -2)"/>
  </g>
  <g>
    <path class="cls-3" d="M43.3871,23.4361c-1.7081-2.3449-3.3828-4.6447-5.06-6.9439l-.0494.0142v4.9625h1.35v1.9376H34.6654v-1.921h1.323V13.587H34.6617V11.6451c.11-.0074.2184-.02.3264-.02q3.61,0,7.22-.0061a.5515.5515,0,0,1,.5091.2573c.9712,1.352,1.9555,2.696,2.9354,4.0418.0654.09.1345.1771.2178.2869.0821-.1086.1506-.1956.216-.285q1.4748-2.0364,2.9453-4.0727a.4732.4732,0,0,1,.4319-.2271c2.1289.0068,4.2578.0043,6.3861.0056.09,0,.18.0123.282.02v1.9271H54.7894v7.8862h1.33V23.412H47.1407V21.4843h1.3317V16.5335l-.0457-.0388C46.7563,18.7951,45.0865,21.0962,43.3871,23.4361Z" transform="translate(-17.625 -2)"/>
    <path class="cls-3" d="M76.704,20.3662H80.16c-.0839.1931-.1456.3647-.23.5239a4.7123,4.7123,0,0,1-1.5822,1.6975,7.2791,7.2791,0,0,1-3.0317,1.1416,10.6906,10.6906,0,0,1-4.73-.2807,5.2573,5.2573,0,0,1-2.7411-1.7951,4.35,4.35,0,0,1,.933-6.2238,6.6342,6.6342,0,0,1,2.9694-1.2027,9.8708,9.8708,0,0,1,4.5176.2222A5.9694,5.9694,0,0,1,79.405,16.515a4.1159,4.1159,0,0,1,.833,3.1471H72.6949a7.7134,7.7134,0,0,0,.0118,1.207,1.5062,1.5062,0,0,0,1.3118,1.1,2.3225,2.3225,0,0,0,2.6226-1.4742C76.6571,20.455,76.6775,20.4192,76.704,20.3662Zm-2.1332-2.2523v-1.2a1.0217,1.0217,0,0,0-.0456-.2407.94.94,0,0,0-.9127-.73.9073.9073,0,0,0-.8978.7059,11.5806,11.5806,0,0,0-.0136,1.465Z" transform="translate(-17.625 -2)"/>
    <path class="cls-3" d="M103.9589,19.67h-7.553a7.4249,7.4249,0,0,0,.01,1.128A1.5062,1.5062,0,0,0,97.7647,21.97a2.3555,2.3555,0,0,0,2.6584-1.5988h3.4488c-.0716.1728-.1234.3264-.1956.4678a5.1327,5.1327,0,0,1-2.4973,2.2486,9.1958,9.1958,0,0,1-4.2671.7676,8.5358,8.5358,0,0,1-3.5827-.7936,4.4524,4.4524,0,0,1-2.5676-3.1273,4.2709,4.2709,0,0,1,1.6469-4.4293,6.3344,6.3344,0,0,1,3.0663-1.278,9.7283,9.7283,0,0,1,4.8687.34,5.8882,5.8882,0,0,1,2.6139,1.7383A4.138,4.138,0,0,1,103.9589,19.67Zm-5.6715-1.5507c0-.4233.008-.8213,0-1.2187a.9532.9532,0,0,0-.8639-.9571.91.91,0,0,0-1.0015.7658,10.7231,10.7231,0,0,0-.013,1.41Z" transform="translate(-17.625 -2)"/>
    <path class="cls-3" d="M88.7314,11.6537v9.8232h1.38v1.9345H80.8452v-1.93h1.331V13.5883H80.839V11.6537Z" transform="translate(-17.625 -2)"/>
    <path class="cls-3" d="M65.0315,14.5737v6.894h1.365v1.945H57.4027V21.4769H58.76V16.5144H57.4039V14.5737Z" transform="translate(-17.625 -2)"/>
    <path class="cls-3" d="M62.9952,11.1305l.9058,1.7278-2.85,1.4853-.9046-1.7414Z" transform="translate(-17.625 -2)"/>
  </g>
</svg>
