<svg id="Layer_1" data-name="Layer 1" xmlns="http://www.w3.org/2000/svg" viewBox="0 0 194.755 31">
  <defs>
    <style>
      .cls-1 {
        fill: #6d6e71;
        stroke: #a7a9ac;
        stroke-miterlimit: 10;
        stroke-width: 0.5px;
      }

      .cls-2 {
        fill: #a7a9ac;
      }

      .cls-3 {
        fill: #fff;
      }
    </style>
  </defs>
  <rect width="194.75" height="31"/>
  <line class="cls-1" x1="194.505" y1="2" x2="194.505" y2="29"/>
  <g>
    <path class="cls-2" d="M122.0146,20.8223V13.6641H124.78a3.4909,3.4909,0,0,1,1.33.2075,1.8584,1.8584,0,0,1,.8037.6465,1.6379,1.6379,0,0,1,.3125.9707,1.5409,1.5409,0,0,1-.27.8882,1.8994,1.8994,0,0,1-.76.6342,1.99,1.99,0,0,1,1.01.6328,1.6718,1.6718,0,0,1,.3692,1.1021,1.98,1.98,0,0,1-.334,1.1406,1.9029,1.9029,0,0,1-.8916.7129,4.2413,4.2413,0,0,1-1.5313.2227Zm.9737-4.15h1.5957a4.0091,4.0091,0,0,0,.89-.0684,1.127,1.127,0,0,0,.586-.3442.9824.9824,0,0,0,.205-.6568,1.0648,1.0648,0,0,0-.1865-.6421.9569.9569,0,0,0-.497-.354,4.2782,4.2782,0,0,0-1.1143-.0976h-1.4785Zm0,3.3056h1.834a3.3351,3.3351,0,0,0,.8965-.0879,1.2073,1.2073,0,0,0,.6347-.4169,1.1841,1.1841,0,0,0,.2178-.73,1.1131,1.1131,0,0,0-.209-.6856,1.189,1.189,0,0,0-.5615-.4106,3.4557,3.4557,0,0,0-1.1074-.1294h-1.7051Z" transform="translate(-17.625 -2)"/>
    <path class="cls-2" d="M129.7822,20.8223V13.6641h3.2647a4.2327,4.2327,0,0,1,1.51.2,1.7508,1.7508,0,0,1,.7989.666,1.8894,1.8894,0,0,1,.3125,1.081,1.7289,1.7289,0,0,1-.5293,1.3125,2.7115,2.7115,0,0,1-1.541.6392,2.4682,2.4682,0,0,1,.625.3979,5.1311,5.1311,0,0,1,.7656.9131l1.2861,1.9483H135.05l-.9824-1.4883a9.09,9.09,0,0,0-.8613-1.1768,1.6213,1.6213,0,0,0-.5625-.4087,2.1978,2.1978,0,0,0-.7618-.1049h-1.1259v3.1787Zm.9737-3.9991h2.0947a3.1455,3.1455,0,0,0,1.041-.1318,1.1935,1.1935,0,0,0,.5635-.415,1.0792,1.0792,0,0,0,.209-.6592,1.0205,1.0205,0,0,0-.3985-.8521,1.9016,1.9016,0,0,0-1.1816-.31h-2.3281Z" transform="translate(-17.625 -2)"/>
    <path class="cls-2" d="M137.28,20.8223l2.84-7.1582h1.042l3.0156,7.1582h-1.1152l-.8564-2.168h-3.0977l-.8008,2.168Zm2.1133-2.9395h2.5078L141.1357,15.9q-.3545-.9133-.5205-1.4844a8.7331,8.7331,0,0,1-.4033,1.3672Z" transform="translate(-17.625 -2)"/>
    <path class="cls-2" d="M145.7959,20.8223V13.6641h.998l3.8711,5.6308V13.6641h.9307v7.1582h-.998L146.7334,15.19v5.6324Z" transform="translate(-17.625 -2)"/>
    <path class="cls-2" d="M154.1035,20.8223V13.6641h2.542a5.8824,5.8824,0,0,1,1.4336.1318,2.5075,2.5075,0,0,1,1.1143.625,3.0929,3.0929,0,0,1,.7353,1.145,4.5929,4.5929,0,0,1,.2627,1.6382,4.38,4.38,0,0,1-.4463,2.0635,2.7024,2.7024,0,0,1-1.1484,1.2012,4.0938,4.0938,0,0,1-1.835.3535Zm.9736-.8448h1.5684a3.2944,3.2944,0,0,0,1.44-.247,1.6552,1.6552,0,0,0,.7529-.793,3.9856,3.9856,0,0,0,.35-1.7432,3.3457,3.3457,0,0,0-.3711-1.7114,1.8331,1.8331,0,0,0-.9521-.8325,3.9671,3.9671,0,0,0-1.2432-.1416h-1.544Z" transform="translate(-17.625 -2)"/>
    <path class="cls-2" d="M165.8369,18.5176l.918-.0781a1.829,1.829,0,0,0,.334.92,1.7958,1.7958,0,0,0,.7441.53,2.8269,2.8269,0,0,0,1.0908.2,2.3241,2.3241,0,0,0,1.3506-.3388,1.0318,1.0318,0,0,0,.48-.8789.9085.9085,0,0,0-.1748-.5537,1.2492,1.2492,0,0,0-.5264-.3872,11.6655,11.6655,0,0,0-1.5225-.4268,6.1815,6.1815,0,0,1-1.4824-.4956,1.906,1.906,0,0,1-.6855-.6323,1.5766,1.5766,0,0,1-.2451-.8667,1.7265,1.7265,0,0,1,.7041-1.4209,3,3,0,0,1,1.8994-.5518,3.683,3.683,0,0,1,1.4355.2588,2.15,2.15,0,0,1,.9561.7422,2.07,2.07,0,0,1,.3642,1.1377l-.9375.0683a1.402,1.402,0,0,0-.5234-1.0351,2.0742,2.0742,0,0,0-1.2646-.3369,2.2457,2.2457,0,0,0-1.2618.2954.89.89,0,0,0-.4345.7641.7927.7927,0,0,0,.3183.6739,4.3411,4.3411,0,0,0,1.4326.4843,11.0817,11.0817,0,0,1,1.53.417,2.3848,2.3848,0,0,1,1.0176.7207,1.7008,1.7008,0,0,1,.3437,1.0655,1.8861,1.8861,0,0,1-.3613,1.12,2.2729,2.2729,0,0,1-.9834.7676,3.8244,3.8244,0,0,1-1.4971.2636,3.3659,3.3659,0,0,1-2.1777-.6543A2.2419,2.2419,0,0,1,165.8369,18.5176Z" transform="translate(-17.625 -2)"/>
    <path class="cls-2" d="M175.791,20.8223V14.5088h-2.4258v-.8447h5.8369v.8447h-2.4375v6.3135Z" transform="translate(-17.625 -2)"/>
    <path class="cls-2" d="M180.6133,17.3359a3.7494,3.7494,0,0,1,1.0107-2.8149,3.4663,3.4663,0,0,1,2.5176-.9839,3.637,3.637,0,0,1,1.7764.4395,3.2065,3.2065,0,0,1,1.27,1.2768,4.0208,4.0208,0,0,1,.4687,1.9946,3.7183,3.7183,0,0,1-.9062,2.5928,3.3632,3.3632,0,0,1-2.6162,1.1035,3.3146,3.3146,0,0,1-2.6211-1.1328A3.6212,3.6212,0,0,1,180.6133,17.3359Zm1.0049.0122a2.7757,2.7757,0,0,0,.7314,2.0552,2.5452,2.5452,0,0,0,3.5772-.0078,2.9711,2.9711,0,0,0,.7255-2.1694,3.5674,3.5674,0,0,0-.373-1.6519,2.1777,2.1777,0,0,0-.8672-.8916,2.4825,2.4825,0,0,0-1.2646-.3349,2.425,2.425,0,0,0-1.8164.7329A3.1446,3.1446,0,0,0,181.6182,17.3481Z" transform="translate(-17.625 -2)"/>
    <path class="cls-2" d="M189.7656,20.8223V13.6641H193.03a4.2327,4.2327,0,0,1,1.51.2,1.7508,1.7508,0,0,1,.7989.666,1.8894,1.8894,0,0,1,.3125,1.081,1.7289,1.7289,0,0,1-.5293,1.3125,2.7115,2.7115,0,0,1-1.541.6392,2.4682,2.4682,0,0,1,.625.3979,5.1311,5.1311,0,0,1,.7656.9131l1.2861,1.9483h-1.2246l-.9824-1.4883a9.09,9.09,0,0,0-.8613-1.1768,1.6213,1.6213,0,0,0-.5625-.4087,2.1978,2.1978,0,0,0-.7618-.1049h-1.1259v3.1787Zm.9737-3.9991h2.0947a3.1455,3.1455,0,0,0,1.041-.1318,1.1935,1.1935,0,0,0,.5635-.415,1.0792,1.0792,0,0,0,.209-.6592,1.0205,1.0205,0,0,0-.3985-.8521,1.9016,1.9016,0,0,0-1.1816-.31h-2.3281Z" transform="translate(-17.625 -2)"/>
    <path class="cls-2" d="M198.0908,20.8223V13.6641h5.3223v.8447h-4.3486v2.1875h4.0732v.8447h-4.0732v2.4365h4.52v.8448Z" transform="translate(-17.625 -2)"/>
  </g>
  <g>
    <path class="cls-3" d="M88.31,8.8041c-.2691.679-.5251,1.3214-.7775,1.9661-.0356.0913-.0984.0924-.1742.0924H85.0025c-.5582,0-1.1152-.0094-1.6734,0a3.9677,3.9677,0,0,0-3.5554,2.1428,7.2213,7.2213,0,0,0-.7858,2.2968,11.9446,11.9446,0,0,0-.1872,2.4307,9.8285,9.8285,0,0,0,.6589,3.54,4.8732,4.8732,0,0,0,1.5324,2.1013,4.21,4.21,0,0,0,2.1582.8426,4.9246,4.9246,0,0,0,1.6307-.0664c.0557-.013.11-.03.173-.0462V18.2887H82.0977l.7858-1.9827h6.1058c0,.0616.0107.1185.0107.173v8.5449c0,.11-.0154.18-.1387.2216a16.945,16.945,0,0,1-3.1584.7822,16.48,16.48,0,0,1-3.3823.1375,9.1275,9.1275,0,0,1-3.6526-.99,7.7793,7.7793,0,0,1-3.9643-4.8875,9.9292,9.9292,0,0,1-.3556-3.5223A8.8528,8.8528,0,0,1,75.43,12.984a7.897,7.897,0,0,1,4.7714-3.7734,9.9035,9.9035,0,0,1,2.8609-.403h5.0653Z" transform="translate(-17.625 -2)"/>
    <path class="cls-3" d="M43,25.9637c.1979-.499.384-.9659.57-1.4328q2.56-6.4638,5.1352-12.9252a.3324.3324,0,0,0,0-.269q-.4641-1.1679-.9162-2.3442c-.0213-.0522-.0379-.1067-.0628-.1754a1.1027,1.1027,0,0,1,.1268-.0142h4.3507c.1363,0,.1647.07.2027.1671q2.0645,5.2762,4.13,10.5477l2.4568,6.2694c.0189.0486.0331.0984.0557.1636a1.1252,1.1252,0,0,1-.1186.0142H54.5693c-.1185,0-.16-.0569-.1979-.1529q-.7395-1.8963-1.485-3.7925c-.0782-.1991-.04-.1765-.256-.1765H47.0781a.2157.2157,0,0,0-.2371.16c-.4965,1.2645-1.0026,2.5255-1.4992,3.7924a.237.237,0,0,1-.2607.1778c-.6257-.0083-1.2515,0-1.8773,0Zm4.6837-6.0869h4.372Q50.9688,17.1107,49.9,14.3837l-.0368.0059Z" transform="translate(-17.625 -2)"/>
    <path class="cls-3" d="M71.6282,16.293c-.1386.3555-.2631.6672-.3887.9836-.1114.2833-.237.563-.3342.85a.2086.2086,0,0,1-.237.1576q-2.5161-.0072-5.0333,0h-.2133v5.6223H73.21c-.0237.07-.0391.1185-.0581.1659-.237.5855-.4669,1.1686-.6933,1.7564a.186.186,0,0,1-.205.1422h-11.03a.7707.7707,0,0,1-.1446-.0095V8.8159H73.022c-.0155.0522-.0249.0913-.0392.1292-.237.5926-.474,1.1851-.711,1.7848a.1849.1849,0,0,1-.2086.1339h-6.65v5.4315Z" transform="translate(-17.625 -2)"/>
  </g>
</svg>
