<svg id="Layer_1" data-name="Layer 1" xmlns="http://www.w3.org/2000/svg" viewBox="0 0 194.755 31">
  <defs>
    <style>
      .cls-1 {
        fill: #6d6e71;
        stroke: #a7a9ac;
        stroke-miterlimit: 10;
        stroke-width: 0.5px;
      }

      .cls-2 {
        fill: #a7a9ac;
      }

      .cls-3 {
        fill: #fff;
      }
    </style>
  </defs>
  <rect width="194.75" height="31"/>
  <line class="cls-1" x1="194.505" y1="2" x2="194.505" y2="29"/>
  <g>
    <path class="cls-2" d="M138.2559,20.8223V13.6641h.9736v3.55l3.6582-3.55h1.3213l-3.0908,2.9033,3.2256,4.2549h-1.2862l-2.6152-3.62L139.23,18.3418v2.48Z" transform="translate(-17.625 -2)"/>
    <path class="cls-2" d="M146.2129,20.8223V13.6641h.9746v7.1582Z" transform="translate(-17.625 -2)"/>
    <path class="cls-2" d="M151.6543,20.8223V14.5088h-2.4258v-.8447h5.8369v.8447h-2.4375v6.3135Z" transform="translate(-17.625 -2)"/>
    <path class="cls-2" d="M162.1543,18.3125l.9805.2393a3.1541,3.1541,0,0,1-1.1368,1.8,3.2607,3.2607,0,0,1-1.9746.5927,3.5833,3.5833,0,0,1-1.749-.3984,2.9892,2.9892,0,0,1-1.1885-1.2773,4.4147,4.4147,0,0,1-.4619-2.0767,4.0105,4.0105,0,0,1,.4629-2.001,3.07,3.07,0,0,1,1.2539-1.2358,3.714,3.714,0,0,1,1.7656-.418,3.1513,3.1513,0,0,1,1.8331.5283,2.7766,2.7766,0,0,1,1.0722,1.5518l-.9551.22a1.9308,1.9308,0,0,0-1.9687-1.4892,2.5817,2.5817,0,0,0-1.2764.3007,2.1382,2.1382,0,0,0-.8613.9356,3.5438,3.5438,0,0,0-.3223,1.6079,3.2526,3.2526,0,0,0,.6494,2.2065,2.1907,2.1907,0,0,0,1.7276.7354,2.1658,2.1658,0,0,0,1.375-.4522A2.2585,2.2585,0,0,0,162.1543,18.3125Z" transform="translate(-17.625 -2)"/>
    <path class="cls-2" d="M165.2256,20.8223V13.6641h.9736v2.9394h3.8281V13.6641h.9737v7.1582h-.9737V17.4482h-3.8281v3.3741Z" transform="translate(-17.625 -2)"/>
    <path class="cls-2" d="M173.5508,20.8223V13.6641h5.3222v.8447h-4.3486v2.1875h4.0733v.8447h-4.0733v2.4365h4.52v.8448Z" transform="translate(-17.625 -2)"/>
    <path class="cls-2" d="M181.2393,20.8223V13.6641h.998l3.8711,5.6308V13.6641h.9307v7.1582h-.9981L182.1768,15.19v5.6324Z" transform="translate(-17.625 -2)"/>
  </g>
  <g>
    <path class="cls-3" d="M69.8042,23.7757c-.15.8758-.15.8773-1.1673.8773H64.3616c-.7512,0-.8157-.0631-.8157-.81V10.8655c0-.7511.0585-.81.8157-.8142q2.2863-.0137,4.5758,0c.7721,0,.8322.0736.8352.8818v3.8157c.08,0,.1427.02.1728,0,2.2533-1.7321,4.6674-1.5248,7.0875-.4943a3.7358,3.7358,0,0,1,2.0686,2.6274,8.5624,8.5624,0,0,1,.0361,4.45,4.2932,4.2932,0,0,1-3.5769,3.3154,8.1343,8.1343,0,0,1-3.5753,0A17.059,17.059,0,0,1,69.8042,23.7757ZM69.6,19.4943a5.6231,5.6231,0,0,0,.1953.9239A1.6367,1.6367,0,0,0,71.332,21.54a1.7042,1.7042,0,0,0,1.83-.9014,2.8661,2.8661,0,0,0,.039-2.54,1.7426,1.7426,0,0,0-.7751-.7646,1.8876,1.8876,0,0,0-2.7671,1.4512C69.6314,18.9866,69.63,19.1879,69.6,19.4943Z" transform="translate(-17.625 -2)"/>
    <path class="cls-3" d="M110.641,14.9125a.9211.9211,0,0,0,.0676-.2584c-.0841-.7826.1578-.9013.9014-.9013,1.5022.009,3.0044,0,4.5067,0,.7346,0,.8337.1036.8337.8172v9.2282c0,.7662-.0811.8383-.8773.8413H111.646c-.8487,0-.8487,0-.9389-.8518,0-.0375-.0481-.0721-.0961-.1412a2.5673,2.5673,0,0,0-.2344.15,3.8689,3.8689,0,0,1-2.336.9119,19.8269,19.8269,0,0,1-3.1351-.0661,4.3011,4.3011,0,0,1-3.7361-3.9344,9.4831,9.4831,0,0,1,.0766-3.3575,4.2771,4.2771,0,0,1,3.694-3.6279,9.4574,9.4574,0,0,1,3.2839.0075A5.2039,5.2039,0,0,1,110.641,14.9125ZM107.0462,19.14c0,.29-.01.4146,0,.5378a1.896,1.896,0,0,0,3.79.0706,3.4609,3.4609,0,0,0-.0421-.9644,1.6263,1.6263,0,0,0-1.8147-1.5023,1.6627,1.6627,0,0,0-1.8928,1.5023,3.02,3.02,0,0,0-.04.3575Z" transform="translate(-17.625 -2)"/>
    <path class="cls-3" d="M37.8456,15.1138c1.49-1.4436,3.2253-1.5653,5.0009-1.5022a7.7507,7.7507,0,0,1,1.4812.2193,3.4864,3.4864,0,0,1,2.7416,2.8542,8.1007,8.1007,0,0,1,.1667,1.639c.0211,1.8522.0151,3.706.0106,5.5583,0,.706-.0616.7616-.7782.7646h-4.732c-.649,0-.7271-.08-.7316-.7421-.009-1.2769,0-2.5538,0-3.8307v-.6009a1.55,1.55,0,0,0-2.4607-1.3761,1.3015,1.3015,0,0,0-.6415,1.2664V23.42c0,.1742.0076.35,0,.5243-.0345.5062-.1186.6009-.6444.6009-.8262.012-1.6525,0-2.4787,0s-1.6525.009-2.4787,0c-.5784,0-.676-.09-.6775-.6415q-.0165-4.7321-.0105-9.4641c0-.5468.1081-.664.667-.67q2.44-.027,4.8822,0c.5619,0,.646.1112.6866.661C37.8561,14.6015,37.8456,14.7743,37.8456,15.1138Z" transform="translate(-17.625 -2)"/>
    <path class="cls-3" d="M55.3677,25.0406c-.8728-.0661-1.7486-.0916-2.6154-.2028-3.5694-.4507-5.4787-2.9264-5.0536-6.4987a4.86,4.86,0,0,1,3.9344-4.5337,16.73,16.73,0,0,1,5.59-.3275,9.0225,9.0225,0,0,1,2.9129.6579,4.4634,4.4634,0,0,1,2.6319,2.8994,7.0161,7.0161,0,0,1,.1878,3.703,4.8559,4.8559,0,0,1-2.88,3.5167,8.819,8.819,0,0,1-3.2043.7106c-.4987.0255-.999,0-1.5022,0Zm1.9784-5.7085c-.024-.7992-.1142-1.5638-.9013-1.9529a2.3525,2.3525,0,0,0-2.1032-.015,1.9284,1.9284,0,0,0-.9329,2.05,1.9155,1.9155,0,0,0,1.0666,1.9785A1.9458,1.9458,0,0,0,57.33,19.6761c.006-.1187.0105-.2434.0165-.341Z" transform="translate(-17.625 -2)"/>
    <path class="cls-3" d="M93.3593,17.4062v6.3755c0,.8082-.0556.8653-.84.8683q-2.3254.009-4.6569,0c-.6685,0-.7511-.0766-.7511-.72q-.009-6.5256,0-13.05c0-.6219.1156-.7361.7511-.7421q2.3645-.021,4.726,0c.6535,0,.76.1337.7617.8187C93.3638,13.11,93.3593,15.2565,93.3593,17.4062Z" transform="translate(-17.625 -2)"/>
    <path class="cls-3" d="M86.1545,19.269v4.5758c0,.7511-.0616.8067-.8157.81q-2.324.009-4.6494,0c-.7076,0-.7782-.0721-.7782-.7691v-9.374c0-.649.08-.7346.7361-.7406q2.3646-.018,4.7246,0c.703,0,.7781.0856.7811.7767C86.159,16.1143,86.1545,17.69,86.1545,19.269Z" transform="translate(-17.625 -2)"/>
    <path class="cls-3" d="M94.3387,19.1789v-4.657c0-.6625.0781-.7511.7166-.7616q2.4036-.0225,4.8072,0c.6459,0,.7255.0946.727.7511q.0092,4.687,0,9.374c0,.6865-.0766.7511-.7931.7511q-2.3239.009-4.657,0c-.7436,0-.7992-.0616-.8007-.8217C94.3357,22.2735,94.3387,20.7277,94.3387,19.1789Z" transform="translate(-17.625 -2)"/>
    <path class="cls-3" d="M82.9878,12.9821c-.7751,0-1.55.01-2.3239,0-.6115-.0105-.69-.0931-.7016-.6985-.012-.4988-.015-.999,0-1.5023s.1367-.6234.6264-.64c.7-.021,1.4,0,2.1032,0,.8743,0,1.75,0,2.6244.01.68.012.7812.1217.7932.7857.009.4507.012.9013,0,1.352-.0166.5814-.1172.685-.72.6955C84.5862,12.9926,83.787,12.9821,82.9878,12.9821Z" transform="translate(-17.625 -2)"/>
    <path class="cls-3" d="M97.4649,10.1339c.7736,0,1.5488-.012,2.3239,0,.6235.0135.7331.1352.7512.76.01.4747.0135.9509,0,1.4241-.0151.5168-.1157.6475-.6009.652q-2.4743.024-4.9484,0c-.4627,0-.5693-.1262-.5859-.5859-.018-.5242-.0165-1.0515,0-1.5743s.1352-.66.6745-.6745c.7992-.02,1.5984,0,2.4036,0Z" transform="translate(-17.625 -2)"/>
    <path class="cls-3" d="M117,11.4574a1.52,1.52,0,0,1-1.4872,1.4752,1.4813,1.4813,0,0,1-1.4362-1.5819,1.4363,1.4363,0,0,1,1.46-1.3911A1.5218,1.5218,0,0,1,117,11.4574Zm-2.6635-.0241a1.1206,1.1206,0,0,0,1.2018,1.2243,1.1777,1.1777,0,0,0,1.2033-1.1516c.0007-.03,0-.0605-.0015-.0907a1.1635,1.1635,0,0,0-1.2619-1.1808,1.1071,1.1071,0,0,0-1.1417,1.2048Z" transform="translate(-17.625 -2)"/>
    <path class="cls-3" d="M116.0911,12.3347c-.11-.2509-.365-.6971-.6655-.7316-.02,0-.033,0-.0435.0105-.11.2043-.1262.673-.2344.6865-.1412.0165-.051.0255-.0495,0a7.2017,7.2017,0,0,0,0-1.6825c-.29.12.6715-.0165.9238.15s.1608.622.0436.6415c-.344.1908.323.91.0781.91S116.1,12.3587,116.0911,12.3347Zm-.1276-1.2123a.418.418,0,0,0-.3426-.2284c-.21,0-.3.0977-.3229.1863.051.1292.0946.2208.2118.2238A.4507.4507,0,0,0,115.9635,11.1224Z" transform="translate(-17.625 -2)"/>
  </g>
</svg>
