<svg id="Layer_1" data-name="Layer 1" xmlns="http://www.w3.org/2000/svg" viewBox="0 0 194.755 31">
  <defs>
    <style>
      .cls-1 {
        fill: #6d6e71;
        stroke: #a7a9ac;
        stroke-miterlimit: 10;
        stroke-width: 0.5px;
      }

      .cls-2 {
        fill: #a7a9ac;
      }

      .cls-3 {
        fill: #fff;
      }
    </style>
  </defs>
  <rect width="194.75" height="31"/>
  <line class="cls-1" x1="194.505" y1="2" x2="194.505" y2="29"/>
  <g>
    <path class="cls-2" d="M122.0146,20.8223V13.6641H124.78a3.4909,3.4909,0,0,1,1.33.2075,1.8584,1.8584,0,0,1,.8037.6465,1.6379,1.6379,0,0,1,.3125.9707,1.5409,1.5409,0,0,1-.27.8882,1.8994,1.8994,0,0,1-.76.6342,1.99,1.99,0,0,1,1.01.6328,1.6718,1.6718,0,0,1,.3692,1.1021,1.98,1.98,0,0,1-.334,1.1406,1.9029,1.9029,0,0,1-.8916.7129,4.2413,4.2413,0,0,1-1.5313.2227Zm.9737-4.15h1.5957a4.0091,4.0091,0,0,0,.89-.0684,1.127,1.127,0,0,0,.586-.3442.9824.9824,0,0,0,.205-.6568,1.0648,1.0648,0,0,0-.1865-.6421.9569.9569,0,0,0-.497-.354,4.2782,4.2782,0,0,0-1.1143-.0976h-1.4785Zm0,3.3056h1.834a3.3351,3.3351,0,0,0,.8965-.0879,1.2073,1.2073,0,0,0,.6347-.4169,1.1841,1.1841,0,0,0,.2178-.73,1.1131,1.1131,0,0,0-.209-.6856,1.189,1.189,0,0,0-.5615-.4106,3.4557,3.4557,0,0,0-1.1074-.1294h-1.7051Z" transform="translate(-17.625 -2)"/>
    <path class="cls-2" d="M129.7832,20.8223V13.6641h3.2647a4.2327,4.2327,0,0,1,1.51.2,1.7511,1.7511,0,0,1,.7988.666,1.8894,1.8894,0,0,1,.3125,1.081,1.7285,1.7285,0,0,1-.5293,1.3125,2.7112,2.7112,0,0,1-1.541.6392,2.4664,2.4664,0,0,1,.625.3979,5.1275,5.1275,0,0,1,.7657.9131l1.2861,1.9483h-1.2246l-.9824-1.4883a9.078,9.078,0,0,0-.8614-1.1768,1.6194,1.6194,0,0,0-.5625-.4087,2.1968,2.1968,0,0,0-.7617-.1049h-1.126v3.1787Zm.9736-3.9991h2.0948a3.1459,3.1459,0,0,0,1.041-.1318,1.1935,1.1935,0,0,0,.5635-.415,1.0791,1.0791,0,0,0,.2089-.6592,1.02,1.02,0,0,0-.3984-.8521,1.9016,1.9016,0,0,0-1.1816-.31h-2.3282Z" transform="translate(-17.625 -2)"/>
    <path class="cls-2" d="M137.2812,20.8223l2.84-7.1582h1.042l3.0156,7.1582h-1.1152l-.8565-2.168h-3.0976l-.8008,2.168Zm2.1133-2.9395h2.5078L141.1367,15.9q-.3545-.9133-.52-1.4844a8.7331,8.7331,0,0,1-.4033,1.3672Z" transform="translate(-17.625 -2)"/>
    <path class="cls-2" d="M145.7979,20.8223V13.6641h.998l3.8711,5.6308V13.6641h.9307v7.1582H150.6L146.7354,15.19v5.6324Z" transform="translate(-17.625 -2)"/>
    <path class="cls-2" d="M154.1045,20.8223V13.6641h2.542a5.883,5.883,0,0,1,1.4336.1318,2.5067,2.5067,0,0,1,1.1142.625,3.0918,3.0918,0,0,1,.7354,1.145,4.5929,4.5929,0,0,1,.2627,1.6382,4.3811,4.3811,0,0,1-.4463,2.0635,2.7024,2.7024,0,0,1-1.1484,1.2012,4.0938,4.0938,0,0,1-1.835.3535Zm.9736-.8448h1.5684a3.2936,3.2936,0,0,0,1.4394-.247,1.6549,1.6549,0,0,0,.753-.793,3.9856,3.9856,0,0,0,.35-1.7432,3.3457,3.3457,0,0,0-.3711-1.7114,1.8333,1.8333,0,0,0-.9522-.8325,3.9659,3.9659,0,0,0-1.2431-.1416h-1.544Z" transform="translate(-17.625 -2)"/>
    <path class="cls-2" d="M165.8389,18.5176l.9179-.0781a1.83,1.83,0,0,0,.334.92,1.7962,1.7962,0,0,0,.7442.53,2.8269,2.8269,0,0,0,1.0908.2,2.3241,2.3241,0,0,0,1.3506-.3388,1.0317,1.0317,0,0,0,.48-.8789.9085.9085,0,0,0-.1748-.5537,1.25,1.25,0,0,0-.5263-.3872,11.6705,11.6705,0,0,0-1.5225-.4268,6.18,6.18,0,0,1-1.4824-.4956,1.9055,1.9055,0,0,1-.6856-.6323,1.5766,1.5766,0,0,1-.2451-.8667,1.7268,1.7268,0,0,1,.7041-1.4209,3,3,0,0,1,1.8994-.5518,3.6839,3.6839,0,0,1,1.4356.2588,2.1493,2.1493,0,0,1,.956.7422,2.0693,2.0693,0,0,1,.3643,1.1377l-.9375.0683a1.4023,1.4023,0,0,0-.5234-1.0351,2.0744,2.0744,0,0,0-1.2647-.3369,2.2451,2.2451,0,0,0-1.2617.2954.89.89,0,0,0-.4346.7641.7927.7927,0,0,0,.3184.6739,4.34,4.34,0,0,0,1.4326.4843,11.0859,11.0859,0,0,1,1.53.417,2.3838,2.3838,0,0,1,1.0175.7207A1.7,1.7,0,0,1,171.7,18.793a1.8861,1.8861,0,0,1-.3613,1.12,2.2734,2.2734,0,0,1-.9834.7676,3.8247,3.8247,0,0,1-1.4971.2636,3.3659,3.3659,0,0,1-2.1777-.6543A2.2416,2.2416,0,0,1,165.8389,18.5176Z" transform="translate(-17.625 -2)"/>
    <path class="cls-2" d="M175.7939,20.8223V14.5088h-2.4257v-.8447h5.8369v.8447h-2.4375v6.3135Z" transform="translate(-17.625 -2)"/>
    <path class="cls-2" d="M180.6162,17.3359a3.749,3.749,0,0,1,1.0108-2.8149,3.4659,3.4659,0,0,1,2.5175-.9839,3.637,3.637,0,0,1,1.7764.4395,3.2059,3.2059,0,0,1,1.27,1.2768,4.0208,4.0208,0,0,1,.4688,1.9946,3.7183,3.7183,0,0,1-.9063,2.5928,3.3632,3.3632,0,0,1-2.6162,1.1035,3.3147,3.3147,0,0,1-2.6211-1.1328A3.6212,3.6212,0,0,1,180.6162,17.3359Zm1.0049.0122a2.7761,2.7761,0,0,0,.7314,2.0552,2.5452,2.5452,0,0,0,3.5772-.0078,2.9711,2.9711,0,0,0,.7256-2.1694,3.5674,3.5674,0,0,0-.3731-1.6519,2.1777,2.1777,0,0,0-.8672-.8916,2.4825,2.4825,0,0,0-1.2646-.3349,2.4252,2.4252,0,0,0-1.8164.7329A3.1446,3.1446,0,0,0,181.6211,17.3481Z" transform="translate(-17.625 -2)"/>
    <path class="cls-2" d="M189.7686,20.8223V13.6641h3.2646a4.2333,4.2333,0,0,1,1.51.2,1.7511,1.7511,0,0,1,.7988.666,1.8894,1.8894,0,0,1,.3125,1.081,1.7289,1.7289,0,0,1-.5293,1.3125,2.7115,2.7115,0,0,1-1.541.6392,2.4682,2.4682,0,0,1,.625.3979,5.1311,5.1311,0,0,1,.7656.9131l1.2861,1.9483h-1.2246l-.9824-1.4883a9.09,9.09,0,0,0-.8613-1.1768,1.6213,1.6213,0,0,0-.5625-.4087,2.1976,2.1976,0,0,0-.7617-.1049h-1.126v3.1787Zm.9736-3.9991h2.0947a3.1455,3.1455,0,0,0,1.041-.1318,1.1935,1.1935,0,0,0,.5635-.415,1.0786,1.0786,0,0,0,.209-.6592,1.02,1.02,0,0,0-.3984-.8521,1.902,1.902,0,0,0-1.1817-.31h-2.3281Z" transform="translate(-17.625 -2)"/>
    <path class="cls-2" d="M198.0947,20.8223V13.6641h5.3223v.8447h-4.3486v2.1875h4.0732v.8447h-4.0732v2.4365h4.52v.8448Z" transform="translate(-17.625 -2)"/>
  </g>
  <g>
    <path class="cls-3" d="M58.3374,17.28c.0818.0323.1594.0622.2365.0937a2.78,2.78,0,0,1,1.0178,4.4374,3.4844,3.4844,0,0,1-2.6272,1.2121c-1.88.03-3.7618.0094-5.6427.0094a1.5509,1.5509,0,0,1-.1551-.0153V11.9785a1.4068,1.4068,0,0,1,.1547-.0183c1.7961.0021,3.5921-.0077,5.3874.0149a3.363,3.363,0,0,1,2.0292.6658,2.7022,2.7022,0,0,1,1.0562,2.07,2.77,2.77,0,0,1-.0959,1.0519,2.3954,2.3954,0,0,1-1.2246,1.4309c-.0375.02-.0754.0387-.1125.0592C58.3553,17.256,58.3518,17.2632,58.3374,17.28Zm-4.4238,3.4123a.8791.8791,0,0,0,.1339.0217c.6453,0,1.2906.0077,1.935-.006a2.4634,2.4634,0,0,0,.647-.1027.9074.9074,0,0,0,.6888-.89A.9357.9357,0,0,0,56.7,18.7085a2.1713,2.1713,0,0,0-.6819-.1377c-.6517-.0191-1.3042-.0093-1.9563-.0093a1.0711,1.0711,0,0,0-.1492.0208Zm.0077-6.4044v2.0152c.73,0,1.4393.02,2.1469-.0077a.9677.9677,0,0,0,.8682-.7625.9947.9947,0,0,0-.9906-1.2552c-.6393-.012-1.2786-.003-1.9179-.0022A1.0025,1.0025,0,0,0,53.9213,14.2882Z" transform="translate(-17.625 -2)"/>
    <path class="cls-3" d="M95.1959,16.011h3.336V11.9781h2.9251V23.0142H98.5459V18.6868H95.2014v4.3325H92.2976V11.98h2.8983Z" transform="translate(-17.625 -2)"/>
    <path class="cls-3" d="M61.1734,17.4137a6.4917,6.4917,0,0,1,.9978-3.5722,4.6044,4.6044,0,0,1,3.573-2.1349,5.1331,5.1331,0,0,1,2.6592.41A4.5642,4.5642,0,0,1,70.8013,14.62a7.0433,7.0433,0,0,1-.16,6.0626,4.5539,4.5539,0,0,1-4.22,2.605,4.7364,4.7364,0,0,1-3.4758-1.2313,5.3707,5.3707,0,0,1-1.5314-2.6481A7.6341,7.6341,0,0,1,61.1734,17.4137Zm7.4665.06a4.7148,4.7148,0,0,0-.2464-1.5071,2.3759,2.3759,0,0,0-1.07-1.3511,2.1475,2.1475,0,0,0-3.0022.9952,4.3868,4.3868,0,0,0-.3726,2.2986,3.857,3.857,0,0,0,.4148,1.5468,2.0551,2.0551,0,0,0,1.1934,1.0574,2.1494,2.1494,0,0,0,2.6984-1.1682A4.4241,4.4241,0,0,0,68.64,17.4733Z" transform="translate(-17.625 -2)"/>
    <path class="cls-3" d="M80.5169,13.3816,78.8257,15.12c-.0644-.06-.12-.1117-.1765-.1624a3.046,3.046,0,0,0-2.2231-.855,1.5589,1.5589,0,0,0-.855.2847.84.84,0,0,0,.0592,1.4112,4.3809,4.3809,0,0,0,1.265.4211c.5238.124,1.0489.2438,1.5685.3836a3.9622,3.9622,0,0,1,.6521.2557,2.6841,2.6841,0,0,1,1.61,2.1456,3.4547,3.4547,0,0,1-.6061,2.701,3.7716,3.7716,0,0,1-1.2539,1.0327,6.0433,6.0433,0,0,1-5.962-.514,6.7172,6.7172,0,0,1-.98-.9522l1.7053-1.8093c.0733.08.1279.1343.1752.1905a3.4547,3.4547,0,0,0,2.4166,1.2331,2.1625,2.1625,0,0,0,1.0626-.1569,1.0131,1.0131,0,0,0,.6146-.6619.7914.7914,0,0,0-.4262-1.017,8.8994,8.8994,0,0,0-1.2088-.3925c-.5378-.1513-1.086-.2685-1.62-.43a3.2315,3.2315,0,0,1-.7084-.3367,2.9554,2.9554,0,0,1-1.539-2.6851,3.1923,3.1923,0,0,1,2.0032-3.1038,3.8391,3.8391,0,0,1,.8243-.2757,5.5145,5.5145,0,0,1,4.5546.8788,7.4131,7.4131,0,0,1,.6069.5324A1.4957,1.4957,0,0,1,80.5169,13.3816Z" transform="translate(-17.625 -2)"/>
    <path class="cls-3" d="M91.1246,14.1062,88.8772,15.598c-.0819-.1194-.153-.2238-.2242-.3282a2.1682,2.1682,0,0,0-3.3105-.2728,2.9276,2.9276,0,0,0-.8072,1.5838,4.3567,4.3567,0,0,0,.188,2.4043,2.4,2.4,0,0,0,1.5842,1.5459,2.0484,2.0484,0,0,0,2.3566-.7714c.089-.1279.1764-.2558.2779-.4024l2.2508,1.5161a1.1968,1.1968,0,0,1-.09.1479c-.2787.3388-.5413.6939-.8443,1.01A3.9375,3.9375,0,0,1,87.9314,23.21a5.8677,5.8677,0,0,1-2.5518-.1163,4.5958,4.5958,0,0,1-2.8833-2.3574,6.8231,6.8231,0,0,1-.11-6.3933,4.5139,4.5139,0,0,1,3.6791-2.5927,5.7936,5.7936,0,0,1,2.01.0725,4.64,4.64,0,0,1,2.74,1.8532C90.9179,13.81,91.0125,13.95,91.1246,14.1062Z" transform="translate(-17.625 -2)"/>
    <path class="cls-3" d="M34.4457,9.12a8.257,8.257,0,0,1,6.27,2.8389,8.4018,8.4018,0,1,1-6.27-2.8389Zm-.0183,15.6153a7.1222,7.1222,0,0,0,5.4664-2.5035,7.2033,7.2033,0,0,0,1.7639-4.7153,7.3221,7.3221,0,0,0-1.4116-4.2867,7.1542,7.1542,0,0,0-5.829-2.9829,7.2556,7.2556,0,0,0-7.2794,7.2777,7.1,7.1,0,0,0,1.4311,4.2938,7.287,7.287,0,0,0,5.8586,2.9161Z" transform="translate(-17.625 -2)"/>
    <path class="cls-3" d="M37.1151,20.0434H31.6412v2.5313c0,.139-.0051.2673-.1556.3389a.3914.3914,0,0,1-.4-.0264A6.23,6.23,0,0,1,28.1747,18.7a6.33,6.33,0,0,1,2.77-6.4922,1.5434,1.5434,0,0,1,.2186-.13.31.31,0,0,1,.4744.3069c.0034.439,0,.8784,0,1.3179v1.2288h5.5042c.0051-.0584.0145-.1138.014-.1705q-.0055-1.1154-.014-2.2317a.4418.4418,0,0,1,.19-.4416.457.457,0,0,1,.4957.0563,6.2526,6.2526,0,0,1,2.7175,3.8044,6.3549,6.3549,0,0,1-2.54,6.7513c-.0985.0686-.1969.1381-.2984.2016a.36.36,0,0,1-.5413-.24c-.0038-.07-.0264-.1389-.026-.2084.0039-.6018.015-1.2041.0154-1.8063C37.1552,20.4569,37.1309,20.2676,37.1151,20.0434Zm.023-3.7562H31.6574v2.4294h5.4807ZM30.3433,20.439V14.5652A4.9629,4.9629,0,0,0,30.3433,20.439Zm8.1255-5.8848V20.46A5.0743,5.0743,0,0,0,38.4688,14.5542Z" transform="translate(-17.625 -2)"/>
  </g>
</svg>
