<svg id="Layer_1" data-name="Layer 1" xmlns="http://www.w3.org/2000/svg" viewBox="0 0 194.755 31">
  <defs>
    <style>
      .cls-1 {
        fill: #6d6e71;
        stroke: #a7a9ac;
        stroke-miterlimit: 10;
        stroke-width: 0.5px;
      }

      .cls-2 {
        fill: #a7a9ac;
      }

      .cls-3 {
        fill: #fff;
      }
    </style>
  </defs>
  <rect width="194.75" height="31"/>
  <line class="cls-1" x1="194.505" y1="2" x2="194.505" y2="29"/>
  <g>
    <path class="cls-2" d="M122.0146,20.8223V13.6641H124.78a3.4909,3.4909,0,0,1,1.33.2075,1.8584,1.8584,0,0,1,.8037.6465,1.6379,1.6379,0,0,1,.3125.9707,1.5409,1.5409,0,0,1-.27.8882,1.8994,1.8994,0,0,1-.76.6342,1.99,1.99,0,0,1,1.01.6328,1.6718,1.6718,0,0,1,.3692,1.1021,1.98,1.98,0,0,1-.334,1.1406,1.9029,1.9029,0,0,1-.8916.7129,4.2413,4.2413,0,0,1-1.5313.2227Zm.9737-4.15h1.5957a4.0091,4.0091,0,0,0,.89-.0684,1.127,1.127,0,0,0,.586-.3442.9824.9824,0,0,0,.205-.6568,1.0648,1.0648,0,0,0-.1865-.6421.9569.9569,0,0,0-.497-.354,4.2782,4.2782,0,0,0-1.1143-.0976h-1.4785Zm0,3.3056h1.834a3.3351,3.3351,0,0,0,.8965-.0879,1.2073,1.2073,0,0,0,.6347-.4169,1.1841,1.1841,0,0,0,.2178-.73,1.1131,1.1131,0,0,0-.209-.6856,1.189,1.189,0,0,0-.5615-.4106,3.4557,3.4557,0,0,0-1.1074-.1294h-1.7051Z" transform="translate(-17.625 -2)"/>
    <path class="cls-2" d="M129.7822,20.8223V13.6641h3.2647a4.2327,4.2327,0,0,1,1.51.2,1.7508,1.7508,0,0,1,.7989.666,1.8894,1.8894,0,0,1,.3125,1.081,1.7289,1.7289,0,0,1-.5293,1.3125,2.7115,2.7115,0,0,1-1.541.6392,2.4682,2.4682,0,0,1,.625.3979,5.1311,5.1311,0,0,1,.7656.9131l1.2861,1.9483H135.05l-.9824-1.4883a9.09,9.09,0,0,0-.8613-1.1768,1.6213,1.6213,0,0,0-.5625-.4087,2.1978,2.1978,0,0,0-.7618-.1049h-1.1259v3.1787Zm.9737-3.9991h2.0947a3.1455,3.1455,0,0,0,1.041-.1318,1.1935,1.1935,0,0,0,.5635-.415,1.0792,1.0792,0,0,0,.209-.6592,1.0205,1.0205,0,0,0-.3985-.8521,1.9016,1.9016,0,0,0-1.1816-.31h-2.3281Z" transform="translate(-17.625 -2)"/>
    <path class="cls-2" d="M137.28,20.8223l2.84-7.1582h1.042l3.0156,7.1582h-1.1152l-.8564-2.168h-3.0977l-.8008,2.168Zm2.1133-2.9395h2.5078L141.1357,15.9q-.3545-.9133-.5205-1.4844a8.7331,8.7331,0,0,1-.4033,1.3672Z" transform="translate(-17.625 -2)"/>
    <path class="cls-2" d="M145.7959,20.8223V13.6641h.998l3.8711,5.6308V13.6641h.9307v7.1582h-.998L146.7334,15.19v5.6324Z" transform="translate(-17.625 -2)"/>
    <path class="cls-2" d="M154.1035,20.8223V13.6641h2.542a5.8824,5.8824,0,0,1,1.4336.1318,2.5075,2.5075,0,0,1,1.1143.625,3.0929,3.0929,0,0,1,.7353,1.145,4.5929,4.5929,0,0,1,.2627,1.6382,4.38,4.38,0,0,1-.4463,2.0635,2.7024,2.7024,0,0,1-1.1484,1.2012,4.0938,4.0938,0,0,1-1.835.3535Zm.9736-.8448h1.5684a3.2944,3.2944,0,0,0,1.44-.247,1.6552,1.6552,0,0,0,.7529-.793,3.9856,3.9856,0,0,0,.35-1.7432,3.3457,3.3457,0,0,0-.3711-1.7114,1.8331,1.8331,0,0,0-.9521-.8325,3.9671,3.9671,0,0,0-1.2432-.1416h-1.544Z" transform="translate(-17.625 -2)"/>
    <path class="cls-2" d="M165.8369,18.5176l.918-.0781a1.829,1.829,0,0,0,.334.92,1.7958,1.7958,0,0,0,.7441.53,2.8269,2.8269,0,0,0,1.0908.2,2.3241,2.3241,0,0,0,1.3506-.3388,1.0318,1.0318,0,0,0,.48-.8789.9085.9085,0,0,0-.1748-.5537,1.2492,1.2492,0,0,0-.5264-.3872,11.6655,11.6655,0,0,0-1.5225-.4268,6.1815,6.1815,0,0,1-1.4824-.4956,1.906,1.906,0,0,1-.6855-.6323,1.5766,1.5766,0,0,1-.2451-.8667,1.7265,1.7265,0,0,1,.7041-1.4209,3,3,0,0,1,1.8994-.5518,3.683,3.683,0,0,1,1.4355.2588,2.15,2.15,0,0,1,.9561.7422,2.07,2.07,0,0,1,.3642,1.1377l-.9375.0683a1.402,1.402,0,0,0-.5234-1.0351,2.0742,2.0742,0,0,0-1.2646-.3369,2.2457,2.2457,0,0,0-1.2618.2954.89.89,0,0,0-.4345.7641.7927.7927,0,0,0,.3183.6739,4.3411,4.3411,0,0,0,1.4326.4843,11.0817,11.0817,0,0,1,1.53.417,2.3848,2.3848,0,0,1,1.0176.7207,1.7008,1.7008,0,0,1,.3437,1.0655,1.8861,1.8861,0,0,1-.3613,1.12,2.2729,2.2729,0,0,1-.9834.7676,3.8244,3.8244,0,0,1-1.4971.2636,3.3659,3.3659,0,0,1-2.1777-.6543A2.2419,2.2419,0,0,1,165.8369,18.5176Z" transform="translate(-17.625 -2)"/>
    <path class="cls-2" d="M175.791,20.8223V14.5088h-2.4258v-.8447h5.8369v.8447h-2.4375v6.3135Z" transform="translate(-17.625 -2)"/>
    <path class="cls-2" d="M180.6133,17.3359a3.7494,3.7494,0,0,1,1.0107-2.8149,3.4663,3.4663,0,0,1,2.5176-.9839,3.637,3.637,0,0,1,1.7764.4395,3.2065,3.2065,0,0,1,1.27,1.2768,4.0208,4.0208,0,0,1,.4687,1.9946,3.7183,3.7183,0,0,1-.9062,2.5928,3.3632,3.3632,0,0,1-2.6162,1.1035,3.3146,3.3146,0,0,1-2.6211-1.1328A3.6212,3.6212,0,0,1,180.6133,17.3359Zm1.0049.0122a2.7757,2.7757,0,0,0,.7314,2.0552,2.5452,2.5452,0,0,0,3.5772-.0078,2.9711,2.9711,0,0,0,.7255-2.1694,3.5674,3.5674,0,0,0-.373-1.6519,2.1777,2.1777,0,0,0-.8672-.8916,2.4825,2.4825,0,0,0-1.2646-.3349,2.425,2.425,0,0,0-1.8164.7329A3.1446,3.1446,0,0,0,181.6182,17.3481Z" transform="translate(-17.625 -2)"/>
    <path class="cls-2" d="M189.7656,20.8223V13.6641H193.03a4.2327,4.2327,0,0,1,1.51.2,1.7508,1.7508,0,0,1,.7989.666,1.8894,1.8894,0,0,1,.3125,1.081,1.7289,1.7289,0,0,1-.5293,1.3125,2.7115,2.7115,0,0,1-1.541.6392,2.4682,2.4682,0,0,1,.625.3979,5.1311,5.1311,0,0,1,.7656.9131l1.2861,1.9483h-1.2246l-.9824-1.4883a9.09,9.09,0,0,0-.8613-1.1768,1.6213,1.6213,0,0,0-.5625-.4087,2.1978,2.1978,0,0,0-.7618-.1049h-1.1259v3.1787Zm.9737-3.9991h2.0947a3.1455,3.1455,0,0,0,1.041-.1318,1.1935,1.1935,0,0,0,.5635-.415,1.0792,1.0792,0,0,0,.209-.6592,1.0205,1.0205,0,0,0-.3985-.8521,1.9016,1.9016,0,0,0-1.1816-.31h-2.3281Z" transform="translate(-17.625 -2)"/>
    <path class="cls-2" d="M198.0908,20.8223V13.6641h5.3223v.8447h-4.3486v2.1875h4.0732v.8447h-4.0732v2.4365h4.52v.8448Z" transform="translate(-17.625 -2)"/>
  </g>
  <g>
    <path class="cls-3" d="M59.6835,23.51H57.3254V11.4591h4.36l2.9932,7.5938.0763.0042c1.032-2.5254,2.0409-5.0614,3.0722-7.5966H71.97V23.5122c-1.0446.0343-2.0885.0049-3.1506.0175a6.0269,6.0269,0,0,1-.0329-1.0551c-.0077-.3438,0-.7,0-1.05v-6.246l-.07-.0154L65.256,23.6347c-.6834.0056-1.3779.0042-2.1,0l-3.3607-8.39c-.1519.1267-.1057.25-.1057.3536V23.51Z" transform="translate(-17.625 -2)"/>
    <path class="cls-3" d="M86.0988,11.4479h3.8894l4.0685,7.932.0645-.0105V11.4577h2.36V23.5H92.7006L88.57,15.5634a.5129.5129,0,0,0-.0806.014.07.07,0,0,0-.02.0245.0707.0707,0,0,0-.0133.0315v7.83a13.6534,13.6534,0,0,1-2.363.0238Z" transform="translate(-17.625 -2)"/>
    <path class="cls-3" d="M46.3379,11.46h8.58a10.8288,10.8288,0,0,1,.0266,2.1515c-.43.03-.8681.0105-1.3057.0133-.4551.0035-.91,0-1.3653,0H49.6006v2.7215h4.66v2c-.3816.0133-.7625.0042-1.142.0056H49.6034V21.21c.355.0168.7127.0049,1.0691.007h4.4222v2.2573c-.2584.063-8.3248.0784-8.7568.0147Z" transform="translate(-17.625 -2)"/>
    <path class="cls-3" d="M83.8387,21.22v2.2853H75.1022V11.4626H83.663a11.2259,11.2259,0,0,1,.0119,2.1557H78.3908a15.885,15.885,0,0,0-.0392,2.7152c.37.0371.7513.0119,1.13.0168.3963.0042.7933,0,1.19,0h2.3224v1.9864a8.33,8.33,0,0,1-.9263.0175c-.3094.0049-.6063,0-.91,0H78.3432v2.8587c.9242.0154,1.8414.0049,2.7579.0063C82.0071,21.2213,82.9138,21.22,83.8387,21.22Z" transform="translate(-17.625 -2)"/>
    <path class="cls-3" d="M98.9116,23.3105V20.9538c.133.0357.25.0658.3662.0995a11.151,11.151,0,0,0,3.5105.5251,3.1038,3.1038,0,0,0,1.324-.28.9686.9686,0,0,0,.0406-1.7245c-.3241-.182-.6581-.35-.9963-.5055-.77-.3557-1.555-.6868-2.32-1.0565a6.1073,6.1073,0,0,1-1.01-.6224,2.8338,2.8338,0,0,1-1.1482-2.1859,4.6785,4.6785,0,0,1,.0357-.976,2.99,2.99,0,0,1,1.4864-2.1768,5.7411,5.7411,0,0,1,2.3756-.7618,12.6265,12.6265,0,0,1,3.65.2486c.2394.0413.4782.0917.7128.14a12.5706,12.5706,0,0,1,.0329,2.2734c-.1093-.0343-.2143-.063-.3158-.1a7.72,7.72,0,0,0-3.2529-.523,3.4838,3.4838,0,0,0-.7863.1484,1.3705,1.3705,0,0,0-.5069.2934.8113.8113,0,0,0,.0952,1.2974,3.2544,3.2544,0,0,0,.49.2709c.7583.3578,1.5271.6946,2.2769,1.0691a16.8155,16.8155,0,0,1,1.5467.8738,3.0643,3.0643,0,0,1,1.3638,3.2781,3.19,3.19,0,0,1-1.5151,2.2867,5.5018,5.5018,0,0,1-2.3539.8276,14.6149,14.6149,0,0,1-4.9011-.2982C99.05,23.36,98.9865,23.3343,98.9116,23.3105Z" transform="translate(-17.625 -2)"/>
    <path class="cls-3" d="M36.9866,11.6726v2.2748c-.12-.0406-.2254-.0735-.329-.1106a7.9381,7.9381,0,0,0-3.2207-.5181,2.6737,2.6737,0,0,0-1.0139.2373.8884.8884,0,0,0-.55.7513.7518.7518,0,0,0,.3767.77c.2605.1533.5314.29.8045.42.7877.3767,1.5865.7317,2.3665,1.12a10.2258,10.2258,0,0,1,1.2288.733,3.0194,3.0194,0,0,1,1.29,2.9519,3.2951,3.2951,0,0,1-1.8084,2.6963,5.63,5.63,0,0,1-2.0823.6728,14.6025,14.6025,0,0,1-4.93-.3031,1.7222,1.7222,0,0,1-.1659-.0519V20.9783c.6175.145,1.2134.3039,1.82.42a7.1718,7.1718,0,0,0,2.64.11,2.598,2.598,0,0,0,.79-.2569.9241.9241,0,0,0,.1345-1.5543,2.8388,2.8388,0,0,0-.5931-.3648c-.4628-.2192-.934-.42-1.4-.6246a15.6007,15.6007,0,0,1-2.1515-1.081,3.1078,3.1078,0,0,1-1.48-3.1654,3.0759,3.0759,0,0,1,1.7287-2.5394,5.9872,5.9872,0,0,1,2.1642-.6379,11.8491,11.8491,0,0,1,3.2011.1751C36.1962,11.5207,36.5827,11.6,36.9866,11.6726Z" transform="translate(-17.625 -2)"/>
    <path class="cls-3" d="M43.2117,23.5115H39.9133c-.063-.2661-.0812-11.5924-.0189-12.05h3.3173Z" transform="translate(-17.625 -2)"/>
  </g>
</svg>
