<svg id="Layer_1" data-name="Layer 1" xmlns="http://www.w3.org/2000/svg" viewBox="0 0 194.755 31">
  <defs>
    <style>
      .cls-1 {
        fill: #6d6e71;
        stroke: #a7a9ac;
        stroke-miterlimit: 10;
        stroke-width: 0.5px;
      }

      .cls-2 {
        fill: #a7a9ac;
      }

      .cls-3 {
        fill: #fff;
      }

      .cls-4 {
        fill: #e01f26;
      }
    </style>
  </defs>
  <rect width="194.75" height="31"/>
  <line class="cls-1" x1="194.505" y1="2" x2="194.505" y2="29"/>
  <g>
    <path class="cls-2" d="M138.2559,20.8223V13.6641h.9736v3.55l3.6582-3.55h1.3213l-3.0908,2.9033,3.2256,4.2549h-1.2862l-2.6152-3.62L139.23,18.3418v2.48Z" transform="translate(-17.625 -2)"/>
    <path class="cls-2" d="M146.2129,20.8223V13.6641h.9746v7.1582Z" transform="translate(-17.625 -2)"/>
    <path class="cls-2" d="M151.6543,20.8223V14.5088h-2.4258v-.8447h5.8369v.8447h-2.4375v6.3135Z" transform="translate(-17.625 -2)"/>
    <path class="cls-2" d="M162.1543,18.3125l.9805.2393a3.1541,3.1541,0,0,1-1.1368,1.8,3.2607,3.2607,0,0,1-1.9746.5927,3.5833,3.5833,0,0,1-1.749-.3984,2.9892,2.9892,0,0,1-1.1885-1.2773,4.4147,4.4147,0,0,1-.4619-2.0767,4.0105,4.0105,0,0,1,.4629-2.001,3.07,3.07,0,0,1,1.2539-1.2358,3.714,3.714,0,0,1,1.7656-.418,3.1513,3.1513,0,0,1,1.8331.5283,2.7766,2.7766,0,0,1,1.0722,1.5518l-.9551.22a1.9308,1.9308,0,0,0-1.9687-1.4892,2.5817,2.5817,0,0,0-1.2764.3007,2.1382,2.1382,0,0,0-.8613.9356,3.5438,3.5438,0,0,0-.3223,1.6079,3.2526,3.2526,0,0,0,.6494,2.2065,2.1907,2.1907,0,0,0,1.7276.7354,2.1658,2.1658,0,0,0,1.375-.4522A2.2585,2.2585,0,0,0,162.1543,18.3125Z" transform="translate(-17.625 -2)"/>
    <path class="cls-2" d="M165.2256,20.8223V13.6641h.9736v2.9394h3.8281V13.6641h.9737v7.1582h-.9737V17.4482h-3.8281v3.3741Z" transform="translate(-17.625 -2)"/>
    <path class="cls-2" d="M173.5508,20.8223V13.6641h5.3222v.8447h-4.3486v2.1875h4.0733v.8447h-4.0733v2.4365h4.52v.8448Z" transform="translate(-17.625 -2)"/>
    <path class="cls-2" d="M181.2393,20.8223V13.6641h.998l3.8711,5.6308V13.6641h.9307v7.1582h-.9981L182.1768,15.19v5.6324Z" transform="translate(-17.625 -2)"/>
  </g>
  <g>
    <path class="cls-3" d="M50.1456,6.62h5.3606v4.9646a1.28,1.28,0,0,0,.204-.1229,4.1371,4.1371,0,0,1,1.6478-.96,2.6329,2.6329,0,0,1,.5777-.151c.16-.0128.3165-.0649.477-.0794s.3123,0,.4684,0a4.3,4.3,0,0,1,1.7195.3755,2.2612,2.2612,0,0,1,.675.42,3.0977,3.0977,0,0,1,1.0905,1.501,3.9557,3.9557,0,0,1,.1238.5428c.0418.4266.0853.8533.0853,1.28q.0085,7.0365,0,14.0713v.4267H57.2078V14.8674a6.5834,6.5834,0,0,0-.0854-.8534.7226.7226,0,0,0-.5256-.506.7638.7638,0,0,0-.9293.663,3.5238,3.5238,0,0,0-.0768.8593c0,.5709-.1246,1.1324-.093,1.7067s.0068,1.1614.0068,1.7425V28.8466c-.35.0657-4.0652.0853-5.3572.0307Z" transform="translate(-17.625 -2)"/>
    <path class="cls-3" d="M71.4472,10.6169h5.3547V28.873H71.3491c.0623-.2978-.0674-.5973.0853-.8985a1.3942,1.3942,0,0,0,.012-.5368c-.2125.23-.41.4267-.5846.6392a3.107,3.107,0,0,1-1.3252.9,4.0192,4.0192,0,0,1-.8661.19,3.0026,3.0026,0,0,1-.605.06,4.7119,4.7119,0,0,1-1.93-.4787,2.7449,2.7449,0,0,1-1.1324-1.1375c-.09-.19-.2116-.3669-.2859-.5623a3.2361,3.2361,0,0,1-.1519-.5717,3.2961,3.2961,0,0,1-.1015-.6827c.0452-1.1247-.105-2.2425-.1-3.3664.0187-3.9253.0068-7.8506.0068-11.7759.3481-.06,4.398-.0793,5.457-.0247v14.15a3.3068,3.3068,0,0,0,.0853.7723.6106.6106,0,0,0,.3192.3644.8831.8831,0,0,0,.8183,0,.6289.6289,0,0,0,.3115-.4992c.03-.3567.0683-.7134.0853-1.07s0-.7091,0-1.0632Z" transform="translate(-17.625 -2)"/>
    <path class="cls-3" d="M100.8657,21.2392h5.1157c0,.7347-.012,1.4506.0042,2.1734a9.9509,9.9509,0,0,0-.09,1.28,6.9881,6.9881,0,0,1-.6536,1.774,6.6223,6.6223,0,0,1-1.1674,1.466,4.7786,4.7786,0,0,1-1.3269.8022c-.4727.2005-.98.2287-1.4506.41a.0987.0987,0,0,1-.0419,0c-.5324-.0453-1.0521.1459-1.5846.0853-.2014-.0239-.4027-.0546-.6033-.0853-.1877-.0282-.3951.0768-.5615-.0854a2.9562,2.9562,0,0,1-.9531-.1706,5.44,5.44,0,0,1-1.5591-.6571,3.4293,3.4293,0,0,1-.9548-.7791,4.9443,4.9443,0,0,1-.5359-.7142c-.1408-.2492-.3755-.4608-.3746-.7791a3.9871,3.9871,0,0,1-.3567-1.3013c-.0478-.2475-.0291-.4932-.0734-.7322a16.1983,16.1983,0,0,1-.0768-2.6453c-.02-.8823-.0043-1.786-.0043-2.6786V15.9238a3.2774,3.2774,0,0,1,.0853-.5171c.0308-.1707-.08-.3678.0854-.518a2.7944,2.7944,0,0,1,.1655-.9079,3.9,3.9,0,0,1,.6827-1.5471,4.5549,4.5549,0,0,1,1.9387-1.5744,5.2888,5.2888,0,0,1,1.44-.4395c.36-.052.7194-.1314,1.082-.1536.3823-.0239.768-.0136,1.15,0,.1707.006.3413.06.5188.0794a5.2545,5.2545,0,0,1,.5231.0665c.1707.0359.3413.0854.512.111a3.6631,3.6631,0,0,1,.45.1442,4.7118,4.7118,0,0,1,1.373.6954,4.5994,4.5994,0,0,1,.7979.6349,4.8017,4.8017,0,0,1,.8729,1.2937,5.8473,5.8473,0,0,1,.4352,1.4429c.0743.4719.1024.95.1792,1.4157a14.6427,14.6427,0,0,1,.0632,1.9234c.0205.6434,0,1.2988,0,1.9627H98.9884v.3413c0,1.3465-.006,2.6922,0,4.0388a8.4562,8.4562,0,0,0,.0853.9847.8435.8435,0,0,0,.8593.5974,1.5792,1.5792,0,0,0,.4437-.16c.1971-.1135.2611-.3371.3644-.5257a.2251.2251,0,0,0,.0341-.0708c.03-.2713.0794-.5427.0854-.8149C100.8657,23.3784,100.8657,22.33,100.8657,21.2392Zm-1.8773-4.1813H100.61c0-.3678-.0222-.722.0051-1.0718.0461-.59-.1178-1.164-.1024-1.7511a2.2,2.2,0,0,0-.1408-.4437c-.0521-.198-.2116-.2321-.3217-.2756a.7679.7679,0,0,0-.5018-.0051.6255.6255,0,0,0-.4642.512c-.0188.2321-.0793.4608-.0853.6826-.0256.7808-.01,1.5591-.01,2.3518Z" transform="translate(-17.625 -2)"/>
    <path class="cls-3" d="M34.796,16.38H30.01c0-.4437-.0188-.8934.0085-1.3406.012-.2031-.0981-.3678-.0956-.5606a2.2818,2.2818,0,0,0-.0674-.5641.54.54,0,0,0-.38-.3857.8833.8833,0,0,0-1.1264.4856,1.8764,1.8764,0,0,0-.1246.5418,4.8741,4.8741,0,0,0,0,.768,3.9212,3.9212,0,0,0,.1135.6324,1.2805,1.2805,0,0,0,.4574.6963,9.3163,9.3163,0,0,0,1.4669.9745c.5632.2867,1.1136.5973,1.6759.8908a16.6437,16.6437,0,0,1,1.4643.8841,3.894,3.894,0,0,1,.5973.512,5.36,5.36,0,0,1,.4822.5657,1.5084,1.5084,0,0,1,.1826.3482,5.3582,5.3582,0,0,1,.3951,1.2877c.0512.36.046.7151.0682,1.0726a1.7889,1.7889,0,0,0,.0487.1911c.0153.0794.0589.1784.029.2381a2.2962,2.2962,0,0,0-.076.9882,7.191,7.191,0,0,1-.465,2.1384,2.0691,2.0691,0,0,1-.5342.8c-.1041.0956-.2048.1971-.3021.3a3.7853,3.7853,0,0,1-1.6068.9514,3.0109,3.0109,0,0,1-1.1708.2628c-.23.1408-.4872.0615-.7313.0854-.23.0239-.4522.0853-.69.0913a13.6389,13.6389,0,0,0-1.4566-.093,6.8709,6.8709,0,0,0-.98-.2031,7.8119,7.8119,0,0,1-1.7852-.7339,3.8126,3.8126,0,0,1-1.373-1.4814,10.329,10.329,0,0,1-.3413-1.05,16.2317,16.2317,0,0,1-.1707-3.2341c.111-.0059.2176-.0153.3252-.0153H27.94c.3413,0,.3618.017.3626.35,0,.6238-.0077,1.2467,0,1.8705a4.5142,4.5142,0,0,0,.0854.768.8283.8283,0,0,0,.9975.5444c.1553-.0614.3413-.01.48-.1919a1.3285,1.3285,0,0,0,.3012-.7271,8.7157,8.7157,0,0,0,0-1.4011,1.25,1.25,0,0,0-.3942-.98c-.2816-.2031-.5709-.3968-.8695-.5734-.3414-.2031-.6921-.3968-1.0172-.63a5.8679,5.8679,0,0,0-.6238-.3421c-.3413-.1844-.6622-.3892-.9881-.59-.3764-.2321-.7382-.4881-1.0949-.75a7.9113,7.9113,0,0,1-.6289-.5393,3.1181,3.1181,0,0,1-.9386-1.611c-.0708-.2851-.1263-.576-.19-.86a5.7811,5.7811,0,0,1-.064-1.0743,5.6124,5.6124,0,0,1,.0094-1.1034,7.7966,7.7966,0,0,1,.1664-1.1614,4.8749,4.8749,0,0,1,.5513-1.3039,3.2323,3.2323,0,0,1,1.1605-.9992,8.4944,8.4944,0,0,1,1.0325-.4864,4.1071,4.1071,0,0,1,.8175-.1877,2.4665,2.4665,0,0,1,.8167-.0854c.2414-.1826.5171-.0588.7756-.0793a4.7144,4.7144,0,0,1,.8534,0,7.0082,7.0082,0,0,1,1.867.3251,2.8038,2.8038,0,0,1,1.0846.3652,3.6487,3.6487,0,0,1,.8405.5393,3.7212,3.7212,0,0,1,.9925,1.1537,2.8318,2.8318,0,0,1,.302.768c.0854.36.0043.7271.0854,1.07A15.7652,15.7652,0,0,1,34.796,16.38Z" transform="translate(-17.625 -2)"/>
    <path class="cls-3" d="M43.7371,21.3364h4.7787v.3593c0,.3823.01.768,0,1.1477a13.6512,13.6512,0,0,1-.099,1.6631,2.9713,2.9713,0,0,1-.1869.8969c-.134.2688-.1954.5751-.3413.8345a5.8751,5.8751,0,0,1-1.1093,1.54,5.7532,5.7532,0,0,1-.9174.663,5.5145,5.5145,0,0,1-.785.3678,8.26,8.26,0,0,1-.7936.2424,4.5774,4.5774,0,0,1-.8534.0955,4.5851,4.5851,0,0,1-1.1153.0854,8.0017,8.0017,0,0,1-2.1188-.3371,3.7481,3.7481,0,0,1-1.588-.6878,4.184,4.184,0,0,1-1.4728-1.792,3.6132,3.6132,0,0,1-.3772-1.3329c-.15-.1758-.0222-.41-.1169-.5888-.1075-.2048-.0077-.4164-.0555-.6152a9.391,9.391,0,0,1-.0768-2.1768c-.0179-1.984-.0068-3.9689-.0051-5.9529a1.7508,1.7508,0,0,1,.0734-.6485c.0751-.1971-.0555-.4429.0964-.6417a2.1389,2.1389,0,0,1,.1707-.9054,4.1417,4.1417,0,0,1,.6468-1.1818,5.1665,5.1665,0,0,1,1.3867-1.18,4.636,4.636,0,0,1,1.5982-.6681c.3311-.0623.6665-.1093.9925-.1792a9.6569,9.6569,0,0,1,1.46-.0683,1.1837,1.1837,0,0,1,.5214.0777c.16.0623.3661-.0734.5162.0913a2.1345,2.1345,0,0,1,.8244.1706,5.162,5.162,0,0,1,2.1256,1.2476c.1271.1331.2611.2611.3917.3908a4.6527,4.6527,0,0,1,.628,1.0146,7.7862,7.7862,0,0,1,.4011,1.2382,3.0618,3.0618,0,0,1,.0947.896,6.2573,6.2573,0,0,1,.0956.9011,8.9613,8.9613,0,0,0-.0069.9387v.256H43.4854v-.37c0-.6519.0094-1.3039,0-1.9558a8.1175,8.1175,0,0,0-.0853-.9847.768.768,0,0,0-1.0965-.5974.6535.6535,0,0,0-.3328.3883,2.0555,2.0555,0,0,0-.0982.6827q-.0093,4.9322,0,9.8644a2.92,2.92,0,0,0,.3414,1.1776.8818.8818,0,0,0,.78.2662.6613.6613,0,0,0,.4616-.3148A1.6812,1.6812,0,0,0,43.67,25.02a30.5707,30.5707,0,0,0,.0785-3.3672C43.74,21.54,43.7371,21.4457,43.7371,21.3364Z" transform="translate(-17.625 -2)"/>
    <path class="cls-3" d="M78.7927,6.62h5.5184V28.8517c-.3413.0572-4.4646.0768-5.5159.0239Z" transform="translate(-17.625 -2)"/>
    <path class="cls-3" d="M86.2951,6.62H91.811V28.8517c-.3362.0572-4.4654.0768-5.5159.0239Z" transform="translate(-17.625 -2)"/>
    <path class="cls-3" d="M107.7819,10.6169h5.3606c-.035.1562.0751.3243-.0853.4625-.0069.006,0,.0273,0,.0419q-.0393.831-.0777,1.6614c0,.01.0188.0205.029.03a5.8623,5.8623,0,0,1,1.478-1.8825,3.3858,3.3858,0,0,1,1.2509-.5751c.1707-.0487.3414-.07.5385-.1084v6.4853h-.6221a2.9789,2.9789,0,0,0-1.5308.4181,1.8721,1.8721,0,0,0-.8184,1.1042c-.0768.3157-.0367.6332-.0853.9429a24.5138,24.5138,0,0,0-.0743,3.1949c-.02,1.0615-.0042,2.1529-.0042,3.23v3.25h-5.3581Z" transform="translate(-17.625 -2)"/>
    <path class="cls-4" d="M116.3868,28.8781V21.2528h7.7107c.0606.3482.0853,6.3522.0256,7.6253Z" transform="translate(-17.625 -2)"/>
    <path class="cls-3" d="M66.0039,5.7683h3.4679V9.2926c-.3362.0571-2.397.0734-3.4679.0247Z" transform="translate(-17.625 -2)"/>
    <path class="cls-3" d="M75.2761,5.7752V9.319H71.914c-.058-.3362-.0751-2.45-.0256-3.5438Z" transform="translate(-17.625 -2)"/>
    <path class="cls-3" d="M124.1615,8.8634a5.555,5.555,0,0,1-.2185,1.0239,3.1249,3.1249,0,0,1-.6434,1.01,4.0939,4.0939,0,0,1-1.1247.7816c-.1254.064-.291-.0426-.3788.1135-.3047-.0213-.59.1536-.8986.0905a4.2415,4.2415,0,0,1-1.5573-.56,3.1485,3.1485,0,0,1-.9813-1.12,1.75,1.75,0,0,1-.2722-.948.5357.5357,0,0,0-.0854-.4318c.1451-.198.01-.4565.1058-.6332.0726-.1339.02-.2671.0973-.3874s.1647-.2184.1383-.3669a3.74,3.74,0,0,1,.8047-.9779,2.5861,2.5861,0,0,1,1.1332-.5479c.0111,0,.02-.0281.03-.0281.384.0111.7586-.2739,1.15-.0367a1.8283,1.8283,0,0,1,.739.1655,1.973,1.973,0,0,1,.762.4148,2.8116,2.8116,0,0,1,.8781,1.1187,4.55,4.55,0,0,1,.2056.55C124.1,8.3317,124.1214,8.5766,124.1615,8.8634Zm-5.748-.012a2.2613,2.2613,0,0,0,.0384.6263,2.7331,2.7331,0,0,0,1.1306,1.5659,2.4571,2.4571,0,0,0,2.1334.3883,2.1678,2.1678,0,0,0,1.2714-.7365,2.1649,2.1649,0,0,0,.675-1.1229,2.1705,2.1705,0,0,0,.064-1.1094,3.5384,3.5384,0,0,0-.45-1.175,4.9378,4.9378,0,0,0-.576-.6127,3.1809,3.1809,0,0,0-1.117-.4881c-.1391-.0085-.3226.0359-.4062-.0358-.1707-.1434-.2432.0554-.3763.0469a2.1218,2.1218,0,0,0-1.55.6622,2.4245,2.4245,0,0,0-.8345,1.9908Z" transform="translate(-17.625 -2)"/>
    <path class="cls-3" d="M121.651,9.0272c.2065.4941.54.9071.7791,1.3918h-.6392c-.2039-.3815-.4266-.7842-.6357-1.19a.2459.2459,0,0,0-.2637-.1536c-.0972.0094-.1971,0-.3251,0v1.35h-.5009V7.2036c.512,0,1.024-.01,1.5275,0a.9506.9506,0,0,1,.8345.7552,1.0156,1.0156,0,0,1-.0409.5308A.776.776,0,0,1,121.651,9.0272ZM120.5724,7.63V8.6748c.3413-.0854.6664.0452.9967-.1007s.4053-.3047.2858-.6392c-.1049-.2952-.3524-.256-.5546-.2952A4.5758,4.5758,0,0,0,120.5724,7.63Z" transform="translate(-17.625 -2)"/>
  </g>
</svg>
