<svg id="Layer_1" data-name="Layer 1" xmlns="http://www.w3.org/2000/svg" viewBox="0 0 194.755 31">
  <defs>
    <style>
      .cls-1 {
        fill: #6d6e71;
        stroke: #a7a9ac;
        stroke-miterlimit: 10;
        stroke-width: 0.5px;
      }

      .cls-2 {
        fill: #a7a9ac;
      }

      .cls-3 {
        fill: #fff;
      }
    </style>
  </defs>
  <rect width="194.75" height="31"/>
  <line class="cls-1" x1="194.505" y1="2" x2="194.505" y2="29"/>
  <g>
    <path class="cls-2" d="M138.2559,21.8223V14.6641h.9736v3.55l3.6582-3.55h1.3213l-3.0908,2.9033,3.2256,4.2549h-1.2862l-2.6152-3.6192L139.23,19.3418v2.48Z" transform="translate(-17.625 -2)"/>
    <path class="cls-2" d="M146.2129,21.8223V14.6641h.9746v7.1582Z" transform="translate(-17.625 -2)"/>
    <path class="cls-2" d="M151.6543,21.8223V15.5088h-2.4258v-.8447h5.8369v.8447h-2.4375v6.3135Z" transform="translate(-17.625 -2)"/>
    <path class="cls-2" d="M162.1543,19.3125l.9805.2393a3.1541,3.1541,0,0,1-1.1368,1.8,3.2607,3.2607,0,0,1-1.9746.5927,3.5833,3.5833,0,0,1-1.749-.3984,2.9892,2.9892,0,0,1-1.1885-1.2773,4.4139,4.4139,0,0,1-.4619-2.0772,4.01,4.01,0,0,1,.4629-2.0005,3.07,3.07,0,0,1,1.2539-1.2358,3.714,3.714,0,0,1,1.7656-.418,3.1513,3.1513,0,0,1,1.8331.5283,2.7766,2.7766,0,0,1,1.0722,1.5518l-.9551.22a1.9308,1.9308,0,0,0-1.9687-1.4892,2.5817,2.5817,0,0,0-1.2764.3007,2.1382,2.1382,0,0,0-.8613.9356,3.543,3.543,0,0,0-.3223,1.6074,3.2532,3.2532,0,0,0,.6494,2.207,2.1907,2.1907,0,0,0,1.7276.7354,2.1658,2.1658,0,0,0,1.375-.4522A2.2585,2.2585,0,0,0,162.1543,19.3125Z" transform="translate(-17.625 -2)"/>
    <path class="cls-2" d="M165.2256,21.8223V14.6641h.9736v2.9394h3.8281V14.6641h.9737v7.1582h-.9737V18.4482h-3.8281v3.3741Z" transform="translate(-17.625 -2)"/>
    <path class="cls-2" d="M173.5508,21.8223V14.6641h5.3222v.8447h-4.3486v2.1875h4.0733v.8447h-4.0733v2.4365h4.52v.8448Z" transform="translate(-17.625 -2)"/>
    <path class="cls-2" d="M181.2393,21.8223V14.6641h.998l3.8711,5.6308V14.6641h.9307v7.1582h-.9981L182.1768,16.19v5.6324Z" transform="translate(-17.625 -2)"/>
  </g>
  <g>
    <path class="cls-3" d="M48.8964,22.6186c-.232,1.1291-.4673,2.2548-.6822,3.3839s-.46,2.2582-.6823,3.4111H43.4386c1.2314-5.9456,2.4628-11.8741,3.6977-17.83h3.9364l-.2456,1.3645.0614.0409c.0785-.0784.1637-.1535.2354-.2354a4.0456,4.0456,0,0,1,2.1626-1.3951,4.6389,4.6389,0,0,1,4.1377.75,4.3734,4.3734,0,0,1,1.3645,2.1354,8.5623,8.5623,0,0,1,.2729,3.6363,8.916,8.916,0,0,1-1.1564,3.5441,5.9716,5.9716,0,0,1-3.7761,2.9677,6.2385,6.2385,0,0,1-2.8722.0239,3.1993,3.1993,0,0,1-2.0228-1.4156l-.2422-.3752Zm.8118-3.67c.0273.2115.0444.5253.1092.8289a1.975,1.975,0,0,0,2.0467,1.6748,2.5036,2.5036,0,0,0,2.1319-1.0915,5.6594,5.6594,0,0,0,.9859-4.39A1.989,1.989,0,0,0,52.56,14.3364a2.5788,2.5788,0,0,0-1.8386,1.2007A6.3488,6.3488,0,0,0,49.7082,18.9483Z" transform="translate(-17.625 -2)"/>
    <path class="cls-3" d="M78.0582,24.1775H74.0058a2.0916,2.0916,0,0,1,.0511-.3854q.71-3.2679,1.3918-6.5494c.075-.3411.1364-.6822.191-1.0438a1.9828,1.9828,0,0,0-.1023-.9654,1.5,1.5,0,0,0-1.6442-.9346,2.6127,2.6127,0,0,0-2.2957,1.5828,10.5453,10.5453,0,0,0-.7095,2.4219c-.3889,1.8624-.7709,3.7283-1.16,5.5908a1.5555,1.5555,0,0,1-.0989.2729H65.6417a1.6163,1.6163,0,0,1,0-.3172q.7368-3.5511,1.477-7.1088.5218-2.4936,1.0233-4.99A.894.894,0,0,1,68.19,11.57h4.0763l-.3241,1.5384c.1467-.133.2183-.191.28-.2592a5.1164,5.1164,0,0,1,2.94-1.5555,5.8422,5.8422,0,0,1,2.2309,0,3.1144,3.1144,0,0,1,2.5754,2.9677,10.1922,10.1922,0,0,1-.3411,2.9063c-.498,2.2036-.9858,4.4071-1.48,6.6073A2.26,2.26,0,0,1,78.0582,24.1775Z" transform="translate(-17.625 -2)"/>
    <path class="cls-3" d="M86.7293,24.5835a7.45,7.45,0,0,1-3.2508-.6823,4.506,4.506,0,0,1-2.63-3.4282,8.2414,8.2414,0,0,1,1.3883-6.4095,6.7609,6.7609,0,0,1,4.7176-2.7766,8.1858,8.1858,0,0,1,3.3156.1637,4.8241,4.8241,0,0,1,3.7966,4.124,8.0912,8.0912,0,0,1-1.4361,6.239A6.5149,6.5149,0,0,1,88.2268,24.44C87.7287,24.5186,87.2273,24.5391,86.7293,24.5835ZM90.14,16.96a13.129,13.129,0,0,0-.2217-1.32A1.9067,1.9067,0,0,0,87.432,14.275a2.7084,2.7084,0,0,0-1.7363,1.3883,6.286,6.286,0,0,0-.7845,2.18,4.7986,4.7986,0,0,0,.0579,2.265,1.883,1.883,0,0,0,1.3474,1.4053,2.47,2.47,0,0,0,1.48-.0886A2.9029,2.9029,0,0,0,89.37,20.0057a6.8213,6.8213,0,0,0,.747-3.0461Z" transform="translate(-17.625 -2)"/>
    <path class="cls-3" d="M63.2777,24.1809H59.1844L61.7973,11.56h4.0934C65.0208,15.7827,64.151,19.9716,63.2777,24.1809Z" transform="translate(-17.625 -2)"/>
    <path class="cls-3" d="M62.4352,7.9337a2.4681,2.4681,0,0,1,1.9-2.2752,2.4169,2.4169,0,0,1,.9278-.0478,1.8015,1.8015,0,0,1,1.46,2.2787,2.49,2.49,0,0,1-3.0291,1.7431A1.6613,1.6613,0,0,1,62.4352,7.9337Z" transform="translate(-17.625 -2)"/>
  </g>
</svg>
