<svg id="Layer_1" data-name="Layer 1" xmlns="http://www.w3.org/2000/svg" viewBox="0 0 1770.34 393.27"><defs><style>.cls-1{fill:#fff;}</style></defs><path class="cls-1" d="M787.22,322.47c1.92.76,3.74,1.46,5.55,2.2,47.67,19.5,49.86,75,23.88,104.11-16.41,18.39-37.3,28.06-61.64,28.44-44.12.69-88.26.22-132.39.22a36.25,36.25,0,0,1-3.64-.36v-259a33,33,0,0,1,3.63-.43c42.14.05,84.28-.18,126.4.35,17.26.21,33.55,5,47.61,15.62,16.12,12.15,23.32,29,24.78,48.58.63,8.32.29,16.63-2.25,24.68-4.81,15.24-14.73,26.15-28.73,33.57-.88.46-1.77.91-2.64,1.39C787.64,321.9,787.56,322.07,787.22,322.47ZM683.43,402.53a20.5,20.5,0,0,0,3.14.51c15.14,0,30.28.18,45.4-.14a57.83,57.83,0,0,0,15.18-2.41c10.3-3.1,15.69-10.49,16.16-20.89.51-11.42-4.26-19.79-14.5-23.62a50.92,50.92,0,0,0-16-3.23c-15.29-.45-30.6-.22-45.9-.22a25.28,25.28,0,0,0-3.5.49Zm.18-150.26v47.28c17.12,0,33.77.47,50.37-.18,10-.39,18.26-8.49,20.37-17.89,3.53-15.76-6.85-29.14-23.24-29.45-15-.28-30-.07-45-.05A23.13,23.13,0,0,0,683.61,252.27Z" transform="translate(-28.51 -130.97)"/><path class="cls-1" d="M1652,292.69h78.27V198.07h68.63V457H1730.6V355.47h-78.47V457.12H1584v-259H1652Z" transform="translate(-28.51 -130.97)"/><path class="cls-1" d="M853.76,325.6c.29-29,6.44-58,23.41-83.81,19.8-30.11,47.94-46.6,83.83-50.09,21.65-2.11,42.56.66,62.39,9.63,26.57,12,45.31,32.11,56.26,58.73,19.66,47.78,19.49,95.85-3.76,142.24-20.07,40.07-54.29,59.82-99,61.12-30.85.9-58.51-7.76-81.55-28.89-18.46-16.92-29.51-38.23-35.93-62.13C855.39,357.55,853.83,342.38,853.76,325.6ZM1028.94,327c-.31-11.81-1.57-23.82-5.78-35.36-4.86-13.33-12.32-24.67-25.1-31.7-25.91-14.25-57.14-4-70.44,23.35-8.3,17.05-10.15,35.27-8.74,53.93,1,12.68,3.66,25,9.73,36.29,6.26,11.7,15.11,20.69,28,24.81,23,7.32,49.8.69,63.31-27.41C1026.56,357.18,1028.61,342.47,1028.94,327Z" transform="translate(-28.51 -130.97)"/><path class="cls-1" d="M1307.6,231l-39.68,40.78c-1.51-1.4-2.81-2.62-4.14-3.81-14.81-13.36-31.91-20.86-52.16-20.06a36.59,36.59,0,0,0-20.06,6.68c-9.25,6.52-13.5,24.28,1.39,33.11,9.19,5.45,19.49,7.46,29.68,9.88,12.29,2.91,24.61,5.72,36.8,9a93,93,0,0,1,15.3,6c21.43,10.12,34.34,26.75,37.78,50.34,3.34,22.91.11,44.41-14.22,63.37-7.87,10.4-18,18.08-29.42,24.23-38.86,20.87-104,16.59-139.88-12.06a157.53,157.53,0,0,1-23-22.34L1146,373.67c1.72,1.87,3,3.15,4.11,4.47,15,17.17,33.76,27.2,56.7,28.93,8.57.65,17-.14,24.93-3.68,7-3.11,12.27-7.88,14.42-15.53,2.91-10.33-.26-19.54-10-23.86-9-4-18.79-6.52-28.36-9.21-12.62-3.55-25.48-6.3-38-10.09-5.81-1.75-11.36-4.76-16.62-7.9-23.8-14.19-36.06-35.2-36.11-63-.06-34.35,16.13-58.46,47-72.82a90.13,90.13,0,0,1,19.34-6.47c38.45-8.05,74.48-2.75,106.86,20.62,5.1,3.68,9.56,8.26,14.24,12.49A35.11,35.11,0,0,1,1307.6,231Z" transform="translate(-28.51 -130.97)"/><path class="cls-1" d="M1556.48,248l-52.73,35c-1.92-2.8-3.59-5.25-5.26-7.7-18.4-26.86-56.19-27.9-77.67-6.4-10.34,10.35-16.33,22.94-18.94,37.16-3.53,19.17-2.67,38.12,4.41,56.41,6.83,17.61,18.53,30.77,37.17,36.27,19.68,5.81,41.42,1.67,55.29-18.1,2.09-3,4.14-6,6.52-9.44l52.81,35.57a28.35,28.35,0,0,1-2.1,3.47c-6.54,7.95-12.7,16.28-19.81,23.7-14.88,15.52-33.32,24.49-54.61,27.66-20.15,3-40.17,3.06-59.87-2.73-30.32-8.9-53.25-27.57-67.65-55.31-25.61-49.32-26.72-100-2.57-150,17.18-35.58,46.93-55.6,86.32-60.83a135.93,135.93,0,0,1,47.16,1.7c27.24,5.93,47.76,21.77,64.29,43.48C1551.63,241.05,1553.85,244.33,1556.48,248Z" transform="translate(-28.51 -130.97)"/><path class="cls-1" d="M226.67,131c104.72-1,196,85.05,195.91,197.16-.08,108.9-88.1,196.14-196.81,196.1-110.19,0-198.93-89.92-197.23-199C30.2,218.34,118.68,130.06,226.67,131Zm-.43,366.37c93,1,169.77-76.71,169.64-169.37C395.75,238.2,323.07,157.29,226,157.44c-94.51.14-170.79,75.77-170.79,170.75C55.21,425.11,136.28,498.31,226.24,497.35Z" transform="translate(-28.51 -130.97)"/><path class="cls-1" d="M289.3,387.3H160.87v5.52q0,26.94,0,53.87c0,3.26-.12,6.27-3.65,7.95a9.18,9.18,0,0,1-9.39-.62c-36.21-23.42-60.11-55.33-68.29-98.24a148.56,148.56,0,0,1,65-152.32,36.1,36.1,0,0,1,5.13-3.05c6.27-2.73,11.08.37,11.13,7.2.08,10.3,0,20.61,0,30.92v28.83H289.94c.12-1.37.34-2.67.33-4q-.13-26.17-.33-52.36c0-4.1.43-8.15,4.46-10.36s8-1.09,11.63,1.32q49.22,32.3,63.76,89.26a144.42,144.42,0,0,1,3.66,50.86c-4.73,45.22-25.74,81.32-63.25,107.54-2.31,1.61-4.62,3.24-7,4.73-5.25,3.26-12.41-.51-12.7-5.64-.09-1.64-.62-3.26-.61-4.89.09-14.12.35-28.25.36-42.38C290.24,397,289.67,392.56,289.3,387.3Zm.54-88.13H161.25v57H289.84ZM130.42,396.58V258.77C102.15,296.3,98.52,354.26,130.42,396.58ZM321.06,258.51V397.08C351.42,354.6,350,300.27,321.06,258.51Z" transform="translate(-28.51 -130.97)"/></svg>