<svg xmlns="http://www.w3.org/2000/svg" xmlns:xlink="http://www.w3.org/1999/xlink" viewBox="0 0 433 155" style="enable-background:new 0 0 433 155;" xml:space="preserve"><defs><linearGradient id="bosch-gradient" x1="-1408.7516" y1="346.28128" x2="-1408.3533" y2="346.28128" gradientTransform="matrix(0, -723.07397, -723.07397, 0, 250418.98218, -1018279.61572)" gradientUnits="userSpaceOnUse"><stop offset="0" stop-color="#942231"></stop><stop offset="0.1533" stop-color="#ca171a"></stop><stop offset="0.206" stop-color="#982e6b"></stop><stop offset="0.3241" stop-color="#203b78"></stop><stop offset="0.4181" stop-color="#312b6e"></stop><stop offset="0.5581" stop-color="#1b62a1"></stop><stop offset="0.6556" stop-color="#5bafbf"></stop><stop offset="0.7385" stop-color="#078daf"></stop><stop offset="0.8875" stop-color="#00a14b"></stop><stop offset="1" stop-color="#00917d"></stop></linearGradient><linearGradient id="linear-gradient" x1="-292.52035" y1="454.88716" x2="-291.75543" y2="454.88716" gradientTransform="matrix(161.0472, 0, 0, -161.0472, 47079.92736, 73333.9482)" gradientUnits="userSpaceOnUse"><stop offset="0" stop-color="#689f5f"></stop><stop offset="0.1422" stop-color="#4e9752"></stop><stop offset="0.30262" stop-color="#399147"></stop><stop offset="0.48097" stop-color="#2a8c40"></stop><stop offset="0.68932" stop-color="#218a3b"></stop><stop offset="1" stop-color="#1e893a"></stop></linearGradient><linearGradient id="linear-gradient-2" x1="-299.6699" y1="456.71699" x2="-298.90459" y2="456.71699" gradientTransform="matrix(-42.8122, -23.9993, -23.9993, 42.8122, -1845.0315, -26649.9633)" gradientUnits="userSpaceOnUse"><stop offset="0" stop-color="#61b16d"></stop><stop offset="1" stop-color="#86b856"></stop></linearGradient><linearGradient id="linear-gradient-3" x1="-292.52035" y1="454.94261" x2="-291.75543" y2="454.94261" gradientTransform="matrix(161.0472, 0, 0, -161.0472, 47079.92736, 73367.6982)" gradientUnits="userSpaceOnUse"><stop offset="0" stop-color="#94bd54"></stop><stop offset="0.31031" stop-color="#8cbc66"></stop><stop offset="0.67778" stop-color="#85bb73"></stop><stop offset="1" stop-color="#83bb78"></stop></linearGradient><linearGradient id="linear-gradient-4" x1="-292.84565" y1="454.6873" x2="-292.07977" y2="454.6873" gradientTransform="matrix(158.5753, -41.8977, -41.8977, -158.5753, 65460.27396, 59972.6845)" gradientUnits="userSpaceOnUse"><stop offset="0" stop-color="#00a24c"></stop><stop offset="0.26662" stop-color="#00a053"></stop><stop offset="0.64512" stop-color="#009a65"></stop><stop offset="1" stop-color="#00937d"></stop></linearGradient><linearGradient id="linear-gradient-5" x1="-292.52035" y1="455.01504" x2="-291.75543" y2="455.01504" gradientTransform="matrix(161.0472, 0, 0, -161.0472, 47079.92736, 73418.1982)" gradientUnits="userSpaceOnUse"><stop offset="0" stop-color="#00b5dd"></stop><stop offset="0.27915" stop-color="#00afd6"></stop><stop offset="0.68152" stop-color="#009dc3"></stop><stop offset="1" stop-color="#008baf"></stop></linearGradient><linearGradient id="linear-gradient-6" x1="-292.83814" y1="454.7717" x2="-292.07255" y2="454.7717" gradientTransform="matrix(159.2028, -42.6583, -42.6583, -159.2028, 65993.39743, 60088.7376)" gradientUnits="userSpaceOnUse"><stop offset="0" stop-color="#0099d4"></stop><stop offset="0.2217" stop-color="#0f9dd1"></stop><stop offset="0.64563" stop-color="#36a7c8"></stop><stop offset="1" stop-color="#5bb0c0"></stop></linearGradient><linearGradient id="linear-gradient-7" x1="-295.24294" y1="456.91302" x2="-294.47802" y2="456.91302" gradientTransform="matrix(-161.0472, 0, 0, 161.0472, -47454.3348, -73405.85623)" gradientUnits="userSpaceOnUse"><stop offset="0" stop-color="#3d9ac9"></stop><stop offset="1" stop-color="#1d62a2"></stop></linearGradient><linearGradient id="linear-gradient-8" x1="-292.52035" y1="455.14146" x2="-291.75543" y2="455.14146" gradientTransform="matrix(161.0472, 0, 0, -161.0472, 47079.92736, 73495.6982)" gradientUnits="userSpaceOnUse"><stop offset="0" stop-color="#15438e"></stop><stop offset="0.41197" stop-color="#1f579e"></stop><stop offset="1" stop-color="#317aba"></stop></linearGradient><linearGradient id="linear-gradient-9" x1="-291.61542" y1="455.0712" x2="-290.84978" y2="455.0712" gradientTransform="matrix(106.4336, 17.0208, 17.0208, -106.4336, 23262.10616, 53609.2318)" gradientUnits="userSpaceOnUse"><stop offset="0" stop-color="#312b6e"></stop><stop offset="0.24273" stop-color="#312b6e"></stop><stop offset="0.44636" stop-color="#2c2e72"></stop><stop offset="0.68653" stop-color="#1e377d"></stop><stop offset="0.94425" stop-color="#06468f"></stop><stop offset="1" stop-color="#004a94"></stop></linearGradient><linearGradient id="linear-gradient-10" x1="-291.66575" y1="459.90935" x2="-290.90785" y2="459.90935" gradientTransform="matrix(0, 56.1032, 56.1032, 0, -25770.3862, 16590.7858)" gradientUnits="userSpaceOnUse"><stop offset="0" stop-color="#203b78"></stop><stop offset="0.23942" stop-color="#253b79"></stop><stop offset="0.52211" stop-color="#333a7d"></stop><stop offset="0.82552" stop-color="#4b3a82"></stop><stop offset="1" stop-color="#5c3986"></stop></linearGradient><linearGradient id="linear-gradient-11" x1="-296.74196" y1="450.70098" x2="-295.98407" y2="450.70098" gradientTransform="matrix(0, -41.4022, -41.4022, 0, 18692.0122, -12003.5038)" gradientUnits="userSpaceOnUse"><stop offset="0" stop-color="#6d368c"></stop><stop offset="0.99384" stop-color="#3b4190"></stop><stop offset="1" stop-color="#3b4190"></stop></linearGradient><linearGradient id="linear-gradient-12" x1="-291.49015" y1="460.16769" x2="-290.73224" y2="460.16769" gradientTransform="matrix(0, 46.8522, 46.8522, 0, -21511.8682, 13926.8338)" gradientUnits="userSpaceOnUse"><stop offset="0" stop-color="#89357f"></stop><stop offset="0.33538" stop-color="#89357f"></stop><stop offset="0.71149" stop-color="#8d2c59"></stop><stop offset="1" stop-color="#902641"></stop></linearGradient><linearGradient id="linear-gradient-13" x1="-291.66852" y1="460.81087" x2="-290.91093" y2="460.81087" gradientTransform="matrix(0, 50.6842, 50.6842, 0, -23339.8302, 15051.3268)" xlink:href="https://www.bosch.cz/#linear-gradient-12"></linearGradient><linearGradient id="bosch-gradient-2" x1="-1408.7516" y1="345.43213" x2="-1408.3533" y2="345.43213" xlink:href="https://www.bosch.cz/#bosch-gradient"></linearGradient><linearGradient id="linear-gradient-14" x1="-288.7078" y1="454.88716" x2="-287.94288" y2="454.88716" xlink:href="https://www.bosch.cz/#linear-gradient"></linearGradient><linearGradient id="linear-gradient-15" x1="-310.58244" y1="450.59973" x2="-309.81714" y2="450.59973" xlink:href="https://www.bosch.cz/#linear-gradient-2"></linearGradient><linearGradient id="linear-gradient-16" x1="-288.7078" y1="454.94261" x2="-287.94288" y2="454.94261" xlink:href="https://www.bosch.cz/#linear-gradient-3"></linearGradient><linearGradient id="linear-gradient-17" x1="-289.22633" y1="453.73103" x2="-288.46045" y2="453.73103" xlink:href="https://www.bosch.cz/#linear-gradient-4"></linearGradient><linearGradient id="linear-gradient-18" x1="-288.7078" y1="455.01504" x2="-287.94288" y2="455.01504" xlink:href="https://www.bosch.cz/#linear-gradient-5"></linearGradient><linearGradient id="linear-gradient-19" x1="-289.23978" y1="453.80752" x2="-288.47419" y2="453.80752" xlink:href="https://www.bosch.cz/#linear-gradient-6"></linearGradient><linearGradient id="linear-gradient-20" x1="-299.05549" y1="456.91302" x2="-298.29057" y2="456.91302" xlink:href="https://www.bosch.cz/#linear-gradient-7"></linearGradient><linearGradient id="linear-gradient-21" x1="-288.7078" y1="455.14146" x2="-287.94288" y2="455.14146" xlink:href="https://www.bosch.cz/#linear-gradient-8"></linearGradient><linearGradient id="linear-gradient-22" x1="-285.99042" y1="455.97075" x2="-285.22478" y2="455.97075" xlink:href="https://www.bosch.cz/#linear-gradient-9"></linearGradient><linearGradient id="linear-gradient-23" x1="-291.66575" y1="470.85347" x2="-290.90785" y2="470.85347" xlink:href="https://www.bosch.cz/#linear-gradient-10"></linearGradient><linearGradient id="linear-gradient-24" x1="-296.74196" y1="435.87085" x2="-295.98407" y2="435.87085" xlink:href="https://www.bosch.cz/#linear-gradient-11"></linearGradient><linearGradient id="linear-gradient-25" x1="-291.49015" y1="473.27273" x2="-290.73224" y2="473.27273" xlink:href="https://www.bosch.cz/#linear-gradient-12"></linearGradient><linearGradient id="linear-gradient-26" x1="-291.66852" y1="472.9251" x2="-290.91093" y2="472.9251" gradientTransform="matrix(0, 50.6842, 50.6842, 0, -23339.8302, 15051.3268)" xlink:href="https://www.bosch.cz/#linear-gradient-12"></linearGradient><linearGradient id="Bosch-Gradient-3" x1="-1231.77999" y1="344.25888" x2="-1231.01935" y2="344.25888" gradientTransform="matrix(723.07397, 0, 0, -723.07397, 890732.05322, 248956.63843)" xlink:href="https://www.bosch.cz/#bosch-gradient"></linearGradient><linearGradient id="linear-gradient-27" x1="-293.25393" y1="456.14074" x2="-292.48879" y2="456.14074" gradientTransform="matrix(0, 306.44489, 306.44489, 0, -139190.23975, 89780.76087)" xlink:href="https://www.bosch.cz/#linear-gradient"></linearGradient><linearGradient id="linear-gradient-28" x1="-295.56537" y1="454.18254" x2="-294.80035" y2="454.18254" gradientTransform="matrix(45.6665, -81.4643, -81.4643, -45.6665, 51060.4303, -3316.2417)" xlink:href="https://www.bosch.cz/#linear-gradient-2"></linearGradient><linearGradient id="linear-gradient-29" x1="-293.25393" y1="456.20489" x2="-292.48879" y2="456.20489" gradientTransform="matrix(0, 306.44489, 306.44489, 0, -139254.23975, 89780.76087)" xlink:href="https://www.bosch.cz/#linear-gradient-3"></linearGradient><linearGradient id="linear-gradient-30" x1="-293.22598" y1="456.07493" x2="-292.46136" y2="456.07493" gradientTransform="matrix(79.7241, 301.74129, 301.74129, -79.7241, -113765.81379, 124754.91852)" xlink:href="https://www.bosch.cz/#linear-gradient-4"></linearGradient><linearGradient id="linear-gradient-31" x1="-293.25393" y1="456.26814" x2="-292.48879" y2="456.26814" gradientTransform="matrix(0, 306.44489, 306.44489, 0, -139350.73975, 89780.76087)" xlink:href="https://www.bosch.cz/#linear-gradient-5"></linearGradient><linearGradient id="linear-gradient-32" x1="-293.20953" y1="456.15134" x2="-292.44479" y2="456.15134" gradientTransform="matrix(81.1713, 302.93519, 302.93519, -81.1713, -113988.56713, 125768.76008)" xlink:href="https://www.bosch.cz/#linear-gradient-6"></linearGradient><linearGradient id="linear-gradient-33" x1="-294.51333" y1="455.66136" x2="-293.74818" y2="455.66136" gradientTransform="matrix(0, -306.4449, -306.4449, 0, 140029.1769, -90102.8126)" xlink:href="https://www.bosch.cz/#linear-gradient-7"></linearGradient><linearGradient id="linear-gradient-34" x1="-293.25393" y1="456.39681" x2="-292.48879" y2="456.39681" gradientTransform="matrix(0, 306.44489, 306.44489, 0, -139497.73975, 89780.76087)" xlink:href="https://www.bosch.cz/#linear-gradient-8"></linearGradient><linearGradient id="linear-gradient-35" x1="-292.98956" y1="456.7388" x2="-292.22518" y2="456.7388" gradientTransform="matrix(-32.3877, 202.52459, 202.52459, 32.3877, -101658.87594, 44459.0489)" xlink:href="https://www.bosch.cz/#linear-gradient-9"></linearGradient><linearGradient id="linear-gradient-36" x1="-295.26229" y1="457.8049" x2="-294.50135" y2="457.8049" gradientTransform="matrix(-106.7547, 0, 0, 106.7547, -31218.6438, -48840.8236)" xlink:href="https://www.bosch.cz/#linear-gradient-10"></linearGradient><linearGradient id="linear-gradient-37" x1="-291.87848" y1="453.54595" x2="-291.11783" y2="453.54595" gradientTransform="matrix(78.7812, 0, 0, -78.7812, 23191.7078, 35762.8942)" xlink:href="https://www.bosch.cz/#linear-gradient-11"></linearGradient><linearGradient id="linear-gradient-38" x1="-295.79726" y1="457.48069" x2="-295.0374" y2="457.48069" gradientTransform="matrix(-89.1517, 0, 0, 89.1517, -26150.0738, -40737.1807)" xlink:href="https://www.bosch.cz/#linear-gradient-12"></linearGradient><linearGradient id="linear-gradient-39" x1="-295.64873" y1="458.63083" x2="-294.88767" y2="458.63083" gradientTransform="matrix(-96.4433, 0, 0, 96.4433, -28289.5412, -44215.8693)" xlink:href="https://www.bosch.cz/#linear-gradient-12"></linearGradient><linearGradient id="Bosch-Gradient-4" x1="-1231.77999" y1="343.77207" x2="-1231.01935" y2="343.77207" gradientTransform="matrix(723.07397, 0, 0, -723.07397, 890732.05322, 248956.63843)" xlink:href="https://www.bosch.cz/#bosch-gradient"></linearGradient><linearGradient id="linear-gradient-40" x1="-292.10528" y1="456.14074" x2="-291.34013" y2="456.14074" gradientTransform="matrix(0, 306.44489, 306.44489, 0, -139190.23975, 89780.76087)" xlink:href="https://www.bosch.cz/#linear-gradient"></linearGradient><linearGradient id="linear-gradient-41" x1="-298.85314" y1="452.33952" x2="-298.08811" y2="452.33952" gradientTransform="matrix(45.6665, -81.4643, -81.4643, -45.6665, 51060.4303, -3316.2417)" xlink:href="https://www.bosch.cz/#linear-gradient-2"></linearGradient><linearGradient id="linear-gradient-42" x1="-292.10528" y1="456.20489" x2="-291.34013" y2="456.20489" gradientTransform="matrix(0, 306.44489, 306.44489, 0, -139254.23975, 89780.76087)" xlink:href="https://www.bosch.cz/#linear-gradient-3"></linearGradient><linearGradient id="linear-gradient-43" x1="-292.13554" y1="455.78683" x2="-291.37092" y2="455.78683" gradientTransform="matrix(79.7241, 301.74129, 301.74129, -79.7241, -113765.81379, 124754.91852)" xlink:href="https://www.bosch.cz/#linear-gradient-4"></linearGradient><linearGradient id="linear-gradient-44" x1="-292.10528" y1="456.26814" x2="-291.34013" y2="456.26814" gradientTransform="matrix(0, 306.44489, 306.44489, 0, -139350.73975, 89780.76087)" xlink:href="https://www.bosch.cz/#linear-gradient-5"></linearGradient><linearGradient id="linear-gradient-45" x1="-292.12541" y1="455.86085" x2="-291.36066" y2="455.86085" gradientTransform="matrix(81.1713, 302.93519, 302.93519, -81.1713, -113988.56713, 125768.76008)" xlink:href="https://www.bosch.cz/#linear-gradient-6"></linearGradient><linearGradient id="linear-gradient-46" x1="-295.66198" y1="455.66136" x2="-294.89684" y2="455.66136" gradientTransform="matrix(0, -306.4449, -306.4449, 0, 140029.1769, -90102.8126)" xlink:href="https://www.bosch.cz/#linear-gradient-7"></linearGradient><linearGradient id="linear-gradient-47" x1="-292.10528" y1="456.39681" x2="-291.34013" y2="456.39681" gradientTransform="matrix(0, 306.44489, 306.44489, 0, -139497.73975, 89780.76087)" xlink:href="https://www.bosch.cz/#linear-gradient-8"></linearGradient><linearGradient id="linear-gradient-48" x1="-291.29484" y1="457.00982" x2="-290.53046" y2="457.00982" gradientTransform="matrix(-32.3877, 202.52459, 202.52459, 32.3877, -101658.87594, 44459.0489)" xlink:href="https://www.bosch.cz/#linear-gradient-9"></linearGradient><linearGradient id="linear-gradient-49" x1="-295.26229" y1="461.10218" x2="-294.50135" y2="461.10218" gradientTransform="matrix(-106.7547, 0, 0, 106.7547, -31218.6438, -48840.8236)" xlink:href="https://www.bosch.cz/#linear-gradient-10"></linearGradient><linearGradient id="linear-gradient-50" x1="-291.87848" y1="449.07788" x2="-291.11783" y2="449.07788" gradientTransform="matrix(78.7812, 0, 0, -78.7812, 23191.7078, 35762.8942)" xlink:href="https://www.bosch.cz/#linear-gradient-11"></linearGradient><linearGradient id="linear-gradient-51" x1="-295.79726" y1="461.42902" x2="-295.0374" y2="461.42902" gradientTransform="matrix(-89.1517, 0, 0, 89.1517, -26150.0738, -40737.1807)" xlink:href="https://www.bosch.cz/#linear-gradient-12"></linearGradient><linearGradient id="linear-gradient-52" x1="-295.64873" y1="462.28064" x2="-294.88767" y2="462.28064" gradientTransform="matrix(-96.4433, 0, 0, 96.4433, -28289.5412, -44215.8693)" xlink:href="https://www.bosch.cz/#linear-gradient-12"></linearGradient></defs> <title stroke="none" fill="#000000" stroke-width="1px"></title><g transform="translate(0,0)" stroke="none" fill="#000000" stroke-width="1px"><g id="brand-claim-czech" stroke="none" fill="#000000" stroke-width="1px"><g id="claim-czech" fill="#000000" stroke="none" stroke-width="1px"><path d="M157.79785,119.94971c-1.1582-2.54786-2.71387-3.11036-5.65918-3.11036-3.01221,0-4.832,1.42286-4.832,3.80567a3.002,3.002,0,0,0,1.62158,2.87988,13.06409,13.06409,0,0,0,4.104,1.32324c2.97851.66211,4.56689,1.291,5.8247,2.28418a5.98056,5.98056,0,0,1,2.18457,4.832c0,4.16993-3.24365,6.85059-8.30712,6.85059-4.46827,0-7.64551-1.65527-8.936-5.32812l2.44873-.99317c.96,3.01172,3.07813,4.03809,6.48731,4.03809,3.47509,0,5.626-1.72168,5.626-4.502a3.54315,3.54315,0,0,0-1.1582-2.77929c-.92676-.79492-1.91944-1.15918-5.26221-1.98633a13.82608,13.82608,0,0,1-5.32861-2.11816,5.16636,5.16636,0,0,1-1.98584-4.30274c0-3.87207,2.87939-6.28808,7.48-6.28808,3.93848,0,6.48682,1.02636,7.94287,4.23632Z" stroke="none" fill="#000000" stroke-width="1px"></path><path d="M166.40381,121.20752v-4.501l2.74707-.66211v5.16309h4.36865v2.28418h-4.36865v10.55762c0,1.6875.62891,2.48242,1.98584,2.48242a3.5857,3.5857,0,0,0,2.34961-.82813l1.05908,1.88672a5.2838,5.2838,0,0,1-3.57422,1.22461c-2.813,0-4.56738-1.62207-4.56738-4.23633V123.4917h-2.64746v-2.28418Z" stroke="none" fill="#000000" stroke-width="1px"></path><path d="M180.37109,121.20752l4.6333,14.5293,4.53418-14.5293h2.8462l-5.82471,17.30957h-3.24365l-5.92432-17.30957Z" stroke="none" fill="#000000" stroke-width="1px"></path><path d="M211.05176,129.84619c0,5.22852-3.40869,8.96875-8.208,8.96875-4.69971,0-8.1416-3.77344-8.1416-8.93555,0-5.22949,3.40918-8.96972,8.24121-8.96972C207.64307,120.90967,211.05176,124.6831,211.05176,129.84619Zm-13.50342.06543c0,4.07129,2.05225,6.62012,5.29541,6.62012,3.27686,0,5.36182-2.582,5.36182-6.65235,0-4.03808-2.085-6.68554-5.26221-6.68554C199.60059,123.19385,197.54834,125.7085,197.54834,129.91162Z" stroke="none" fill="#000000" stroke-width="1px"></path><path d="M219.16113,121.20752v2.78027c1.125-2.085,2.61524-3.07812,4.63379-3.07812a5.55126,5.55126,0,0,1,2.81348.69531l-1.126,2.31641a3.77483,3.77483,0,0,0-2.01855-.5293c-2.68067,0-4.30274,2.15137-4.30274,5.626v9.499h-2.74707V121.20752Zm-.72754-8.1416,2.61426,3.21,2.61426-3.21h1.82031l-3.30957,5.36133h-2.3164l-3.30957-5.36133Z" stroke="none" fill="#000000" stroke-width="1px"></path><path d="M243.25586,135.77c-1.58789,2.28418-3.80566,3.04492-6.58594,3.04492-5.49414,0-8.57129-3.60742-8.57129-8.90332,0-5.32812,3.21-9.00195,7.877-9.00195,4.59961,0,7.41308,3.24316,7.41308,8.60547v.89355H230.94434c.0664,2.48242.6289,3.87207,1.82031,4.96387a5.383,5.383,0,0,0,3.83887,1.15918,5.06325,5.06325,0,0,0,4.63378-2.38379Zm-2.68066-7.5791c-.36329-3.541-1.6875-4.99707-4.56739-4.99707-2.74707,0-4.335,1.62109-4.96386,4.99707Z" stroke="none" fill="#000000" stroke-width="1px"></path><path d="M251.36621,121.20752V123.855a5.52908,5.52908,0,0,1,5.26172-2.94531c3.707,0,5.72559,2.416,5.72559,6.88379v10.72363h-2.74707V127.59521c0-2.97851-1.125-4.30273-3.67286-4.30273a4.30929,4.30929,0,0,0-4.56738,4.63379v10.59082h-2.74707V121.20752Z" stroke="none" fill="#000000" stroke-width="1px"></path><path d="M283.86816,129.84619c0,5.22852-3.40918,8.96875-8.208,8.96875-4.7002,0-8.14161-3.77344-8.14161-8.93555,0-5.22949,3.40821-8.96972,8.24024-8.96972C280.459,120.90967,283.86816,124.6831,283.86816,129.84619Zm-13.5039.06543c0,4.07129,2.05176,6.62012,5.2959,6.62012,3.27636,0,5.36132-2.582,5.36132-6.65235,0-4.03808-2.085-6.68554-5.26269-6.68554C272.416,123.19385,270.36426,125.7085,270.36426,129.91162Z" stroke="none" fill="#000000" stroke-width="1px"></path><path d="M302.63477,121.20752v2.84668a6.57047,6.57047,0,0,1,5.75878-3.14453c4.43458,0,7.37989,3.50879,7.37989,8.87011,0,5.46094-2.91211,9.03516-7.41309,9.03516a6.41317,6.41317,0,0,1-5.72558-3.07812v8.80371H299.8877v-23.333Zm-.09961,8.67187c0,4.23633,1.95312,6.65235,5.36132,6.65235,3.34278,0,5.03125-2.18457,5.03125-6.58692,0-4.23632-1.85351-6.751-4.998-6.751C304.55371,123.19385,302.53516,125.7085,302.53516,129.87939Z" stroke="none" fill="#000000" stroke-width="1px"></path><path d="M323.88379,121.20752v2.78027c1.125-2.085,2.61426-3.07812,4.63281-3.07812a5.54883,5.54883,0,0,1,2.81348.69531l-1.125,2.31641a3.77813,3.77813,0,0,0-2.01953-.5293c-2.68067,0-4.30176,2.15137-4.30176,5.626v9.499h-2.74707V121.20752Z" stroke="none" fill="#000000" stroke-width="1px"></path><path d="M348.44141,129.84619c0,5.22852-3.40918,8.96875-8.208,8.96875-4.7002,0-8.1416-3.77344-8.1416-8.93555,0-5.22949,3.4082-8.96972,8.24023-8.96972C345.03223,120.90967,348.44141,124.6831,348.44141,129.84619Zm-13.50392.06543c0,4.07129,2.05177,6.62012,5.29591,6.62012,3.27637,0,5.36133-2.582,5.36133-6.65235,0-4.03808-2.085-6.68554-5.2627-6.68554C336.98926,123.19385,334.93749,125.7085,334.93749,129.91162Z" stroke="none" fill="#000000" stroke-width="1px"></path><path d="M372.30469,123.4917h-9.26758v-2.28418H375.2168V124.021l-9.36621,12.11328h9.9619v2.38281H362.47461v-2.31641Zm-5.75879-10.42578,2.61426,3.21,2.61523-3.21h1.82031l-3.31054,5.36133h-2.31641l-3.30957-5.36133Z" stroke="none" fill="#000000" stroke-width="1px"></path><path d="M383.82227,115.813a1.82032,1.82032,0,1,1-1.82032-1.82031A1.83612,1.83612,0,0,1,383.82227,115.813Zm-.39649,5.39453v17.30957h-2.74707V121.20752Z" stroke="none" fill="#000000" stroke-width="1px"></path><path d="M390.376,121.20752l4.63379,14.5293,4.53418-14.5293h2.8457l-5.8252,17.30957h-3.24316l-5.92383-17.30957Z" stroke="none" fill="#000000" stroke-width="1px"></path><path d="M421.05762,129.84619c0,5.22852-3.40918,8.96875-8.208,8.96875-4.7002,0-8.1416-3.77344-8.1416-8.93555,0-5.22949,3.4082-8.96972,8.24023-8.96972C417.64844,120.90967,421.05762,124.6831,421.05762,129.84619Zm-13.50391.06543c0,4.07129,2.05176,6.62012,5.2959,6.62012,3.27637,0,5.36133-2.582,5.36133-6.65235,0-4.03808-2.085-6.68554-5.2627-6.68554C409.60547,123.19385,407.55371,125.7085,407.55371,129.91162Z" stroke="none" fill="#000000" stroke-width="1px"></path><path d="M425.85742,121.20752v-4.501l2.74707-.66211v5.16309h4.36914v2.28418h-4.36914v10.55762c0,1.6875.62891,2.48242,1.98535,2.48242a3.58817,3.58817,0,0,0,2.35059-.82813l1.05859,1.88672a5.28462,5.28462,0,0,1-3.57422,1.22461c-2.81347,0-4.56738-1.62207-4.56738-4.23633V123.4917H423.21v-2.28418Z" stroke="none" fill="#000000" stroke-width="1px"></path></g><g id="brand-czech-2" stroke="none" fill="#000000" stroke-width="1px"><g id="logotype-5" data-name="logotype" stroke="none" fill="#000000" stroke-width="1px"><path id="logotype-b-5" data-name="logotype-b" d="M185.2,57.16532a13.76635,13.76635,0,0,0,8.8-13c0-11.7-8.3-17.5-19.7-17.5H144.4v63.6h32.5c10,0,19.8-7,19.8-17.7C196.7,59.86531,185.2,57.26532,185.2,57.16532Zm-25.2-17.3h11.6a5.66863,5.66863,0,0,1,6,6,5.9267,5.9267,0,0,1-6.3,5.8H159.9l.1-11.8Zm11.7,37.1H160.1v-12.5h11.3c5.7,0,8.4,2.5,8.4,6.2C179.8,75.26533,176.4,76.96532,171.7,76.96532Z" style="fill-rule: evenodd;" stroke="none" fill="#ea0016" stroke-width="1px"></path><path id="logotype-o-5" data-name="logotype-o" d="M231.1,25.06533c-18.4,0-29.2,14.7-29.2,33.3,0,18.7,10.8,33.3,29.2,33.3,18.5,0,29.2-14.6,29.2-33.3C260.3,39.76532,249.6,25.06533,231.1,25.06533Zm0,51.4c-9,0-13.5-8.1-13.5-18.1s4.5-18,13.5-18,13.6,8.1,13.6,18C244.7,68.46532,240.1,76.46532,231.1,76.46532Z" style="fill-rule: evenodd;" stroke="none" fill="#ea0016" stroke-width="1px"></path><path id="logotype-s-5" data-name="logotype-s" d="M294.2,51.66532l-2.2-.5c-5.4-1.1-9.7-2.5-9.7-6.4,0-4.2,4.1-5.9,7.7-5.9a17.89364,17.89364,0,0,1,13,5.9l9.9-9.8c-4.5-5.1-11.8-10-23.2-10-13.4,0-23.6,7.5-23.6,20,0,11.4,8.2,17,18.2,19.1l2.2.5c8.3,1.7,11.4,3,11.4,7,0,3.8-3.4,6.3-8.6,6.3-6.2,0-11.8-2.7-16.1-8.2l-10.1,10c5.6,6.7,12.7,11.9,26.4,11.9,11.9,0,24.6-6.8,24.6-20.7C314.3,56.36531,303.3,53.56533,294.2,51.66532Z" style="fill-rule: evenodd;" stroke="none" fill="#ea0016" stroke-width="1px"></path><path id="logotype-c-5" data-name="logotype-c" d="M349.7,76.46532c-7,0-14.3-5.8-14.3-18.5,0-11.3,6.8-17.6,13.9-17.6,5.6,0,8.9,2.6,11.5,7.1l12.8-8.5c-6.4-9.7-14-13.8-24.5-13.8-19.2,0-29.6,14.9-29.6,32.9,0,18.9,11.5,33.7,29.4,33.7,12.6,0,18.6-4.4,25.1-13.8l-12.9-8.7C358.5,73.46532,355.7,76.46532,349.7,76.46532Z" style="fill-rule: evenodd;" stroke="none" fill="#ea0016" stroke-width="1px"></path><polygon id="logotype-h-5" data-name="logotype-h" points="416.3 26.665 416.3 50.065 397 50.065 397 26.665 380.3 26.665 380.3 90.265 397 90.265 397 65.165 416.3 65.165 416.3 90.265 433 90.265 433 26.665 416.3 26.665" style="fill-rule: evenodd;" stroke="none" fill="#ea0016" stroke-width="1px"></polygon></g><g id="symbol-5" data-name="symbol" stroke="none" fill="#000000" stroke-width="1px"><path d="M48.2,10.46532a48.2,48.2,0,1,0,48.2,48.2A48.22579,48.22579,0,0,0,48.2,10.46532Zm0,91.9a43.7,43.7,0,1,1,43.7-43.7A43.74469,43.74469,0,0,1,48.2,102.36531Z" style="" stroke="none" fill="#606061" stroke-width="1px"></path><path d="M68.1,28.56533H64.8v16.5H31.7v-16.5H28.3a36.0633,36.0633,0,0,0,0,60.2h3.4v-16.5H64.8v16.5h3.3a36.0633,36.0633,0,0,0,0-60.2Zm-41,53.7a31.5717,31.5717,0,0,1,0-47.2Zm37.7-14.6H31.7v-18.1H64.8Zm4.5,14.5v-10h0v-27.1h0v-10a31.65957,31.65957,0,0,1,0,47.1Z" style="" stroke="none" fill="#606061" stroke-width="1px"></path></g></g></g> </g></svg>