<svg id="Layer_1" data-name="Layer 1" xmlns="http://www.w3.org/2000/svg" viewBox="0 0 1924.88 442.21"><defs><style>.cls-1{fill:#fff;}</style></defs><path class="cls-1" d="M75,39.85H516.68V481.27c-4.3.78-422.34,1.13-441.66.33ZM358,447.77a6.4,6.4,0,0,0,1.87,0c4.73-1.84,9.55-3.53,14.15-5.67,9.26-4.31,18.48-8.73,27.06-14.32a286.18,286.18,0,0,0,23.39-17.14,73.6,73.6,0,0,0,7.09-7c2.15-2.29,4.79-4,6.78-6.57,3-3.87,7-6.83,9.84-10.94,2.35-3.43,5.2-6.51,7.72-9.82a144.87,144.87,0,0,0,11.89-18.58Q473.47,347.1,478.3,336c3.43-7.82,5.5-16.05,8.49-24,.76-2,.06-4.86,1.23-6.44,1.51-2.07.14-4.35,1.61-6.44,1.11-1.58.22-4.24,1.06-6.5a22.61,22.61,0,0,0,1-6.53c.27-6.54,1.61-13,1.23-19.59-.37-6.31-.08-12.66-.08-19,0-1,.4-2.3-.07-2.95-1.45-2-.67-4.09-.94-6.14s-.71-4-1-6.08c-.38-2.86-.27-5.86-1.15-8.54-.63-1.91-.32-3.9-1-5.59-2.14-5.53-2.9-11.41-4.8-17-2.53-7.46-5.19-14.87-8.31-22.06-2.76-6.37-6.38-12.38-9.8-18.44A220.7,220.7,0,0,0,450,137.33c-3.8-5.08-8.39-9.46-12.52-14.25a101.88,101.88,0,0,0-14.75-13.78c-4.47-3.48-9.13-6.8-13.69-10.18a156.38,156.38,0,0,0-17.51-11,162.76,162.76,0,0,0-22.54-10.74c-3.56-1.31-7.17-2.47-11-3.78ZM98.6,271.77c.81,3.15,0,5.92,1.06,8.91s.39,6.3,1,9.55c.71,3.87,1.59,7.76,2,11.65.77,6.45,2.81,12.54,4.61,18.64a205.56,205.56,0,0,0,8.59,22.41,153.64,153.64,0,0,0,12.22,22.4c6.31,9.79,13.12,19.33,21.44,27.62,9.37,9.35,18.54,18.86,29.41,26.63a219.86,219.86,0,0,0,23.36,14.93,151.57,151.57,0,0,0,16.26,7.75c3.55,1.4,7.14,2.88,10.7,4.34a87,87,0,0,0,11.1,3.42c6.8,1.76,13.36,4.42,20.5,4.75,4.85,2.16,10.24,1.47,15.29,2.86,2.78.76,6,0,8.95.17s6.06.95,9.08.9c5.53-.1,11.06-.83,16.58-.86,4.08,0,8-1.81,12.08-1.08.16,0,.43.06.48,0,1.08-1.59,2.72-.73,4.1-1a25.92,25.92,0,0,1,4.59-.92,9.57,9.57,0,0,0,5.81-1.63c.25-5.72-1.77-11.32-1-17.08a1,1,0,0,0,0-.49c-1.83-4.58-1.73-9.55-2.78-14.3-1.11-5-2.92-9.87-3.91-14.89-.71-3.57-2.32-6.75-3.45-10.1-1.76-5.23-4.45-10.14-6.87-15.13-1.55-3.2-3.25-6.33-5-9.43-1.31-2.3-2.73-4.56-4.23-6.74-3.6-5.22-7.11-10.49-11.19-15.4-3.73-4.48-7.18-9.19-11.43-13.21-5.25-5-9.93-10.51-15.75-14.95-3.43-2.62-6.77-5.39-10.15-8.09a183.84,183.84,0,0,0-25.18-16.53A234.77,234.77,0,0,0,214.41,286a35.3,35.3,0,0,0-5.56-2.24c-7.25-1.72-14-5.05-21.47-6.21-3.58-.55-7.14-2.08-10.79-2.77s-7.45-1.36-11.17-1.92a111.88,111.88,0,0,0-16.06-1.08C132.7,271.69,116,271.77,98.6,271.77Zm.17-21h25.3c6.17,0,12.34.13,18.5,0s12.05-.63,18.08-1c.49,0,1.21.21,1.46,0,1.52-1.49,3.4-.73,5.12-1s3.38-.72,5.08-1c2.69-.4,5.62-.14,8-1.17,4.2-1.8,8.76-2,13-3.65s8.56-2.58,12.79-4.11c6.1-2.19,12.18-4.43,18-7.14a178.23,178.23,0,0,0,24.42-13.37c7.25-4.86,14.53-9.74,21.08-15.68,5.54-5,11.53-9.56,16.74-15,2.36-2.45,4.49-5.13,6.73-7.69,2.47-2.82,5.34-5.37,7.34-8.48,3.82-5.94,8.65-11.17,11.81-17.58,1.86-3.75,4.82-7,6.47-10.82s4.71-7.37,5.13-11.87c4.27-7.45,6.07-15.82,8.78-23.85.79-2.36.59-5.1,1.57-7.35,1.11-2.56,0-5.47,1.64-7.81-.2-4.74,1.74-9.31,1-14.09a3.08,3.08,0,0,1,.09-1.94c1.88-2.76.52-5.62.78-8.23-3.42-.28-6.31-1.75-9.43-1.27-2-2-4.62-.09-6.55-1.06s-4.08-.69-6.13-.91c-2.21-.25-4.39-.88-6.59-.94-5.33-.14-10.66-.17-16,0s-10.74-.61-16.11.85c-2.71.73-5.7.53-8.58.95-5.95.86-11.87,1.83-17.72,3.21-4.37,1-8.63,2.51-13,3.61-3.17.8-6,2.39-9.14,3.26a77.7,77.7,0,0,0-13.26,5.39c-11.46,5.66-23,11.23-32.86,19.65-6.52,3.28-11.75,8.35-17,13.19-9.58,8.88-18.65,18.26-26.4,28.94a250.33,250.33,0,0,0-15.16,23.25,199.3,199.3,0,0,0-13.66,29.83c-1.55,4.19-3.53,8.36-4.22,12.71-1.09,6.85-3.77,13.28-4.34,20.3-.36,4.36-1.85,8.68-1.8,13.18,0,.67.28,1.57,0,2C98.09,246.15,99.16,248.4,98.77,250.77Z" transform="translate(-75.02 -39.85)"/><path class="cls-1" d="M762.73,148.77v35.8H665.44c-.83,4.25-1.07,36.88-.41,52h91.58v35.05H664.85v4.5c0,7.67.17,15.34-.05,23-.18,5.85,1.27,11.38,3.17,16.71a24.24,24.24,0,0,0,8.54,10.86c3.67,2.77,8.78,3.92,13.86,5.19,3.93,1,7.75.8,11.62.81,21.16.07,42.31,0,63.66,0v35h-5c-23.5,0-47,0-70.5,0-3,0-6-.76-9.08-.91s-5.83-1.23-8.72-1.85a62,62,0,0,1-14-5,49.4,49.4,0,0,1-19.15-16.29c-4.15-5.84-7.49-14.79-9.46-22.58-1.61-6.36-1.31-12.81-2.08-19.18-1.48-12.21-.56-24.4-.79-36.6s0-24.66,0-37V191.77c0-12.34,0-24.67,0-37,0-5.85-.3-6,5.9-6q62.74.07,125.49,0Z" transform="translate(-75.02 -39.85)"/><path class="cls-1" d="M1005.78,343.34c-2.12,2.12-4.25,4.23-6.36,6.36-4.3,4.32-9.57,7.31-14.6,10.61A63.65,63.65,0,0,1,967,368.09a51.46,51.46,0,0,1-5.31,1.63c-3,.51-6.18.3-9.05,1.14-4.7,1.38-9.42.85-14.12.84a60.47,60.47,0,0,1-12.12-.71c-3.85-.77-7.77-1.21-11.66-2.08a82,82,0,0,1-17.51-6.09,74.56,74.56,0,0,1-24.6-18.91,53.14,53.14,0,0,1-7.55-11.33c-2.5-5.13-5.26-10.15-6.66-15.73-.61-2.43-1.25-4.84-1.71-7.32a96.07,96.07,0,0,1-1.85-12.69,132.15,132.15,0,0,1,0-13.5,93.87,93.87,0,0,1,5.53-27.69A83.33,83.33,0,0,1,872,234.92a58.44,58.44,0,0,1,10.45-11c6.32-5,12.73-10.21,20.92-12.14,3.84-2.89,8.64-3.31,13-4.82,3-1,6.45-.41,9.51-1.23,6-1.61,12.09-.87,18.11-.81A62.75,62.75,0,0,1,958.57,207c6.76,1.69,13,4.63,19.32,7.66a42.14,42.14,0,0,1,9.34,6.23,84.85,84.85,0,0,1,12.7,13.12,88.81,88.81,0,0,1,8.05,13.18c1.46,2.92,2.41,6,3.83,8.92s2,6.17,2.92,9.27.77,6.36,1.13,9.55c.3,2.7.59,5.4,1,8.08.76,4.95-1.73,9.58-.87,14.72H898.19c-1.33,0-2.66-.06-4,0s-2.12.93-2,1.86a17,17,0,0,1,.57,3.74c-.24,3.31,1.37,6.17,2.38,9.05,2.85,8.16,8.2,14.48,15.41,19.4,4.85,3.31,10.53,4.41,15.68,6.85,3.11-.45,6,1.15,9.05,1.1,2.66,0,5.33,0,8,0,1.5,0,3.15.41,4.47-.08,3.58-1.33,7.48-.95,11-2.37a42.3,42.3,0,0,0,4.75-1.81c3.26-1.79,6.76-3.22,9.67-5.62,3.23-2.68,6.42-5.42,9.72-8.2Zm-113.1-71.75h85.17a32.6,32.6,0,0,0,0-4.1c-.14-1.05-.8-2-.93-3.09-.87-7.27-5.49-12.43-10.3-17.17-2.92-2.87-6.87-4.75-10.73-6.53-4.6-2.12-12.62-3.58-15.86-4-4.46-.54-8.73.76-13.07,1.19-2.81.27-5.54,1.87-8.31,2.74-8.23,2.6-13.83,8.51-19.54,14.39-1.08,3.39-3.85,6-4.3,9.74C894.51,267,893.45,269.17,892.68,271.59Z" transform="translate(-75.02 -39.85)"/><path class="cls-1" d="M1586.85,289.15c0,2.33,0,4.67,0,7,.07,5.13-1.61,9.93-2.65,14.87a61.35,61.35,0,0,1-6.44,16.83c-2.87,5.25-5.94,10.45-10.23,14.77-1.12,1.12-2.44,2-3,3.78-.27.94-1.55,1.63-2.44,2.35a23,23,0,0,0-2.32,1.58c-5.65,6-12.68,9.87-19.95,13.41-3,1.48-6.2,2.71-9.32,4a89.05,89.05,0,0,1-9.29,2.88c-3,.91-6.47.36-9.51,1.22-4.86,1.39-9.75,1-14.6.84a84.76,84.76,0,0,1-29.86-6.25,83,83,0,0,1-20.18-11.71,107.7,107.7,0,0,1-13.86-13.29c-4.33-4.88-7.55-10.68-10.44-16.6a59.73,59.73,0,0,1-6-18c-2-2.39-.78-5.48-1.78-8.24s-.22-6.25-.22-9.42c0-3-.52-6.11.11-9,1.27-5.78,1.73-11.71,3.8-17.38a104.42,104.42,0,0,1,9.89-20.4c4-6.27,9.15-11.48,14.57-16.4a73.12,73.12,0,0,1,18.41-12.19,122.31,122.31,0,0,1,20.08-7c3.22-.87,6.7-.71,10-1.11,1.87-.23,3.71-.79,5.59-.95s4,.24,6-.11c2.1-.38,3.64,1.18,5.59,1.09s4.17-.52,6,.08c4.89,1.63,10,2.08,14.9,3.81a100.34,100.34,0,0,1,20,9.57c7.42,4.66,13.44,11,19.23,17.38a64.88,64.88,0,0,1,9,13.73,94,94,0,0,1,7.82,21.74C1587.14,277.68,1587,283.43,1586.85,289.15Zm-37.15-.25c.9-4.35,0-8.79-1.26-12.84-2.19-6.93-5.11-13.53-9.9-19.42-4.26-5.24-9.45-8.63-15-12-4.24-2.52-9-3.3-13.51-4.77-3-1-6.47.5-9.53-1.14-1.09,1.4-2.66,1-4.08,1-5.52-.31-10.51,1.74-15.52,3.55-8.39,3-14.21,9.54-19.74,16-3.12,3.64-4.92,8.45-6.4,13.28a66.93,66.93,0,0,0-2.85,14.78,28.68,28.68,0,0,0,0,5c.17,1.71.88,3.38.9,5.08a22.71,22.71,0,0,0,1.65,7.33c3.23,9,7.89,16.86,15.67,23,8.91,7,18.91,10.24,29.93,11,2,.13,4.09.58,6.2-.67,1.85-1.09,4.54.55,6.45-1.26,4.62.07,8.18-2.74,12.12-4.49a35,35,0,0,0,11.11-8.13c1.77-1.86,3.32-3.94,5-5.92a36,36,0,0,0,6.79-13.64C1549.05,299.57,1550.62,294.38,1549.7,288.9Z" transform="translate(-75.02 -39.85)"/><path class="cls-1" d="M1677,209.86h37.81v4.92c0,29.66-.12,59.31.1,89,0,5.92.94,12,4,17.3,2.09,3.7,4.13,7.47,8.11,9.78,3.51,2,6.79,4.15,10.93,5.09,4.55,1,9,2.22,13.7,1.8a52.5,52.5,0,0,0,15.08-3.36c4.33-1.75,7.32-5.25,10.47-8.48,1.26-1.29,5.45-9.26,5.63-10.65a79.75,79.75,0,0,0,1-9.58c.07-31.81,0-63.63,0-95.66h38v4.93q0,46,0,92a67.88,67.88,0,0,1-1.8,14.71,65.09,65.09,0,0,1-3.25,11.19,60.66,60.66,0,0,1-8.27,14.52,50.26,50.26,0,0,1-10.31,9.78,76.2,76.2,0,0,1-10.76,6.68c-5.89,2.89-12.13,4.52-18.47,6.15-10,2.59-20.13,1.49-30.2,1.85-5.37-1.69-11-1.82-16.45-3.69a108.78,108.78,0,0,1-12.88-5.16,54.84,54.84,0,0,1-17.72-13.84,59.22,59.22,0,0,1-11.88-22.55,100.76,100.76,0,0,1-2.16-12.14c-1.71-11.36-.57-22.73-.81-34.09s-.06-23-.06-34.49,0-23,0-34.49A12.07,12.07,0,0,1,1677,209.86Z" transform="translate(-75.02 -39.85)"/><path class="cls-1" d="M1845,210h40.82l34.43,47.28c3.92-6.07,8.19-11.31,11.85-17,3.08-4.82,7.4-8.86,10.4-13.73,3.57-5.81,8.48-10.62,11.44-16.59h41.3c-2.45,4.11-5.36,7.36-7.87,10.89s-4.83,7-7.45,10.4c-2.72,3.51-5.29,7.1-7.8,10.76s-5.6,6.63-8,10.21a113.88,113.88,0,0,1-7.78,10.79c-2.76,3.23-5,6.9-7.48,10.36s-5.21,7.17-7.86,10.83c2.61,3.7,5.2,7.4,7.83,11.08,3.4,4.76,6.83,9.5,10.24,14.25l15.2,21.19c6,8.35,12,16.67,18,25,2.64,3.7,5.14,7.51,7.66,11.21a2.91,2.91,0,0,1-.23.55c-.1.13-.24.31-.36.31-13,0-26,0-39.06,0-13.46-18.3-26.43-37-40.26-55.69-4.61,6.65-8.73,12.9-13.19,18.9-3,4.07-6.11,8.1-9,12.28s-6,7.84-8.77,11.88c-2.54,3.63-4.78,7.47-7.78,10.77a6.29,6.29,0,0,0-.77,1.77h-40.74c5-6.8,9.55-13.56,14.55-20,4.53-5.82,8.31-12.22,12.59-18.24,4-5.56,8.22-10.91,12.21-16.45,3.68-5.11,7.13-10.38,10.78-15.52,2.21-3.11,4.62-6.08,6.9-9.14.55-.75.9-1.64,1.44-2.4a2.5,2.5,0,0,0-.08-3.45c-1.77-2.22-3.26-4.66-5-6.91-5.34-6.88-10.51-13.87-15.32-21.14-2.2-3.31-4.9-6.29-7.27-9.5-3.94-5.35-7.78-10.77-11.69-16.14-2-2.7-4-5.34-6-8C1850.24,217.21,1847.66,213.64,1845,210Z" transform="translate(-75.02 -39.85)"/><path class="cls-1" d="M1186,231.63l-23.9,23.89c-3.35-3.26-6.84-6.76-11.23-9.43-3.76-2.3-11.69-5.22-15.88-6.35-6.81-1.84-13.76-1.14-20.58-.77-4.51.24-9,2-13.25,4a44.63,44.63,0,0,0-16,12,46.38,46.38,0,0,0-9.33,17.1c-1,3.81-2.13,7.63-2,11.66.08,3.33,0,6.66,0,10,.08,7.57,2.86,14.39,6.45,20.8a47.42,47.42,0,0,0,9,11.29c4.68,4.4,10.59,6.63,15.94,9.85,4.33,0,8.2,2.56,12.65,2.11a70.93,70.93,0,0,1,8-.05,44.44,44.44,0,0,0,27.27-8.93c3.29-2.38,6.24-5.21,9.37-7.86,3.8,3.8,7.84,7.77,11.79,11.82s8.27,7.54,11.31,12.47c-5.78,6.78-13.08,11.8-20.67,16.59-4.53,2.86-9.59,4.26-14.35,6.44-3.06,1.4-6.63,1.7-10,2.46a40.75,40.75,0,0,1-5.09,1c-1.81.17-3.86-.47-5.44.16a16.5,16.5,0,0,1-6.63.86c-3-.06-6,.14-9.13-.86-2.66-.86-5.84.59-8.53-1.12-6.78-.55-12.9-3.28-19.2-5.53-4.6-1.65-8.59-4.25-12.81-6.5a28.49,28.49,0,0,1-4.67-3.18c-6.48-5.4-12.61-11-17.49-18.1-3.12-4.54-6.46-9-8.45-14-2.38-6-5.41-12-5.39-18.76-2-2.34-.59-5.29-1.35-7.92a26.4,26.4,0,0,1-.59-8.25c.11-2.86-.47-5.7.79-8.64,1-2.39-.67-5.51,1.15-8,.37-6.52,3-12.3,5.51-18.21,2.71-6.43,6.66-12,10.61-17.62a56.43,56.43,0,0,1,8.61-9.36A90.76,90.76,0,0,1,1077.13,216c6.54-3.9,13.71-6.29,20.8-8.91,1.81-.67,4,.74,5.45-1.31l9.08-1c3-.34,6-.8,9.08-1a22.67,22.67,0,0,1,8.11.85c2.55.79,5.54-.7,8,1.11,5.5-.19,10.39,2,15.44,3.73a73.22,73.22,0,0,1,17.78,8.94A71.09,71.09,0,0,1,1186,231.63Z" transform="translate(-75.02 -39.85)"/><path class="cls-1" d="M1209.85,148.85h36.84v60.77h35v34h-34.85v4.74c0,15.49.17,31-.1,46.47-.08,4.94.93,9.71,1.25,14.57.17,2.64,1.72,5.24,2.88,7.75,3.24,7,8.8,11.36,16.12,13.59,4.76,1.45,9.56,2.53,14.71,1.94v35.06c-4.19,0-8.5.37-12.73-.08-8.56-.91-17-2.43-25-5.91a57.69,57.69,0,0,1-16.83-11.24,34.77,34.77,0,0,1-6.68-8.73c-1.67-3.12-4.52-5.69-4.63-9.57-3.41-5.85-3.79-12.47-5.14-18.9-1.07-5.1-.77-10.09-.78-15.11C1209.82,248.59,1209.85,198.94,1209.85,148.85Z" transform="translate(-75.02 -39.85)"/><path class="cls-1" d="M829.68,367.66H791.85v-4.37q0-104.46,0-208.9c0-5.56.08-5.7,5.78-5.65,10.64.1,21.28,0,32.08,0Z" transform="translate(-75.02 -39.85)"/><path class="cls-1" d="M1647.69,367.68H1611V149.27c3.8-.72,23.38-.91,36.67-.33Z" transform="translate(-75.02 -39.85)"/><path class="cls-1" d="M1350.85,367.68H1313V209.86h37.82v21.76c2.64-5.66,6.87-9.87,11.39-13.55a51,51,0,0,1,19.06-9.43c7.53-2.07,15.08-1.87,22.69-1.83a23.41,23.41,0,0,1,4.7,1v35.64a4.82,4.82,0,0,1-3.91-.2,8.07,8.07,0,0,0-3.28-.48c-4.5,0-9-.22-13.49,0-9.57.51-18.2,3.44-25.16,10.43-3.29,3.31-6.39,6.66-8.14,11.13-2,5.14-3.89,10.24-3.88,15.9C1350.88,309.25,1350.85,338.23,1350.85,367.68Z" transform="translate(-75.02 -39.85)"/></svg>