<svg id="Vrstva_1" data-name="Vrstva 1" xmlns="http://www.w3.org/2000/svg" viewBox="0 0 1678.06 373.27"><defs><style>.cls-1{fill:#ff7200;}.cls-2{fill:#fff;}</style></defs><path class="cls-1" d="M824.12,1.24q180.43,0,360.87,0a53.37,53.37,0,0,1,25.79,6.8,44,44,0,0,1,16.58,16.86A47.78,47.78,0,0,1,1233,50.57c-.21,5.39-1.56,10.63-2.73,15.86q-34.65,154-69.32,308.06H801.34a54.63,54.63,0,0,1-24.78-5.57,44,44,0,0,1-18.43-17.29A47.14,47.14,0,0,1,752,326.08a66.21,66.21,0,0,1,2-13.51q35-155.67,70.06-311.33m94.78,68c-12.93,2.26-25.52,7.31-35.76,15.62-11.87,9.49-20.34,22.51-26.76,36.13-8.24,17.61-13.54,36.4-18.06,55.26-4.63,20.2-9,40.57-10.39,61.3-.56,10.21-.39,20.65,2.42,30.56a39.12,39.12,0,0,0,11.25,18.68c5.78,5.21,13.14,8.34,20.63,10.2a116.76,116.76,0,0,0,26.42,2.89,115.37,115.37,0,0,0,28.75-3,79.05,79.05,0,0,0,32.86-16.36,86.36,86.36,0,0,0,23.56-33c5.92-13.43,8.41-28,11.67-42.19H929.05c-2.32,10-4.69,20-7.75,29.85-1.88,5.8-3.91,11.65-7.23,16.82-2.27,3.56-5.57,6.72-9.77,7.79a19.64,19.64,0,0,1-11.06-.34,9.48,9.48,0,0,1-5.76-6.42c-1.51-4.9-1.19-10.12-.81-15.17,1-10.34,3-20.53,5.08-30.69,3.91-18.66,8-37.29,12.68-55.78,2.35-9.08,4.79-18.18,8.39-26.86,2.15-5,4.71-10,8.9-13.67s10.07-4.6,15.42-3.77a8.55,8.55,0,0,1,6.43,4.44c1.76,3.54,1.71,7.64,1.5,11.49-.79,9.88-3.49,19.46-5.44,29.15h56.43c2.16-10.59,5.08-21.09,5.75-31.93.45-7.25.17-14.66-1.91-21.68a38.08,38.08,0,0,0-9.64-16.62A44.76,44.76,0,0,0,973,71.57a88,88,0,0,0-24.57-4.18A140.83,140.83,0,0,0,918.9,69.2m114.83,2.62q-5.38,23.81-10.79,47.61,32.73,0,65.46,0L988.6,252.78a8.11,8.11,0,0,0-1,3.07q-4.27,19.74-8.59,39.47h138.19q5.27-23.82,10.5-47.62h-71.42q35.31-46.63,70.65-93.23c10.23-13.59,20.61-27.07,30.76-40.71,3.28-14,6.31-28,9.51-41.95q-66.75,0-133.51,0m187.69,141a19.46,19.46,0,1,1-15.79,16,19.54,19.54,0,0,1,15.79-16Z" transform="translate(-12.64 -1.22)"/><path class="cls-2" d="M172.2,65.94q23.67,0,47.33,0l-38.88,187.3q-23.65,0-47.31,0,19.42-93.64,38.86-187.29m192,0q23.66,0,47.31,0c-6.54,31.43-13.23,62.84-19.68,94.29a13,13,0,0,0,2.61-3.05q17.21-23,34.4-46,32.63,0,65.25,0,4.35-20.81,8.67-41.62h47.31q-4.32,20.81-8.66,41.62h18.65q-3.29,15.9-6.58,31.79H534.86q-6.87,32.63-13.7,65.26c-.61,3.07-1.63,6.35-.47,9.43.92,2.4,3.59,3.46,6,3.73,3.41.36,6.86.12,10.29.19q-3.13,15.74-6.31,31.47a228.89,228.89,0,0,1-29.73,1.52A79,79,0,0,1,484.38,253c-3.91-.93-7.87-2.58-10.5-5.73s-3.67-7.54-3.85-11.67c-.33-7.93,1.45-15.73,3.06-23.44q7.23-34.59,14.45-69.17c-5.25,0-10.51,0-15.76,0q3.12-15.16,6.27-30.35-25.12,28.46-50.24,56.93,13.51,41.85,27.05,83.7c-16.81,0-33.62,0-50.43,0-4.71-16.3-9.28-32.63-13.95-48.94-3.27,3.83-6.51,7.69-9.79,11.51-.95.93-1,2.32-1.24,3.53-2.25,11.29-4.54,22.58-6.8,33.87q-23.65,0-47.31,0,19.43-93.66,38.87-187.31m925.47,40.49a117.43,117.43,0,0,1,27.45-1.91c9.18.45,18.75,2,26.47,7.35a28.75,28.75,0,0,1,11.52,17.34c2.69,11.35,1.08,23.18-1.09,34.48h-42.58c1.23-6.41,2.47-12.93,2.06-19.49-.22-2.67-.63-5.73-2.92-7.46-2.76-2-6.49-2.18-9.75-1.58-4.7.93-7.89,5-9.95,9-3.72,7.41-5.67,15.53-7.64,23.54-2.12,9.54-4.24,19.08-5.81,28.72-.86,5.9-1.76,11.88-1.11,17.85.34,2.94,1.33,6.23,4.06,7.79s6.08,1.31,9,.67c4.25-1,7.44-4.4,9.41-8.13,3.91-7.39,5.16-15.75,6.83-23.84h42.58a141.26,141.26,0,0,1-7.26,25.28,65.52,65.52,0,0,1-10,17.13,51.85,51.85,0,0,1-18.13,13.93,73.09,73.09,0,0,1-25.61,6.23,123.3,123.3,0,0,1-24-.66,55.63,55.63,0,0,1-14-3.66,29.9,29.9,0,0,0-19.55-46.55,202,202,0,0,1,5.58-31.46c3.51-13.54,8.26-27,16.07-38.69a61.51,61.51,0,0,1,17.27-17.5,60.16,60.16,0,0,1,21-8.44m137.17-1.66a103.3,103.3,0,0,1,27.59,1.32c7.85,1.59,15.73,4.72,21.33,10.64,5.23,5.43,7.86,12.86,8.71,20.24,1.22,10.6-.17,21.28-2,31.74-3.15,17.3-6.92,34.86-15.39,50.45-6.09,11.32-15.27,21.18-26.85,26.94a72.66,72.66,0,0,1-27.24,7.25,106.71,106.71,0,0,1-25.81-1c-8-1.42-16.14-4.27-22.11-10-5.48-5.17-8.39-12.51-9.38-19.88-1.37-10.2-.14-20.52,1.5-30.62,3.11-17.55,6.73-35.35,15-51.31,5.91-11.54,14.88-21.75,26.43-27.84a72,72,0,0,1,28.18-7.88m0,30.27a11.48,11.48,0,0,0-7.27,4.42c-2.76,3.47-4.36,7.69-5.79,11.84-3.4,10.41-5.41,21.19-7.63,31.89-1.77,8.82-3.61,17.67-4.09,26.67-.07,3.61-.15,7.61,2,10.7,1.94,2.63,5.57,2.88,8.56,2.6a11.25,11.25,0,0,0,8.2-4.66c3-4,4.54-8.79,6-13.48,2.67-8.84,4.63-17.87,6.54-26.9,1.91-10.2,4.11-20.4,4.68-30.77,0-3.56.14-7.66-2.4-10.46-2.31-2.24-5.87-2.22-8.85-1.85M1572,107.67c8-3.24,16.78-3.8,25.27-2.89,5.16.6,10.44,2,14.54,5.36,4.87,3.9,7.17,10,8.33,16a46.38,46.38,0,0,1,42.2-21.71c6.57.21,13.45,1.19,19.06,4.87a20,20,0,0,1,8.32,12.1c1.86,7.47.82,15.29-.72,22.72q-10.9,53-21.83,106c-15.77,0-31.54,0-47.31,0q9.69-46.81,19.41-93.63c.73-4,1.51-8.19.28-12.15a6.57,6.57,0,0,0-5.24-4.4c-4.32-.81-9.32-.11-12.46,3.21s-4.46,8-5.45,12.38q-9.83,47.29-19.63,94.59h-47.3q9.66-46.63,19.33-93.26c.79-4.34,1.78-9,.08-13.27-1.16-2.74-4.25-3.89-7-4-3.88-.28-8.09.77-10.7,3.81-3,3.47-4.27,8.06-5.24,12.47q-9.77,47.08-19.52,94.2c-15.78,0-31.55,0-47.33,0L1508.49,108q22.86,0,45.73,0c-1.19,5.88-2.58,11.73-3.65,17.64a28.47,28.47,0,0,0,3-3.79A44.15,44.15,0,0,1,1572,107.67m-1510.33,5a80.42,80.42,0,0,1,25.68-4.94A94.69,94.69,0,0,1,111,109.29c7.35,1.58,14.64,4.85,19.56,10.7,5.5,6.43,7.6,15,8.1,23.29,1,15.94-2.82,31.61-6.21,47.06-23.39,0-46.77,0-70.16,0-1.34,6.95-2.74,13.89-4.1,20.84-.64,3.67-1,7.58.34,11.15a8.17,8.17,0,0,0,5.33,5.12,13.7,13.7,0,0,0,14.44-4.56c4.34-5.6,6-12.69,7.62-19.45h42.58c-3,13.77-8.66,27.56-19.07,37.42A54.16,54.16,0,0,1,88.5,253.07C79,256.15,68.84,257,58.85,256.81c-8.51-.21-17.16-1.07-25.17-4.13a30.77,30.77,0,0,1-14.93-11.41c-4.51-6.69-5.93-14.92-6.1-22.85C12.49,206.14,14.38,194,16.93,182c2.71-13.06,6.3-26.06,12.27-38a70.55,70.55,0,0,1,13.72-19.28,55.19,55.19,0,0,1,18.74-12m21.06,24.19c-4.09.84-7.28,4-9.12,7.63-3.23,6.25-4.32,13.29-5.77,20.1h26c1.21-6.27,3-12.54,2.71-19-.12-2.9-1.07-6.13-3.71-7.7-3-1.75-6.74-1.68-10.07-1m176.34-25.37A89.36,89.36,0,0,1,286,107.58c9,0,18.24.68,26.7,4a29.51,29.51,0,0,1,15,12.64c4.38,7.65,5.34,16.69,5.23,25.36-.19,13.81-3.42,27.3-6.36,40.72-23.39,0-46.78-.05-70.18,0-1.27,6.81-2.66,13.58-4,20.37-.71,3.81-1.08,7.87.26,11.58a8.16,8.16,0,0,0,5.3,5.13,13.69,13.69,0,0,0,14.48-4.57c4.32-5.6,6-12.67,7.6-19.43h42.59c-2.83,12.75-7.8,25.46-16.82,35.15A52.82,52.82,0,0,1,286,251.86c-8.92,3.46-18.53,4.78-28,4.95-9.13.11-18.4-.41-27.18-3.08-6.74-2-13.2-5.79-17.35-11.6-4.79-6.57-6.41-14.86-6.67-22.83a150,150,0,0,1,2.95-30.84c3.07-16,7-32.11,14.65-46.61a66.78,66.78,0,0,1,15.49-19.79,56.16,56.16,0,0,1,19.2-10.6m18.08,25.3a13.45,13.45,0,0,0-9.12,7.11c-3.49,6.38-4.59,13.67-6.1,20.69h26c1.19-6.13,2.9-12.26,2.73-18.55-.08-2.94-.88-6.23-3.47-8-2.94-1.88-6.68-1.84-10-1.29m350.23-22.65A36.11,36.11,0,0,1,647,107.55c2.72,0,5.45,0,8.18,0q-4.59,22.08-9.19,44.13a61.19,61.19,0,0,0-18-.68c-6.76.71-13.6,3.35-18.08,8.63-4.82,5.5-6.74,12.77-8,19.79q-7.63,36.9-15.27,73.81-23.65,0-47.32,0,14.71-71,29.43-142.07H614.5c-1.54,7.61-3.26,15.19-4.7,22.82a3.94,3.94,0,0,0,1-1.12,54.38,54.38,0,0,1,16.58-18.76m83.71-6.18a103.25,103.25,0,0,1,27.47,1.29c7.89,1.58,15.83,4.72,21.47,10.68,5.22,5.42,7.84,12.85,8.7,20.22,1.23,10.73-.21,21.53-2,32.1-3.08,16.85-6.77,33.92-14.84,49.18C746,232.61,737.21,242.52,726,248.51a71.41,71.41,0,0,1-27.71,7.92,108.89,108.89,0,0,1-25.64-.76c-8.3-1.35-16.74-4.12-23-10-5.52-5.09-8.52-12.35-9.57-19.68-1.44-10.07-.28-20.29,1.31-30.27,3-17.18,6.48-34.57,14.22-50.33,5.7-11.74,14.38-22.31,25.84-28.79,9-5.2,19.33-7.84,29.66-8.7m0,30.27a11.51,11.51,0,0,0-7.24,4.41c-2.76,3.48-4.36,7.69-5.79,11.84-3.52,10.76-5.54,21.91-7.86,33-1.7,8.6-3.48,17.24-3.88,26,0,3.48-.06,7.31,2,10.28,1.94,2.63,5.56,2.88,8.55,2.61a11.38,11.38,0,0,0,8.42-4.93c3.16-4.44,4.76-9.73,6.34-14.88a390.43,390.43,0,0,0,9-41.43c.92-6,1.94-12.05,1.66-18.14-.18-2.7-.73-5.79-3.06-7.5s-5.44-1.59-8.17-1.24Z" transform="translate(-12.64 -1.22)"/></svg>