<svg id="Layer_1" data-name="Layer 1" xmlns="http://www.w3.org/2000/svg" viewBox="0 0 1928.35 311.69"><defs><style>.cls-1{fill:#fff;}</style></defs><path class="cls-1" d="M375.26,418.12c-16.13-.57-31-2-45.66-5.46-2.62-.61-3.61-1.3-2.9-4.25,1.49-6.13,2.45-12.39,3.73-18.57.82-4,1-4.1,4.93-3.2a174.1,174.1,0,0,0,47.14,3.77,42.7,42.7,0,0,0,8.86-1.31,6.88,6.88,0,0,0,5.52-7.33c-.14-3.43-1.7-5.29-6.17-5.89-7.75-1-15.56-1.62-23.34-2.45-5.95-.63-11.93-1.15-17.85-2.08-14.79-2.33-21.11-11.86-17.91-26.49A29.25,29.25,0,0,1,339.13,331c1.55-1.68,2-2.65-.2-4.2-8.23-5.8-12.05-14.27-12.54-23.91A181.34,181.34,0,0,1,327,275c1.46-13.86,9.48-23.12,22.65-27.67,13.72-4.74,27.77-4.61,41.92-2.33a56.84,56.84,0,0,0,8.41.87c9.66.11,19.32,0,29,0,4.49,0,4.52.07,4.59,4.34,0,3-.18,6,.06,9s-1.1,4.17-3.64,5-6.17,1.45-7.47,3.39c-1,1.53.87,4.91,1.23,7.5a100.48,100.48,0,0,1,0,30.82c-1.78,10.47-7.8,18.2-17.12,23.29a54.72,54.72,0,0,1-21.93,6.19c-3.49.3-7,0-10.47.58a13.23,13.23,0,0,0-6.07,2.75,5.14,5.14,0,0,0,3.08,8.89c9.29.68,18.56,1.72,27.81,2.82A96.92,96.92,0,0,1,413.27,353c8.46,2.33,13.62,8.11,15.31,16.71a52.81,52.81,0,0,1-.35,22.28c-2.27,9.81-8,16.93-17.37,20.33a108.57,108.57,0,0,1-19.79,4.78C385.51,418,379.79,417.87,375.26,418.12Zm15.93-127.71h.1c0-2.33.12-4.66,0-7-.41-6.4-3.19-9.95-9.53-10.84a47.86,47.86,0,0,0-13.31.08c-5.54.81-8.55,4.21-9,9.77a101.77,101.77,0,0,0-.07,14.92c.34,5.36,2.8,8.06,8.09,9.39a31.26,31.26,0,0,0,16.73-.23c4.25-1.25,6.76-4.14,7-8.66C391.3,295.39,391.19,292.9,391.19,290.41Z" transform="translate(-122.64 -141.48)"/><path class="cls-1" d="M498.87,191.79v62.58c5-1.94,9.46-3.8,14-5.34,9.81-3.34,19.81-5.72,30.3-5.42,11.45.32,19.57,5.57,23,16.47a70.45,70.45,0,0,1,3.33,20c.38,27.45.19,54.9.18,82.36,0,4-.08,4.07-4.22,4.09q-13.74.06-27.48,0c-4,0-4-.08-4.05-4.18,0-24.12-.26-48.25.1-72.37.17-10.89-4.62-13.28-14.06-10.88-5.76,1.46-11.18,4.2-16.83,6.14-3.27,1.11-4.05,3.15-4,6.42.14,19.47.07,38.93.07,58.4,0,4.33-.09,8.66,0,13,.06,2.45-.65,3.58-3.36,3.55-9.66-.13-19.32-.1-29,0-2.4,0-3.34-.9-3.13-3.22.07-.82,0-1.66,0-2.49V202.16c0-5.56,0-5.55,5.59-6.32Z" transform="translate(-122.64 -141.48)"/><path class="cls-1" d="M957.72,415.1c4.63-16.11,9.19-32,13.93-48.51H965.1c-4.87,0-4.87,0-6.36-4.86q-10.34-33.57-20.68-67.16-6.81-22.15-13.55-44.32c-1.26-4.15-1.2-4.26,3-4.28,9.16-.05,18.33.19,27.48-.12,3.66-.12,4.82,1.39,5.71,4.54,6.93,24.63,14,49.21,21.06,73.8a13.74,13.74,0,0,0,2.6,5.4q4.65-16.18,9.31-32.37c4.49-15.65,9-31.28,13.38-47,.9-3.29,2.35-4.49,5.86-4.39,9,.27,18,.07,27,.1,4.59,0,4.64.08,3.28,4.41q-9.23,29.49-18.5,59L992.79,410.59c-1.84,5.86-1.21,4.8-6.32,4.85-8.66.09-17.32,0-26,0A26.76,26.76,0,0,1,957.72,415.1Z" transform="translate(-122.64 -141.48)"/><path class="cls-1" d="M1210.63,318.78c-9.33,0-18.65,0-28,0-4.06,0-4.18.09-4,4.2a38.27,38.27,0,0,0,1,7.38,10.31,10.31,0,0,0,7.11,7.72,29.34,29.34,0,0,0,7.31,1.45,125.5,125.5,0,0,0,38.6-3.71c4.13-1,4.62-1,5.22,3.13.92,6.4,2.44,12.72,3.68,19.08.35,1.82.78,3.58-1.82,4.33-21.86,6.33-44,9.95-66.39,3.67-17.79-5-28.07-17.42-29.47-35.57a336.49,336.49,0,0,1-.17-47.31c1.35-20.8,13.15-33.33,33.59-37.88A79.34,79.34,0,0,1,1210,245c19,3.73,30.53,16,32.39,35.46,1.12,11.72.73,23.58,1.13,35.37.1,3.08-1.78,3-3.88,3Q1225.12,318.76,1210.63,318.78Zm-16.83-26.67h8c8.74,0,8.77,0,7.73-8.88-.48-4.12-1.89-7.89-5.9-9.77a19.78,19.78,0,0,0-18.68.47c-5.67,3.14-6.38,8.77-6.43,14.68,0,3,1.25,3.63,3.85,3.53C1186.15,292,1190,292.11,1193.8,292.11Z" transform="translate(-122.64 -141.48)"/><path class="cls-1" d="M122.71,284V209.12a31.24,31.24,0,0,0,0-3.49c-.32-3,.76-4.1,3.91-4,8.15.2,16.31.06,24.47.06,2,0,4,.05,6,0a2.06,2.06,0,0,1,2.42,2.38c0,1.49,0,3,0,4.49V326.85c0,1.33.08,2.66,0,4-.12,2.22,1,2.93,3.06,2.8,1.32-.09,2.66,0,4,0h53.46c4.88,0,4.9,0,4.91,4.89,0,8.15-.1,16.3.06,24.45.06,2.88-1,3.67-3.74,3.66-31.48-.07-62.95,0-94.43-.06-4.07,0-4.13-.09-4.13-4.72Q122.69,322.92,122.71,284Z" transform="translate(-122.64 -141.48)"/><path class="cls-1" d="M755.77,242.85c10.73,1.26,21.46,2.43,32.16,3.83,4,.53,4,.83,3.51,4.88-.83,6.76-1.77,13.51-2.43,20.29-.25,2.54-.92,3.31-3.65,2.91-7.57-1.12-15.17-2.07-22.79-2.65a69,69,0,0,0-13.4.38c-4.46.53-6,2.47-6.44,6.3-.59,5.89.49,8.42,5.12,10s9.34,2.39,13.94,3.79c6.34,1.94,12.77,3.74,18.88,6.27,7.8,3.23,12.29,9.29,13.34,17.85,1.15,9.47,1.41,18.91-.75,28.25-2.41,10.37-8.82,17.27-18.9,20.77-9.11,3.17-18.56,3.83-28.06,3.39a160.29,160.29,0,0,1-35.4-5.68c-4.71-1.3-4.77-1.42-3.77-6.12,1.27-6,2.64-12,3.82-18,.54-2.76,1.37-3.8,4.57-2.88a114.22,114.22,0,0,0,31.53,4.41c1,0,2,0,3-.05,9-.36,12.51-5,10.42-13.82a7.26,7.26,0,0,0-5.32-5.43c-4.59-1.45-9.27-2.6-13.86-4.06-6-1.92-12.1-3.66-17.9-6.1-8.61-3.62-12.82-10.56-13.69-19.81-.8-8.49-.94-16.92.82-25.31,2.07-9.87,8.15-16.17,17.56-19.26C737,244,746.33,243.47,755.77,242.85Z" transform="translate(-122.64 -141.48)"/><path class="cls-1" d="M835.94,309.38q0-14.47,0-28.93c0-6.37.33-5.74-5.55-5.77-2.67,0-5.33-.07-8,0-1.88.05-2.68-.67-2.67-2.61q.09-11.71,0-23.44c0-1.9.72-2.72,2.63-2.69,3.16.06,6.33.05,9.49,0,4-.08,4-.11,4.06-4.25.05-6.65,0-13.3,0-20,0-3.74-.8-4.73,4.37-5.31,8.76-1,17.44-2.58,26.19-3.61,5.47-.64,5.2-1.68,5.21,4.36,0,8.15,0,16.3,0,24.44,0,4.25.06,4.29,4.45,4.32,6.16,0,12.31,0,18.47,0,4.32,0,4.39.09,4.15,4.54-.35,6.81-1,13.6-1.18,20.41-.1,3.12-1.39,3.92-4.3,3.83-6-.19-12,.06-18-.11-2.82-.08-3.7.88-3.69,3.69.11,18.13,0,36.25.09,54.37,0,5,2,7.08,7,7a90.5,90.5,0,0,0,12.37-1.26c2-.32,3.12-.05,3.44,2.18,1,6.9,2.08,13.8,3.15,20.69.35,2.19.14,3.66-2.56,4.41-12.54,3.48-25.14,4.88-37.94,1.72-12.39-3.05-19.55-10.44-20.48-23.2-.84-11.56-.18-23.24-.18-34.86Z" transform="translate(-122.64 -141.48)"/><path class="cls-1" d="M615.52,310.71q0-15.22,0-30.45c0-6.62-.29-5.51-5.82-5.58-2.66,0-5.33-.06-8,0-1.91,0-2.66-.8-2.65-2.69.05-7.66.08-15.31,0-23,0-2.49,1.15-3.15,3.36-3.09,3,.08,6,.06,9,0,4-.08,4.09-.11,4.12-4.29,0-6.82.12-13.65,0-20.47-.06-3,.63-4.38,4-4.74,8.77-1,17.47-2.46,26.21-3.63,5.3-.72,5.33-.63,5.35,4.54,0,8,0,16,0,24,0,4.57.07,4.61,4.78,4.63,6.33,0,12.66.08,19,0,2.62,0,4,.47,3.66,3.62q-1.1,10.92-1.57,21.89c-.12,2.75-1.27,3.32-3.67,3.28-6.16-.09-12.33.09-18.49-.07-2.81-.08-3.76.9-3.75,3.71.09,18,0,36,.09,53.92,0,5.62,2,7.57,7.64,7.46a93.49,93.49,0,0,0,11.89-1.27c2.09-.32,3,.13,3.3,2.36q1.46,10.62,3.29,21.19c.36,2.1-.23,3-2.24,3.57-12.85,3.73-25.81,5.1-38.93,1.75-12.47-3.18-19.67-11.74-20.19-24.67-.42-10.63-.08-21.29-.08-31.94Z" transform="translate(-122.64 -141.48)"/><path class="cls-1" d="M1108.53,279q0,41.14,0,82.29c0,5.29,0,5.3-5.48,5.3q-12.72,0-25.46,0c-4.78,0-4.81,0-4.81-5V236.91c0-12,0-23.94,0-35.91,0-4.18,0-4.28,4.29-4.9,9.37-1.36,18.79-2.48,28.14-4,3-.47,3.37.63,3.34,3.08-.07,8.65,0,17.29,0,25.94Z" transform="translate(-122.64 -141.48)"/><path class="cls-1" d="M256.84,306q0-27.42,0-54.84c0-5.15,0-5.17,5.18-5.18q12.48,0,25,0c5.26,0,5.29,0,5.3,5.09q0,14.45,0,28.91v80.27c0,1.33-.06,2.66,0,4,0,1.68-.79,2.36-2.44,2.36-10.14,0-20.29,0-30.44,0-2.47,0-2.54-1.5-2.54-3.28,0-6.49,0-13,0-19.45Z" transform="translate(-122.64 -141.48)"/><path class="cls-1" d="M1325.33,298.07q0,74.12,0,148.22c0,1.34-.09,2.67,0,4,.17,2.17-.77,2.86-2.9,2.88s-2.94-1-2.8-3c.08-1.16,0-2.32,0-3.49V148.24c0-1.33.06-2.66,0-4-.08-1.87.75-2.72,2.64-2.76,2-.06,3.15.68,3,2.87-.07,1.33,0,2.66,0,4Z" transform="translate(-122.64 -141.48)"/><path class="cls-1" d="M1399.77,344.56c6.4-1.81,12.72-3.76,19.14-5.33a19.36,19.36,0,0,1,7.9-.43c2.65.48,6,1.35,7.44,3.27,2.45,3.39,4.59,2.61,7.54,1.45,7-2.73,14.13-5,21.75-4.89S1474.85,342,1476,349.5a19.82,19.82,0,0,1,.21,3q0,22.95,0,45.9c0,3.73-.37,3.86-4,3.81-2.19,0-3-.95-2.93-3,0-1.32,0-2.66,0-4,0-13.63,0-27.27,0-40.91,0-7.95-2.09-10.17-10-8.83-6.47,1.09-12.68,3.72-19,5.68-2.68.83-2.66,3-2.66,5.26q0,19,0,37.92c0,1.33,0,2.66,0,4-.13,3.5-2.21,4.93-5.51,3.67a2.61,2.61,0,0,1-1.3-1.74,18.29,18.29,0,0,1-.1-3.48c0-14.47,0-28.93,0-43.4,0-6.88-1.91-9.14-8.7-7.95-7,1.23-13.67,3.85-20.46,6-2.51.79-2.14,3.05-2.14,5v38.42c0,1.16,0,2.33,0,3.49-.1,3.51-2.15,5-5.4,3.68a2.87,2.87,0,0,1-1.3-1.77,8.85,8.85,0,0,1-.1-2.48q0-26.94,0-53.88c0-3.78,1.78-5.43,4.53-3.9C1398.38,340.67,1398.84,342.85,1399.77,344.56Z" transform="translate(-122.64 -141.48)"/><path class="cls-1" d="M292.28,211.67c0,5.33-.07,10.65,0,16,0,2.33-.8,3.25-3.18,3.23q-14.49-.12-29,0c-2.22,0-3.35-.55-3.33-3.05.08-10.65.06-21.3,0-31.94,0-2.06.71-3,2.89-3,9.83.06,19.65.08,29.48,0,2.5,0,3.12,1.13,3.09,3.34C292.23,201.36,292.28,206.51,292.28,211.67Z" transform="translate(-122.64 -141.48)"/><path class="cls-1" d="M1588.37,211.41c2.21-.75,3.72-1.32,5.27-1.77,5.26-1.5,10.5-3.13,15.83-4.34a20.83,20.83,0,0,1,7.43-.16c5.77.86,8.74,4.12,9.47,9.92a49.8,49.8,0,0,1,.44,6c0,14.47,0,28.94.08,43.41,0,2.38-.09,4.21-3.37,4-3.61-.19-3.79-.07-3.8-4,0-11.81,0-23.61,0-35.42,0-2.83-.12-5.66,0-8.48.48-9.21-3.85-10-10.39-8.76-5.83,1.07-11.44,3.35-17.15,5.1-3,.91-3.92,2.88-3.89,6,.15,13.8.08,27.61,0,41.41,0,1.87.63,4.11-2.67,4.16-3.77.06-4.15-.06-4.16-4.14q0-39.91,0-79.83c0-2.05-.14-4,2.68-4.44,3.32-.55,4.13-.09,4.16,3.4.07,7.48,0,15,0,22.45Z" transform="translate(-122.64 -141.48)"/><path class="cls-1" d="M2031.69,373.09c-5,0-10,0-15,0-4.31,0-4.45.12-4.41,4.55a62,62,0,0,0,.68,8.93c.88,5.76,3.94,8.75,9.59,10,7.73,1.73,15.21-.08,22.72-1.45,3.34-.61,3.54-.35,4.11,2.86.34,2-.76,2.33-2.06,2.67-8.92,2.33-17.91,3.67-27.11,1.72-7.84-1.67-12.75-6.4-14-14.32a100,100,0,0,1-.86-14.38c0-6-.27-12,.56-17.91,1.44-10.17,6.75-15.36,16.89-16.76a40.52,40.52,0,0,1,12.86.37c9.5,1.78,14.67,8.05,15.17,17.7.23,4.32,0,8.65.1,13,.08,2.53-1.11,3.08-3.32,3C2042.34,373,2037,373.08,2031.69,373.09Zm-3.66-6.45h7.47c9.56,0,10.23-.82,8.5-10.47-.12-.65-.32-1.29-.5-1.93-1.73-6.47-5.91-9.44-13.76-9.79-8.49-.38-14.09,2.63-16.23,8.74a1.63,1.63,0,0,0-.18.46c-.36,3.28-.73,6.57-1,9.86-.22,2.39,1,3.2,3.29,3.15C2019.73,366.56,2023.88,366.63,2028,366.64Z" transform="translate(-122.64 -141.48)"/><path class="cls-1" d="M1671.63,239.4c-5.32,0-10.65.09-16,0-2.59-.06-3.66.93-3.44,3.49.32,3.79.28,7.64.9,11.38.78,4.75,4,7.37,8.63,8.57,6.51,1.7,12.89.46,19.3-.48a29.48,29.48,0,0,0,4.39-.91c1.59-.49,3-.8,3.49,1.31.46,1.88.68,3.74-1.82,4.36-9.61,2.41-19.31,3.83-29.07,1.14-7.36-2-12.07-8-12.42-16.33-.4-9.62-.45-19.3,0-28.92.43-9.3,6.19-15.26,15.23-17.28a34.78,34.78,0,0,1,15.82.15c7.17,1.7,12,6.14,13.24,13.31,1,5.84.77,11.9,1.1,17.86.11,2.14-1.24,2.38-2.91,2.38-5.49,0-11,0-16.48,0Zm-3.36-6.43h0c4.16,0,8.33-.09,12.49,0,2.63.08,3.67-1.08,3.45-3.57a77.17,77.17,0,0,0-1-9.4,10.83,10.83,0,0,0-7.4-8.12c-14.07-5-24.16,2.38-23.58,17.18,0,.33,0,.67,0,1-.15,2.18,1,2.91,3,2.88C1659.6,232.93,1663.93,233,1668.27,233Z" transform="translate(-122.64 -141.48)"/><path class="cls-1" d="M1781.22,376.32c0,7.48,0,15,0,22.44,0,1.37.48,3.28-1.87,3.33-1.7,0-3.82.76-4.09-2.16s-1.88-2-3.49-1.18a38.51,38.51,0,0,1-19.2,4.52c-8.3-.26-13.09-4-14.61-12.13a31.72,31.72,0,0,1-.34-8.43c.67-8.26,4.47-12.4,12.77-13.27,6.1-.63,12.28-.52,18.43-.64,5.58-.11,5.59-.05,5.6-5.83,0-2.49.09-5-.05-7.48-.35-6.22-3.23-9.81-9.46-10.11-6.58-.31-13.23.34-19.83.81-3.84.27-4.55-.07-4.68-3.12a2.27,2.27,0,0,1,2.15-2.71c9.2-1.82,18.45-2.95,27.66-.33,7,2,10.77,7,11,14.34s0,14.63,0,21.95Zm-19-1.06h0c-2.48,0-5-.05-7.45,0-7.39.15-10.17,2.86-10.4,10.25a29.22,29.22,0,0,0,.44,4.92c.53,3.78,2.77,5.8,6.55,6.33,7.78,1.09,14.74-1.17,21.2-5.21a4.63,4.63,0,0,0,1.73-3.24c.22-3.46,0-6.94.08-10.42,0-1.89-.86-2.66-2.7-2.64C1768.54,375.29,1765.39,375.26,1762.24,375.26Z" transform="translate(-122.64 -141.48)"/><path class="cls-1" d="M1498,340.91c8.92-2.13,17.93-3.33,27.07-1.51,9.69,1.94,14,7.11,14.06,17,.12,14,.06,27.94,0,41.91,0,1.44.84,3.55-1.87,3.8-2.33.21-4.42.14-4.61-3a5.68,5.68,0,0,0-.7-1.56c-6.75,3.54-13.74,5.94-21.45,5.7-9.22-.29-14.47-5.22-15-14.44-.92-14.6,3.79-19.74,18.47-20,5-.1,10-.09,15,0,2.31,0,3.4-.86,3.33-3.2-.11-3.65.1-7.33-.3-11-.64-5.93-3.27-8.88-9.17-9.27s-11.92.18-17.88.35a5.82,5.82,0,0,0-1,.21C1498.72,346.83,1498.72,346.83,1498,340.91ZM1532.2,383v-5c0-1.73-.63-2.83-2.6-2.8-6.63.07-13.27-.13-19.88.2-4.09.21-6.69,2.53-7.11,6.43-.51,4.81-1.77,10.06,3.12,13.69a8.17,8.17,0,0,0,3.24,1.12c5.22,1,10.19-.08,15-1.93C1532.19,391.66,1532.24,391.57,1532.2,383Z" transform="translate(-122.64 -141.48)"/><path class="cls-1" d="M1671.92,370.83c0,9,0,18,0,26.94,0,1.76.94,4.24-2.41,4.4-2.47.12-4.19-.13-4.1-3.3.06-2.52-1.69-1.76-3.17-1.3-5.54,1.72-11.06,3.52-16.65,5.05a24.63,24.63,0,0,1-6.43.61q-12.07-.06-12.56-12.26c-.15-4,0-8,0-12q0-17.72,0-35.42c0-3.54,2.09-5,5.35-3.68a3,3,0,0,1,1.37,2.22c.2,2.14.1,4.31.1,6.48q0,19.2,0,38.41a26.4,26.4,0,0,0,.32,5c.53,2.74,2.22,4.49,5.11,4.62,8.75.37,16.68-2.66,24.29-6.46,1.06-.53,1.52-3.12,1.53-4.77.12-13,.07-25.94.07-38.91,0-1.17.1-2.34,0-3.49-.28-2.77,1.14-3.32,3.59-3.3s3.73.4,3.7,3.23C1671.84,352.2,1671.91,361.52,1671.92,370.83Z" transform="translate(-122.64 -141.48)"/><path class="cls-1" d="M1939.12,397.22l-18.79,5.36a14.57,14.57,0,0,1-1.45.35c-12.19,2.1-17.73-2.31-17.86-14.59-.16-14.79-.07-29.59,0-44.38,0-1.86-.58-4.12,2.66-4.27,3.79-.18,4.3.06,4.31,4,0,14.29.27,28.59-.07,42.88-.23,9.88,2.66,11.28,11.79,9.67,5.5-1,10.75-3.34,16.13-5,2.88-.9,3.56-2.85,3.54-5.71-.12-14-.08-27.92,0-41.89,0-3.83.31-3.82,3.91-3.9,3.2-.07,2.88,1.94,2.88,3.95,0,18.12,0,36.24,0,54.36,0,1.56,1,3.84-2,4.18-2.65.29-4.1-.57-4.28-3.33A5.25,5.25,0,0,0,1939.12,397.22Z" transform="translate(-122.64 -141.48)"/><path class="cls-1" d="M1560.3,370.77c0-9.14,0-18.28,0-27.42,0-3.41.68-4,3.68-3.53.84.14,2.15,1.17,2.19,1.86.23,3.85,2,3.11,4.65,2.19,5-1.77,10.11-3.23,15.25-4.52a28.72,28.72,0,0,1,7.41-.69c7.28.14,11.46,4.12,11.7,11.44.26,7.64.14,15.29.15,22.93,0,8.31,0,16.62,0,24.93,0,2.65-.19,4.35-3.66,4.3s-3.26-1.82-3.25-4.13q0-21.69,0-43.38a33.13,33.13,0,0,0-.09-4c-.45-3.75-2.38-5.85-6.35-5.44a81.19,81.19,0,0,0-15.52,3.13c-9.41,2.93-9.34,3.15-9.34,13.07,0,12.3,0,24.6,0,36.9,0,3.71-.36,3.78-4,3.78-2.69,0-2.9-1.49-2.9-3.51Q1560.32,384.74,1560.3,370.77Z" transform="translate(-122.64 -141.48)"/><path class="cls-1" d="M1710.22,236.63c0-9,0-18,0-26.93,0-2.42.64-4.07,3.34-3.51,1,.21,2.52,1.27,2.59,2.05.29,3.46,1.81,3,4.32,2.12,5.66-1.89,11.43-3.44,17.19-5a18.55,18.55,0,0,1,4.94-.48c8.12.06,12.49,4.08,12.58,12.19.2,15.95.07,31.92.16,47.88,0,2.48-.71,3.48-3.39,3.53-3,.06-3.56-1.2-3.54-3.84.09-14.47,0-28.94,0-43.4a37.9,37.9,0,0,0-.07-4c-.4-3.78-2.3-5.69-6.21-5.73-8.36-.08-16,2.87-23.3,6.48-1.08.53-1.63,3-1.65,4.66-.13,12.81-.07,25.61-.07,38.41,0,1.17-.09,2.34,0,3.49.25,2.56-.31,3.94-3.41,3.93s-3.56-1.38-3.53-3.94C1710.27,255.26,1710.22,245.94,1710.22,236.63Z" transform="translate(-122.64 -141.48)"/><path class="cls-1" d="M1699.44,374.22c0-8,0-16,0-23.94,0-4.47-.09-4.5-4.38-4.63-1.49,0-3-.06-4.49,0-2,.05-3-.76-3-2.95s.64-3.18,2.86-2.95a4.21,4.21,0,0,0,.5,0c2.61-.19,6.41.59,7.55-.81,1.44-1.76.78-5.29.94-8.06.09-1.66,0-3.33,0-5,.24-8.2,4.56-13.33,12.62-13.95,4.42-.34,8.93.48,13.39.86,1.94.17,2.33,1.32,2,3.17s-1,2.66-2.92,2.42a66.56,66.56,0,0,0-8.43-.79c-6.84,0-9.41,2.48-9.77,9.19-.16,3.15.05,6.32-.09,9.47-.11,2.56.87,3.6,3.48,3.52,4-.13,8,0,12,0,1.87,0,3.64-.22,3.59,2.69s-1.5,3.28-3.8,3.24c-3.66-.06-7.32-.07-11,0-4.11.11-4.22.23-4.23,4.83q0,23.7,0,47.39c0,2.55,0,4.51-3.57,4.36-2.73-.11-3.34-1.16-3.31-3.58C1699.5,390.52,1699.45,382.37,1699.44,374.22Z" transform="translate(-122.64 -141.48)"/><path class="cls-1" d="M1858.72,369.43c0-6.65-.08-13.3,0-19.95,0-2.77-1-4-3.77-3.84-1.66.1-3.33-.06-5,0-2.22.08-3.36-.66-3.37-3.13,0-2.71,1.55-2.75,3.56-2.84,2.74-.13,6.34.36,7.94-1.14,1.38-1.3.49-5,.59-7.67a27.12,27.12,0,0,0,0-3c-.22-3.25,2.06-3.14,4.28-3.38,2.73-.29,3,1.26,3,3.33-.06,3,.07,6,0,9-.06,2.14.82,3,3,2.93,4.33-.08,8.66-.11,13,.07,1,0,2.8,1,2.79,1.53,0,1.83.14,4.25-2.86,4.27-3.66,0-7.33,0-11,0-4.78.07-4.84.09-4.85,4.63,0,13.13,0,26.26,0,39.4,0,6.18,2,8,8.24,7.69a42.08,42.08,0,0,0,7.88-1.15c1.81-.43,2.47.31,2.81,1.79s.58,3-1.45,3.61c-6,1.73-12,2.61-18.14.56a8.48,8.48,0,0,1-6-8.34c-.19-8.13-.06-16.27-.06-24.41Z" transform="translate(-122.64 -141.48)"/><path class="cls-1" d="M1487.47,237c0-7-.07-14,0-20.93,0-2.73-.87-4-3.73-3.82-1.65.13-3.32-.05-5,0-2.16.09-3.45-.47-3.44-3,0-2.39,1-3.35,3.27-3.17.83.06,1.66,0,2.5,0,6.95,0,6.31.29,6.35-6.62,0-1.66.1-3.33,0-5-.18-2.54.9-3.51,3.43-3.7,2.69-.2,3.57.76,3.44,3.33-.14,2.82.08,5.66,0,8.47-.12,2.57.9,3.6,3.47,3.52,4-.11,8,0,12,0,1.9,0,3.7-.11,3.52,2.76-.15,2.54-1.26,3.5-3.76,3.43-3.82-.1-7.65.1-11.47-.05-2.8-.11-3.78,1-3.75,3.76.09,13.46,0,26.92.08,40.37,0,5.6,2,7.42,7.68,7.31a61,61,0,0,0,8.39-1c1.9-.31,2.59.42,3.08,2.21s-.09,3.06-1.8,3.22c-5.26.51-10.58,1.38-15.79,1s-8.16-4.29-8.32-10.13c-.2-7.3,0-14.62,0-21.93Z" transform="translate(-122.64 -141.48)"/><path class="cls-1" d="M1526.48,236.9c0-4.82-.21-9.64,0-14.45.47-9.1,5.51-14.69,14.31-16.68,6.65-1.5,13.21-.82,19.81.16,2.43.36,2.76,1.83,2.58,3.93-.22,2.54-1.68,2.12-3.5,2a128.36,128.36,0,0,0-14.93-.34c-7.19.41-11.17,4.24-11.41,11.32-.32,9.62-.3,19.27,0,28.89.21,6.53,3.55,10.32,10,11,5.39.58,10.9.16,16.34-.1,2.67-.13,3.89.86,3.42,3.34a3.69,3.69,0,0,1-2.3,2.41,45.88,45.88,0,0,1-21.23.05c-7.91-2-12.52-7.44-13-15.62-.33-5.29-.06-10.62-.06-15.93Z" transform="translate(-122.64 -141.48)"/><path class="cls-1" d="M1805.12,371.88c.27,4.65.3,10,1,15.25.71,5.61,3.81,8.81,9.45,9.31a94.45,94.45,0,0,0,16.39-.14c2.86-.25,3.39.89,3.76,3.1.44,2.59-1.36,2.76-3,2.83-6,.24-12,1.16-17.84.35-10.56-1.46-15.62-7.17-16.16-17.7a268.44,268.44,0,0,1,0-27.94c.61-11.12,6.75-17.19,18.16-18.06,5.41-.41,10.93.45,16.39.82,1.64.1,3,.69,2.44,2.83-.43,1.77-.41,3.36-3.3,3.09a90.82,90.82,0,0,0-15.9-.3c-6.77.56-9.74,3.63-10.54,10.46C1805.32,360.88,1805.38,366.06,1805.12,371.88Z" transform="translate(-122.64 -141.48)"/><path class="cls-1" d="M1399.38,224.14c0,13.48,0,27,0,40.42,0,3.85-.28,3.91-3.91,3.89-2.14,0-3-.76-2.93-2.9s0-4.33,0-6.49V185.2c0-2.27-.54-4.78,3-5.2,3.17-.39,3.81-.07,3.85,3.22.08,5.66,0,11.32,0,17Z" transform="translate(-122.64 -141.48)"/><path class="cls-1" d="M1975.36,349c2-1.12,3.41-1.89,4.8-2.68,3.46-2,6.86-4.05,10.41-5.85,1.11-.56,3.11-1,3.8-.43,1.53,1.29.62,5.38-1.15,6.43-4,2.37-7.94,4.85-12.08,6.94-4.35,2.19-6,5.2-5.84,10.25.43,11.44.09,22.9.17,34.36,0,2.72-.42,4.36-3.78,4.25-2.72-.08-3.31-1.13-3.3-3.56q.1-27.65,0-55.28c0-2.19.06-3.76,3.07-3.77s3.62,1.4,3.53,3.94C1975,345.14,1975.2,346.72,1975.36,349Z" transform="translate(-122.64 -141.48)"/><path class="cls-1" d="M1436.08,206.66c-3.66,4.54-7,8.67-10.27,12.79-3.66,4.53-7.34,9-11,13.58-3.07,3.83-3,3.84.19,7.8q9.48,11.58,19,23.17c.93,1.15,1.8,2.35,2.73,3.58-6.45,1.79-7.61,1.44-11.37-3.26-6.44-8.05-12.8-16.17-19.4-24.08-2.07-2.47-2.28-4.12-.11-6.7,6.21-7.38,12.37-14.82,18-22.63C1426.92,206.67,1430.31,205.07,1436.08,206.66Z" transform="translate(-122.64 -141.48)"/><path class="cls-1" d="M1460.09,237.63c0,9,0,17.92,0,26.88,0,3.52-2.56,5.15-5.81,3.74a2.24,2.24,0,0,1-1.15-1.37,13.24,13.24,0,0,1-.19-3q0-26.64,0-53.27c0-2.38-.27-4.7,3.41-4.62,2.73.06,3.85.85,3.81,3.72C1460,219,1460.09,228.34,1460.09,237.63Z" transform="translate(-122.64 -141.48)"/><path class="cls-1" d="M1452.93,186.9c0-.83.07-1.67,0-2.49-.26-2.72.82-3.78,3.67-3.8,3,0,3.72,1.33,3.53,3.93a34.35,34.35,0,0,0,0,5c.19,2.68-.26,4.31-3.66,4.32s-3.65-1.94-3.54-4.45C1453,188.55,1452.93,187.72,1452.93,186.9Z" transform="translate(-122.64 -141.48)"/></svg>