<svg id="Layer_1" data-name="Layer 1" xmlns="http://www.w3.org/2000/svg" viewBox="0 0 1123.65 206.44"><defs><style>.cls-1{fill:#fff;}</style></defs><path class="cls-1" d="M162.4,249.75c-27.68-38-54.82-75.27-82-112.53l-.8.23v80.42h21.88v31.4H21.06V218.14H42.5v-128H21V58.67c1.79-.12,3.54-.33,5.29-.33,39,0,78,0,117-.1a8.94,8.94,0,0,1,8.25,4.17c15.74,21.91,31.69,43.69,47.57,65.5,1.06,1.45,2.18,2.87,3.53,4.65,1.33-1.76,2.44-3.17,3.5-4.62q23.9-33,47.73-66a7.67,7.67,0,0,1,7-3.68c34.5.11,69,.07,103.49.09,1.46,0,2.92.2,4.57.32V89.9H347.18V217.7h21.55v31.66H223.23V218.12h21.58V137.89l-.74-.63C217,174.54,189.94,211.83,162.4,249.75Z" transform="translate(-21.01 -50.33)"/><path class="cls-1" d="M702.32,200h56c-1.36,3.13-2.36,5.91-3.73,8.49-6.06,11.47-15,20.32-25.64,27.51-14.9,10.06-31.48,15.83-49.13,18.5-25.85,3.92-51.5,3-76.66-4.55-17.61-5.3-33-14.32-44.42-29.09C534.08,189,540.72,145,573.86,120c14.29-10.77,30.64-16.58,48.12-19.49,24.66-4.1,49.15-3.63,73.21,3.6,20.24,6.08,37.85,16.42,50.9,33.48,11.36,14.85,15.93,31.59,13.5,51H637.35c0,7.06-.82,13.46.19,19.56,1.51,9.09,10.86,16.3,21.26,17.83,19.32,2.85,34.82-5.87,42.5-23.89C701.56,201.44,701.89,200.86,702.32,200ZM667.75,163.5c0-6.85,0-13.15,0-19.45a16.57,16.57,0,0,0-.74-3.9c-1.89-7.15-7.73-11.81-14.79-11.83-6.5,0-13.73,4.79-14.55,11.44-1,7.76-.22,15.73-.22,23.74Z" transform="translate(-21.01 -50.33)"/><path class="cls-1" d="M1144,188.71h-122.4c0,6.44-.75,12.49.17,18.28,1.59,10.06,10.69,17.4,21.85,19,16.13,2.32,34.49-3.6,43.08-25.91h55.89c-1.16,2.8-2,5.29-3.17,7.58-9,17.13-23.32,28.42-40.47,36.44-21.92,10.24-45.22,13.22-69.15,12.44-20.15-.66-39.81-3.79-58.06-12.86C950.31,233,935.14,216.79,930.13,193c-6.15-29.25,3.91-53.15,26.69-71.78,14.41-11.78,31.52-17.74,49.69-20.71,26.71-4.38,53.13-3.52,78.9,5.51,16.47,5.78,31,14.73,42.36,28.17C1140.92,149.68,1146.75,167.47,1144,188.71Zm-91.91-25.13c0-6.86.13-13.31,0-19.75-.22-8.4-6-14.68-14-15.51-7.53-.78-15.16,4.34-16.23,12.41-1,7.44-.21,15.11-.21,22.85Z" transform="translate(-21.01 -50.33)"/><path class="cls-1" d="M897.23,58.81V218H919.6v31.35H769.43V218.07H791V90.16H769.33V58.81Z" transform="translate(-21.01 -50.33)"/><path class="cls-1" d="M513.16,106.13V217.85h22.12v31.52H389.53V218h22V137.58H389.55V106.13Z" transform="translate(-21.01 -50.33)"/><path class="cls-1" d="M480.16,50.33l14.68,28L448.66,102.4,434,74.18Z" transform="translate(-21.01 -50.33)"/></svg>