<svg id="Layer_1" data-name="Layer 1" xmlns="http://www.w3.org/2000/svg" viewBox="0 0 195.69 55.5"><path d="M164.7,122.24l-.85,10H173l-1.72,4.41h-7.48V138q0,10.69,0,21.39a11.62,11.62,0,0,0,.11,1.67c.35,2.35,1.31,3.33,3.69,3.41a35.88,35.88,0,0,0,4.36-.36l.75,3.35c-3.93,1.64-7.76,2.12-11.57,0a5.51,5.51,0,0,1-2.64-4.34,22.81,22.81,0,0,1-.21-3.09c0-7.29,0-14.58,0-21.87v-1.55h-4.53v-4.39h4.45l.67-8.68,5.12-1.33Z" transform="translate(-53.39 -122.24)"/><path d="M249.08,166.93c-.05,0-.15.1-.16.16-1.11,5.18-4.6,8.12-9.41,9.71a17.41,17.41,0,0,1-9.44.51,6.33,6.33,0,0,1-.62-.22c-.15-1-.31-2-.48-3.05v0a13.51,13.51,0,0,0,8.57-.25c3.24-1.21,5.64-3.29,6.58-6.73,1.34-4.83-1.51-8.77-6.52-9a23.56,23.56,0,0,0-3.94.12c-1.3.15-2.57.51-4.05.82l1.7-17.89h15.92c-.1.64-.19,1.21-.29,1.78s-.2,1.09-.32,1.72H235.2l-.91,10.11c1.43,0,2.77,0,4.11,0a12.25,12.25,0,0,1,6.27,1.75,9.15,9.15,0,0,1,4.12,5.64,6.52,6.52,0,0,0,.29.73Z" transform="translate(-53.39 -122.24)"/><path d="M113.48,160.52l2.13,3.52c-.38.32-.71.66-1.09.93a17.92,17.92,0,0,1-16.71,2.53c-4.2-1.4-6.85-4.51-8.41-8.58A28,28,0,0,1,88,146.48a17.66,17.66,0,0,1,4.92-11.1c5.53-5.82,16.11-5.5,20.77,1.35A14.48,14.48,0,0,1,115.3,140,34.93,34.93,0,0,1,116.39,151H94.21c.12,1.62.14,3.16.36,4.66,1,6.39,6.47,8.7,11.69,8.11C109,163.41,110,162.93,113.48,160.52Zm-3-13.94a24.32,24.32,0,0,0-.81-5.82c-1-3.09-3.23-4.61-6.37-4.93s-5.73.76-7.33,3.63a15.54,15.54,0,0,0-1.67,7.12Z" transform="translate(-53.39 -122.24)"/><path d="M53.39,132.94l5.47-1.49a11.87,11.87,0,0,1,1.38,5.31c.34-.28.59-.47.83-.68a16.24,16.24,0,0,1,8.22-4.39,10,10,0,0,1,9.24,2.76,8.54,8.54,0,0,1,2.38,6.19c0,8.8,0,17.6,0,26.4a5,5,0,0,1-.06.55H75.25V166.2q0-11.52,0-23c0-.8-.11-1.59-.13-2.38-.11-3.08-2.78-4.7-5.59-4.33a16.18,16.18,0,0,0-9.31,5v26.17H54.8v-1.38q0-12.84,0-25.68C54.8,138,54.76,135.43,53.39,132.94Z" transform="translate(-53.39 -122.24)"/><path d="M133,148.08l-10.82-15.53h6.92L135.92,144l6.71-11.49h6.56l-10.43,15.56,13.53,19.51h-6.85l-9.51-14.87-9.55,14.92h-6.63Z" transform="translate(-53.39 -122.24)"/><path d="M201.36,147l-1.65-2.07c3.38-3,7-5.15,11.68-5a12.24,12.24,0,0,1,5.09,1.14,7.2,7.2,0,0,1,3.92,8.68,10.84,10.84,0,0,1-2.94,5,74.85,74.85,0,0,1-9.68,7.79l-2.42,1.76h16.53c-.29,1.21-.55,2.27-.82,3.38H200.53v-3.3c1.87-1.51,3.81-3,5.7-4.62,2.18-1.8,4.37-3.6,6.47-5.49a7.54,7.54,0,0,0,2.86-6.63,3.94,3.94,0,0,0-2.91-3.56,8.86,8.86,0,0,0-6.54.35C204.52,145.08,203,146,201.36,147Z" transform="translate(-53.39 -122.24)"/><path d="M180.56,167.6v-3.3h4.86V145.9l-7.18,3.24-1-2.39c.4-.29.77-.58,1.15-.84,2.08-1.4,4.25-2.7,6.22-4.25a6.25,6.25,0,0,1,5.18-1.11v23.69h4.83v3.36Z" transform="translate(-53.39 -122.24)"/><polygon points="175.58 51.8 175.53 51.86 175.57 51.84 175.58 51.8"/></svg>