<svg id="Layer_1" data-name="Layer 1" xmlns="http://www.w3.org/2000/svg" viewBox="0 0 568.44 100.35"><defs><style>.cls-1{fill:#fff;}</style></defs><path class="cls-1" d="M282.36,191c-1,5.83-1,5.84-7.77,5.84-9.48,0-19,0-28.46,0-5,0-5.43-.42-5.43-5.39q0-43.2,0-86.39c0-5,.39-5.39,5.43-5.42q15.22-.09,30.46,0c5.14,0,5.54.49,5.56,5.87,0,8.48,0,17,0,25.4.53,0,.95.13,1.15,0,15-11.53,31.07-10.15,47.18-3.29,7.4,3.14,11.68,9.76,13.77,17.49a57,57,0,0,1,.24,29.62c-3.2,12.37-11.44,19.59-23.81,22.07-7.91,1.59-16,1.94-23.8,0C291.85,195.53,287.13,192.94,282.36,191ZM281,162.5a37.47,37.47,0,0,0,1.3,6.15c1.74,4.62,5.2,7.15,10.23,7.47,5.23.33,9.74-1,12.18-6a19.08,19.08,0,0,0,.26-16.91,11.6,11.6,0,0,0-5.16-5.09c-8.28-4-16.91.61-18.42,9.66C281.21,159.12,281.2,160.46,281,162.5Z" transform="translate(-28.09 -99.07)"/><path class="cls-1" d="M554.2,132a6.15,6.15,0,0,0,.45-1.72c-.56-5.21,1.05-6,6-6,10,.06,20,0,30,0,4.89,0,5.55.69,5.55,5.44q0,30.72,0,61.43c0,5.1-.54,5.58-5.84,5.6q-14.75,0-29.47,0c-5.65,0-5.65,0-6.25-5.67,0-.25-.32-.48-.64-.94a17,17,0,0,0-1.56,1,25.76,25.76,0,0,1-15.55,6.07c-7,.16-14,.5-20.87-.44-13.74-1.88-22.59-11.56-24.87-26.19a63.12,63.12,0,0,1,.51-22.35c2.73-13.52,11.08-21.75,24.59-24.15a62.94,62.94,0,0,1,21.86.05A34.64,34.64,0,0,1,554.2,132Zm-23.93,28.14c0,1.93-.07,2.76,0,3.58.69,7.81,5.08,12.3,12.16,12.52,7.43.23,12.18-4.06,13.07-12.05a23.06,23.06,0,0,0-.28-6.42c-1.22-6.86-5.09-10-12.08-10-7.4,0-11.3,3.05-12.6,10A20.16,20.16,0,0,0,530.27,160.15Z" transform="translate(-28.09 -99.07)"/><path class="cls-1" d="M69.62,133.34c9.92-9.61,21.47-10.42,33.29-10a51.6,51.6,0,0,1,9.86,1.46c10.15,2.38,16,9.06,18.25,19a53.93,53.93,0,0,1,1.11,10.91c.14,12.33.1,24.67.07,37,0,4.7-.41,5.07-5.18,5.09q-15.75,0-31.5,0c-4.32,0-4.84-.53-4.87-4.94-.06-8.5,0-17,0-25.5,0-1.33,0-2.66,0-4-.16-9.3-8.19-13.78-16.38-9.16-3.32,1.87-4.28,4.86-4.27,8.43,0,9,0,18,0,27,0,1.16.05,2.33,0,3.49-.23,3.37-.79,4-4.29,4-5.5.08-11,0-16.5,0s-11,.06-16.5,0c-3.85,0-4.5-.6-4.51-4.27q-.11-31.5-.07-63c0-3.64.72-4.42,4.44-4.46q16.24-.18,32.5,0c3.74,0,4.3.74,4.57,4.4C69.69,129.93,69.62,131.08,69.62,133.34Z" transform="translate(-28.09 -99.07)"/><path class="cls-1" d="M186.26,199.42c-5.81-.44-11.64-.61-17.41-1.35-23.76-3-36.47-19.48-33.64-43.26,1.93-16.25,10.29-25.93,26.19-30.18,12.24-3.27,24.72-3.09,37.21-2.18A60.06,60.06,0,0,1,218,126.83a29.71,29.71,0,0,1,17.52,19.3,46.7,46.7,0,0,1,1.25,24.65Q233,187.25,217.6,194.19a58.7,58.7,0,0,1-21.33,4.73c-3.32.17-6.65,0-10,0Zm13.17-38c-.16-5.32-.76-10.41-6-13a15.66,15.66,0,0,0-14-.1c-5.67,2.73-6.39,8.21-6.21,13.65s1.2,10.75,7.1,13.17c9.62,4,18-1.15,19-11.43C199.36,162.92,199.39,162.09,199.43,161.44Z" transform="translate(-28.09 -99.07)"/><path class="cls-1" d="M439.16,148.6q0,21.22,0,42.44c0,5.38-.37,5.76-5.59,5.78q-15.48.06-31,0c-4.45,0-5-.51-5-4.79q-.06-43.44,0-86.87c0-4.14.77-4.9,5-4.94q15.74-.14,31.46,0c4.35,0,5.06.89,5.07,5.45C439.19,120,439.16,134.29,439.16,148.6Z" transform="translate(-28.09 -99.07)"/><path class="cls-1" d="M391.2,161c0,10.16,0,20.31,0,30.46,0,5-.41,5.37-5.43,5.39q-15.47.06-30.95,0c-4.71,0-5.18-.48-5.18-5.12q0-31.2,0-62.4c0-4.32.53-4.89,4.9-4.93q15.74-.12,31.45,0c4.68,0,5.18.57,5.2,5.17C391.23,140,391.2,150.49,391.2,161Z" transform="translate(-28.09 -99.07)"/><path class="cls-1" d="M445.68,160.4c0-10.32,0-20.64,0-31,0-4.41.52-5,4.77-5.07q16-.15,32,0c4.3,0,4.83.63,4.84,5q.06,31.2,0,62.4c0,4.57-.51,5-5.28,5q-15.47.06-31,0c-4.95,0-5.32-.41-5.33-5.47C445.66,181,445.68,170.71,445.68,160.4Z" transform="translate(-28.09 -99.07)"/><path class="cls-1" d="M370.12,119.15c-5.16,0-10.32.07-15.47,0-4.07-.07-4.59-.62-4.67-4.65-.08-3.32-.1-6.65,0-10s.91-4.15,4.17-4.26c4.66-.14,9.32,0,14,0,5.82,0,11.65,0,17.47.07,4.53.08,5.2.81,5.28,5.23.06,3,.08,6,0,9-.11,3.87-.78,4.56-4.79,4.63C380.76,119.22,375.44,119.15,370.12,119.15Z" transform="translate(-28.09 -99.07)"/><path class="cls-1" d="M466.49,100.19c5.15,0,10.31-.08,15.47,0,4.15.09,4.88.9,5,5.06.07,3.16.09,6.33,0,9.48-.1,3.44-.77,4.31-4,4.34q-16.47.16-32.94,0c-3.08,0-3.79-.84-3.9-3.9-.12-3.49-.11-7,0-10.48s.9-4.39,4.49-4.49c5.32-.13,10.64,0,16,0Z" transform="translate(-28.09 -99.07)"/><path class="cls-1" d="M596.53,109a10.12,10.12,0,0,1-9.9,9.82c-5.46,0-9.76-4.75-9.56-10.53a9.56,9.56,0,0,1,9.72-9.26A10.13,10.13,0,0,1,596.53,109Zm-17.73-.16c0,5.05,3.09,8.22,8,8.15a7.84,7.84,0,0,0,8-8.27c-.08-4.73-3.54-8-8.4-7.86C581.69,101,578.8,104.05,578.8,108.88Z" transform="translate(-28.09 -99.07)"/><path class="cls-1" d="M590.48,114.84c-.73-1.67-2.43-4.64-4.43-4.87-.13,0-.22,0-.29.07-.73,1.36-.84,4.48-1.56,4.57-.94.11-.34.17-.33,0,.07-4.37.72-11.51,0-11.2-1.93.8,4.47-.11,6.15,1s1.07,4.14.29,4.27c-2.29,1.27,2.15,6.06.52,6.06S590.54,115,590.48,114.84Zm-.85-8.07a2.78,2.78,0,0,0-2.28-1.52c-1.4,0-2,.65-2.15,1.24.34.86.63,1.47,1.41,1.49A3,3,0,0,0,589.63,106.77Z" transform="translate(-28.09 -99.07)"/></svg>