<svg id="Layer_1" data-name="Layer 1" xmlns="http://www.w3.org/2000/svg" viewBox="0 0 568.439 100.3474">
  <defs>
    <style>
      .cls-1 {
        fill: #f2f2f2;
      }
    </style>
  </defs>
  <g>
    <path class="cls-1" d="M282.356,190.9878c-1.01,5.8325-1.01,5.8378-7.7615,5.8412-9.4884.0048-18.9769.0306-28.4651-.0115-5.0313-.0223-5.4307-.414-5.4323-5.3862q-.0137-43.1969.0338-86.3939c.0052-4.9782.3928-5.3906,5.43-5.4187q15.2309-.0851,30.4624-.001c5.1406.0292,5.5356.495,5.553,5.8682.0276,8.4792.0073,16.9587.0073,25.3994.5287,0,.9483.1339,1.1473-.0191,14.9981-11.53,31.073-10.1422,47.1792-3.29,7.3978,3.1475,11.6753,9.7637,13.7687,17.4958a57.0424,57.0424,0,0,1,.245,29.6132c-3.2074,12.3712-11.4391,19.59-23.8157,22.0786-7.9034,1.5891-15.9768,1.9348-23.8.011C291.8526,195.5322,287.13,192.9371,282.356,190.9878ZM281.04,162.4963a36.5108,36.5108,0,0,0,1.3045,6.1494,10.8776,10.8776,0,0,0,10.2292,7.4742c5.2264.327,9.7327-.9653,12.1752-5.9723a19.091,19.091,0,0,0,.2632-16.91,11.6551,11.6551,0,0,0-5.1595-5.0875c-8.2872-4.04-16.9156.615-18.4245,9.6592C281.21,159.1171,281.2019,160.46,281.04,162.4963Z" transform="translate(-28.0882 -99.0711)"/>
    <path class="cls-1" d="M554.2048,132.0123a6.47,6.47,0,0,0,.4478-1.7178c-.56-5.215,1.0427-6.0076,5.993-5.9774,9.9875.0609,19.9759-.0255,29.9632.0377,4.8939.031,5.5467.6843,5.5541,5.4381q.0478,30.7125.0027,61.4251c-.0067,5.1005-.5316,5.585-5.84,5.6025q-14.7319.0483-29.4641.0045c-5.6553-.0107-5.65-.0348-6.2492-5.67-.0273-.2566-.3192-.4852-.6372-.9408a15.545,15.545,0,0,0-1.5637.9774,25.7383,25.7383,0,0,1-15.5508,6.0637c-6.9571.1653-14.0185.5027-20.87-.4355-13.7388-1.8812-22.5911-11.5624-24.8663-26.19a63.1384,63.1384,0,0,1,.5033-22.3507c2.7344-13.52,11.0858-21.7462,24.5893-24.1487a62.8377,62.8377,0,0,1,21.8627.0531A34.68,34.68,0,0,1,554.2048,132.0123ZM530.266,160.1532c0,1.9236-.0636,2.7585.01,3.5811.6968,7.8025,5.08,12.3,12.1683,12.5169,7.4251.2277,12.1806-4.0636,13.0643-12.049a22.86,22.86,0,0,0-.2823-6.4211c-1.2172-6.8563-5.0912-9.98-12.0763-10.0026-7.4044-.0239-11.2993,3.0547-12.6012,10.0079A21.7727,21.7727,0,0,0,530.266,160.1532Z" transform="translate(-28.0882 -99.0711)"/>
    <path class="cls-1" d="M69.6215,133.3449c9.9161-9.6134,21.4676-10.4214,33.2894-10.0033a51.5975,51.5975,0,0,1,9.86,1.4586c10.1456,2.3767,16.05,9.0636,18.2474,19.0226a53.7831,53.7831,0,0,1,1.113,10.9091c.1414,12.3312.0985,24.6649.068,36.9975-.0116,4.7-.4092,5.0737-5.1836,5.09q-15.7493.053-31.4986-.0043c-4.3183-.0192-4.836-.5352-4.8684-4.9427-.0625-8.4992-.0194-16.9991-.02-25.4987,0-1.3333.0213-2.6669-.0007-4-.1535-9.3032-8.19-13.7863-16.3787-9.1635-3.3175,1.8729-4.2805,4.8594-4.2678,8.4263.0319,8.9995.0067,17.9991.0036,26.9987,0,1.1666.0571,2.3374-.02,3.499-.2233,3.3654-.7841,3.96-4.2839,4.0086-5.4987.0766-10.9992.0194-16.499.0191s-11,.056-16.499-.02c-3.8564-.0531-4.5012-.6015-4.5142-4.2716q-.1115-31.4982-.0691-62.997c.005-3.6485.7153-4.4272,4.4418-4.4682q16.2471-.1787,32.4973-.0172c3.74.0337,4.3.743,4.569,4.3971C69.6926,129.9288,69.6215,131.0838,69.6215,133.3449Z" transform="translate(-28.0882 -99.0711)"/>
    <path class="cls-1" d="M186.2578,199.4184c-5.803-.4335-11.64-.6058-17.4031-1.3463-23.7665-3.0537-36.4726-19.4835-33.6476-43.26,1.9309-16.2517,10.2957-25.9333,26.189-30.1781,12.245-3.27,24.72-3.0911,37.2106-2.1857a60.0265,60.0265,0,0,1,19.3862,4.3829,29.7027,29.7027,0,0,1,17.52,19.3021,46.6947,46.6947,0,0,1,1.25,24.6485q-3.757,16.4643-19.1646,23.4093a58.7785,58.7785,0,0,1-21.324,4.7309c-3.3217.1718-6.66.0292-9.99.0292Zm13.1731-37.9761c-.1593-5.3195-.76-10.4083-5.993-12.98a15.6384,15.6384,0,0,0-14.0078-.1015c-5.6718,2.73-6.3949,8.21-6.2077,13.6458.1867,5.417,1.1994,10.7509,7.1011,13.1768,9.615,3.9523,18.0326-1.1572,18.9588-11.4348C199.3568,162.9214,199.39,162.0908,199.4309,161.4423Z" transform="translate(-28.0882 -99.0711)"/>
    <path class="cls-1" d="M439.1647,148.6038q.0006,21.2172-.0069,42.4344c-.0082,5.3851-.3652,5.765-5.5926,5.7826q-15.4758.0522-30.952-.0046c-4.4513-.0186-5.0241-.504-5.03-4.7876q-.0615-43.4327,0-86.8655c.0058-4.1462.7688-4.9073,5.0415-4.9425q15.7246-.1295,31.4508.0014c4.3522.0394,5.0645.8882,5.0757,5.4483C439.1866,119.9814,439.1644,134.2926,439.1647,148.6038Z" transform="translate(-28.0882 -99.0711)"/>
    <path class="cls-1" d="M391.1959,160.975c0,10.15.0241,20.3-.01,30.45-.0166,4.9867-.4034,5.3763-5.4228,5.394q-15.4747.0546-30.95-.003c-4.712-.02-5.1809-.4739-5.1874-5.115q-.0436-31.1991.004-62.3985c.0072-4.323.532-4.8964,4.9025-4.9318q15.7233-.1274,31.4484-.0092c4.6824.0312,5.18.5653,5.2,5.1643C391.2267,140.0089,391.1955,150.492,391.1959,160.975Z" transform="translate(-28.0882 -99.0711)"/>
    <path class="cls-1" d="M445.6774,160.3972c0-10.3167-.0273-20.6335.0133-30.95.0174-4.4115.523-5.0354,4.767-5.0715q15.9729-.1362,31.9477-.0022c4.3087.0351,4.8368.624,4.8449,5.008q.0577,31.1994.0026,62.3991c-.0078,4.5659-.512,5.0193-5.2812,5.0376q-15.4748.0594-30.95,0c-4.9479-.0184-5.3206-.4114-5.3356-5.4711C445.6555,181.0305,445.677,170.7138,445.6774,160.3972Z" transform="translate(-28.0882 -99.0711)"/>
    <path class="cls-1" d="M370.1174,119.153c-5.156.001-10.3131.0688-15.4675-.0207-4.0712-.0707-4.5874-.6235-4.6739-4.6488-.0716-3.3249-.0919-6.655.0117-9.9782.1012-3.247.9081-4.1482,4.1756-4.2518,4.6523-.1475,9.3127-.0414,13.97-.0339,5.8211.0093,11.6436-.0417,17.463.066,4.5361.0839,5.2076.8111,5.2878,5.2325.0542,2.9928.0759,5.9893-.0094,8.9806-.11,3.87-.7865,4.5635-4.7906,4.6311C380.763,119.22,375.44,119.152,370.1174,119.153Z" transform="translate(-28.0882 -99.0711)"/>
    <path class="cls-1" d="M466.4871,100.1912c5.1573,0,10.3164-.086,15.4712.0271,4.1535.0912,4.879.9013,4.9634,5.0638.064,3.16.0867,6.3239-.01,9.4818-.1056,3.4378-.7747,4.3054-4.0314,4.3368q-16.4682.1586-32.939.0033c-3.0831-.0271-3.794-.842-3.902-3.9065-.123-3.4894-.1056-6.9883-.01-10.4793.0961-3.512.9-4.3931,4.4883-4.484,5.32-.1349,10.6463-.0349,15.97-.0349Z" transform="translate(-28.0882 -99.0711)"/>
    <path class="cls-1" d="M596.5266,109.0412a10.1114,10.1114,0,0,1-9.8928,9.8186c-5.4667-.0121-9.7655-4.7468-9.5639-10.534a9.552,9.552,0,0,1,9.7223-9.252A10.1224,10.1224,0,0,1,596.5266,109.0412Zm-17.7289-.1571c.0009,5.0483,3.0933,8.2151,7.9567,8.1481a7.829,7.829,0,0,0,8.0207-8.2738c-.0787-4.7264-3.5319-7.9558-8.3994-7.8552C581.6915,101,578.7968,104.0487,578.7977,108.8841Z" transform="translate(-28.0882 -99.0711)"/>
    <path class="cls-1" d="M590.4833,114.8361c-.7311-1.67-2.43-4.6372-4.43-4.8639-.1307-.0148-.225-.0463-.288.0692-.74,1.3581-.8492,4.48-1.5652,4.5676-.9417.1158-.3365.172-.3339.0111.07-4.3735.7285-11.5118-.034-11.1979-1.93.7943,4.4709-.11,6.1488.974,1.6416,1.0607,1.065,4.1414.2853,4.2729-2.281,1.2742,2.15,6.0565.5215,6.0583C589.2216,114.7291,590.5443,114.9756,590.4833,114.8361Zm-.8518-8.0671a2.7605,2.7605,0,0,0-2.28-1.5151c-1.4053.0088-1.9609.6471-2.1542,1.2368.3457.8557.6374,1.4647,1.4174,1.486A3.0078,3.0078,0,0,0,589.6315,106.769Z" transform="translate(-28.0882 -99.0711)"/>
  </g>
</svg>
