<svg id="Layer_1" data-name="Layer 1" xmlns="http://www.w3.org/2000/svg" viewBox="0 0 148.84 69.83"><defs><style>.cls-1{fill:#fff;}</style></defs><path class="cls-1" d="M92.16,164.76c-.68,3.31-1.37,6.61-2,9.92s-1.35,6.62-2,10h-12c3.61-17.43,7.22-34.81,10.84-52.27H98.54l-.72,4,.18.12c.23-.23.48-.45.69-.69a11.86,11.86,0,0,1,6.34-4.09c4.32-.92,8.49-.76,12.13,2.2a12.82,12.82,0,0,1,4,6.26,25.1,25.1,0,0,1,.8,10.66,26.14,26.14,0,0,1-3.39,10.39c-2.56,4.33-6.09,7.48-11.07,8.7a18.29,18.29,0,0,1-8.42.07,9.38,9.38,0,0,1-5.93-4.15l-.71-1.1ZM94.54,154c.08.62.13,1.54.32,2.43a5.79,5.79,0,0,0,6,4.91,7.34,7.34,0,0,0,6.25-3.2A16.59,16.59,0,0,0,110,145.27c-.67-3.91-3.89-5.19-7.1-4.79A7.56,7.56,0,0,0,97.51,144C95.49,146.88,94.76,150.2,94.54,154Z" transform="translate(-76.09 -114.83)"/><path class="cls-1" d="M177.65,169.33H165.77c0-.38.08-.76.15-1.13Q168,158.62,170,149c.22-1,.4-2,.56-3.06a5.81,5.81,0,0,0-.3-2.83c-.69-2-2.64-2.91-4.82-2.74a7.66,7.66,0,0,0-6.73,4.64,30.93,30.93,0,0,0-2.08,7.1c-1.14,5.46-2.26,10.93-3.4,16.39a4.56,4.56,0,0,1-.29.8H141.25a4.78,4.78,0,0,1,0-.93q2.16-10.41,4.33-20.84,1.53-7.31,3-14.63c0-.15.08-.3.14-.53h11.95l-.95,4.51c.43-.39.64-.56.82-.76a15,15,0,0,1,8.62-4.56,17.13,17.13,0,0,1,6.54,0,9.13,9.13,0,0,1,7.55,8.7,29.88,29.88,0,0,1-1,8.52c-1.46,6.46-2.89,12.92-4.34,19.37C177.88,168.54,177.76,168.92,177.65,169.33Z" transform="translate(-76.09 -114.83)"/><path class="cls-1" d="M203.07,170.52a21.84,21.84,0,0,1-9.53-2,13.21,13.21,0,0,1-7.71-10.05c-1.13-6.76,0-13.15,4.07-18.79a19.82,19.82,0,0,1,13.83-8.14,24,24,0,0,1,9.72.48c6.22,1.71,10.14,5.7,11.13,12.09a23.72,23.72,0,0,1-4.21,18.29,19.1,19.1,0,0,1-12.91,7.7C206,170.33,204.53,170.39,203.07,170.52Zm10-22.35a38.57,38.57,0,0,0-.65-3.87c-.92-3.43-3.79-4.79-7.29-4a7.94,7.94,0,0,0-5.09,4.07,18.43,18.43,0,0,0-2.3,6.39,14.07,14.07,0,0,0,.17,6.64,5.52,5.52,0,0,0,3.95,4.12,7.24,7.24,0,0,0,4.34-.26,8.51,8.51,0,0,0,4.61-4.16A20,20,0,0,0,213,148.17Z" transform="translate(-76.09 -114.83)"/><path class="cls-1" d="M134.32,169.34h-12l7.66-37h12C139.43,144.72,136.88,157,134.32,169.34Z" transform="translate(-76.09 -114.83)"/><path class="cls-1" d="M131.85,121.71c-.1-3,2.58-6,5.57-6.67a7.08,7.08,0,0,1,2.72-.14,5.28,5.28,0,0,1,4.28,6.68,7.3,7.3,0,0,1-8.88,5.11A4.87,4.87,0,0,1,131.85,121.71Z" transform="translate(-76.09 -114.83)"/></svg>