<svg xmlns="http://www.w3.org/2000/svg" viewBox="0 0 150 71"><path fill-rule="evenodd" clip-rule="evenodd" d="M63.215 1c-3.498.022-6.818 2.849-7.275 6.199-.471 3.459 2.094 6.14 5.593 6.118 3.496-.022 6.798-2.741 7.271-6.199C69.262 3.769 66.712.976 63.215 1z"></path><path d="M54.068 18.497h12.195l-7.747 37.23H46.321l7.747-37.23zM72.873 18.497h12.196l-1.004 4.519h.144c1.793-2.51 6.311-5.594 12.839-5.594 6.671 0 10.688 4.088 10.688 10.473 0 2.439-.86 6.169-1.291 8.034l-4.447 19.799H89.802L94.035 36c.359-1.722.718-3.3.718-4.735 0-2.94-1.865-4.519-4.448-4.519-7.532 0-8.396 7.102-9.687 13.199l-3.299 15.782H65.124l7.749-37.23zM121.776 40.161c0-5.022 2.583-13.773 9.183-13.773 4.589 0 6.167 3.299 6.167 7.962 0 5.738-2.437 13.485-9.397 13.485-4.302.001-5.953-3.442-5.953-7.674zm-12.193.43c0 10.976 7.529 16.212 17.86 16.212 13.487 0 21.879-9.684 21.879-22.955 0-10.688-7.389-16.427-17.574-16.427-13.486 0-22.165 9.971-22.165 23.17zM33.156 17.421c-5.092 0-8.32 1.865-11.117 5.452h-.144l.862-4.376H10.919L0 71h12.18l4.121-20.079h.143c2.224 4.376 6.025 5.882 10.832 5.882 12.697 0 19.152-12.266 19.152-23.241 0-8.537-3.875-16.141-13.272-16.141zM24.98 47.478c-4.448 0-6.241-3.3-6.241-7.246 0-5.452 2.655-13.486 9.11-13.486 5.524 0 6.385 4.16 6.385 7.461-.001 5.523-2.511 13.271-9.254 13.271z"></path></svg>