<svg id="Layer_1" data-name="Layer 1" xmlns="http://www.w3.org/2000/svg" viewBox="0 0 217 40">
  <defs>
    <style>
      .cls-1 {
        fill: #bc5f28;
        stroke: #f1f2f2;
        stroke-miterlimit: 10;
        stroke-width: 2px;
      }

      .cls-2 {
        font-size: 13px;
        font-family: ArialMT, Arial;
        letter-spacing: 0.05em;
      }

      .cls-2, .cls-5 {
        fill: #fff;
      }

      .cls-3 {
        letter-spacing: 0.0319em;
      }

      .cls-4 {
        letter-spacing: 0.05em;
      }
    </style>
  </defs>
  <rect class="cls-1" x="1" y="1" width="215" height="38" rx="5.5479"/>
  <text class="cls-2" transform="translate(56.2871 24.9785)">DOMLUVI<tspan class="cls-3" x="63.7803" y="0">T</tspan><tspan class="cls-4" x="72.1357" y="0" xml:space="preserve"> SCHŮZKU</tspan></text>
  <g>
    <path class="cls-5" d="M84.5938,155.9268v-16.69a1.7892,1.7892,0,0,0-1.7872-1.7871h-4.248v-.5859a1.7578,1.7578,0,0,0-3.5156,0v.5859H65.5508v-.5859a1.7578,1.7578,0,1,0-3.5156,0v.5859H57.7871A1.7891,1.7891,0,0,0,56,139.2372v21.7383a1.7891,1.7891,0,0,0,1.7871,1.7871h7.9864a.5859.5859,0,1,0,0-1.1718H57.7871a.6159.6159,0,0,1-.6152-.6153V139.2372a.6159.6159,0,0,1,.6152-.6152h4.2481v.5859a1.7578,1.7578,0,1,0,3.5156,0v-.5859H75.043v.5859a1.7578,1.7578,0,1,0,3.5156,0v-.5859h4.248a.6159.6159,0,0,1,.6153.6152v2.9H61.2734a.586.586,0,0,0,0,1.1719H83.4219v11.6272a5.475,5.475,0,0,0-1.6406-.6932v-8.7074a.586.586,0,0,0-.586-.586H59.3984a.586.586,0,0,0-.5859.586v13.8281a.5859.5859,0,0,0,.5859.5859H74.9959a5.4682,5.4682,0,0,0,.3615,1.6407H70.4609a.5859.5859,0,1,0,0,1.1718h5.5256a5.5056,5.5056,0,1,0,8.6073-6.8358ZM64.3789,139.2079a.586.586,0,1,1-1.1719,0v-2.3437a.586.586,0,0,1,1.1719,0Zm13.0078,0a.586.586,0,1,1-1.1719,0v-2.3437a.586.586,0,0,1,1.1719,0Zm3.1055,14.8829a5.5287,5.5287,0,0,0-.8022.0586H77.4219v-3.3985h3.1875v3.3413C80.57,154.0914,80.5314,154.0908,80.4922,154.0908Zm-5.4467,4.6875h-1.983v-3.4571H76.25v.7684A5.4865,5.4865,0,0,0,75.0455,158.7783Zm-15.0611-8.0274h3.1875v3.3985H59.9844Zm4.3593,0h3.1876v3.3985H64.3437Zm8.7188,0H76.25v3.3985H73.0625Zm-1.1719,3.3985H68.7031v-3.3985h3.1875Zm1.1719-4.57v-3.457H76.25v3.457Zm-1.1719,0H68.7031v-3.457h3.1875Zm-4.3593,0H64.3437v-3.457h3.1876Zm0,5.7422v3.4571H64.3437v-3.4571Zm1.1718,0h3.1875v3.4571H68.7031v-3.4571Zm11.9063-5.7422H77.4219v-3.457h3.1875Zm-17.4375-3.457v3.457H59.9844v-3.457Zm-3.1875,9.1992h3.1875v3.4571H59.9844Zm20.5078,8.6133a4.336,4.336,0,1,1,4.3359-4.3359A4.3409,4.3409,0,0,1,80.4922,163.9345Z" transform="translate(-41.5 -130)"/>
    <path class="cls-5" d="M82.1872,158.1784l-1.8122,1.8122-.8064-.8063a.5859.5859,0,0,0-.8287.8286l1.2207,1.2207a.5861.5861,0,0,0,.8287,0l2.2265-2.2266a.5859.5859,0,1,0-.8286-.8286Z" transform="translate(-41.5 -130)"/>
    <path class="cls-5" d="M68.1172,161.5908a.586.586,0,1,0,.4142.1716A.5908.5908,0,0,0,68.1172,161.5908Z" transform="translate(-41.5 -130)"/>
    <path class="cls-5" d="M59.3439,143.1378a.5856.5856,0,1,0-.4142.1717A.59.59,0,0,0,59.3439,143.1378Z" transform="translate(-41.5 -130)"/>
  </g>
</svg>
