<svg id="Layer_1" data-name="Layer 1" xmlns="http://www.w3.org/2000/svg" viewBox="0 0 1181.56 275.34"><defs><style>.cls-1{fill:#fff;}.cls-2{fill:#e1001a;}</style></defs><path class="cls-1" d="M334.62,77.16h62.82v58.18a15.06,15.06,0,0,0,2.39-1.44,48.47,48.47,0,0,1,19.31-11.25,30.82,30.82,0,0,1,6.77-1.77c1.88-.15,3.71-.76,5.59-.93s3.66,0,5.49,0c7.09-.21,13.71,1.84,20.15,4.4a26.47,26.47,0,0,1,7.91,4.92c5.44,5,10.95,10,12.78,17.59a46.3,46.3,0,0,1,1.45,6.36c.49,5,1,10,1,15q.1,82.46,0,164.9v5H417.38v-4.88q0-79.72,0-159.43a77.2,77.2,0,0,0-1-10c-.34-2.54-3.59-5.53-6.16-5.93-5.8-.92-9.5,2-10.89,7.77a41.32,41.32,0,0,0-.9,10.07c0,6.69-1.46,13.27-1.09,20s.08,13.61.08,20.42V337.63c-4.1.77-47.64,1-62.78.36Z" transform="translate(-20.48 -66.98)"/><path class="cls-1" d="M584.25,124H647V337.94h-63.9c.73-3.49-.79-7,1-10.53.79-1.59.14-3.88.14-6.29-2.49,2.7-4.81,5-6.85,7.49a36.41,36.41,0,0,1-15.53,10.55,47.1,47.1,0,0,1-10.15,2.23c-2.3.18-4.75,1-7.09.7C536.91,341,529,340.81,522,336.48c-5.55-3.44-10.43-7.3-13.27-13.33-1.06-2.23-2.48-4.3-3.35-6.59a37.87,37.87,0,0,1-1.78-6.7c-.46-2.63-1.3-5.35-1.19-8,.53-13.18-1.23-26.28-1.17-39.45.22-46,.08-92,.08-138,4.08-.7,51.54-.93,63.95-.29V129q0,80.46,0,160.94a38.73,38.73,0,0,0,1,9.05c.49,2.08,2.15,3.31,3.74,4.27a10.35,10.35,0,0,0,9.59,0,7.37,7.37,0,0,0,3.65-5.85c.35-4.18.8-8.36,1-12.54s0-8.31,0-12.46Z" transform="translate(-20.48 -66.98)"/><path class="cls-1" d="M929,248.48h59.95c0,8.61-.14,17,.05,25.47.11,5.06-1.81,9.95-1.05,15-2.17,7.06-3.54,14.24-7.66,20.79-4,6.32-8.15,12.28-13.68,17.18a56,56,0,0,1-15.55,9.4c-5.54,2.35-11.48,2.68-17,4.8a1.15,1.15,0,0,1-.49,0c-6.24-.53-12.33,1.71-18.57,1-2.36-.28-4.72-.64-7.07-1-2.2-.33-4.63.9-6.58-1-3.92.43-7.46-1.2-11.17-2-6.6-1.39-12.51-4.42-18.27-7.7a40.19,40.19,0,0,1-11.19-9.13,58.05,58.05,0,0,1-6.28-8.37c-1.65-2.92-4.4-5.4-4.39-9.13-2.73-4.73-3.17-10-4.18-15.25-.56-2.9-.34-5.78-.86-8.58-1.92-10.29-.67-20.66-.9-31s-.05-20.93-.05-31.39,0-20.92,0-31.38a38.38,38.38,0,0,1,1-6.06c.36-2-.94-4.31,1-6.07-.33-3.73,1.09-7.12,1.94-10.64,1.85-7.71,3.48-11.55,8-18.13,5.75-8.38,13.54-14.31,22.72-18.45a62,62,0,0,1,16.87-5.15c4.22-.61,8.43-1.54,12.68-1.8,4.48-.28,9-.16,13.48,0,2,.07,4,.7,6.08.93a61.51,61.51,0,0,1,6.13.78c2,.42,4,1,6,1.3,1.8.27,3.5,1.18,5.27,1.69,5.9,1.68,11.11,4.72,16.09,8.15,3.28,2.26,6.69,4.54,9.35,7.44a56.28,56.28,0,0,1,10.23,15.16A68.53,68.53,0,0,1,986,172.25c.87,5.53,1.2,11.13,2.1,16.59,1.23,7.56.5,15,.74,22.54s0,15.22,0,23H907v4c0,15.78-.07,31.55,0,47.33a99.44,99.44,0,0,0,1,11.54c.47,3.78,6.33,7.87,10.07,7a18.47,18.47,0,0,0,5.2-1.87c2.31-1.33,3.06-3.95,4.27-6.16a2.64,2.64,0,0,0,.4-.83c.35-3.18.93-6.36,1-9.55C929,273.55,929,261.26,929,248.48Zm-22-49h19c0-4.31-.26-8.46.06-12.56.54-6.91-1.38-13.64-1.2-20.52,0-1.59-1.22-3.53-1.65-5.2-.61-2.32-2.48-2.72-3.77-3.23a9,9,0,0,0-5.88-.06c-2.71.95-5.19,2.92-5.44,6-.22,2.72-.93,5.4-1,8C906.82,181.06,907,190.18,907,199.47Z" transform="translate(-20.48 -66.98)"/><path class="cls-1" d="M154.74,191.54H98.65c0-5.2-.22-10.47.1-15.71.14-2.38-1.15-4.31-1.12-6.57a26.78,26.78,0,0,0-.79-6.61c-.66-2.75-2.53-3.72-4.45-4.52a10.35,10.35,0,0,0-13.2,5.69,22,22,0,0,0-1.46,6.35,57,57,0,0,0,0,9,45.89,45.89,0,0,0,1.33,7.41,15,15,0,0,0,5.36,8.16,109.16,109.16,0,0,0,17.19,11.42c6.6,3.36,13.05,7,19.64,10.44a194.87,194.87,0,0,1,17.16,10.36,45.67,45.67,0,0,1,7,6,62.77,62.77,0,0,1,5.65,6.63,17.62,17.62,0,0,1,2.14,4.08c2,4.89,3.87,9.71,4.63,15.09.6,4.22.54,8.38.8,12.57a21,21,0,0,0,.57,2.24c.18.93.69,2.09.34,2.79-1.89,3.77-.69,7.73-.89,11.58A84.26,84.26,0,0,1,153.2,313a24.25,24.25,0,0,1-6.26,9.37c-1.22,1.12-2.4,2.31-3.54,3.52-5.2,5.52-11.81,8.8-18.83,11.15-4.42,1.48-8.84,3.43-13.72,3.08-2.7,1.65-5.71.72-8.57,1-2.7.28-5.3,1-8.08,1.07-5.74.16-11.31-1.86-17.07-1.09-3.67-1.48-7.66-1.45-11.48-2.38-7.46-1.8-14.22-5.09-20.92-8.6-4.87-2.56-14-11.54-16.09-17.36a120.87,120.87,0,0,1-4-12.3c-2.93-12.43-1.58-25-2-37.9,1.3-.07,2.55-.18,3.81-.18q23.48,0,46.95,0h1c4,0,4.24.2,4.25,4.1,0,7.31-.09,14.61,0,21.92a52.89,52.89,0,0,0,1,9c.87,4.42,7.32,8.08,11.69,6.38,1.82-.72,4-.12,5.63-2.25a15.57,15.57,0,0,0,3.53-8.52,102.28,102.28,0,0,0,0-16.42c-.44-4.08-.75-8.67-4.62-11.48-3.3-2.38-6.69-4.65-10.19-6.72-4-2.38-8.11-4.65-11.92-7.38A68.85,68.85,0,0,0,66.46,247c-4-2.16-7.76-4.56-11.58-6.91-4.41-2.72-8.65-5.72-12.83-8.79-2.6-1.92-5-4.15-7.37-6.32a36.54,36.54,0,0,1-11-18.88c-.83-3.34-1.48-6.75-2.22-10.08-.94-4.26-.6-8.4-.75-12.59s-.59-8.73.11-12.93c.76-4.54.52-9.27,1.95-13.61,1.71-5.24,3.22-10.57,6.46-15.28a37.89,37.89,0,0,1,13.6-11.71,99.53,99.53,0,0,1,12.1-5.7A48.21,48.21,0,0,1,64.51,122c3.16-.51,6.29-1.56,9.57-1,2.83-2.14,6.06-.69,9.09-.93a55.34,55.34,0,0,1,10,0c7.38.75,14.85,1.08,21.88,3.81,4.77-.2,8.55,2.74,12.71,4.28,3.58,1.32,6.7,4,9.85,6.32a43.59,43.59,0,0,1,11.63,13.52,33.17,33.17,0,0,1,3.54,9c1,4.22.05,8.52,1,12.54C155.45,176.81,153.94,184.11,154.74,191.54Z" transform="translate(-20.48 -66.98)"/><path class="cls-1" d="M259.52,249.62h56v4.21c0,4.48.12,9,0,13.45-.22,6.51-.15,13.09-1.16,19.49-.55,3.46-.53,7.16-2.19,10.51-1.57,3.15-2.29,6.74-4,9.78-3.67,6.47-7.38,13-13,18.05a67.42,67.42,0,0,1-10.75,7.77,64.74,64.74,0,0,1-9.2,4.31,96.6,96.6,0,0,1-9.3,2.84c-3.19.92-6.68.82-10,1.12-4.35.4-8.68,1.67-13.07,1-8.27-1.31-16.91-.41-24.83-3.95-7.11-.58-12.81-4.6-18.61-8.06-6.63-3.95-14.4-13.57-17.26-21-1.93-5-4.49-10-4.42-15.62-1.76-2.06-.26-4.8-1.37-6.9-1.26-2.4-.09-4.88-.65-7.21-2.05-8.45-.83-17-.9-25.51-.21-23.25-.08-46.51-.06-69.76,0-2.55-.11-5,.86-7.6.88-2.31-.65-5.19,1.13-7.52-.37-3.74.84-7.22,2-10.61a48.55,48.55,0,0,1,7.58-13.85c4.52-5.81,10.23-10.06,16.25-13.83a54.35,54.35,0,0,1,18.73-7.83c3.88-.73,7.81-1.28,11.63-2.1,5.75-1.24,11.43-.43,17.11-.8a13.87,13.87,0,0,1,6.11.91c1.88.73,4.29-.86,6.05,1.07,3.4-.19,6.54.91,9.66,2,9.26,3.24,18,7.35,24.91,14.62,1.49,1.56,3.06,3.06,4.59,4.58,2.87,2.87,4.95,7.49,7.36,11.89,2.54,4.62,3,9.72,4.7,14.51,1.13,3.24,1,7,1.11,10.5s1.51,6.9,1.12,10.56a105.18,105.18,0,0,0-.08,11v3h-59v-4.34c0-7.64.11-15.28,0-22.92a95.06,95.06,0,0,0-1-11.54,9,9,0,0,0-12.85-7,7.66,7.66,0,0,0-3.9,4.55,24.09,24.09,0,0,0-1.15,8q-.11,57.8,0,115.6a34.22,34.22,0,0,0,4,13.8c1.49,2.38,6.27,3.64,9.14,3.12a7.75,7.75,0,0,0,5.41-3.69,19.71,19.71,0,0,0,2.51-7.43c1.93-13.13.44-26.32.92-39.46C259.55,252,259.52,250.9,259.52,249.62Z" transform="translate(-20.48 -66.98)"/><path class="cls-1" d="M670.33,77.16H735V337.69c-4,.67-52.32.9-64.64.28Z" transform="translate(-20.48 -66.98)"/><path class="cls-1" d="M758.25,77.16h64.64V337.69c-3.94.67-52.33.9-64.64.28Z" transform="translate(-20.48 -66.98)"/><path class="cls-1" d="M1010.05,124h62.82c-.41,1.83.88,3.8-1,5.42-.08.07,0,.32,0,.49q-.46,9.74-.91,19.47c0,.12.22.24.34.35a68.7,68.7,0,0,1,17.32-22.06c4.26-3.5,9.44-5.23,14.66-6.74,2-.57,4-.82,6.31-1.27v76c-2.37,0-4.83,0-7.29,0a34.91,34.91,0,0,0-17.94,4.9,21.94,21.94,0,0,0-9.59,12.94c-.9,3.7-.43,7.42-1,11.05-1.87,12.46-.63,25-.87,37.44s-.05,25.23-.05,37.85v38.08h-62.79Z" transform="translate(-20.48 -66.98)"/><path class="cls-2" d="M1110.89,338V248.64h90.36c.71,4.08,1,74.44.3,89.36Z" transform="translate(-20.48 -66.98)"/><path class="cls-1" d="M520.46,67.18H561.1v41.3c-3.94.67-28.09.86-40.64.29Z" transform="translate(-20.48 -66.98)"/><path class="cls-1" d="M629.12,67.26v41.53h-39.4c-.68-3.94-.88-28.71-.3-41.53Z" transform="translate(-20.48 -66.98)"/><path class="cls-1" d="M1202,103.45c-.75,3.75-1,8.15-2.56,12a36.62,36.62,0,0,1-7.54,11.84,48,48,0,0,1-13.18,9.16c-1.47.75-3.41-.5-4.44,1.33-3.57-.25-6.92,1.8-10.53,1.06-6.39-1.33-12.63-2.8-18.25-6.56A36.91,36.91,0,0,1,1134,119.16c-1.83-3.26-3.42-7-3.19-11.11.09-1.73.37-3.57-1-5.06,1.7-2.32.12-5.35,1.24-7.42.85-1.57.24-3.13,1.14-4.54s1.93-2.56,1.62-4.3c3-3.94,5.2-8.68,9.43-11.46s8.08-5.87,13.28-6.42c.13,0,.24-.33.35-.33,4.5.13,8.89-3.21,13.47-.43,3.14-.45,5.79,1.18,8.66,1.94a23.11,23.11,0,0,1,8.93,4.86c4.29,3.61,8.21,7.69,10.29,13.11a53.42,53.42,0,0,1,2.41,6.45C1201.28,97.22,1201.53,100.09,1202,103.45Zm-67.36-.14c.11,2.46-.33,5.11.45,7.34,2.56,7.37,6.17,14.13,13.25,18.35,8.71,5.21,15.83,7.26,25,4.55,7.21-2.12,8.8-2.53,14.9-8.63,3.78-3.78,7-8,7.91-13.16.73-4.17,2.25-8.27.75-13-1.89-6-2.21-9.62-5.27-13.77a57.88,57.88,0,0,0-6.75-7.18c-2.12-2-10.58-5.56-13.09-5.72-1.63-.1-3.78.42-4.76-.42-2-1.68-2.85.65-4.41.55-7.25-.44-13.11,3.21-18.16,7.76A28.41,28.41,0,0,0,1134.68,103.31Z" transform="translate(-20.48 -66.98)"/><path class="cls-1" d="M1172.58,105.37c2.42,5.79,6.33,10.63,9.13,16.31h-7.49c-2.39-4.47-5-9.19-7.45-13.94a2.88,2.88,0,0,0-3.09-1.8c-1.14.11-2.31,0-3.81,0v15.82H1154V84c6,0,12-.12,17.9,0,4.4.12,9.32,4.52,9.78,8.85a11.9,11.9,0,0,1-.48,6.22C1179.56,103,1177.41,104.82,1172.58,105.37ZM1159.94,89v12.24c4-1,7.81.53,11.68-1.18s4.75-3.57,3.35-7.49c-1.23-3.46-4.13-3-6.5-3.46C1165.75,88.66,1162.89,89,1159.94,89Z" transform="translate(-20.48 -66.98)"/></svg>