<svg id="Layer_1" data-name="Layer 1" xmlns="http://www.w3.org/2000/svg" viewBox="0 0 1131.89 178.96"><defs><style>.cls-1{fill:#fff;}</style></defs><path class="cls-1" d="M469.06,235.51H435.38V63.39h62.27L540.4,171.85l1.09.06c14.74-36.07,29.15-72.29,43.88-108.5h59.18V235.54c-14.92.49-29.83.07-45,.25-1-5.2-.36-10.16-.47-15.07s0-10,0-15V116.51l-1-.22-49.43,121c-9.76.08-19.68.06-30,0l-48-119.83c-2.17,1.81-1.51,3.57-1.51,5.05,0,17.33,0,34.66,0,52v61Z" transform="translate(-26.3 -60.21)"/><path class="cls-1" d="M846.34,63.23h55.55L960,176.52l.92-.15v-113h33.71v172h-54l-59-113.36a7.41,7.41,0,0,0-1.15.2,1,1,0,0,0-.29.35,1,1,0,0,0-.19.45q0,56,0,111.83c-3.81,1-27.42,1.26-33.75.34Z" transform="translate(-26.3 -60.21)"/><path class="cls-1" d="M278.45,63.4H401c1,3.34,1.33,22.54.38,30.73-6.14.43-12.4.15-18.65.19-6.5.05-13,0-19.5,0H325.05v38.87h66.56v28.57c-5.45.19-10.89.06-16.31.08-5.67,0-11.34,0-17,0H325.09v40.82c5.07.24,10.18.07,15.27.1,5.34,0,10.67,0,16,0h47.16V235c-3.69.9-118.9,1.12-125.07.21Z" transform="translate(-26.3 -60.21)"/><path class="cls-1" d="M814.06,202.8v32.64H689.28v-172H811.55c1,3.85,1.13,24.92.17,30.79H736.25c-1.18,4-1.51,30.13-.56,38.78,5.29.53,10.73.17,16.14.24,5.66.06,11.33,0,17,0H802v28.37c-4.36.56-8.81.18-13.23.25s-8.66,0-13,0H735.57V202.7c13.2.22,26.3.07,39.39.09C787.9,202.82,800.85,202.8,814.06,202.8Z" transform="translate(-26.3 -60.21)"/><path class="cls-1" d="M1029.34,232.66V199c1.9.51,3.57.94,5.23,1.42,16.37,4.8,33,8.06,50.14,7.5,6.51-.22,13-1,18.91-4,6.38-3.26,9-8.94,7.42-15.81a13.33,13.33,0,0,0-6.84-8.82c-4.63-2.6-9.4-5-14.23-7.22-11-5.08-22.21-9.81-33.13-15.09a87.22,87.22,0,0,1-14.42-8.89c-10.3-7.76-15.63-18.42-16.4-31.22a66.94,66.94,0,0,1,.51-13.94c2.07-13.69,9.48-23.9,21.23-31.09,10.43-6.38,21.89-9.47,33.93-10.88,17.61-2.06,34.88.55,52.13,3.55,3.42.59,6.83,1.31,10.18,2,1,3.73,1.31,22.8.47,32.47-1.56-.49-3.06-.9-4.51-1.43-15-5.49-30.41-8.67-46.46-7.47a49.72,49.72,0,0,0-11.23,2.12,19.57,19.57,0,0,0-7.24,4.19c-5.87,5.46-5.17,13.94,1.36,18.53a46.4,46.4,0,0,0,7,3.87c10.83,5.11,21.81,9.92,32.52,15.27A239.58,239.58,0,0,1,1138,146.54c17.18,11,22.2,27.47,19.48,46.82-2,14.23-9.75,24.87-21.64,32.66-10.24,6.7-21.63,10.29-33.62,11.82-23.56,3-46.85.64-70-4.26C1031.32,233.37,1030.41,233,1029.34,232.66Z" transform="translate(-26.3 -60.21)"/><path class="cls-1" d="M144.89,66.44V98.93c-1.71-.58-3.22-1.05-4.7-1.58-14.88-5.33-30.1-8.44-46-7.4a38.18,38.18,0,0,0-14.48,3.39c-4.45,2.16-7.4,5.52-7.86,10.73-.42,4.8,1.27,8.57,5.38,11,3.72,2.19,7.59,4.14,11.49,6,11.25,5.38,22.66,10.45,33.8,16a145.91,145.91,0,0,1,17.55,10.47C154.8,157.76,160,172.34,158.5,189.7c-1.52,17.56-10.77,30-25.83,38.51a80.39,80.39,0,0,1-29.74,9.61c-23.72,3-47.17.67-70.42-4.33a24.6,24.6,0,0,1-2.37-.74v-33.4c8.82,2.07,17.33,4.34,26,6,12.46,2.43,25.06,3.81,37.71,1.57a37.14,37.14,0,0,0,11.28-3.67c8.64-4.73,9.53-15.89,1.92-22.2a40.6,40.6,0,0,0-8.47-5.21c-6.61-3.13-13.34-6-20-8.92-10.53-4.58-21-9.28-30.73-15.44-16.7-10.56-23-26-21.14-45.21C28.21,89.64,36.92,77.88,51.4,70c9.66-5.23,20.07-7.79,30.91-9.11,15.41-1.86,30.57.22,45.72,2.5C133.6,64.27,139.12,65.4,144.89,66.44Z" transform="translate(-26.3 -60.21)"/><path class="cls-1" d="M233.8,235.53H186.69c-.9-3.8-1.16-165.57-.27-172.1H233.8Z" transform="translate(-26.3 -60.21)"/></svg>